<svg width="24" height="24" viewBox="0 0 24 24" fill="none" xmlns="http://www.w3.org/2000/svg">
    <path
        d="M9.34575 8.70541L8.34855 9.7074C8.16205 9.8948 8.05707 10.1485 8.09835 10.4097C8.20692 11.0965 8.60299 12.5483 10.0478 14C11.4892 15.4483 12.9306 15.8478 13.6161 15.958C13.8788 16.0003 14.1342 15.894 14.3219 15.7054L15.3103 14.7122C15.7012 14.3194 16.337 14.3194 16.7279 14.7122L19.1905 17.1866C19.6184 17.6166 19.568 18.3255 19.0835 18.6906L16.5536 20.5972C16.2067 20.8586 15.7843 21.0001 15.356 20.9281C14.0245 20.7044 10.8285 19.7843 7.0622 16C3.17918 12.0984 2.93215 8.80571 3.01101 7.54731C3.03363 7.1864 3.21596 6.86464 3.47105 6.60832L5.35811 4.7122C5.74902 4.31942 6.3848 4.31942 6.7757 4.7122L9.34575 7.29459C9.73402 7.68472 9.73402 8.31528 9.34575 8.70541Z"
        stroke="currentColor" stroke-linecap="round" />
    <path fill-rule="evenodd" clip-rule="evenodd"
        d="M21 9C21 9.55228 20.5523 10 20 10H14L12 12V4C12 3.44772 12.4477 3 13 3H20C20.5523 3 21 3.44772 21 4V9Z"
        stroke="currentColor" stroke-linecap="round" stroke-linejoin="round" />
    <path
        d="M14.585 6C14.3854 6 14.1911 6.0809 14.0505 6.22144C13.9091 6.36228 13.8291 6.55715 13.8291 6.75586C13.8291 6.95486 13.9091 7.14973 14.0505 7.29028C14.1911 7.43082 14.3863 7.51172 14.585 7.51172C14.7837 7.51172 14.9788 7.43082 15.1194 7.29028C15.2599 7.14973 15.3408 6.95486 15.3408 6.75586C15.3408 6.55715 15.2599 6.36228 15.1194 6.22144C14.9788 6.0809 14.7837 6 14.585 6Z"
        fill="currentColor" />
    <path
        d="M16.541 6C16.3414 6 16.1471 6.0809 16.0066 6.22144C15.8652 6.36228 15.7852 6.55715 15.7852 6.75586C15.7852 6.95486 15.8652 7.14973 16.0066 7.29028C16.1471 7.43082 16.3423 7.51172 16.541 7.51172C16.7397 7.51172 16.9349 7.43082 17.0754 7.29028C17.216 7.14973 17.2969 6.95486 17.2969 6.75586C17.2969 6.55715 17.216 6.36228 17.0754 6.22144C16.9349 6.0809 16.7397 6 16.541 6Z"
        fill="currentColor" />
    <path
        d="M18.4971 6C18.2975 6 18.1032 6.0809 17.9627 6.22144C17.8212 6.36228 17.7412 6.55715 17.7412 6.75586C17.7412 6.95486 17.8212 7.14973 17.9627 7.29028C18.1032 7.43082 18.2984 7.51172 18.4971 7.51172C18.6958 7.51172 18.8909 7.43082 19.0315 7.29028C19.172 7.14973 19.2529 6.95486 19.2529 6.75586C19.2529 6.55715 19.172 6.36228 19.0315 6.22144C18.8909 6.0809 18.6958 6 18.4971 6Z"
        fill="currentColor" />
</svg>
    