<svg width="24" height="24" viewBox="0 0 24 24" fill="none" xmlns="http://www.w3.org/2000/svg">
    <path
        d="M19 2C19 2 17 2.27943 17 5C17 6.5 17 9 17 9M19 2H5C3.89543 2 3 2.89543 3 4V20.382C3 21.1253 3.78231 21.6088 4.44721 21.2764L6.48094 20.2595C6.80192 20.099 7.18427 20.1228 7.48286 20.3219L9.4453 21.6302C9.7812 21.8541 10.2188 21.8541 10.5547 21.6302L12.5171 20.3219C12.8157 20.1228 13.1981 20.099 13.5191 20.2595L15.5528 21.2764C16.2177 21.6088 17 21.1253 17 20.382V9M19 2C19 2 21 2 21 4C21 5.27224 21 6.94913 21 8.00105C21 8.55333 20.5523 9 20 9H17"
        stroke="currentColor" />
    <path d="M6 15H13M13 12H6M13 8H6" stroke="currentColor" stroke-linecap="round" />
</svg>
    