<svg width="118" height="153" viewBox="0 0 118 153" fill="none" xmlns="http://www.w3.org/2000/svg">
<g clip-path="url(#clip0_52_471)">
<path d="M107.105 0H59.926C53.909 0 49.0312 4.88576 49.0312 10.9127V129.761C49.0312 135.787 53.909 140.673 59.926 140.673H107.105C113.122 140.673 118 135.787 118 129.761V10.9127C118 4.88576 113.122 0 107.105 0Z" fill="#063241"/>
<path d="M105.462 3.66937H61.7328C56.7787 3.66937 52.7627 7.69199 52.7627 12.6541V127.105C52.7627 132.067 56.7787 136.09 61.7328 136.09H105.462C110.416 136.09 114.432 132.067 114.432 127.105V12.6541C114.432 7.69199 110.416 3.66937 105.462 3.66937Z" fill="white"/>
<path d="M93.8634 1.81424H73.8987C72.6577 1.81424 71.6516 2.82193 71.6516 4.06498V6.925C71.6516 8.16805 72.6577 9.17574 73.8987 9.17574H93.8634C95.1044 9.17574 96.1105 8.16805 96.1105 6.925V4.06498C96.1105 2.82193 95.1044 1.81424 93.8634 1.81424Z" fill="#063241"/>
<path d="M69.8449 48.8387C75.7265 48.8387 80.4946 44.0629 80.4946 38.1716C80.4946 32.2803 75.7265 27.5045 69.8449 27.5045C63.9632 27.5045 59.1952 32.2803 59.1952 38.1716C59.1952 44.0629 63.9632 48.8387 69.8449 48.8387Z" fill="#0F6987"/>
<path opacity="0.41" d="M61.2289 44.4418C62.7423 46.5098 64.9489 47.9626 67.4444 48.5342C69.9399 49.1057 72.5575 48.7577 74.8178 47.5539C77.0781 46.3501 78.8299 44.3711 79.7524 41.9792C80.6748 39.5873 80.7062 36.9427 79.8409 34.5295C73.4114 37.3901 67.1919 40.7025 61.2289 44.4418Z" fill="#063241"/>
<path d="M26.8103 42.8186C28.0764 42.8186 29.1028 41.876 29.1028 40.7133C29.1028 39.5506 28.0764 38.6081 26.8103 38.6081C25.5443 38.6081 24.5179 39.5506 24.5179 40.7133C24.5179 41.876 25.5443 42.8186 26.8103 42.8186Z" fill="white"/>
<path d="M39.1351 36.8302C39.2836 37.6717 39.3731 38.5225 39.4029 39.3765C39.3328 40.0953 39.1679 40.8017 38.9127 41.4772C38.663 42.2183 36.534 44.6919 36.2888 44.7328C35.9158 44.6682 35.5556 44.5438 35.222 44.3645C34.7244 44.454 34.2115 44.3955 33.7467 44.1963C33.1339 43.8689 32.2986 42.5503 31.6903 42.5503C31.082 42.5503 30.1015 42.7412 29.9607 42.7412C29.82 42.7412 29.7928 42.1638 29.3842 42.1638C28.9757 42.1638 28.549 42.3684 28.2494 42.3684C27.5734 42.5879 26.9173 42.8647 26.2883 43.1959C26.2883 43.1959 27.3188 42.3547 27.6501 40.2268V39.8539C27.6501 39.8539 27.3233 40.2268 27.1962 39.7721C27.0691 39.3174 27.237 38.89 26.8693 38.1579C26.7535 37.9577 26.6876 37.7325 26.6774 37.5013C26.6671 37.2702 26.7127 37.0399 26.8103 36.8302L27.9634 38.067L27.8907 37.3895C27.8907 37.3895 28.953 35.3343 30.3875 35.0433C31.3258 34.8066 32.2889 34.683 33.2564 34.675C34.237 34.675 34.2824 34.0566 35.7123 33.2745C37.1422 32.4924 38.4996 32.5697 38.6221 33.0654C38.9246 34.2988 39.0966 35.5607 39.1351 36.8302Z" fill="#91693C"/>
<path d="M28.3447 38.117C28.3447 38.117 29.0302 34.6613 31.1456 35.3889C33.261 36.1164 32.8206 37.3304 33.5924 36.9575C34.3641 36.5847 35.794 32.6471 36.543 32.5106C37.2921 32.3742 38.0184 31.1966 36.543 31.8513C35.0677 32.5061 36.4477 32.929 35.0677 32.5106C33.6877 32.0923 34.0463 31.3739 32.1306 31.6558C30.215 31.9377 30.3602 31.6194 28.953 32.3197C27.5457 33.0199 27.7727 33.3064 26.4926 33.3518C25.2124 33.3973 24.4271 34.5204 25.1625 35.648C25.8979 36.7757 28.3447 38.117 28.3447 38.117Z" fill="url(#paint0_linear_52_471)"/>
<path d="M27.6184 37.9579L28.5989 38.9036C28.5989 38.9036 28.9575 34.8387 32.2033 36.4392L33.3881 37.2213L33.7467 36.6484C33.2512 36.0754 32.6296 35.6255 31.9309 35.3343C30.7143 34.7978 29.8382 34.8387 29.2708 35.3343C28.7033 35.8299 28.2403 37.6623 28.2403 37.6623L26.8149 36.9257L27.6184 37.9579Z" fill="#5F3919"/>
<path opacity="0.27" d="M27.2234 42.7912C28.2614 42.7912 29.1028 41.9484 29.1028 40.9088C29.1028 39.8692 28.2614 39.0264 27.2234 39.0264C26.1855 39.0264 25.3441 39.8692 25.3441 40.9088C25.3441 41.9484 26.1855 42.7912 27.2234 42.7912Z" fill="#662E22"/>
<path d="M29.9608 38.3398C29.9608 38.3398 29.4614 37.7942 30.8142 37.9351C32.167 38.0761 33.2474 39.4811 34.3414 38.3398C35.4354 37.1985 35.2175 34.8023 35.2175 34.8023V34.5249L33.4289 37.2212C33.4289 37.2212 32.5982 36.0709 31.6585 36.0936C30.7189 36.1163 29.7746 36.8302 29.9608 38.3398Z" fill="#6D3F1D"/>
<path d="M29.5068 39.6039C29.5068 39.6039 30.2104 40.827 29.5068 41.1498C29.1245 41.2761 28.8016 41.5381 28.5989 41.8865L28.6488 42.232L26.2701 43.1414C26.9755 42.1527 27.4417 41.0132 27.632 39.813C27.632 39.813 27.237 40.1859 27.178 39.7312C27.119 39.2765 27.0555 39.2765 26.9511 38.7036C26.8227 38.2722 26.7286 37.8313 26.6696 37.385C26.7059 37.0894 26.6696 36.3255 27.06 36.6802C27.4267 37.0887 27.7325 37.5481 27.9679 38.0443L28.2312 37.3668C28.3834 37.7463 28.6016 38.0958 28.8758 38.3989C29.1812 38.743 29.3978 39.1567 29.5068 39.6039Z" fill="#5F3919"/>
<path d="M36.0755 40.1586C36.0755 40.1586 36.9834 40.9771 37.2103 41.2771C37.4373 41.5772 37.6643 41.991 37.5962 42.0319C37.6673 42.6687 37.5183 43.3107 37.174 43.8507C36.5521 44.7601 36.5975 44.8329 36.0755 44.7374C35.7612 44.6829 35.4669 44.5464 35.222 44.3418C35.222 44.3418 34.9134 44.6464 35.0949 43.9371C35.2765 43.2278 35.6624 42.4548 35.6624 41.8637C35.6624 41.2726 35.4082 39.7948 36.0755 40.1586Z" fill="#6D3F1D"/>
<path d="M19.8195 22.7029C19.707 22.3663 19.5261 22.0567 19.2884 21.7935C18.9978 21.5616 17.8312 19.9429 18.7799 20.0975C19.3766 20.1953 19.9631 20.3475 20.5322 20.5522C20.5322 20.5522 19.7287 19.7019 20.5322 19.3927C21.3357 19.0835 20.8954 18.0059 20.8954 18.0059L21.0134 17.001C21.4434 17.3495 21.9202 17.6357 22.4297 17.8513C23.0879 18.0832 22.9427 18.2378 23.8914 18.3924C24.8402 18.547 24.6223 17.6967 24.6223 17.001C24.6223 16.3053 25.5711 16.228 25.8616 16.228C26.1521 16.228 26.5198 17.774 26.8103 17.5421C27.1009 17.3102 29.534 14.7639 30.0969 14.7639C30.6598 14.7639 30.3148 15.6142 30.6825 15.6733C31.0502 15.7324 32.2124 15.3641 31.9945 16.128C31.7766 16.8919 32.7344 17.0374 33.8965 15.6733C35.0586 14.3092 36.0119 15.4414 35.2584 15.9779C34.5048 16.5145 35.9166 16.2098 35.9166 17.2147V18.7198C36.5703 18.8334 38.4723 17.4466 38.6403 17.9104C38.8083 18.3742 39.294 19.1426 39.1487 19.8383C39.0035 20.534 38.9808 21.1524 39.176 21.1524C39.3712 21.1524 41.0462 21.6071 41.0462 21.6071C40.6831 22.9211 40.5923 21.6844 40.6831 22.9211C40.7739 24.1579 41.5592 24.1533 40.6831 25.0809C39.807 26.0085 41.9224 25.6993 42.4353 25.6993C42.9483 25.6993 44.2511 27.7818 43.3115 27.6272C42.3718 27.4726 42.4353 26.2631 42.3627 27.4726C42.2901 28.6821 42.7259 27.8955 41.7771 28.6094C40.8283 29.3232 39.6617 29.787 40.6104 29.787C41.5592 29.787 42.2946 30.5554 42.0722 30.8692C41.6182 31.4876 41.1189 31.3239 40.8283 31.6422C39.8796 32.7198 40.4652 32.7971 40.4652 32.7971C40.4652 32.7971 40.8283 31.8877 39.8796 32.7198C38.9308 33.5519 39.2214 33.802 39.6617 34.0339C40.102 34.2657 39.0035 34.5704 38.6403 34.8796C38.2771 35.1888 38.1319 35.9754 37.9821 36.8302L37.8368 37.676C37.8368 37.676 38.0547 35.6708 37.4691 34.3612C36.8835 33.0517 33.4562 32.3515 33.4562 32.3515C33.4562 32.3515 35.7895 32.2742 34.6228 33.7428C33.4562 35.2115 34.3323 33.1927 32.6527 33.1927C30.9731 33.1927 30.6054 33.0381 29.879 33.5792C29.1527 34.1202 26.883 34.3521 26.9556 35.2752C27.0282 36.1982 27.6138 38.5171 27.4096 38.0534C27.2053 37.5896 27.5548 38.2852 26.7513 37.2804C25.9478 36.2755 25.6437 36.6711 24.9673 35.9208C24.2909 35.1706 23.3603 34.7614 23.2877 34.3794C23.215 33.9975 21.9712 35.9981 21.826 35.1479C21.6807 34.2976 20.8817 33.2745 20.6775 33.2745C20.2689 33.4349 19.8805 33.6425 19.5199 33.8929C19.5199 33.8929 19.0069 34.2794 19.0069 33.0426C19.0069 31.8059 19.0432 32.0377 19.8286 31.8104C20.6139 31.5831 22.3662 31.0374 20.6139 30.1871C18.8617 29.3369 19.1522 29.2778 17.9855 28.623C16.8189 27.9682 17.4726 28.3365 17.9855 27.7955C18.4985 27.2544 19.9557 26.6996 19.0796 26.4314C18.2034 26.1631 16.3876 24.2397 17.3318 23.5486C18.2761 22.8575 20.0555 24.3989 19.8195 22.7029Z" fill="url(#paint1_linear_52_471)"/>
<path d="M36.2071 33.1927C36.0702 33.244 35.9452 33.3228 35.8396 33.4242C35.7341 33.5256 35.6503 33.6474 35.5934 33.7823C35.5365 33.9172 35.5076 34.0623 35.5085 34.2087C35.5095 34.3552 35.5402 34.4999 35.5988 34.6341C35.866 35.1515 35.9584 35.7419 35.8621 36.3164C35.8621 36.8484 36.3161 37.2531 36.5203 37.5805C36.7246 37.9079 36.1844 37.4395 36.1799 36.7711C36.1705 36.3637 36.2163 35.9568 36.3161 35.5616C36.3161 35.5616 36.0936 35.0342 35.9665 34.675C35.8394 34.3158 35.4082 33.7429 36.6702 33.1927H36.2071Z" fill="#6D3F1D"/>
<path d="M37.1332 38.7581C36.5657 38.7581 36.4613 38.408 36.4568 38.3898V38.3671C36.4568 38.3671 36.7065 37.876 36.4568 37.6396C36.29 37.4261 36.1712 37.1791 36.1085 36.9155C36.0459 36.6518 36.0408 36.3777 36.0936 36.1118C36.0992 35.9559 36.1315 35.8021 36.189 35.6571C36.248 35.498 36.2616 35.4662 35.903 34.7114C35.8158 34.5694 35.7641 34.4085 35.7523 34.2423C35.7404 34.0761 35.7688 33.9094 35.8349 33.7565C35.9072 33.6444 36.0032 33.5497 36.1162 33.479C36.2292 33.4082 36.3563 33.3633 36.4886 33.3473V33.461C36.3744 33.4769 36.2649 33.5167 36.1672 33.5778C36.0694 33.6389 35.9856 33.72 35.9211 33.8156C35.8636 33.9519 35.8402 34.1001 35.8529 34.2475C35.8655 34.3949 35.9139 34.5369 35.9938 34.6614C36.3615 35.4389 36.3569 35.498 36.2843 35.6935C36.2313 35.827 36.2006 35.9683 36.1935 36.1118C36.1442 36.3616 36.1478 36.619 36.2041 36.8673C36.2604 37.1156 36.3682 37.3493 36.5203 37.5532C36.7882 37.8169 36.593 38.2762 36.5203 38.3853C36.5567 38.4671 36.7428 38.7672 37.46 38.6081L37.4827 38.7172C37.3679 38.7427 37.2508 38.7564 37.1332 38.7581Z" fill="black"/>
<path d="M36.8381 42.9686C37.9437 42.9686 38.84 41.7858 38.84 40.3268C38.84 38.8678 37.9437 37.6851 36.8381 37.6851C35.7325 37.6851 34.8362 38.8678 34.8362 40.3268C34.8362 41.7858 35.7325 42.9686 36.8381 42.9686Z" fill="white"/>
<path d="M37.0288 42.232C37.6982 42.232 38.2408 41.4625 38.2408 40.5132C38.2408 39.564 37.6982 38.7945 37.0288 38.7945C36.3594 38.7945 35.8167 39.564 35.8167 40.5132C35.8167 41.4625 36.3594 42.232 37.0288 42.232Z" fill="#6D3F1D"/>
<path d="M36.4432 33.9838C36.5892 34.068 36.7165 34.1812 36.8172 34.3165C36.9179 34.4518 36.9899 34.6063 37.0288 34.7704C37.1532 35.0942 37.2193 35.4375 37.224 35.7844C37.2867 36.1622 37.2867 36.5479 37.224 36.9257L37.1014 37.2394C37.1014 37.2394 38.1319 34.8114 36.4432 33.9838Z" fill="#481E13"/>
<path d="M10.0641 145.257C10.0641 145.257 11.0355 142.983 11.3578 141.91C11.6802 140.837 12.9648 137.363 12.9648 137.363C12.9648 137.363 9.69639 136.522 9.14711 136.422C8.59783 136.322 6.76841 136.126 6.76841 136.126C6.76841 136.126 7.354 135.526 6.76841 138.441C6.53142 139.751 6.2284 141.049 5.8605 142.328C5.8605 142.328 6.50511 140.819 7.90782 141.896C9.31053 142.974 10.0641 145.257 10.0641 145.257Z" fill="#773B30"/>
<path d="M42.5079 141.364V148.712C42.5079 148.712 48.8633 150.222 47.574 150.531C46.2848 150.84 38.091 149.881 38.091 149.881L36.5793 141.364H42.5079Z" fill="#773B30"/>
<path d="M5.86049 142.342C5.86049 142.342 -0.140736 148.23 2.66922 152.145C5.47918 156.06 10.0641 145.257 10.0641 145.257C10.0641 145.257 8.51157 138.914 5.86049 142.342Z" fill="black"/>
<path d="M38.091 149.899V152.486L49.3808 153C49.3808 153 51.8503 152.886 50.6609 151.45C49.4716 150.013 47.1383 147.957 43.9606 149.076C43.9606 149.076 48.9177 150.681 48.2459 150.613C47.574 150.545 38.091 149.899 38.091 149.899Z" fill="black"/>
<path d="M4.20812 91.8709C4.09067 92.378 4.09067 92.9053 4.20812 93.4123C4.40332 94.3217 5.20227 96.3542 4.66207 96.4542C4.12187 96.5543 3.95845 96.0678 3.64068 95.2038C3.32291 94.3399 3.00061 93.4123 2.6783 93.9853C2.356 94.5582 1.84303 97.541 1.09402 97.6228C0.986429 97.6472 0.874757 97.6472 0.76717 97.6228C0.381312 97.4955 0.440326 96.9862 0.281443 96.7771C0.12256 96.5679 0.12256 96.9044 0.0590068 96.1041C-0.109816 94.974 0.0476996 93.8191 0.512958 92.7758C1.15303 91.4617 1.34369 91.1752 1.34369 91.1752C1.34369 91.1752 1.14395 90.9479 1.96106 91.2434C2.77817 91.539 4.20812 91.8709 4.20812 91.8709Z" fill="#91693C"/>
<path d="M45.9625 57.8553C45.9625 57.8553 43.4022 53.8585 47.1019 54.5451C50.8016 55.2317 49.7076 59.2421 54.2335 57.8553C58.7594 56.4684 59.2814 57.6143 62.0369 53.5811C64.7924 49.548 59.6083 58.5328 56.5895 59.0738C53.5707 59.6149 52.5539 59.6331 51.2374 59.3057C49.921 58.9784 45.9625 57.8553 45.9625 57.8553Z" fill="#FFC310"/>
<path d="M9.47849 81.0856C9.47849 81.0856 9.20612 79.8579 9.47849 76.5796C9.75086 73.3013 10.5816 72.1281 11.5803 69.3045C12.579 66.4808 12.7424 68.9771 12.7424 64.6575C12.7424 60.3379 14.1043 54.1632 15.0666 56.0183C16.0608 57.9917 15.7294 54.6543 16.0608 57.9917C16.3922 61.3292 16.0154 66.3126 16.0154 66.3126C16.0154 66.3126 10.568 77.8482 9.47849 81.0856Z" fill="#FFC310"/>
<path d="M22.929 73.6104C22.929 73.6104 33.7694 71.1687 37.4146 61.1564C37.4146 61.1564 37.5735 71.1687 22.929 73.6104Z" fill="#FFC310"/>
<path d="M59.1362 16.6554H60.6978C60.9285 16.6504 61.1593 16.6641 61.3878 16.6964C61.5328 16.7177 61.671 16.7722 61.7918 16.8555C61.9162 16.9393 62.0189 17.0515 62.0914 17.1829C62.1735 17.3202 62.2159 17.4776 62.214 17.6376C62.2128 17.817 62.1605 17.9924 62.0632 18.143C61.9659 18.2937 61.8276 18.4133 61.6647 18.4879C61.8816 18.5426 62.0746 18.6672 62.214 18.8425C62.3418 19.0109 62.409 19.2176 62.4046 19.4291C62.404 19.609 62.3621 19.7863 62.2821 19.9474C62.206 20.1099 62.0885 20.2495 61.9416 20.3521C61.7845 20.4568 61.6032 20.5195 61.415 20.534C61.2834 20.534 60.9611 20.5567 60.4663 20.5613H59.1362V16.6554ZM59.9215 17.3057V18.215H60.439C60.7417 18.215 60.9323 18.215 61.011 18.215C61.1295 18.2044 61.2412 18.1548 61.3288 18.0741C61.3675 18.0338 61.3975 17.9859 61.417 17.9335C61.4365 17.8811 61.4451 17.8253 61.4423 17.7694C61.4478 17.6618 61.4121 17.5561 61.3424 17.4739C61.2642 17.3935 61.1591 17.3449 61.0473 17.3375C60.9701 17.3375 60.7432 17.3375 60.3709 17.3375L59.9215 17.3057ZM59.9215 18.8607V19.902H60.6478C60.8282 19.9092 61.0089 19.9016 61.188 19.8792C61.3045 19.8655 61.4111 19.8072 61.4855 19.7165C61.56 19.6258 61.5965 19.5098 61.5875 19.3927C61.5894 19.2863 61.5593 19.1817 61.5013 19.0926C61.4402 19.0091 61.3545 18.947 61.2561 18.9153C61.0264 18.8673 60.7914 18.849 60.557 18.8607H59.9215Z" fill="black"/>
<path d="M64.915 20.5613V20.1384C64.8092 20.2889 64.6692 20.412 64.5064 20.4976C64.3441 20.5829 64.1632 20.6266 63.9798 20.6249C63.8013 20.628 63.6248 20.5858 63.4669 20.5021C63.3219 20.4232 63.207 20.2985 63.14 20.1475C63.0643 19.9489 63.0304 19.7369 63.0402 19.5246V17.7331H63.7846V19.0335C63.7739 19.2783 63.7876 19.5235 63.8255 19.7655C63.8547 19.8505 63.9084 19.9249 63.9798 19.9793C64.0614 20.0344 64.1585 20.0615 64.2568 20.0565C64.3783 20.0576 64.4972 20.0211 64.5972 19.952C64.6924 19.8878 64.7654 19.7957 64.806 19.6882C64.8557 19.4369 64.874 19.1803 64.8605 18.9244V17.7331H65.6095V20.5613H64.915Z" fill="black"/>
<path d="M66.0363 17.7331H66.8352L67.5071 19.7428L68.1698 17.7331H68.9415L67.9428 20.4612L67.7658 20.9523C67.7186 21.0849 67.6561 21.2115 67.5797 21.3297C67.5261 21.4135 67.4567 21.4861 67.3754 21.5434C67.2882 21.6021 67.1914 21.6452 67.0894 21.6707C66.9645 21.7009 66.8366 21.7162 66.7081 21.7162C66.5662 21.715 66.4248 21.6998 66.2859 21.6707L66.2178 21.0842C66.3224 21.1062 66.4288 21.1184 66.5356 21.1205C66.6076 21.1274 66.6801 21.117 66.7472 21.0901C66.8143 21.0632 66.8741 21.0206 66.9215 20.9659C67.0099 20.8493 67.0746 20.7165 67.1121 20.5749L66.0363 17.7331Z" fill="black"/>
<path d="M70.9389 20.5613V16.6555H72.2054C72.5183 16.6444 72.8315 16.6642 73.1406 16.7146C73.3646 16.7747 73.5615 16.9094 73.6989 17.0965C73.8592 17.3161 73.9393 17.5842 73.9259 17.8558C73.9334 18.0663 73.8898 18.2753 73.7988 18.4651C73.7182 18.6157 73.605 18.7462 73.4674 18.8471C73.3445 18.935 73.2058 18.9983 73.0588 19.0335C72.7886 19.0757 72.5152 19.094 72.2417 19.0881H71.7242V20.5613H70.9389ZM71.7242 17.3193V18.4242H72.1782C72.3873 18.4363 72.597 18.4164 72.8001 18.3651C72.8994 18.3281 72.985 18.2614 73.0452 18.1741C73.105 18.0839 73.1366 17.9778 73.136 17.8695C73.1387 17.7396 73.0934 17.6133 73.0089 17.5148C72.9255 17.423 72.8135 17.3621 72.6911 17.342C72.5022 17.3306 72.3127 17.3306 72.1237 17.342L71.7242 17.3193Z" fill="black"/>
<path d="M75.2832 20.5613H74.5342V17.7331H75.2287V18.1332C75.3108 17.989 75.4203 17.8623 75.551 17.7604C75.6478 17.7002 75.7595 17.6687 75.8733 17.6694C76.0481 17.6696 76.2194 17.7184 76.3681 17.8104L76.1366 18.4651C76.0327 18.3912 75.9099 18.3486 75.7825 18.3424C75.6873 18.3388 75.5939 18.3694 75.5193 18.4288C75.4301 18.5106 75.3696 18.619 75.3468 18.7379C75.2922 19.0516 75.2709 19.3701 75.2832 19.6883V20.5613Z" fill="black"/>
<path d="M78.3247 19.661L79.0691 19.7883C78.9889 20.0395 78.8296 20.258 78.6152 20.4112C78.3851 20.5619 78.1136 20.6366 77.8389 20.6249C77.6317 20.641 77.4237 20.6054 77.2336 20.5213C77.0435 20.4372 76.8772 20.3072 76.7495 20.1429C76.5535 19.8574 76.4548 19.5161 76.468 19.1699C76.445 18.768 76.5765 18.3726 76.8357 18.065C76.9535 17.9361 77.0975 17.834 77.258 17.7658C77.4186 17.6975 77.592 17.6647 77.7663 17.6694C77.9527 17.6603 78.1388 17.6931 78.3108 17.7655C78.4829 17.8379 78.6365 17.948 78.7605 18.0877C79.0296 18.4562 79.154 18.911 79.11 19.3654H77.2352C77.2307 19.5546 77.2953 19.7389 77.4168 19.8838C77.4739 19.9463 77.5444 19.9952 77.623 20.0266C77.7016 20.0581 77.7863 20.0715 77.8707 20.0656C77.9772 20.0695 78.0817 20.0357 78.1658 19.9702C78.2487 19.8855 78.3041 19.7777 78.3247 19.661ZM78.3655 18.9062C78.3747 18.7256 78.3146 18.5483 78.1976 18.4106C78.1492 18.3563 78.0896 18.3132 78.023 18.2842C77.9564 18.2551 77.8843 18.2408 77.8117 18.2423C77.7355 18.2402 77.6597 18.255 77.5899 18.2857C77.5201 18.3164 77.4578 18.3621 77.4077 18.4196C77.2945 18.5555 77.2376 18.7296 77.2488 18.9062H78.3655Z" fill="black"/>
<path d="M79.6956 17.7331H80.3947V18.1469C80.4882 18.0041 80.6142 17.8857 80.7624 17.8013C80.9189 17.7131 81.0958 17.6677 81.2754 17.6694C81.4345 17.668 81.5919 17.7019 81.7363 17.7687C81.8808 17.8356 82.0086 17.9336 82.1106 18.0559C82.3543 18.3601 82.4757 18.7444 82.4511 19.1335C82.4753 19.5304 82.3525 19.9222 82.1061 20.2339C82.0036 20.3571 81.8751 20.4561 81.7299 20.5237C81.5847 20.5913 81.4264 20.6259 81.2663 20.6249C81.1206 20.6261 80.9764 20.5951 80.8441 20.534C80.6924 20.4517 80.557 20.3423 80.4446 20.2112V21.6389H79.6956V17.7331ZM80.4356 19.0972C80.4168 19.347 80.4841 19.5958 80.6262 19.8019C80.6793 19.8723 80.7479 19.9294 80.8266 19.9688C80.9054 20.0082 80.9921 20.0289 81.0802 20.0293C81.1669 20.0321 81.253 20.0147 81.3318 19.9784C81.4106 19.9421 81.4799 19.8879 81.5341 19.8201C81.6662 19.6168 81.7269 19.3752 81.7066 19.1335C81.7252 18.8978 81.661 18.663 81.525 18.4697C81.4715 18.4008 81.4025 18.3455 81.3236 18.3084C81.2447 18.2713 81.1582 18.2533 81.0711 18.256C80.9842 18.2547 80.8981 18.2733 80.8195 18.3103C80.7408 18.3474 80.6716 18.4019 80.6171 18.4697C80.4811 18.6491 80.4164 18.8727 80.4356 19.0972Z" fill="black"/>
<path d="M83.6041 18.597L82.9232 18.4742C82.9801 18.2313 83.1198 18.0159 83.3182 17.8649C83.569 17.7171 83.8586 17.649 84.1489 17.6694C84.4026 17.6562 84.6562 17.6965 84.8934 17.7876C85.0373 17.8484 85.1581 17.9535 85.2384 18.0877C85.3216 18.3017 85.3557 18.5317 85.3382 18.7607V19.6337C85.3344 19.8178 85.3466 20.0019 85.3746 20.1839C85.4017 20.3155 85.4476 20.4426 85.5107 20.5613H84.7708C84.7418 20.4902 84.7175 20.4173 84.6982 20.343L84.6709 20.2521C84.5537 20.3711 84.4151 20.4667 84.2624 20.534C84.1182 20.5929 83.9641 20.6238 83.8084 20.6249C83.5578 20.6396 83.3114 20.5546 83.123 20.3885C83.0404 20.3123 82.9751 20.2193 82.9313 20.1158C82.8874 20.0123 82.8661 19.9007 82.8687 19.7883C82.8674 19.6376 82.9082 19.4895 82.9868 19.3609C83.0627 19.2365 83.1731 19.137 83.3045 19.0744C83.4949 18.9924 83.6946 18.9344 83.8992 18.9016C84.1467 18.8627 84.3899 18.8002 84.6255 18.7152V18.6425C84.6308 18.5865 84.6242 18.53 84.6062 18.4767C84.5882 18.4234 84.5592 18.3746 84.5211 18.3333C84.3997 18.2602 84.258 18.2283 84.1171 18.2423C84.0088 18.2368 83.9013 18.2637 83.8084 18.3196C83.7117 18.3871 83.6399 18.4846 83.6041 18.597ZM84.6028 19.2017C84.4536 19.2488 84.3021 19.2883 84.1489 19.32C84.0069 19.3406 83.869 19.3835 83.7403 19.4473C83.6965 19.4761 83.6604 19.5152 83.6351 19.5611C83.6098 19.6071 83.5961 19.6585 83.5951 19.711C83.5953 19.7621 83.6058 19.8126 83.6261 19.8595C83.6464 19.9064 83.676 19.9487 83.7131 19.9838C83.7527 20.0222 83.7996 20.0521 83.8512 20.0717C83.9027 20.0912 83.9577 20.1 84.0127 20.0975C84.1522 20.0968 84.2877 20.0505 84.3986 19.9656C84.4832 19.9038 84.5453 19.816 84.5756 19.7155C84.5989 19.5958 84.608 19.4737 84.6028 19.3518V19.2017Z" fill="black"/>
<path d="M86.0736 17.3511V16.6555H86.8226V17.3511H86.0736ZM86.0736 20.5613V17.7331H86.8226V20.5613H86.0736Z" fill="black"/>
<path d="M90.1773 20.5613H89.4828V20.1475C89.379 20.2998 89.2384 20.4233 89.0743 20.5067C88.9345 20.5817 88.7788 20.6222 88.6203 20.6249C88.4609 20.6255 88.3033 20.5908 88.1589 20.5231C88.0145 20.4555 87.8868 20.3568 87.785 20.2339C87.5386 19.924 87.4157 19.5335 87.44 19.1381C87.4127 18.7438 87.5324 18.3533 87.776 18.0423C87.8823 17.9213 88.0138 17.8252 88.1613 17.7608C88.3088 17.6964 88.4686 17.6652 88.6294 17.6694C88.7871 17.6698 88.9428 17.7056 89.0849 17.774C89.2271 17.8424 89.3522 17.9419 89.451 18.065V16.6555H90.1955L90.1773 20.5613ZM88.1845 19.0972C88.1689 19.3223 88.2111 19.5477 88.3071 19.7519C88.3574 19.8421 88.4313 19.9169 88.5209 19.9682C88.6105 20.0195 88.7123 20.0453 88.8155 20.0429C88.9032 20.0462 88.9903 20.028 89.0694 19.99C89.1485 19.952 89.2172 19.8952 89.2694 19.8247C89.4047 19.6328 89.4689 19.3996 89.451 19.1654C89.4716 18.9193 89.411 18.6733 89.2785 18.4651C89.2245 18.3968 89.1554 18.3419 89.0766 18.3048C88.9979 18.2678 88.9116 18.2495 88.8246 18.2514C88.738 18.2496 88.6522 18.2675 88.5736 18.3037C88.495 18.34 88.4256 18.3936 88.3706 18.4606C88.2368 18.6447 88.171 18.8698 88.1845 19.0972Z" fill="black"/>
<path d="M17.0595 138.641C17.0595 138.641 31.9491 119.794 30.3512 103.902C30.3512 103.902 33.1793 109.813 32.5664 114.815C31.9536 119.816 34.8362 141.378 34.8362 141.378H43.6428C43.6428 141.378 48.2414 117.538 48.2414 112.773C48.2414 108.008 46.194 76.5932 46.194 76.5932C46.194 76.5932 41.4684 76.0976 32.8433 79.2213C24.2183 82.3451 15.3844 78.5575 15.3844 78.5575C15.3844 78.5575 13.5686 96.1996 14.4765 102.784C15.3844 109.368 8.57513 125.486 6.75933 128.665C4.94352 131.843 3.81319 136.154 6.75933 136.154C9.70547 136.154 17.0595 138.641 17.0595 138.641Z" fill="#0F6987"/>
<path d="M6.7684 136.14C6.7684 136.14 3.74054 136.781 5.62898 131.066C7.51741 125.35 8.24828 124.322 12.7424 113.578C12.7424 113.578 14.7262 107.667 14.4765 102.77C14.2268 97.8729 15.3844 78.5439 15.3844 78.5439C15.3844 78.5439 17.6269 79.7352 23.9504 80.4172C30.274 81.0993 34.3641 78.5439 34.3641 78.5439C34.3641 78.5439 43.6474 85.6235 40.5877 108.958C37.5281 132.293 38.8355 141.323 38.8355 141.323L34.8362 141.364C34.8362 141.364 32.5982 125.405 32.4983 117.966C32.3985 110.527 32.8479 110.482 31.5904 107.194L30.3421 103.902C30.3421 103.902 30.796 117.229 23.9232 127.933L17.0595 138.641C15.448 138.052 13.8034 137.558 12.1341 137.163C10.3643 136.73 8.57338 136.388 6.7684 136.14Z" fill="#063241"/>
<path d="M34.3686 78.5438C34.3686 78.5438 36.8653 68.0859 39.4075 65.4259C38.4185 67.8848 37.5772 70.4007 36.888 72.9602C36.4941 74.5357 36.212 76.1372 36.0437 77.7527L35.962 78.2074C35.962 78.2074 34.818 78.7121 34.6001 78.6621L34.3686 78.5438Z" fill="#FAEB1B"/>
<path d="M35.7123 33.2881C35.601 34.4228 35.4053 35.5475 35.1267 36.6529C34.5547 39.2628 32.7026 38.217 30.1741 39.0264C27.6456 39.8357 29.3615 42.1501 29.3615 42.1501C29.3615 42.1501 27.3324 42.4502 26.8103 42.814L26.2883 43.1959C26.9218 42.1527 27.3818 41.0132 27.6501 39.8221C27.6501 39.8221 27.1644 40.4405 27.1962 39.7403C27.1801 39.6097 27.1543 39.4805 27.119 39.3538C27.0691 39.1673 27.06 39.1128 26.9692 38.7126C26.8283 38.3733 26.7395 38.0146 26.7059 37.6487C26.7422 37.2986 26.6015 37.1303 26.7422 37.2985C26.883 37.4668 27.4005 38.0715 27.4005 38.0715L27.2098 36.8302C27.4688 37.1012 27.748 37.352 28.0451 37.5805C28.2357 37.6805 28.499 36.9166 28.6443 36.421C28.7896 35.9254 29.6021 34.3658 31.1819 35.0842C32.7616 35.8026 33.7376 36.3664 33.7467 36.6665C33.7558 36.9666 35.7123 33.2881 35.7123 33.2881Z" fill="#6D3F1D"/>
<path d="M3.42732 91.6845C3.34192 91.8967 3.30377 92.1251 3.31553 92.3536C3.32729 92.5821 3.38868 92.8054 3.49542 93.0077C3.87592 93.6843 4.18041 94.401 4.40332 95.1447C4.44871 95.5767 4.73016 95.8723 4.66207 96.4543C4.66207 96.4543 4.93898 96.5407 4.79825 95.6131L4.62575 94.8947C4.62575 94.8947 4.40786 94.1399 4.35338 93.9398C4.14804 93.357 4.08272 92.7339 4.16272 92.121L4.21266 91.8527L3.42732 91.6845Z" fill="#5F3919"/>
<path d="M95.4432 48.3431C101.325 48.3431 106.093 43.5673 106.093 37.676C106.093 31.7847 101.325 27.0089 95.4432 27.0089C89.5615 27.0089 84.7935 31.7847 84.7935 37.676C84.7935 43.5673 89.5615 48.3431 95.4432 48.3431Z" fill="#0F6987"/>
<path d="M67.3436 35.8481L66.8897 36.4119C66.8607 36.4541 66.8236 36.4899 66.7805 36.5174C66.7374 36.5449 66.6892 36.5635 66.6388 36.572C66.5884 36.5804 66.5368 36.5787 66.4871 36.5668C66.4374 36.5549 66.3906 36.5332 66.3495 36.5028C66.3079 36.4706 66.2737 36.4298 66.2492 36.3832C66.2247 36.3366 66.2105 36.2853 66.2075 36.2327C66.2045 36.1801 66.2127 36.1275 66.2318 36.0784C66.2508 36.0293 66.2801 35.9849 66.3177 35.9481C66.6854 35.4934 67.0531 35.0705 67.4253 34.634C67.4586 34.5795 67.5052 34.5344 67.5609 34.5031C67.6165 34.4718 67.6793 34.4554 67.7431 34.4554C67.8069 34.4554 67.8696 34.4718 67.9253 34.5031C67.9809 34.5344 68.0276 34.5795 68.0609 34.634L69.1049 35.9208C69.1475 35.9553 69.1818 35.9989 69.2054 36.0483C69.229 36.0978 69.2412 36.1519 69.2413 36.2067C69.2413 36.2615 69.2292 36.3156 69.2057 36.3651C69.1822 36.4146 69.148 36.4583 69.1055 36.4929C69.0631 36.5274 69.0135 36.5521 68.9603 36.565C68.9071 36.5779 68.8517 36.5788 68.7982 36.5675C68.7446 36.5563 68.6942 36.5332 68.6507 36.5C68.6072 36.4668 68.5716 36.4243 68.5466 36.3755C68.4086 36.1999 68.2568 36.0357 68.0926 35.8844V41.4726C68.0926 41.7182 68.0018 41.8546 67.8157 41.9001C67.7576 41.9146 67.6968 41.9148 67.6387 41.9005C67.5805 41.8861 67.5267 41.8578 67.482 41.8179C67.4372 41.778 67.4029 41.7278 67.3819 41.6716C67.361 41.6154 67.3541 41.5549 67.3618 41.4954C67.3618 40.9088 67.3618 40.3177 67.3618 39.7266V36.03C67.3527 35.989 67.3482 35.9436 67.3436 35.8481Z" fill="white"/>
<path d="M71.8241 40.5178C71.9875 40.3268 72.1101 40.1722 72.2372 40.0267C72.4188 39.813 72.6276 39.7676 72.8001 39.904C72.8394 39.9406 72.8708 39.9849 72.8922 40.0342C72.9137 40.0835 72.9247 40.1367 72.9247 40.1904C72.9247 40.2442 72.9137 40.2974 72.8922 40.3467C72.8708 40.396 72.8394 40.4403 72.8001 40.4769C72.4687 40.877 72.1373 41.2771 71.8014 41.6727C71.5608 41.9637 71.3475 41.9637 71.0978 41.6727L70.0446 40.4087C70.0055 40.3728 69.9746 40.3288 69.9541 40.2798C69.9335 40.2308 69.9238 40.1779 69.9256 40.1248C69.9274 40.0717 69.9406 40.0196 69.9644 39.9721C69.9882 39.9246 70.0219 39.8828 70.0634 39.8496C70.1048 39.8164 70.1529 39.7925 70.2044 39.7797C70.2559 39.7669 70.3096 39.7654 70.3617 39.7753C70.4138 39.7853 70.4632 39.8064 70.5064 39.8372C70.5496 39.868 70.5857 39.9079 70.6121 39.954C70.7592 40.1358 70.9184 40.3075 71.0887 40.4678V34.9296C71.0846 34.8486 71.0922 34.7674 71.1114 34.6886C71.1384 34.6077 71.1937 34.5392 71.2671 34.4957C71.3405 34.4523 71.427 34.4368 71.5109 34.4522C71.6015 34.4646 71.6841 34.5109 71.7422 34.5817C71.8003 34.6525 71.8295 34.7427 71.8241 34.8341C71.8241 35.3889 71.8241 35.9436 71.8241 36.4983V40.5178Z" fill="white"/>
<path d="M66.4312 42.0819C66.4312 42.0819 65.6413 37.0803 66.4312 37.2076C67.221 37.3349 67.2256 37.8578 67.2256 38.7581C67.2256 39.6584 67.5842 40.3086 67.8747 39.0264C68.1653 37.7441 69.3864 35.3888 70.2897 35.7298C71.1931 36.0709 70.6484 37.1712 70.721 37.9306C70.7936 38.6899 70.7664 38.9036 70.8163 39.4811C70.8663 40.0585 69.7132 41.2135 69.3864 42.0819C69.2477 42.6078 68.9109 43.0593 68.4467 43.3414C68.2825 43.3805 68.1115 43.3805 67.9474 43.3414L66.4312 42.0819Z" fill="#5F3919"/>
<path d="M66.4312 42.0819C66.7036 41.8228 68.5511 40.0495 69.2457 38.4444C69.4911 37.9235 69.6945 37.3837 69.854 36.8302C70.0991 35.9208 70.0446 35.5707 70.3079 35.739C70.6666 35.9845 70.8663 36.0845 70.8345 36.5711C70.7578 37.1909 70.738 37.8164 70.7755 38.4398C70.8345 39.4902 70.8981 39.5766 70.7483 39.863C70.5985 40.1495 70.2943 40.6406 70.2171 40.7406C70.14 40.8406 69.8631 41.2317 69.7133 41.4908C69.3092 42.182 69.4046 42.3411 69.0868 42.7412C68.8916 42.9822 68.5648 43.3915 68.1517 43.3778C67.9201 43.3778 67.8248 43.246 66.9487 42.5048L66.4312 42.0819Z" fill="#91693C"/>
<path opacity="0.41" d="M86.5911 44.0417C88.1081 46.1019 90.3138 47.5472 92.806 48.1142C95.2983 48.6811 97.9109 48.3318 100.167 47.1301C102.424 45.9283 104.174 43.954 105.098 41.5675C106.023 39.1809 106.06 36.541 105.203 34.1293C98.7733 36.9892 92.5537 40.3016 86.5911 44.0417Z" fill="#063241"/>
<path d="M92.3972 41.8318C92.4789 41.4635 92.5561 41.1225 92.6332 40.7815C92.6923 40.536 92.7422 40.2904 92.8103 40.0494C92.8288 39.9999 92.8308 39.9457 92.8161 39.8949C92.8014 39.8441 92.7707 39.7994 92.7286 39.7675C92.1403 39.2634 91.7441 38.5711 91.6073 37.8078C91.5218 37.3271 91.5495 36.833 91.6882 36.3649C91.8269 35.8968 92.0728 35.4676 92.4063 35.1115C93.1124 34.3126 94.0765 33.7878 95.13 33.6292C95.8167 33.4919 96.5241 33.497 97.2088 33.644C97.8935 33.791 98.5409 34.0769 99.1111 34.484C99.5001 34.7416 99.8324 35.0762 100.088 35.4672C100.343 35.8581 100.516 36.2972 100.596 36.7575C100.69 37.2601 100.659 37.7782 100.507 38.2664C100.355 38.7547 100.086 39.1982 99.7239 39.5584C99.2643 40.0386 98.7094 40.4169 98.0948 40.6691C97.4802 40.9213 96.8197 41.0417 96.1559 41.0225C95.7564 41.0225 95.3615 40.9452 94.962 40.9088C94.8634 40.902 94.7644 40.9159 94.6715 40.9497C93.986 41.218 93.3096 41.4954 92.6151 41.7682L92.3972 41.8318ZM92.9737 41.1634C93.5366 40.9361 94.0586 40.7087 94.5898 40.5178C94.7168 40.4751 94.8517 40.4611 94.9847 40.4768C95.1663 40.4768 95.3433 40.5451 95.5249 40.5632C96.1547 40.6519 96.7959 40.6101 97.4089 40.4404C98.0219 40.2707 98.5935 39.9767 99.0884 39.5766C99.4325 39.322 99.7148 38.9931 99.9145 38.6142C100.114 38.2353 100.226 37.8161 100.242 37.388C100.257 36.9598 100.177 36.5336 100.005 36.1411C99.8338 35.7485 99.5763 35.3997 99.2518 35.1206C98.416 34.4056 97.3627 33.996 96.2643 33.9589C95.1658 33.9217 94.0873 34.2591 93.2052 34.9159C92.8077 35.1983 92.4872 35.576 92.2731 36.0145C92.059 36.4529 91.9581 36.9382 91.9796 37.4259C92.0041 37.8287 92.113 38.2219 92.2991 38.5799C92.4852 38.9379 92.7445 39.2527 93.06 39.5038C93.1509 39.5739 93.2175 39.671 93.2501 39.7812C93.2827 39.8915 93.2797 40.0092 93.2415 40.1176C93.128 40.4678 93.06 40.7997 92.9737 41.1771V41.1634Z" fill="white"/>
<path d="M36.0755 44.7555C36.0755 44.7555 38.5858 43.9053 42.2174 47.0063C45.849 50.1073 49.6804 51.1667 51.7504 50.9439C53.8204 50.7211 63.6893 43.978 64.3612 42.2411C65.033 40.5041 68.7055 44.4327 68.7055 44.4327C68.7055 44.4327 65.2872 48.825 63.5531 51.3804C61.819 53.9358 58.9274 59.0238 55.2685 59.7059C51.6097 60.3879 47.2109 58.0417 45.9444 58.0417C44.6778 58.0417 45.7219 61.3701 45.7946 63.8663C45.8672 66.3626 46.1804 77.0024 46.1804 77.0024C46.1804 77.0024 42.9347 76.1385 35.7986 78.6757C28.6625 81.2129 25.0853 81.5448 20.8817 80.4308C16.6781 79.3168 15.4071 79.0031 15.4071 79.0031L16.0335 70.7549V66.6309C16.0335 66.6309 14.6263 66.1762 10.2457 79.3214L5.86504 92.5075C5.86504 92.5075 3.36377 92.6621 1.64329 91.7118C-0.0771817 90.7615 2.8962 73.1557 2.8962 71.2506C2.8962 69.3454 8.05762 51.2668 15.0939 48.4113C18.9281 46.886 22.6664 45.1291 26.2883 43.1505C26.2883 43.1505 32.0489 40.6451 36.0755 44.7555Z" fill="#FAEB1B"/>
<path d="M45.9171 67.8085C45.9171 67.8085 42.8711 61.411 39.4075 65.8169C39.4075 65.8169 37.0787 68.0904 35.8167 79.2986C35.8167 79.2986 35.222 80.8219 28.0451 80.9492C20.8681 81.0765 16.9914 79.7988 15.3889 79.1531L16.0154 66.7309C16.0154 66.7309 12.4428 74.3106 11.3488 77.1297C10.2547 79.9488 10.0232 79.6124 9.4921 81.7358C8.96098 83.8592 7.93959 86.9784 6.90004 90.1567L5.86049 93.3396C5.86049 93.3396 5.83779 93.1486 4.22173 92.7121C2.60566 92.2756 1.34822 92.0028 1.34822 92.0028C1.34822 92.0028 1.04407 90.9979 1.10309 87.2058C1.1621 83.4136 2.63744 73.2376 2.89165 71.7462C3.14587 70.2548 4.54857 63.7344 6.97721 59.0375C9.40585 54.3405 11.4078 50.3028 13.9499 49.1069C16.492 47.9111 28.2267 42.3184 28.2267 42.3184C28.2267 42.3184 32.7389 41.2907 36.0755 44.801C39.412 48.3112 39.9704 51.385 47.1019 54.7497C48.57 55.5606 49.8875 56.6189 50.9968 57.878C53.1304 60.1515 59.0862 58.0462 62.0369 53.7857C62.0369 53.7857 59.3586 58.4418 55.2867 60.0287C51.2147 61.6156 45.9625 57.928 45.9625 58.1326C45.9625 58.3372 44.8049 57.3778 45.5812 61.9157C46.3574 66.4535 45.9171 67.8085 45.9171 67.8085Z" fill="#FFC310"/>
<path d="M69.0459 82.6907C74.9276 82.6907 79.6956 77.9148 79.6956 72.0236C79.6956 66.1323 74.9276 61.3564 69.0459 61.3564C63.1643 61.3564 58.3962 66.1323 58.3962 72.0236C58.3962 77.9148 63.1643 82.6907 69.0459 82.6907Z" fill="#0F6987"/>
<path opacity="0.41" d="M60.4299 78.2938C61.9434 80.3618 64.1499 81.8146 66.6454 82.3861C69.141 82.9577 71.7586 82.6097 74.0189 81.4059C76.2792 80.2021 78.0309 78.2231 78.9534 75.8312C79.8759 73.4393 79.9073 70.7947 79.0419 68.3815C72.6116 71.2403 66.3919 74.5527 60.4299 78.2938Z" fill="#063241"/>
<path d="M70.2943 66.6764L68.9733 71.5643H71.529L67.1348 78.412L68.4558 73.524H65.9001L70.2943 66.6718V66.6764Z" fill="white"/>
<path d="M95.4341 81.8631C101.316 81.8631 106.084 77.0873 106.084 71.196C106.084 65.3047 101.316 60.5289 95.4341 60.5289C89.5524 60.5289 84.7844 65.3047 84.7844 71.196C84.7844 77.0873 89.5524 81.8631 95.4341 81.8631Z" fill="#0F6987"/>
<path opacity="0.41" d="M86.8181 77.4662C88.3316 79.5343 90.5381 80.9871 93.0336 81.5586C95.5292 82.1301 98.1467 81.7821 100.407 80.5783C102.667 79.3745 104.419 77.3955 105.342 75.0036C106.264 72.6118 106.295 69.9671 105.43 67.5539C99.0012 70.4156 92.7818 73.728 86.8181 77.4662Z" fill="#063241"/>
<path d="M95.8245 68.5542C96.6988 68.5616 97.5613 68.7575 98.3532 69.1286C99.1452 69.4997 99.848 70.0374 100.414 70.7049C100.52 70.8316 100.572 70.9949 100.559 71.1596C100.54 71.2336 100.502 71.3016 100.45 71.3572C100.398 71.4129 100.332 71.4544 100.26 71.4779C100.097 71.495 99.934 71.4477 99.8056 71.3461C99.5015 71.096 99.2518 70.7822 98.9386 70.5412C97.8866 69.7352 96.5708 69.3542 95.2517 69.4738C93.9326 69.5933 92.7065 70.2048 91.8161 71.1869C91.7616 71.246 91.7117 71.3097 91.6572 71.3642C91.5796 71.4461 91.4743 71.4962 91.3618 71.5046C91.2494 71.513 91.1379 71.4792 91.0489 71.4097C90.9607 71.3324 90.9058 71.2239 90.8957 71.1069C90.8855 70.99 90.9209 70.8736 90.9945 70.7822C91.1089 70.6373 91.2333 70.5006 91.3667 70.373C91.9518 69.7884 92.6474 69.3264 93.4128 69.0141C94.1782 68.7018 94.9981 68.5455 95.8245 68.5542Z" fill="white"/>
<path d="M99.2927 72.2236C99.1883 72.36 99.1157 72.5328 98.9931 72.5783C98.8417 72.6092 98.6847 72.5982 98.5391 72.5465C98.4756 72.5465 98.4256 72.4373 98.3712 72.3782C98.0401 72.013 97.6365 71.7212 97.1862 71.5215C96.7359 71.3218 96.2489 71.2187 95.7564 71.2187C95.2639 71.2187 94.7769 71.3218 94.3266 71.5215C93.8763 71.7212 93.4727 72.013 93.1416 72.3782C93.1099 72.4146 93.0826 72.451 93.0463 72.4873C93.0138 72.5475 92.9682 72.5996 92.9128 72.6397C92.8574 72.6798 92.7936 72.7068 92.7264 72.7188C92.6591 72.7307 92.59 72.7273 92.5242 72.7088C92.4584 72.6903 92.3976 72.6571 92.3464 72.6118C92.2952 72.5665 92.2549 72.5102 92.2284 72.4471C92.202 72.384 92.1901 72.3157 92.1937 72.2473C92.1972 72.179 92.2162 72.1123 92.249 72.0523C92.2819 71.9923 92.3279 71.9405 92.3835 71.9008C92.8308 71.3668 93.3988 70.9475 94.0405 70.6777C94.8955 70.3162 95.8425 70.2337 96.747 70.4418C97.6515 70.6499 98.4675 71.1381 99.0793 71.8371C99.1596 71.9607 99.2309 72.0898 99.2927 72.2236Z" fill="white"/>
<path d="M95.8881 72.1054C96.2344 72.1223 96.5738 72.2092 96.8859 72.3608C97.1979 72.5123 97.4761 72.7255 97.7039 72.9875C97.7536 73.0285 97.7941 73.0797 97.8226 73.1376C97.851 73.1955 97.8669 73.2588 97.869 73.3234C97.8712 73.3879 97.8596 73.4521 97.835 73.5118C97.8105 73.5715 97.7735 73.6253 97.7266 73.6695C97.5268 73.856 97.2726 73.8241 97.0502 73.5877C96.8853 73.3993 96.6821 73.2484 96.4543 73.145C96.2265 73.0415 95.9793 72.9881 95.7292 72.9881C95.4791 72.9881 95.2318 73.0415 95.004 73.145C94.7762 73.2484 94.5731 73.3993 94.4082 73.5877C94.372 73.6384 94.3257 73.6812 94.2723 73.7132C94.219 73.7453 94.1595 73.7661 94.0978 73.7742C94.0361 73.7823 93.9733 73.7776 93.9135 73.7603C93.8536 73.7431 93.798 73.7138 93.7499 73.6741C93.7016 73.6314 93.663 73.5789 93.6365 73.5201C93.61 73.4613 93.5963 73.3976 93.5963 73.3331C93.5963 73.2685 93.61 73.2048 93.6365 73.146C93.663 73.0872 93.7016 73.0347 93.7499 72.992C94.0195 72.6961 94.3508 72.4632 94.7203 72.31C95.0898 72.1567 95.4885 72.0869 95.8881 72.1054Z" fill="white"/>
<path d="M95.7337 75.652C95.5595 75.6475 95.3904 75.5916 95.2478 75.4913C95.1051 75.391 94.9952 75.2507 94.9318 75.0881C94.8684 74.9255 94.8544 74.7478 94.8914 74.5772C94.9285 74.4066 95.015 74.2507 95.1401 74.1292C95.2652 74.0076 95.4233 73.9258 95.5947 73.8939C95.7661 73.862 95.943 73.8815 96.1033 73.9499C96.2637 74.0183 96.4003 74.1326 96.4961 74.2785C96.5918 74.4244 96.6425 74.5953 96.6416 74.7699C96.643 74.8884 96.6202 75.006 96.5747 75.1154C96.5292 75.2248 96.4619 75.3238 96.3769 75.4064C96.292 75.4889 96.1911 75.5533 96.0806 75.5955C95.97 75.6377 95.852 75.6569 95.7337 75.652Z" fill="white"/>
</g>
<defs>
<linearGradient id="paint0_linear_52_471" x1="31.1365" y1="31.5876" x2="31.1365" y2="38.117" gradientUnits="userSpaceOnUse">
<stop stop-color="#42210B"/>
<stop offset="0.13" stop-color="#391C09"/>
<stop offset="0.34" stop-color="#1F1005"/>
<stop offset="0.55"/>
<stop offset="0.87"/>
<stop offset="0.99"/>
</linearGradient>
<linearGradient id="paint1_linear_52_471" x1="1793.96" y1="1972.2" x2="1793.96" y2="772.474" gradientUnits="userSpaceOnUse">
<stop stop-color="#42210B"/>
<stop offset="0.13" stop-color="#391C09"/>
<stop offset="0.34" stop-color="#1F1005"/>
<stop offset="0.55"/>
<stop offset="0.87"/>
<stop offset="0.99"/>
</linearGradient>
<clipPath id="clip0_52_471">
<rect width="118" height="153" fill="white"/>
</clipPath>
</defs>
</svg>
