<svg width="13" height="13" viewBox="0 0 13 13" fill="none" xmlns="http://www.w3.org/2000/svg">
    <path
        d="M10.5586 4.4219C10.4205 4.28467 10.2338 4.20764 10.0391 4.20764C9.84449 4.20764 9.65775 4.28467 9.5197 4.4219L6.8746 7.03015L4.26635 4.4219C4.1283 4.28467 3.94156 4.20764 3.74691 4.20764C3.55225 4.20764 3.36551 4.28467 3.22746 4.4219C3.15841 4.49039 3.10359 4.57188 3.06619 4.66167C3.02878 4.75145 3.00952 4.84776 3.00952 4.94502C3.00952 5.04229 3.02878 5.13859 3.06619 5.22838C3.10359 5.31816 3.15841 5.39965 3.22746 5.46815L6.35148 8.59216C6.41997 8.66122 6.50146 8.71603 6.59125 8.75344C6.68103 8.79084 6.77734 8.8101 6.8746 8.8101C6.97187 8.8101 7.06817 8.79084 7.15796 8.75344C7.24774 8.71603 7.32923 8.66122 7.39773 8.59216L10.5586 5.46815C10.6276 5.39965 10.6825 5.31816 10.7199 5.22838C10.7573 5.13859 10.7765 5.04229 10.7765 4.94502C10.7765 4.84776 10.7573 4.75145 10.7199 4.66167C10.6825 4.57188 10.6276 4.49039 10.5586 4.4219Z"
        fill="#797B86" />
</svg>
    