<svg width="9" height="15" viewBox="0 0 9 15" fill="none" xmlns="http://www.w3.org/2000/svg">
    <path d="M7.97052 6.80938L2.41017 1.25885C2.31884 1.16677 2.21019 1.09369 2.09047 1.04381C1.97076 0.99394 1.84235 0.968262 1.71267 0.968262C1.58298 0.968262 1.45457 0.99394 1.33486 1.04381C1.21515 1.09369 1.10649 1.16677 1.01517 1.25885C0.832193 1.44292 0.729492 1.69191 0.729492 1.95144C0.729492 2.21097 0.832193 2.45996 1.01517 2.64403L5.87802 7.556L1.01517 12.4189C0.832193 12.6029 0.729492 12.8519 0.729492 13.1114C0.729492 13.371 0.832193 13.62 1.01517 13.804C1.10615 13.8969 1.21465 13.9707 1.33438 14.0213C1.45411 14.0719 1.58269 14.0982 1.71267 14.0987C1.84264 14.0982 1.97122 14.0719 2.09095 14.0213C2.21068 13.9707 2.31918 13.8969 2.41017 13.804L7.97052 8.2535C8.07024 8.16151 8.14982 8.04986 8.20425 7.92558C8.25868 7.80131 8.28678 7.66711 8.28678 7.53144C8.28678 7.39577 8.25868 7.26157 8.20425 7.1373C8.14982 7.01302 8.07024 6.90137 7.97052 6.80938Z" fill="#5F5F5F"/>
    </svg>
    