<svg width="24" height="24" viewBox="0 0 24 24" fill="none" xmlns="http://www.w3.org/2000/svg">
    <path
        d="M18.94 13.3766V13.3681C19.0264 6.67264 15.1264 2 15.1264 2L12.9429 5.38393C17.9379 9.70032 18.8234 15.453 18.8234 15.453C18.9006 14.762 18.9392 14.0672 18.939 13.3719L18.94 13.3766Z"
        fill="currentColor" />
    <path
        d="M9.60135 5.23629L4 13.9039C13.2118 15.3364 17.9324 21.9999 17.9324 21.9999C18.0706 21.2366 18.0828 19.7552 18.0828 19.7552C17.9954 9.35059 9.60135 5.23629 9.60135 5.23629ZM10.6795 14.0392C10.1707 14.0398 9.67323 13.8894 9.24993 13.6072C8.82663 13.3249 8.49656 12.9234 8.30147 12.4536C8.10639 11.9837 8.05506 11.4665 8.15397 10.9674C8.25288 10.4684 8.4976 10.0098 8.85716 9.64989C9.21672 9.28994 9.67496 9.04472 10.1739 8.94526C10.6729 8.8458 11.1901 8.89656 11.6602 9.09113C12.1303 9.2857 12.5321 9.61533 12.8149 10.0383C13.0976 10.4613 13.2485 10.9587 13.2485 11.4674C13.2487 12.1491 12.9782 12.803 12.4965 13.2852C12.0147 13.7675 11.3612 14.0387 10.6795 14.0392Z"
        fill="currentColor" />
</svg>
    