<svg width="44" height="44" viewBox="0 0 44 44" fill="none" xmlns="http://www.w3.org/2000/svg">
<path fill-rule="evenodd" clip-rule="evenodd" d="M15.5755 18.1782V18.1951C15.5163 18.1529 15.3726 18.1106 15.3726 18.1106V22.616C16.3701 22.2695 16.9533 21.3988 17.097 20.5873C17.1816 20.1647 17.283 18.7615 15.5755 18.1698V18.1782Z" fill="#004F71"/>
<path fill-rule="evenodd" clip-rule="evenodd" d="M12.1858 13.2671C12.0421 13.9179 12.2872 14.6026 12.7775 14.9746H12.7944C12.9973 15.1352 13.2847 15.2958 13.5636 15.4648V11.9738C13.5636 11.9738 13.5045 11.9907 13.4622 11.9907C12.5662 12.2527 12.2619 12.8191 12.1858 13.2671Z" fill="#004F71"/>
<path fill-rule="evenodd" clip-rule="evenodd" d="M14.4766 5C7.58743 5 2 10.5874 2 17.4766C2 24.3658 7.58743 29.9533 14.4766 29.9533C21.3658 29.9533 26.9533 24.3658 26.9533 17.4766C26.9533 10.5874 21.3658 5 14.4766 5ZM18.8975 20.8916C18.6101 22.4132 17.4183 24.0531 15.3642 24.4419V25.4732C15.3642 25.9634 14.9584 26.3438 14.4513 26.3438C13.9441 26.3438 13.5383 25.955 13.5383 25.4732V24.5011C12.5071 24.4419 11.7125 24.239 10.5375 23.4867C10.1149 23.2247 9.98808 22.6752 10.2755 22.2695C10.5629 21.8637 11.1039 21.7454 11.535 22.0074H11.5772C12.3718 22.5146 12.879 22.7006 13.5891 22.7344V17.4005C12.7607 17.0371 12.169 16.7074 11.6787 16.3439C10.6812 15.5916 10.1741 14.2138 10.4192 12.9374C10.6643 11.661 11.5942 10.7058 12.9551 10.3C13.158 10.2409 13.3608 10.1986 13.5637 10.1563V9.36175C13.5637 8.87147 13.9694 8.49109 14.4766 8.49109C14.9838 8.49109 15.3896 8.87993 15.3896 9.36175V10.1732C16.7927 10.4353 17.6803 11.1876 17.7395 11.2299C18.103 11.5511 18.1452 12.1005 17.824 12.464C17.5028 12.8275 16.928 12.8528 16.5476 12.5485C16.5053 12.5316 16.0827 12.185 15.3896 11.9822V16.2425C15.6516 16.3439 15.939 16.4285 16.201 16.5299C18.1706 17.223 19.2441 18.9221 18.8975 20.8916Z" fill="#004F71"/>
<path fill-rule="evenodd" clip-rule="evenodd" d="M25.5331 27.4004C25.1358 27.4004 24.7723 27.5441 24.4849 27.8146L23.1071 29.1502C22.8366 29.4038 22.6844 29.7588 22.6844 30.1477C22.6844 30.5111 22.8366 30.8746 23.1071 31.1451L30.5288 38.3217C31.4671 39.2262 33.0563 39.2262 34.003 38.3217L41.4247 31.1367C41.7037 30.8746 41.8474 30.5365 41.8474 30.1392C41.8474 29.8603 41.7713 29.5982 41.6107 29.37H41.6023L40.0046 27.8231C39.4467 27.2905 38.4831 27.2905 37.9083 27.8231L34.6623 30.9676V15.0337C34.6623 14.256 34.003 13.6305 33.2 13.6305H31.2558C30.4443 13.6305 29.7934 14.256 29.7934 15.0337L29.8357 30.9591L26.5813 27.8146C26.3023 27.5526 25.9389 27.4089 25.5331 27.4089V27.4004Z" fill="#004F71"/>
</svg>
