<svg width="24" height="24" viewBox="0 0 24 24" fill="none" xmlns="http://www.w3.org/2000/svg">
<g id="icons/outlined/dropdown close">
<path id="shape:icon" d="M16.649 20.3535C16.4363 20.5541 16.1475 20.6667 15.8464 20.6667C15.5454 20.6667 15.2566 20.5541 15.0438 20.3535L7.33271 13.0984C7.11969 12.898 7 12.6261 7 12.3427C7 12.0592 7.11969 11.7873 7.33271 11.587L15.0438 4.33184C15.328 4.0507 15.7518 3.93684 16.1508 4.03442C16.5497 4.132 16.8611 4.42568 16.964 4.8015C17.067 5.17732 16.9453 5.57614 16.6462 5.84321L9.73765 12.3427L16.6462 18.8421C16.8596 19.0421 16.9798 19.3138 16.9803 19.5972C16.9809 19.8807 16.8617 20.1528 16.649 20.3535Z" fill="#FFCB05"/>
</g>
</svg>
