<svg width="24" height="24" viewBox="0 0 24 24" fill="none" xmlns="http://www.w3.org/2000/svg">
    <path
        d="M16.812 9.21058C16.9324 9.33825 17 9.51149 17 9.69214C17 9.87279 16.9324 10.046 16.812 10.1737L12.459 14.8004C12.3388 14.9282 12.1756 15 12.0055 15C11.8355 15 11.6723 14.9282 11.5521 14.8004L7.19905 10.1737C7.03037 10.0032 6.96205 9.74891 7.0206 9.50953C7.07915 9.27015 7.25536 9.08334 7.48085 9.02158C7.70634 8.95982 7.94563 9.03283 8.10588 9.21228L12.0055 13.3574L15.9052 9.21228C16.0252 9.08425 16.1882 9.01213 16.3583 9.01181C16.5284 9.01149 16.6916 9.083 16.812 9.21058Z"
        fill="#1C1B1F" />
</svg>