<svg width="95" height="125" viewBox="0 0 95 125" fill="none" xmlns="http://www.w3.org/2000/svg">
<g id="Frame 105">
<path id="Vector" d="M77.5599 55.1101C77.5599 55.1101 70.4099 68.3301 63.1499 77.4401C60.2599 81.0701 57.3499 84.0401 54.8699 85.2901C52.4599 86.5801 50.3499 88.3701 48.6799 90.5301C44.2699 95.9501 42.2399 102.74 42.2399 102.74L23.6699 76.7801C23.6699 76.7801 24.2999 51.4101 26.5299 47.1601C29.7799 40.9701 31.3499 28.4801 32.6199 25.9901C33.5099 24.1501 36.1599 14.6101 36.4199 13.9101C36.5299 13.6101 37.4399 13.1401 38.5599 13.1501C39.2399 13.2101 39.8799 13.4901 40.3999 13.9401C40.9099 14.3901 41.2699 14.9901 41.4299 15.6501C43.4199 24.1501 41.0299 29.7701 41.0499 30.0201C41.7499 36.5601 39.6399 41.4101 41.1199 42.7101C41.1799 42.7601 41.2799 42.7101 41.4199 42.6501C43.9799 41.1301 59.8699 19.7301 61.8299 19.2701C63.8999 18.7601 77.5699 55.1501 77.5699 55.1501" fill="#9E6936"/>
<path id="Vector_2" d="M47.82 97.6101C47.82 97.6101 47.57 109.14 46.85 124.68H0C10.71 103.58 20.02 85.8301 20.02 85.8301C20.02 85.8301 46.71 86.5801 47.82 97.6101Z" fill="#004F71"/>
<path id="Vector_3" d="M93.7998 10.42L88.0498 18.21L82.3998 25.85C82.2598 26.03 82.0798 26.16 81.8798 26.25C81.6798 26.34 81.4498 26.37 81.2298 26.36C79.8698 26.24 78.1798 24.44 76.8898 23.44L76.7598 23.34C76.3498 23.05 76.0098 22.67 75.7598 22.24C75.5098 21.81 75.3498 21.32 75.2998 20.82C75.2498 20.32 75.2998 19.82 75.4598 19.34C75.6198 18.86 75.8798 18.43 76.2098 18.06L84.8398 8.42001L87.3798 5.56001C88.0998 4.79001 89.0898 4.31001 90.1398 4.21001C91.1998 4.12001 92.2498 4.41001 93.0998 5.05001L93.2298 5.15001C93.6398 5.44001 93.9798 5.82001 94.2298 6.25001C94.4798 6.68001 94.6398 7.17001 94.6898 7.67001C94.7398 8.17001 94.6898 8.67001 94.5298 9.15001C94.3698 9.63001 94.1198 10.06 93.7798 10.43" fill="#9E6936"/>
<path id="Vector_4" d="M88.05 18.2L82.4 25.84C82.26 26.02 82.08 26.15 81.88 26.24C81.68 26.33 81.45 26.36 81.23 26.35L84.85 8.41003C84.85 8.51003 85.47 16.56 88.05 18.23" fill="#654C3A"/>
<path id="Vector_5" d="M63.1501 77.47C60.2601 81.1 57.3501 84.07 54.8701 85.33C52.4601 86.61 50.3501 88.39 48.6801 90.54C46.7301 89.7 44.4901 88.71 42.3101 87.73C41.7201 87.5 41.2101 87.09 40.8401 86.57C40.4801 86.05 40.2701 85.43 40.2501 84.8C40.2301 84.16 40.4001 83.54 40.7401 83C41.0801 82.46 41.5601 82.03 42.1401 81.76L42.2201 81.72C44.6601 80.43 47.1601 75.88 47.1601 75.88L63.1501 77.47Z" fill="#654C3A"/>
<path id="Vector_6" d="M36.3 14.3201L34.78 19.9301C34.78 19.9301 36.09 20.4401 36.94 20.0501C37.79 19.6601 38.49 14.6401 36.31 14.3301L36.3 14.3201Z" fill="#654C3A"/>
<path id="Vector_7" d="M90.94 39.83L90.08 40.13L84.31 42.16C84.18 42.21 84.04 42.25 83.9 42.28C82.99 42.51 82.02 42.42 81.17 42.01C80.32 41.6 79.64 40.91 79.25 40.05L79.16 39.84C78.98 39.38 78.9 38.9 78.92 38.41C78.94 37.92 79.06 37.44 79.28 37C79.49 36.56 79.8 36.17 80.17 35.85C80.54 35.53 80.97 35.3 81.44 35.15L86.83 33.27L87.22 33.13L88.08 32.83C89.04 32.48 90.09 32.5 91.03 32.89C91.97 33.28 92.73 34.01 93.16 34.93L93.25 35.13C93.43 35.59 93.51 36.07 93.49 36.56C93.47 37.05 93.35 37.53 93.14 37.97C92.93 38.41 92.62 38.8 92.25 39.12C91.88 39.44 91.45 39.68 90.98 39.82" fill="#9E6936"/>
<path id="Vector_8" d="M86.25 39.9501C85.07 40.4001 83.85 40.7501 82.61 41.0101C82.38 41.0101 82.16 40.9601 81.95 40.8601C81.74 40.7601 81.56 40.6301 81.41 40.4501C81.08 40.1101 80.83 39.6901 80.68 39.2401C80.59 38.9901 80.52 38.7301 80.48 38.4701C80.44 38.1601 80.46 37.8501 80.52 37.5501C80.55 37.4001 80.62 37.2701 80.71 37.1601C80.81 37.0501 80.93 36.9601 81.06 36.9001C82.19 36.3801 83.36 35.9601 84.56 35.6301C84.91 35.5101 85.3 35.5301 85.65 35.6701C86 35.8101 86.28 36.0701 86.45 36.4101L86.57 36.7101L87.19 38.2801C87.24 38.4501 87.26 38.6301 87.24 38.8101C87.22 38.9901 87.16 39.1601 87.07 39.3201C86.98 39.4801 86.86 39.6101 86.72 39.7201C86.58 39.8301 86.41 39.9101 86.24 39.9501" fill="#654C3A"/>
<path id="Vector_9" d="M86.2502 39.9501C85.0702 40.4001 83.8502 40.7501 82.6102 41.0101C82.3802 41.0101 82.1601 40.9601 81.9501 40.8601C81.7401 40.7601 81.5602 40.6301 81.4102 40.4501C81.3602 40.3401 81.3201 40.2401 81.2701 40.1201C81.1801 39.8701 81.1102 39.6101 81.0802 39.3501C81.0402 39.0501 81.0502 38.7401 81.1102 38.4401C81.1402 38.2901 81.2102 38.1601 81.3002 38.0501C81.4002 37.9401 81.5202 37.8501 81.6502 37.7901C82.7802 37.2801 83.9502 36.8501 85.1502 36.5301C85.3902 36.4601 85.6401 36.4501 85.8801 36.4801C86.1201 36.5101 86.3602 36.6001 86.5702 36.7301L87.1902 38.3001C87.2402 38.4701 87.2601 38.6501 87.2401 38.8301C87.2201 39.0101 87.1602 39.1801 87.0702 39.3401C86.9802 39.5001 86.8602 39.6301 86.7202 39.7401C86.5802 39.8501 86.4101 39.9301 86.2401 39.9701" fill="#654C3A"/>
<path id="Vector_10" d="M88.32 47.32L83.87 48.44C83.24 48.61 82.56 48.54 81.98 48.23C81.4 47.92 80.96 47.41 80.75 46.79L80.61 46.32C80.53 46.01 80.51 45.69 80.56 45.38C80.61 45.07 80.72 44.77 80.88 44.49C81.05 44.22 81.27 43.99 81.53 43.8C81.79 43.62 82.08 43.49 82.4 43.42L86.85 42.3C87.48 42.13 88.16 42.2 88.74 42.51C89.32 42.82 89.76 43.33 89.97 43.95L90.11 44.42C90.19 44.73 90.21 45.05 90.16 45.36C90.11 45.67 90 45.97 89.84 46.25C89.67 46.52 89.45 46.75 89.19 46.94C88.93 47.12 88.64 47.25 88.32 47.32Z" fill="#9E6936"/>
<path id="Vector_11" d="M85.9201 47.12C84.9101 47.39 83.8901 47.59 82.8501 47.72C82.5901 47.69 82.3401 47.59 82.1301 47.44C81.9201 47.28 81.7501 47.08 81.6401 46.84C81.5401 46.66 81.4601 46.46 81.4101 46.26C81.3601 46.06 81.3201 45.86 81.3101 45.66C81.3101 45.42 81.3401 45.19 81.4101 44.96C81.4501 44.85 81.5201 44.75 81.6101 44.66C81.7001 44.58 81.8001 44.52 81.9201 44.48C82.8901 44.15 83.8801 43.9 84.8901 43.71C85.1801 43.64 85.4901 43.67 85.7601 43.8C86.0301 43.93 86.2501 44.15 86.3701 44.43L86.4801 44.8L86.8301 45.91C86.8601 46.05 86.8501 46.19 86.8201 46.33C86.7901 46.47 86.7301 46.6 86.6401 46.71C86.5501 46.82 86.4501 46.92 86.3201 46.99C86.2001 47.06 86.0601 47.11 85.9201 47.12Z" fill="#654C3A"/>
<path id="Vector_12" d="M85.92 47.12C84.91 47.39 83.89 47.59 82.85 47.72C82.59 47.69 82.34 47.59 82.13 47.44C81.92 47.28 81.75 47.08 81.64 46.84C81.59 46.65 81.56 46.46 81.55 46.27C81.55 46.03 81.58 45.79 81.65 45.56C81.69 45.45 81.76 45.35 81.85 45.27C81.94 45.19 82.04 45.13 82.16 45.1C83.13 44.78 84.12 44.52 85.13 44.34C85.38 44.29 85.63 44.3 85.87 44.38C86.11 44.46 86.32 44.61 86.49 44.8L86.84 45.91C86.87 46.05 86.86 46.19 86.83 46.33C86.8 46.47 86.74 46.6 86.65 46.71C86.56 46.82 86.46 46.92 86.33 46.99C86.21 47.06 86.07 47.11 85.93 47.12" fill="#654C3A"/>
<path id="Vector_13" d="M15.46 94.58C15.46 94.58 24.6 102.7 30.79 105.8L35.46 102.76V107.28C35.46 107.28 44.65 108.8 47.55 107.28V94.95L21.74 82.99L15.46 94.58Z" fill="#013A53"/>
<path id="Vector_14" d="M23.6701 75.88C23.6701 75.88 17.8601 83.91 12.0801 92.5C12.0801 92.5 24.2701 100.24 30.8701 102.51L39.5301 93.35L38.2901 104.38C38.2901 104.38 45.9601 106.96 49.5101 106.29C49.5101 106.29 49.2901 96.28 49.2901 89.73C49.2901 89.73 28.2201 84.27 23.6801 75.89" fill="#F1F6FF"/>
<path id="Vector_15" d="M25.0901 96.2699C25.0701 95.9799 25.1401 95.69 25.2801 95.44C25.4301 95.19 25.6501 94.99 25.9101 94.86C26.1701 94.74 26.4701 94.6899 26.7501 94.7399C27.0401 94.7799 27.3001 94.92 27.5201 95.12C27.7301 95.32 27.8801 95.58 27.9401 95.86C28.0001 96.14 27.9801 96.44 27.8701 96.71C27.7601 96.98 27.5701 97.21 27.3301 97.37C27.0901 97.53 26.8001 97.62 26.5101 97.62C26.1401 97.63 25.7801 97.4999 25.5201 97.2399C25.2501 96.9899 25.0901 96.6399 25.0801 96.2699H25.0901Z" fill="#686867"/>
<path id="Vector_16" d="M90.7901 31.9601L90.6901 31.9901L84.8601 33.3701C82.3001 33.9801 79.6501 32.7001 78.9601 30.5201L78.6101 29.4101C77.9601 27.3201 79.3601 25.1401 81.7401 24.4301L83.6701 23.9701L87.5701 23.0501C90.1301 22.4401 92.7801 23.7201 93.4601 25.9001L93.8101 27.0201C94.4501 29.0501 93.1001 31.2301 90.7601 31.9701" fill="#9E6936"/>
<path id="Vector_17" d="M88.1201 30.45L85.3001 31.63C85.1901 31.63 85.0701 31.68 84.9601 31.7H84.7601C84.6901 31.7 84.6201 31.69 84.5601 31.65C84.5001 31.62 84.4401 31.57 84.4001 31.51C84.3601 31.45 84.3401 31.38 84.3301 31.31C84.3301 31.24 84.3301 31.17 84.3701 31.1C84.6501 30.55 84.7001 29.92 84.5301 29.33L84.4601 29.1L84.2401 28.36C84.0701 27.78 83.7101 27.27 83.2201 26.91C83.1601 26.86 83.1001 26.82 83.0401 26.78C82.9201 26.7 82.8201 26.59 82.7601 26.46C82.7001 26.33 82.6801 26.18 82.7101 26.04C82.7401 25.9 82.8001 25.76 82.9101 25.66C83.0101 25.56 83.1401 25.48 83.2901 25.45L86.4001 25.01C86.7701 24.94 87.1501 25.01 87.4701 25.2C87.7901 25.4 88.0201 25.71 88.1201 26.07L88.3701 26.92L88.8701 28.71C89.0801 29.42 88.8701 30.23 88.1301 30.42" fill="#654C3A"/>
<path id="Vector_18" d="M88.12 30.4499L85.3 31.6299L84.76 31.7099C84.69 31.7099 84.62 31.6999 84.56 31.6599C84.5 31.6299 84.44 31.5799 84.4 31.5199C84.36 31.4599 84.34 31.3899 84.33 31.3199C84.33 31.2499 84.33 31.1799 84.37 31.1099C84.65 30.5599 84.7 29.9299 84.53 29.3399L84.46 29.1099L84.24 28.3699C84.07 27.7899 83.71 27.2799 83.22 26.9199C83.33 26.7699 83.49 26.6699 83.67 26.6299L86.78 26.1899C87.09 26.1299 87.41 26.1599 87.69 26.2999C87.97 26.4299 88.21 26.6499 88.35 26.9299L88.86 28.7199C89.07 29.4299 88.86 30.2399 88.12 30.4299" fill="#654C3A"/>
<path id="Vector_19" d="M41.42 59.98C41.42 59.98 40.15 49.72 38.98 47.72C37.81 45.72 36.81 41.71 38.61 38.74C40.41 35.77 41.04 30.03 41.04 30.03C41.74 36.57 39.63 41.42 41.11 42.72C41.17 42.77 41.27 42.72 41.41 42.66V59.98H41.42Z" fill="#654C3A"/>
<path id="Vector_20" d="M76.31 83.28H45.92C45.18 83.28 44.45 83.13 43.7701 82.85C43.09 82.57 42.4701 82.15 41.9501 81.63C41.4301 81.11 41.01 80.49 40.73 79.81C40.45 79.13 40.3 78.4 40.3 77.66V6.11999C40.3 5.37999 40.4401 4.64999 40.7201 3.96999C41.0001 3.28999 41.42 2.66999 41.94 2.13999C42.46 1.61999 43.08 1.19999 43.7701 0.919991C44.45 0.639991 45.19 0.48999 45.92 0.48999H76.31C77.05 0.48999 77.78 0.629991 78.46 0.919991C79.14 1.19999 79.7601 1.61999 80.2901 2.13999C80.82 2.65999 81.2301 3.27999 81.5101 3.95999C81.7901 4.63999 81.9401 5.36999 81.9401 6.10999V77.65C81.9401 79.14 81.3501 80.57 80.2901 81.62C79.2401 82.67 77.8 83.26 76.31 83.26" fill="#063241"/>
<path id="Vector_21" d="M76.1301 2.16003H69.3701C69.0601 2.16003 68.7601 2.30004 68.5401 2.53004C68.3201 2.76004 68.2101 3.06003 68.2201 3.38003C68.2201 3.69003 68.1101 3.99003 67.9001 4.22003C67.6901 4.45003 67.3901 4.58003 67.0801 4.59003H55.1601C55.0101 4.59003 54.8501 4.55003 54.7101 4.49003C54.5701 4.43003 54.4401 4.34003 54.3401 4.23003C54.2301 4.12003 54.1501 3.99003 54.1001 3.84003C54.0401 3.70003 54.0201 3.54003 54.0201 3.39003C54.0201 3.23003 54.0001 3.08003 53.9401 2.93003C53.8801 2.78003 53.8001 2.65004 53.7001 2.54004C53.5901 2.43004 53.4701 2.34003 53.3201 2.27003C53.1801 2.21003 53.0301 2.17003 52.8701 2.17003H46.1101C45.1001 2.20003 44.1401 2.63003 43.4401 3.36003C42.7401 4.10003 42.3701 5.08003 42.4001 6.09003V76.62C42.3701 77.63 42.7501 78.61 43.4401 79.35C44.1401 80.09 45.1001 80.51 46.1101 80.54H76.1301C77.1401 80.51 78.1001 80.08 78.8001 79.35C79.4901 78.61 79.8701 77.63 79.8401 76.62V6.09003C79.8701 5.08003 79.4901 4.10003 78.8001 3.36003C78.1001 2.62003 77.1501 2.19003 76.1301 2.17003V2.16003Z" fill="#FDF7F9"/>
<path id="Vector_22" d="M57.5099 3.59999C57.5099 3.70999 57.4699 3.81999 57.3999 3.90999C57.3299 3.99999 57.2399 4.06999 57.1299 4.10999C57.0199 4.14999 56.9099 4.15999 56.7999 4.12999C56.6899 4.09999 56.5899 4.04999 56.5099 3.95999C56.4299 3.87999 56.3799 3.76999 56.3599 3.65999C56.3399 3.54999 56.3599 3.42999 56.3999 3.32999C56.4499 3.22999 56.5199 3.13999 56.6199 3.07999C56.7199 3.01999 56.8299 2.98999 56.9399 2.98999C57.0999 2.98999 57.2399 3.05999 57.3499 3.17999C57.4599 3.28999 57.5199 3.44999 57.5099 3.59999Z" fill="#043058"/>
<path id="Vector_23" d="M65.5 3.92003H58.32C58.32 3.92003 58.24 3.91003 58.2 3.89003C58.16 3.87003 58.13 3.85003 58.1 3.82003C58.07 3.79003 58.05 3.76003 58.04 3.72003C58.03 3.68003 58.02 3.64003 58.02 3.60003C58.02 3.56003 58.02 3.52003 58.04 3.48003C58.05 3.44003 58.08 3.41003 58.1 3.38003C58.13 3.35003 58.16 3.33003 58.2 3.31003C58.24 3.29003 58.28 3.29003 58.32 3.28003H65.5C65.5 3.28003 65.58 3.28003 65.62 3.31003C65.66 3.33003 65.69 3.35003 65.72 3.38003C65.75 3.41003 65.77 3.44003 65.78 3.48003C65.79 3.52003 65.8 3.56003 65.8 3.60003C65.8 3.64003 65.8 3.68003 65.78 3.72003C65.77 3.76003 65.74 3.79003 65.72 3.82003C65.69 3.85003 65.66 3.87003 65.62 3.89003C65.58 3.91003 65.54 3.91003 65.5 3.92003Z" fill="#043058"/>
<path id="Vector_24" d="M72.5201 4.42999H70.0101C70.0101 4.42999 69.9501 4.42999 69.9301 4.40999C69.9001 4.39999 69.8801 4.37999 69.8601 4.35999C69.8401 4.33999 69.8301 4.31999 69.8201 4.28999C69.8101 4.25999 69.8101 4.23999 69.8101 4.20999C69.8101 4.14999 69.8301 4.09999 69.8701 4.05999C69.9101 4.01999 69.9601 3.98999 70.0201 3.98999H72.5301C72.5301 3.98999 72.5901 3.98999 72.6101 4.00999C72.6401 4.01999 72.6601 4.03999 72.6801 4.05999C72.7001 4.07999 72.7201 4.10999 72.7301 4.12999C72.7401 4.15999 72.7501 4.18999 72.7401 4.20999C72.7401 4.23999 72.7401 4.26999 72.7301 4.28999C72.7201 4.31999 72.7001 4.33999 72.6801 4.35999C72.6601 4.37999 72.6401 4.39999 72.6101 4.40999C72.5801 4.41999 72.5601 4.42999 72.5301 4.42999H72.5201Z" fill="#0FAF4B"/>
<path id="Vector_25" d="M73.0399 4.81997H69.9899C69.8399 4.80997 69.6999 4.73998 69.5999 4.61998C69.4999 4.50998 69.4399 4.35997 69.4399 4.20997C69.4399 4.05997 69.4999 3.90997 69.5999 3.79997C69.6999 3.68997 69.8399 3.61998 69.9899 3.59998H73.0399C73.1899 3.60998 73.3299 3.67997 73.4299 3.79997C73.5299 3.90997 73.5899 4.05997 73.5899 4.20997C73.5899 4.35997 73.5299 4.50998 73.4299 4.61998C73.3299 4.72998 73.1899 4.79997 73.0399 4.81997ZM69.9899 3.74998C69.8699 3.74998 69.7499 3.79997 69.6599 3.88997C69.5699 3.97997 69.5199 4.09997 69.5199 4.21997C69.5199 4.33997 69.5699 4.45997 69.6599 4.54997C69.7499 4.63997 69.8699 4.68998 69.9899 4.68998H73.0399C73.1599 4.68998 73.2799 4.63997 73.3699 4.54997C73.4599 4.45997 73.5099 4.33997 73.5099 4.21997C73.5099 4.09997 73.4599 3.97997 73.3699 3.88997C73.2799 3.79997 73.1599 3.74998 73.0399 3.74998H69.9899Z" fill="#FDF7F9"/>
<path id="Vector_26" d="M76.7999 3.65002H74.1899V4.87003H76.7999V3.65002Z" fill="#FCC5D2"/>
<path id="Vector_27" d="M48.58 3.58997H45.97V4.80997H48.58V3.58997Z" fill="#FCC5D2"/>
</g>
</svg>
