<svg width="14" height="14" viewBox="0 0 14 14" fill="none" xmlns="http://www.w3.org/2000/svg">
<g id="Frame 42">
<circle id="Ellipse 9" cx="7" cy="7" r="7" fill="#A5A5A5"/>
<g id="shape:icon">
<path fill-rule="evenodd" clip-rule="evenodd" d="M10.7773 8.55243H3.71833L4.61825 7.50594C4.69944 7.41187 4.69944 7.25943 4.61825 7.16537C4.53705 7.0713 4.40507 7.0713 4.32387 7.16537L3.06238 8.6255C3.04118 8.64608 3.02519 8.67295 3.01639 8.70319C2.99519 8.7624 2.99519 8.82917 3.01639 8.88838C3.02519 8.91862 3.04118 8.94549 3.06238 8.96607L4.32387 10.4262C4.36187 10.4732 4.41506 10.5001 4.47106 10.5001C4.52665 10.5001 4.57985 10.4732 4.61825 10.4262C4.65864 10.3821 4.68184 10.3204 4.68184 10.2561C4.68184 10.1915 4.65864 10.1297 4.61825 10.0856L3.71833 9.03914H10.7773C10.8933 9.03914 10.9877 8.93037 10.9877 8.79599C10.9877 8.66161 10.8933 8.55243 10.7773 8.55243ZM10.9377 5.37125L9.67661 6.8318C9.63821 6.87883 9.58502 6.90529 9.52942 6.90529C9.47383 6.90529 9.42023 6.87883 9.38224 6.8318C9.34144 6.78729 9.31864 6.72598 9.31864 6.66131C9.31864 6.59664 9.34144 6.5349 9.38224 6.49081L10.2822 5.44432H3.22317C3.10678 5.44432 3.01279 5.33556 3.01279 5.20118C3.01279 5.0668 3.10678 4.95761 3.22317 4.95761H10.2822L9.38224 3.91112C9.30104 3.81705 9.30104 3.66462 9.38224 3.57055C9.46343 3.47648 9.59542 3.47648 9.67661 3.57055L10.9377 5.03068C10.9589 5.05126 10.9749 5.07813 10.9841 5.10879C11.0053 5.168 11.0053 5.23435 10.9841 5.29356C10.9749 5.3238 10.9589 5.35067 10.9377 5.37125Z" fill="white"/>
<path d="M3.71833 8.55243L3.60459 8.45463L3.3915 8.70243H3.71833V8.55243ZM4.61825 7.50594L4.5047 7.40793L4.50452 7.40814L4.61825 7.50594ZM4.32387 7.16537L4.43738 7.26343L4.43742 7.26338L4.32387 7.16537ZM3.06238 8.6255L3.16726 8.73354L3.17589 8.72356L3.06238 8.6255ZM3.01639 8.70319L3.15787 8.75384L3.16041 8.7451L3.01639 8.70319ZM3.01639 8.88838L3.16068 8.84639L3.15761 8.83782L3.01639 8.88838ZM3.06238 8.96607L3.17633 8.86763L3.16686 8.85844L3.06238 8.96607ZM4.32387 10.4262L4.44062 10.3319L4.43738 10.3281L4.32387 10.4262ZM4.61825 10.4262L4.50747 10.3247L4.50205 10.3313L4.61825 10.4262ZM4.61825 10.0856L4.50446 10.1835L4.50765 10.187L4.61825 10.0856ZM3.71833 9.03914V8.88914H3.3915L3.60459 9.13694L3.71833 9.03914ZM9.67661 6.8318L9.56303 6.73373L9.56041 6.73694L9.67661 6.8318ZM9.38224 6.8318L9.49914 6.73736L9.49282 6.73045L9.38224 6.8318ZM9.38224 6.49081L9.49241 6.59275L9.49597 6.58861L9.38224 6.49081ZM10.2822 5.44432L10.3959 5.54212L10.609 5.29432H10.2822V5.44432ZM10.2822 4.95761V5.10761H10.609L10.3959 4.85981L10.2822 4.95761ZM9.38224 3.91112L9.49597 3.81332L9.49579 3.81311L9.38224 3.91112ZM9.67661 3.57055L9.56306 3.66856L9.56309 3.6686L9.67661 3.57055ZM10.9377 5.03068L10.8237 5.12911L10.8332 5.13831L10.9377 5.03068ZM10.9841 5.10879L10.8402 5.15196L10.8429 5.15935L10.9841 5.10879ZM10.9841 5.29356L10.8427 5.24294L10.8406 5.2499L10.9841 5.29356ZM10.7773 8.40243H3.71833V8.70243H10.7773V8.40243ZM3.83206 8.65023L4.73198 7.60374L4.50452 7.40814L3.60459 8.45463L3.83206 8.65023ZM4.7318 7.60395C4.86159 7.45358 4.86159 7.21773 4.7318 7.06736L4.5047 7.26338C4.53729 7.30114 4.53729 7.37017 4.5047 7.40793L4.7318 7.60395ZM4.7318 7.06736C4.59077 6.90397 4.35135 6.90397 4.21032 7.06736L4.43742 7.26338C4.45088 7.24779 4.46341 7.24482 4.47106 7.24482C4.47871 7.24482 4.49124 7.24779 4.5047 7.26338L4.7318 7.06736ZM4.21037 7.0673L2.94888 8.52743L3.17589 8.72356L4.43738 7.26343L4.21037 7.0673ZM2.95791 8.51787C2.91709 8.55749 2.88804 8.60739 2.87236 8.66127L3.16041 8.7451C3.16233 8.73851 3.16528 8.73466 3.16686 8.73313L2.95791 8.51787ZM2.87516 8.65263C2.84226 8.74453 2.84226 8.84704 2.87516 8.93894L3.15761 8.83782C3.14811 8.8113 3.14811 8.78027 3.15761 8.75375L2.87516 8.65263ZM2.87236 8.93029C2.88804 8.98417 2.91709 9.03408 2.95791 9.0737L3.16686 8.85844C3.16528 8.8569 3.16233 8.85306 3.16041 8.84647L2.87236 8.93029ZM2.94888 9.06413L4.21037 10.5243L4.43738 10.3281L3.17589 8.86801L2.94888 9.06413ZM4.20719 10.5205C4.27077 10.5992 4.36533 10.6501 4.47106 10.6501V10.3501C4.4648 10.3501 4.45297 10.3473 4.44055 10.3319L4.20719 10.5205ZM4.47106 10.6501C4.57666 10.6501 4.67085 10.599 4.73444 10.5211L4.50205 10.3313C4.48885 10.3475 4.47665 10.3501 4.47106 10.3501V10.6501ZM4.72885 10.5275C4.79638 10.4538 4.83184 10.3551 4.83184 10.2561H4.53184C4.53184 10.2856 4.52091 10.3104 4.50765 10.3249L4.72885 10.5275ZM4.83184 10.2561C4.83184 10.1568 4.79646 10.0581 4.72885 9.9843L4.50765 10.187C4.52082 10.2013 4.53184 10.2261 4.53184 10.2561H4.83184ZM4.73198 9.98783L3.83206 8.94134L3.60459 9.13694L4.50452 10.1834L4.73198 9.98783ZM3.71833 9.18914H10.7773V8.88914H3.71833V9.18914ZM10.7773 9.18914C10.9957 9.18914 11.1377 8.99224 11.1377 8.79599H10.8377C10.8377 8.82832 10.8263 8.85394 10.8126 8.86976C10.7991 8.8853 10.7862 8.88914 10.7773 8.88914V9.18914ZM11.1377 8.79599C11.1377 8.6001 10.996 8.40243 10.7773 8.40243V8.70243C10.786 8.70243 10.7989 8.70619 10.8125 8.72188C10.8263 8.73785 10.8377 8.76364 10.8377 8.79599H11.1377ZM10.8242 5.27322L9.56307 6.73377L9.79014 6.92983L11.0512 5.46928L10.8242 5.27322ZM9.56041 6.73694C9.5477 6.75251 9.53572 6.75529 9.52942 6.75529V7.05529C9.63431 7.05529 9.72872 7.00516 9.79281 6.92666L9.56041 6.73694ZM9.52942 6.75529C9.52268 6.75529 9.51073 6.75217 9.49892 6.73754L9.26555 6.92606C9.32973 7.0055 9.42497 7.05529 9.52942 7.05529V6.75529ZM9.49282 6.73045C9.47939 6.71581 9.46864 6.69155 9.46864 6.66131H9.16864C9.16864 6.7604 9.20348 6.85877 9.27165 6.93315L9.49282 6.73045ZM9.46864 6.66131C9.46864 6.63064 9.47964 6.60641 9.49234 6.59268L9.27213 6.38894C9.20324 6.4634 9.16864 6.56263 9.16864 6.66131H9.46864ZM9.49597 6.58861L10.3959 5.54212L10.1684 5.34652L9.2685 6.39301L9.49597 6.58861ZM10.2822 5.29432H3.22317V5.59432H10.2822V5.29432ZM3.22317 5.29432C3.21397 5.29432 3.2011 5.29041 3.18779 5.27501C3.17418 5.25928 3.16279 5.23367 3.16279 5.20118H2.86279C2.86279 5.39723 3.00425 5.59432 3.22317 5.59432V5.29432ZM3.16279 5.20118C3.16279 5.16865 3.1742 5.14287 3.1879 5.12699C3.20131 5.11145 3.21417 5.10761 3.22317 5.10761V4.80761C3.00394 4.80761 2.86279 5.00548 2.86279 5.20118H3.16279ZM3.22317 5.10761H10.2822V4.80761H3.22317V5.10761ZM10.3959 4.85981L9.49597 3.81332L9.2685 4.00892L10.1684 5.05541L10.3959 4.85981ZM9.49579 3.81311C9.46319 3.77535 9.46319 3.70632 9.49579 3.66856L9.26868 3.47254C9.13889 3.62291 9.13889 3.85876 9.26868 4.00913L9.49579 3.81311ZM9.49579 3.66856C9.50925 3.65297 9.52177 3.65 9.52942 3.65C9.53707 3.65 9.5496 3.65297 9.56306 3.66856L9.79016 3.47254C9.64914 3.30915 9.40971 3.30915 9.26868 3.47254L9.49579 3.66856ZM9.56309 3.6686L10.8242 5.12873L11.0512 4.93263L9.79013 3.4725L9.56309 3.6686ZM10.8332 5.13831C10.8347 5.13971 10.838 5.14379 10.8404 5.1519L11.1278 5.06568C11.1118 5.01247 11.0831 4.9628 11.0422 4.92305L10.8332 5.13831ZM10.8429 5.15935C10.8524 5.18587 10.8524 5.21648 10.8429 5.243L11.1253 5.34412C11.1582 5.25222 11.1582 5.15013 11.1253 5.05823L10.8429 5.15935ZM10.8406 5.2499C10.8382 5.25783 10.8348 5.26211 10.8332 5.26362L11.0422 5.47888C11.083 5.43924 11.1116 5.38977 11.1276 5.33722L10.8406 5.2499Z" fill="white"/>
</g>
</g>
</svg>
