<svg width="120" height="108" viewBox="0 0 120 108" fill="none" xmlns="http://www.w3.org/2000/svg">
<g id="Frame 104">
<path id="Vector" d="M119.27 108.13L106.79 77.9601C106.79 77.9601 108.63 66.3501 106.86 54.6601L55.0095 34.3001L46.5595 26.9901C46.0995 26.6001 45.5595 26.3201 44.9795 26.1701C44.3995 26.0201 43.7895 26.0201 43.1995 26.1501C42.6095 26.2801 42.0595 26.5501 41.5995 26.9301C41.1295 27.3101 40.7595 27.8001 40.5195 28.3501C39.9295 29.5901 39.7295 30.9701 39.9295 32.3301C40.1295 33.6901 40.7295 34.9501 41.6595 35.9601L53.3895 48.4801L52.3795 55.0301L43.0795 46.3001L38.5095 55.3401L44.0495 60.9201L41.2595 65.8401L47.0895 71.7501L45.7395 75.3001C45.7395 75.3001 51.1795 79.9801 57.2395 82.0001C62.8595 87.9301 66.8395 90.8901 75.9895 92.4501L81.8295 108.15H119.29L119.27 108.13Z" fill="#9E6936"/>
<path id="Vector_2" d="M75.9595 92.45C78.8195 93.07 84.1295 92.19 87.4695 91.51C87.8195 91.45 88.1795 91.48 88.5195 91.59C88.8595 91.7 89.1695 91.89 89.4195 92.14C89.6695 92.39 89.8595 92.7 89.9695 93.04C90.0795 93.38 90.1095 93.74 90.0495 94.09L88.3795 108.13H81.8095L75.9495 92.45H75.9595Z" fill="#654C3A"/>
<path id="Vector_3" d="M96.1196 50.43C96.1196 50.43 94.5296 53.33 93.2296 54.62C91.9196 55.91 92.3596 48.64 92.3596 48.64L96.1196 50.43Z" fill="#654C3A"/>
<path id="Vector_4" d="M55.9495 81.5399L61.4695 36.81L55.0295 34.27L46.5795 26.9599C46.1195 26.5699 45.5795 26.2799 44.9995 26.1399C44.4195 25.9999 43.8095 25.9799 43.2195 26.1199C42.6295 26.2499 42.0795 26.5199 41.6195 26.8999C41.1495 27.2799 40.7895 27.7699 40.5395 28.3199C39.9495 29.5599 39.7395 30.9399 39.9395 32.2999C40.1395 33.6599 40.7395 34.9199 41.6695 35.9299L53.3995 48.45L52.3795 54.9999L43.0795 46.27L38.5095 55.31L44.0395 60.8899L41.2495 65.81L47.0795 71.72L45.7295 75.2699C45.7295 75.2699 50.4395 79.3299 55.9695 81.5099" fill="#9E6936"/>
<path id="Vector_5" d="M48.1995 76.02C48.1995 76.02 50.8495 77.67 55.0795 70.66L52.1795 68.89L48.1995 76.02Z" fill="#654C3A"/>
<path id="Vector_6" d="M89.0595 82.8H58.6695C57.9295 82.8 57.1995 82.65 56.5195 82.37C55.8395 82.09 55.2195 81.67 54.6895 81.15C54.1695 80.63 53.7495 80.01 53.4695 79.32C53.1895 78.64 53.0395 77.91 53.0495 77.17V5.62C53.0495 4.88 53.1895 4.15 53.4795 3.47C53.7595 2.79 54.1795 2.17 54.6995 1.65C55.2195 1.13 55.8395 0.71 56.5195 0.43C57.1995 0.15 57.9295 0 58.6695 0H89.0595C89.7995 0 90.5295 0.15 91.2095 0.43C91.8895 0.71 92.5095 1.13 93.0295 1.65C93.5495 2.17 93.9695 2.79 94.2495 3.47C94.5295 4.15 94.6795 4.88 94.6795 5.62V77.17C94.6795 77.91 94.5395 78.64 94.2495 79.32C93.9695 80 93.5495 80.62 93.0295 81.14C92.5095 81.66 91.8895 82.08 91.2095 82.36C90.5295 82.64 89.7995 82.79 89.0595 82.79" fill="#063241"/>
<path id="Vector_7" d="M88.8896 2.21996H82.1096C81.7996 2.22996 81.4996 2.35997 81.2896 2.58997C81.0696 2.81997 80.9596 3.11996 80.9696 3.43996C80.9696 3.74996 80.8596 4.04997 80.6496 4.27997C80.4396 4.50997 80.1396 4.63996 79.8296 4.64996H67.9096C67.5996 4.63996 67.3096 4.50997 67.0896 4.27997C66.8796 4.04997 66.7596 3.74996 66.7696 3.43996C66.7696 3.12996 66.6596 2.81997 66.4496 2.58997C66.2296 2.35997 65.9396 2.22996 65.6196 2.21996H58.8596C57.8496 2.24996 56.8896 2.67997 56.1896 3.40997C55.4896 4.14997 55.1196 5.12996 55.1496 6.13996V76.66C55.1196 77.67 55.4996 78.65 56.1896 79.39C56.8796 80.13 57.8396 80.55 58.8596 80.58H88.8996C89.9096 80.55 90.8696 80.12 91.5696 79.39C92.2696 78.65 92.6396 77.67 92.6096 76.66V6.12997C92.6396 5.11997 92.2596 4.13996 91.5696 3.39996C90.8696 2.65996 89.9196 2.23996 88.8996 2.20996" fill="#FDF7F9"/>
<path id="Vector_8" d="M70.2995 3.11998C70.2995 3.19998 70.2995 3.27998 70.2695 3.35998C70.2395 3.43998 70.1995 3.50998 70.1495 3.56998C70.0995 3.62998 70.0295 3.67998 69.9595 3.70998C69.8895 3.73998 69.8095 3.75998 69.7295 3.75998C69.6495 3.75998 69.5695 3.73998 69.4995 3.70998C69.4295 3.67998 69.3595 3.62998 69.3095 3.56998C69.2595 3.50998 69.2095 3.43998 69.1895 3.35998C69.1595 3.27998 69.1495 3.19998 69.1595 3.11998C69.1595 3.03998 69.1595 2.95998 69.1895 2.87998C69.2095 2.79998 69.2595 2.72998 69.3095 2.66998C69.3595 2.60998 69.4295 2.55998 69.4995 2.52998C69.5695 2.49998 69.6495 2.47998 69.7295 2.47998C69.8095 2.47998 69.8895 2.49998 69.9595 2.52998C70.0295 2.55998 70.0995 2.60998 70.1495 2.66998C70.1995 2.72998 70.2495 2.79998 70.2695 2.87998C70.2995 2.95998 70.3095 3.03998 70.2995 3.11998Z" fill="#043058"/>
<path id="Vector_9" d="M78.2796 3.43005H71.1196C71.0396 3.43005 70.9596 3.40006 70.8996 3.34006C70.8396 3.28006 70.8096 3.20006 70.8096 3.12006C70.8096 3.04006 70.8396 2.96005 70.8996 2.90005C70.9596 2.84005 71.0396 2.81006 71.1196 2.81006H78.2996C78.3796 2.81006 78.4596 2.84005 78.5196 2.90005C78.5796 2.96005 78.6096 3.04006 78.6096 3.12006C78.6096 3.20006 78.5796 3.28006 78.5196 3.34006C78.4596 3.40006 78.3796 3.43005 78.2996 3.43005" fill="#043058"/>
<path id="Vector_10" d="M85.8395 4.34H82.7895C82.6395 4.33 82.4995 4.25999 82.3995 4.13999C82.2995 4.02999 82.2395 3.88 82.2395 3.73C82.2395 3.58 82.2995 3.42999 82.3995 3.31999C82.4995 3.20999 82.6395 3.14 82.7895 3.12H85.8395C85.9895 3.13 86.1295 3.19999 86.2295 3.31999C86.3295 3.42999 86.3895 3.58 86.3895 3.73C86.3895 3.88 86.3295 4.02999 86.2295 4.13999C86.1295 4.24999 85.9895 4.32 85.8395 4.34ZM82.7895 3.25999C82.6695 3.25999 82.5495 3.30999 82.4595 3.39999C82.3695 3.48999 82.3195 3.61 82.3195 3.73C82.3195 3.85 82.3695 3.97 82.4595 4.06C82.5495 4.15 82.6695 4.2 82.7895 4.2H85.8395C85.9595 4.2 86.0795 4.15 86.1695 4.06C86.2595 3.97 86.3095 3.85 86.3095 3.73C86.3095 3.61 86.2595 3.48999 86.1695 3.39999C86.0795 3.30999 85.9595 3.25999 85.8395 3.25999H82.7895Z" fill="#FDF7F9"/>
<path id="Vector_11" d="M85.3096 3.95001H82.7996C82.7996 3.95001 82.7396 3.95001 82.7196 3.93001C82.6896 3.92001 82.6696 3.90001 82.6496 3.88001C82.6296 3.86001 82.6096 3.83001 82.5996 3.81001C82.5996 3.78001 82.5896 3.75001 82.5896 3.73001C82.5896 3.71001 82.5896 3.67001 82.5996 3.65001C82.6096 3.62001 82.6296 3.60001 82.6496 3.58001C82.6696 3.56001 82.6896 3.54001 82.7196 3.53001C82.7496 3.52001 82.7696 3.51001 82.7996 3.51001H85.3096C85.3096 3.51001 85.3696 3.51001 85.3896 3.53001C85.4196 3.54001 85.4396 3.56001 85.4596 3.58001C85.4796 3.60001 85.4896 3.62001 85.4996 3.65001C85.4996 3.68001 85.5096 3.70001 85.5096 3.73001C85.5096 3.79001 85.4896 3.84001 85.4496 3.88001C85.4096 3.92001 85.3596 3.95001 85.2996 3.95001H85.3096Z" fill="#0FAF4B"/>
<path id="Vector_12" d="M70.9196 44.65L67.8696 40.03L69.5696 38.91L71.3396 41.6L79.5696 34.46L80.8996 35.99L70.9196 44.65Z" fill="#0FAF4B"/>
<path id="Vector_13" d="M74.4795 49.95C72.3495 49.95 70.2595 49.32 68.4895 48.13C66.7195 46.95 65.3295 45.26 64.5195 43.29C63.6995 41.32 63.4895 39.15 63.9095 37.06C64.3295 34.97 65.3495 33.05 66.8595 31.54C68.3695 30.03 70.2895 29.01 72.3795 28.59C74.4695 28.17 76.6395 28.39 78.6095 29.2C80.5795 30.02 82.2695 31.4 83.4495 33.17C84.6295 34.94 85.2695 37.03 85.2695 39.16C85.2695 42.02 84.1295 44.76 82.1095 46.78C80.0895 48.8 77.3495 49.94 74.4895 49.94L74.4795 49.95ZM74.4795 30.42C72.7495 30.42 71.0595 30.93 69.6195 31.89C68.1795 32.85 67.0595 34.22 66.3995 35.82C65.7395 37.42 65.5595 39.18 65.8995 40.87C66.2395 42.57 67.0695 44.12 68.2995 45.35C69.5195 46.57 71.0795 47.41 72.7795 47.74C74.4795 48.08 76.2395 47.9 77.8395 47.24C79.4395 46.58 80.8095 45.46 81.7695 44.02C82.7295 42.58 83.2495 40.89 83.2495 39.16C83.2495 36.84 82.3295 34.62 80.6795 32.98C79.0395 31.34 76.8095 30.42 74.4895 30.42H74.4795Z" fill="#0FAF4B"/>
<path id="Vector_14" d="M42.8896 65.98C42.8896 65.98 47.3597 68.01 53.1597 61.04L53.5997 53.87L42.8896 65.98Z" fill="#654C3A"/>
<path id="Vector_15" d="M39.8096 55.6101L50.2896 53.1801L46.1696 49.3101L39.8096 55.6101Z" fill="#654C3A"/>
<path id="Vector_16" d="M43.2395 35.48C43.2395 35.48 50.0595 36.13 53.3095 32.9L48.3695 28.65L43.2395 35.49V35.48Z" fill="#654C3A"/>
<path id="Vector_17" d="M45.8195 75.4899C44.0795 74.1099 43.6695 71.2299 45.3995 68.2599C46.7395 66.1499 48.2495 64.1499 49.8995 62.2799C50.4095 61.8599 51.9695 58.4299 53.1495 58.4299C54.3295 58.4299 55.9095 59.7799 55.5095 63.1099C55.1095 66.4399 53.4395 67.6299 53.4395 67.6299C53.4395 67.6299 52.1695 72.4199 50.9295 74.1799C49.6995 75.9499 47.3295 76.6799 45.8195 75.4799V75.4899Z" fill="#9E6936"/>
<path id="Vector_18" d="M51.4196 66.04L51.0796 66.47C51.7796 67.06 52.5396 67.57 53.3496 67.99L53.4496 67.63C53.5096 67.59 53.5596 67.55 53.6096 67.5C52.8296 67.1 52.0896 66.6 51.4196 66.03" fill="#9E6936"/>
<path id="Vector_19" d="M54.3096 61.36C54.8196 59.78 53.2097 58.2 52.4897 58.75C51.6097 59.46 50.6596 61.29 50.1396 62.01L53.1597 64.3C53.5997 63.35 53.9896 62.37 54.3096 61.37V61.36Z" fill="#9E6936"/>
<path id="Vector_20" d="M41.3394 66.03C39.4994 65.02 39.3794 62.29 40.6594 60.26C41.7594 58.52 46.2394 53.52 46.8594 52.77C47.7194 51.98 48.6194 51.23 49.5594 50.53C49.5594 50.53 52.7594 46.71 53.7894 47.49C54.8194 48.27 56.2394 51.12 54.3994 53.92C52.5594 56.72 50.9394 57.72 50.9394 57.72C50.3194 59.43 49.3894 61.02 48.1994 62.4C46.1194 64.89 43.6894 67.34 41.3494 66.04" fill="#9E6936"/>
<path id="Vector_21" d="M51.6295 53.51C51.6295 53.51 55.5096 49.39 52.5896 47.71C51.2696 48.51 49.5396 50.55 49.5396 50.55C50.5096 51.31 51.2295 52.34 51.6095 53.51" fill="#9E6936"/>
<path id="Vector_22" d="M49.4595 55.61L49.1995 56.09C49.9195 56.56 50.4895 57.22 50.8495 58C50.9195 57.82 50.9495 57.72 50.9495 57.72C51.0495 57.66 51.1395 57.59 51.2295 57.52C50.8195 56.74 50.2195 56.08 49.4695 55.61H49.4595Z" fill="#9E6936"/>
<path id="Vector_23" d="M38.1195 55.4799C39.7595 57.1299 46.8495 52.5199 49.6695 46.7499C52.3395 44.7799 54.9495 41.7099 54.3095 38.6899C53.6695 35.6799 51.8095 35.7799 51.8095 35.7799C51.8095 35.7799 48.4095 38.7899 46.2695 40.0899C44.1295 41.3899 41.1895 44.8199 39.3495 46.8499C37.5095 48.8699 35.7995 53.1399 38.1295 55.4799H38.1195Z" fill="#9E6936"/>
<path id="Vector_24" d="M50.4394 42.26C51.4694 41.57 52.3194 40.64 52.9194 39.55C53.6894 38.09 52.7294 36.45 51.7994 35.78C51.7994 35.78 49.9694 37.4 48.1494 38.78C48.8394 39.98 49.6094 41.15 50.4394 42.26Z" fill="#9E6936"/>
<path id="Vector_25" d="M48.4196 44.75L48.0796 45.17C48.6396 45.7 49.1496 46.28 49.5796 46.92C49.6096 46.86 49.6396 46.81 49.6696 46.75L49.9596 46.53C49.5196 45.88 49.0096 45.29 48.4396 44.75" fill="#9E6936"/>
<path id="Vector_26" d="M40.8496 34.04C39.1596 32.18 39.3696 28.77 41.6896 24.68C44.0096 20.6 45.1396 19.04 46.4996 17.32C47.6196 15.9 51.0696 11.74 51.0696 11.74C51.0696 11.74 53.8496 12.39 54.2096 14.96C54.5696 17.53 52.1796 22.03 50.6996 23.24C50.4196 25.67 48.7596 30.47 47.3396 32.37C45.9196 34.28 42.9496 36.36 40.8296 34.02" fill="#9E6936"/>
<path id="Vector_27" d="M50.6196 12.34C49.7996 13.32 48.0796 15.38 47.0696 16.66C47.9696 17.66 48.9996 18.54 50.1196 19.28C51.0996 18.45 51.8496 17.38 52.2896 16.17C53.1396 14.14 51.2796 12.75 50.6596 12.33" fill="#9E6936"/>
<path id="Vector_28" d="M48.9296 22.4299L48.6196 22.8799C49.2296 23.2899 49.9396 23.5399 50.6796 23.6099C50.6796 23.4899 50.7196 23.3799 50.7296 23.2699C50.7396 23.1599 50.8696 23.1399 50.9396 23.0699C50.2196 23.0399 49.5196 22.8199 48.9096 22.4299" fill="#9E6936"/>
<path id="Vector_29" d="M106.82 54.92C106.82 54.92 101.92 40.85 101.1 38.04C100.64 36.42 99.9996 34.86 99.1896 33.38C99.1896 33.38 97.0896 27.08 96.2696 27.08C95.4496 27.08 90.7696 30.85 94.7496 40.72C94.5996 43.57 95.0396 46.42 96.0496 49.09V54L106.82 54.92Z" fill="#9E6936"/>
<path id="Vector_30" d="M99.1995 33.39C99.1995 33.39 97.8395 29.33 96.8895 27.73C94.2695 29.03 96.2695 34.6 96.2695 34.6L99.1995 33.39Z" fill="#9E6936"/>
<path id="Vector_31" d="M96.0795 49.3599L98.1795 48.9499L98.0895 48.4399L95.9895 48.8399C96.0195 48.9199 96.0495 48.9999 96.0795 49.0699V49.3499V49.3599Z" fill="#9E6936"/>
<path id="Vector_32" d="M94.7794 40.72V40.89L97.0194 39.88L96.8194 39.41L94.6694 40.42C94.7094 40.53 94.7494 40.64 94.7994 40.75" fill="#9E6936"/>
<path id="Vector_33" d="M98.8996 39.77L98.8696 40.28C99.0696 40.29 99.2696 40.29 99.4696 40.28C100.21 40.21 100.95 40.06 101.66 39.82L101.5 39.34C100.66 39.63 99.7796 39.78 98.8896 39.79" fill="#9E6936"/>
<path id="Vector_34" d="M98.6897 38.43C99.3397 37.91 100.07 37.5 100.85 37.22C100.8 37.05 100.74 36.9 100.69 36.74C99.8497 37.04 99.0796 37.47 98.3896 38.03L98.6996 38.43H98.6897Z" fill="#9E6936"/>
<path id="Vector_35" d="M89.7594 3.09998H87.1494V4.31997H89.7594V3.09998Z" fill="#FCC5D2"/>
<path id="Vector_36" d="M61.5394 3.03003H58.9194V4.25002H61.5394V3.03003Z" fill="#FCC5D2"/>
<path id="Vector_37" d="M41.0572 97.5754C43.3394 97.686 45.6343 97.5495 47.914 97.1548C50.0876 96.7291 52.2235 96.0476 54.2821 95.1288L54.5508 94.9956L54.9995 94.7624L55.6084 94.4787C56.0759 94.3333 56.5502 94.3053 57.0129 94.3872C57.7553 94.5238 58.4228 94.9283 58.9065 95.5231C59.1257 95.7827 59.2841 96.0868 59.3803 96.4118C59.4857 96.7406 59.5196 97.0866 59.486 97.4399C59.4308 97.6585 59.3717 97.8871 59.3112 98.0921C59.1226 98.5096 58.8173 98.8689 58.4415 99.1083L58.063 99.3007L58.0061 99.3353L57.9664 99.3538C56.0643 100.312 54.0783 101.077 52.0441 101.638C50.8614 101.956 49.6375 102.189 48.4572 102.393C47.42 102.562 46.3708 102.681 45.3227 102.744C43.0185 102.876 40.7099 102.778 38.4431 102.467C36.1207 102.134 33.8495 101.592 31.6334 100.832C29.493 100.125 27.4356 99.2099 25.4704 98.0913C23.3754 96.9208 21.4044 95.5477 19.5589 93.9955C18.5471 93.1322 17.5856 92.1974 16.6677 91.2341C15.9478 90.4761 15.2715 89.6897 14.6296 88.8712C13.242 87.0896 12.0185 85.1673 10.9922 83.129C10.4118 81.9684 9.91082 80.7707 9.47999 79.5323C8.9905 78.1443 8.60297 76.7169 8.30019 75.2661C8.13244 74.3393 8.00045 73.4039 7.92279 72.4673C7.44265 72.8598 6.96645 73.2424 6.49559 73.6386L5.74435 74.2781C5.61611 74.4102 5.48254 74.5287 5.33435 74.6298L5.28673 74.6681C4.8566 74.9087 4.3931 75.0442 3.91875 75.0722C3.44441 75.1003 2.97245 75.0146 2.54398 74.8203C2.11551 74.6259 1.73586 74.3365 1.43288 73.9631C1.12989 73.5897 0.918192 73.1497 0.808441 72.6702C0.727921 72.2253 0.782536 71.7658 0.961803 71.3446C1.15035 70.9271 1.45565 70.5678 1.8275 70.3383C2.84589 69.4619 3.88422 68.6164 4.91723 67.7573C5.36024 67.3499 5.79 66.9487 6.19725 66.55C6.60054 66.1611 7.16251 65.6179 7.61461 65.1339C7.81952 64.9179 8.02048 64.7117 8.22401 64.4722L8.36945 64.324C8.55855 64.1475 8.75297 63.9846 8.9474 63.8216C9.36292 63.5637 9.83037 63.4183 10.31 63.4039C10.8387 63.3747 11.3611 63.469 11.828 63.7017C12.1212 63.8304 12.3853 64.0049 12.6243 64.2151C12.9789 64.5404 13.303 64.8878 13.606 65.2612C14.1083 65.8633 14.6263 66.426 15.167 66.9861C16.0331 67.9172 16.8846 68.831 17.7414 69.7584C17.9672 69.9748 18.2022 70.1949 18.4505 70.4089C18.7865 70.7267 19.1569 71.0124 19.5484 71.2722L20.0677 71.778C20.3561 72.1341 20.5492 72.5667 20.635 73.0251C20.6954 73.3588 20.679 73.6961 20.5896 74.0271C20.5002 74.3582 20.3327 74.6694 20.1119 74.925C19.6347 75.4448 18.9861 75.747 18.3077 75.7736L17.584 75.7248C17.0802 75.6379 16.5961 75.4213 16.1965 75.1009C15.8952 74.9116 15.6205 74.71 15.3522 74.4651C15.0522 74.219 14.76 73.9531 14.4772 73.691C14.1226 73.3657 13.7906 73.038 13.4625 72.7004C13.6331 74.2932 13.956 75.8552 14.3941 77.3716C15.0907 79.5073 16.0123 81.5381 17.1483 83.4368C18.3878 85.3999 19.831 87.2038 21.4501 88.8373C23.1938 90.5093 25.1121 91.9874 27.153 93.2394C29.284 94.4817 31.551 95.4918 33.8983 96.2474C36.2003 96.9277 38.5747 97.3732 40.9829 97.5457" fill="#FFCB05"/>
</g>
</svg>
