<svg width="235" height="182" viewBox="0 0 235 182" fill="none" xmlns="http://www.w3.org/2000/svg">
<g clip-path="url(#clip0_1_1001)">
<path d="M117.82 33.9714C115.555 33.6798 113.26 33.644 110.958 33.8392C108.752 34.09 106.566 34.6079 104.445 35.3666C104.351 35.4051 104.26 35.4339 104.175 35.4765L103.71 35.6729C103.498 35.7512 103.286 35.8294 103.074 35.9076C102.6 36.0058 102.124 35.9865 101.675 35.862C100.94 35.6648 100.308 35.2217 99.8725 34.5883C99.6801 34.3124 99.5416 33.9911 99.4664 33.652C99.3912 33.3128 99.3882 32.9601 99.4487 32.6131C99.542 32.41 99.6035 32.1806 99.6786 31.9691C99.897 31.5658 100.225 31.2362 100.617 31.0299L101.023 30.8651L101.081 30.8334L101.108 30.8459C103.075 30.0397 105.115 29.4315 107.18 29.0336C108.396 28.8311 109.58 28.6727 110.815 28.5726C111.868 28.4595 112.905 28.4556 113.964 28.4739C116.272 28.5277 118.556 28.8042 120.786 29.2907C123.072 29.8023 125.3 30.5337 127.439 31.4585C129.51 32.3401 131.492 33.4152 133.363 34.685C135.352 36.0091 137.215 37.5335 138.926 39.2219C139.867 40.1695 140.758 41.1764 141.585 42.2246C142.248 43.033 142.862 43.8772 143.435 44.7379C144.681 46.6228 145.748 48.6359 146.612 50.7548C147.106 51.9542 147.515 53.1962 147.847 54.4615C148.225 55.8888 148.504 57.3407 148.684 58.8172C148.792 59.7567 148.845 60.6948 148.848 61.6451C149.357 61.2814 149.87 60.9316 150.369 60.5637C150.634 60.3694 150.886 60.2042 151.161 59.9906C151.295 59.8651 151.444 59.7576 151.597 59.664L151.646 59.6282C152.093 59.4234 152.567 59.3252 153.047 59.3349C153.527 59.3446 153.985 59.4732 154.398 59.6985C154.812 59.9238 155.168 60.2513 155.438 60.6449C155.708 61.0386 155.884 61.4942 155.956 61.9841C156.005 62.4283 155.914 62.89 155.696 63.2933C155.486 63.7008 155.159 64.0304 154.753 64.2422C153.674 65.0345 152.567 65.7907 151.478 66.5787C151.006 66.9591 150.579 67.3134 150.111 67.6841C149.644 68.0548 149.082 68.5346 148.593 68.9772C148.368 69.1785 148.157 69.3743 147.928 69.5853L147.775 69.7259C147.582 69.883 147.37 70.0318 147.163 70.1709C146.731 70.3937 146.252 70.5016 145.777 70.4822C145.252 70.4752 144.748 70.3257 144.298 70.0601C144.016 69.9072 143.761 69.7197 143.546 69.4922C143.213 69.1398 142.911 68.7669 142.645 68.3635C142.197 67.7356 141.721 67.1186 141.223 66.5265C140.422 65.5614 139.654 64.5521 138.863 63.5677C138.652 63.3305 138.429 63.0988 138.205 62.8672C137.89 62.5232 137.543 62.1999 137.179 61.9152L136.704 61.3688C136.438 60.989 136.276 60.5514 136.24 60.0782C136.206 59.7461 136.244 59.4004 136.359 59.0785C136.474 58.7565 136.661 58.4679 136.904 58.2279C137.155 57.9921 137.461 57.8049 137.768 57.6882C138.088 57.5661 138.423 57.5089 138.753 57.532L139.478 57.631C139.977 57.7666 140.436 58.0128 140.815 58.3625C141.102 58.5764 141.357 58.8109 141.613 59.069C141.891 59.3492 142.161 59.6253 142.425 59.911C142.75 60.2592 143.056 60.6225 143.362 60.9858C143.308 59.3796 143.118 57.8049 142.789 56.2477C142.254 54.0578 141.49 51.9613 140.505 49.9623C139.411 47.8897 138.1 45.952 136.587 44.1908C134.975 42.3836 133.187 40.7655 131.239 39.3543C129.213 37.943 127.044 36.747 124.769 35.7831C122.526 34.9161 120.194 34.2896 117.797 33.9256" fill="#FFCB05"/>
<path d="M77.5599 76.1101C77.5599 76.1101 70.4099 89.3301 63.1499 98.4401C60.2599 102.07 57.3499 105.04 54.8699 106.29C52.4599 107.58 50.3499 109.37 48.6799 111.53C44.2699 116.95 42.2399 123.74 42.2399 123.74L23.6699 97.7801C23.6699 97.7801 24.2999 72.4101 26.5299 68.1601C29.7799 61.9701 31.3499 49.4801 32.6199 46.9901C33.5099 45.1501 36.1599 35.6101 36.4199 34.9101C36.5299 34.6101 37.4399 34.1401 38.5599 34.1501C39.2399 34.2101 39.8799 34.4901 40.3999 34.9401C40.9099 35.3901 41.2699 35.9901 41.4299 36.6501C43.4199 45.1501 41.0299 50.7701 41.0499 51.0201C41.7499 57.5601 39.6399 62.4101 41.1199 63.7101C41.1799 63.7601 41.2799 63.7101 41.4199 63.6501C43.9799 62.1301 59.8699 40.7301 61.8299 40.2701C63.8999 39.7601 77.5699 76.1501 77.5699 76.1501" fill="#9E6936"/>
<path d="M47.82 118.61C47.82 118.61 47.57 130.14 46.85 145.68H0C10.71 124.58 20.02 106.83 20.02 106.83C20.02 106.83 46.71 107.58 47.82 118.61Z" fill="#004F71"/>
<path d="M93.7998 31.42L88.0498 39.21L82.3998 46.85C82.2598 47.03 82.0798 47.16 81.8798 47.25C81.6798 47.34 81.4498 47.37 81.2298 47.36C79.8698 47.24 78.1798 45.44 76.8898 44.44L76.7598 44.34C76.3498 44.05 76.0098 43.67 75.7598 43.24C75.5098 42.81 75.3498 42.32 75.2998 41.82C75.2498 41.32 75.2998 40.82 75.4598 40.34C75.6198 39.86 75.8798 39.43 76.2098 39.06L84.8398 29.42L87.3798 26.56C88.0998 25.79 89.0898 25.31 90.1398 25.21C91.1998 25.12 92.2498 25.41 93.0998 26.05L93.2298 26.15C93.6398 26.44 93.9798 26.82 94.2298 27.25C94.4798 27.68 94.6398 28.17 94.6898 28.67C94.7398 29.17 94.6898 29.67 94.5298 30.15C94.3698 30.63 94.1198 31.06 93.7798 31.43" fill="#9E6936"/>
<path d="M88.05 39.2L82.4 46.84C82.26 47.02 82.08 47.15 81.88 47.24C81.68 47.33 81.45 47.36 81.23 47.35L84.85 29.41C84.85 29.51 85.47 37.56 88.05 39.23" fill="#654C3A"/>
<path d="M63.1501 98.47C60.2601 102.1 57.3501 105.07 54.8701 106.33C52.4601 107.61 50.3501 109.39 48.6801 111.54C46.7301 110.7 44.4901 109.71 42.3101 108.73C41.7201 108.5 41.2101 108.09 40.8401 107.57C40.4801 107.05 40.2701 106.43 40.2501 105.8C40.2301 105.16 40.4001 104.54 40.7401 104C41.0801 103.46 41.5601 103.03 42.1401 102.76L42.2201 102.72C44.6601 101.43 47.1601 96.88 47.1601 96.88L63.1501 98.47Z" fill="#654C3A"/>
<path d="M36.3 35.3201L34.78 40.9301C34.78 40.9301 36.09 41.4401 36.94 41.0501C37.79 40.6601 38.49 35.6401 36.31 35.3301L36.3 35.3201Z" fill="#654C3A"/>
<path d="M90.94 60.83L90.08 61.13L84.31 63.16C84.18 63.21 84.04 63.25 83.9 63.28C82.99 63.51 82.02 63.42 81.17 63.01C80.32 62.6 79.64 61.91 79.25 61.05L79.16 60.84C78.98 60.38 78.9 59.9 78.92 59.41C78.94 58.92 79.06 58.44 79.28 58C79.49 57.56 79.8 57.17 80.17 56.85C80.54 56.53 80.97 56.3 81.44 56.15L86.83 54.27L87.22 54.13L88.08 53.83C89.04 53.48 90.09 53.5 91.03 53.89C91.97 54.28 92.73 55.01 93.16 55.93L93.25 56.13C93.43 56.59 93.51 57.07 93.49 57.56C93.47 58.05 93.35 58.53 93.14 58.97C92.93 59.41 92.62 59.8 92.25 60.12C91.88 60.44 91.45 60.68 90.98 60.82" fill="#9E6936"/>
<path d="M86.25 60.9501C85.07 61.4001 83.85 61.7501 82.61 62.0101C82.38 62.0101 82.16 61.9601 81.95 61.8601C81.74 61.7601 81.56 61.6301 81.41 61.4501C81.08 61.1101 80.83 60.6901 80.68 60.2401C80.59 59.9901 80.52 59.7301 80.48 59.4701C80.44 59.1601 80.46 58.8501 80.52 58.5501C80.55 58.4001 80.62 58.2701 80.71 58.1601C80.81 58.0501 80.93 57.9601 81.06 57.9001C82.19 57.3801 83.36 56.9601 84.56 56.6301C84.91 56.5101 85.3 56.5301 85.65 56.6701C86 56.8101 86.28 57.0701 86.45 57.4101L86.57 57.7101L87.19 59.2801C87.24 59.4501 87.26 59.6301 87.24 59.8101C87.22 59.9901 87.16 60.1601 87.07 60.3201C86.98 60.4801 86.86 60.6101 86.72 60.7201C86.58 60.8301 86.41 60.9101 86.24 60.9501" fill="#654C3A"/>
<path d="M86.2502 60.9501C85.0702 61.4001 83.8502 61.7501 82.6102 62.0101C82.3802 62.0101 82.1601 61.9601 81.9501 61.8601C81.7401 61.7601 81.5602 61.6301 81.4102 61.4501C81.3602 61.3401 81.3201 61.2401 81.2701 61.1201C81.1801 60.8701 81.1102 60.6101 81.0802 60.3501C81.0402 60.0501 81.0502 59.7401 81.1102 59.4401C81.1402 59.2901 81.2102 59.1601 81.3002 59.0501C81.4002 58.9401 81.5202 58.8501 81.6502 58.7901C82.7802 58.2801 83.9502 57.8501 85.1502 57.5301C85.3902 57.4601 85.6401 57.4501 85.8801 57.4801C86.1201 57.5101 86.3602 57.6001 86.5702 57.7301L87.1902 59.3001C87.2402 59.4701 87.2601 59.6501 87.2401 59.8301C87.2201 60.0101 87.1602 60.1801 87.0702 60.3401C86.9802 60.5001 86.8602 60.6301 86.7202 60.7401C86.5802 60.8501 86.4101 60.9301 86.2401 60.9701" fill="#654C3A"/>
<path d="M88.32 68.32L83.87 69.44C83.24 69.61 82.56 69.54 81.98 69.23C81.4 68.92 80.96 68.41 80.75 67.79L80.61 67.32C80.53 67.01 80.51 66.69 80.56 66.38C80.61 66.07 80.72 65.77 80.88 65.49C81.05 65.22 81.27 64.99 81.53 64.8C81.79 64.62 82.08 64.49 82.4 64.42L86.85 63.3C87.48 63.13 88.16 63.2 88.74 63.51C89.32 63.82 89.76 64.33 89.97 64.95L90.11 65.42C90.19 65.73 90.21 66.05 90.16 66.36C90.11 66.67 90 66.97 89.84 67.25C89.67 67.52 89.45 67.75 89.19 67.94C88.93 68.12 88.64 68.25 88.32 68.32Z" fill="#9E6936"/>
<path d="M85.9201 68.12C84.9101 68.39 83.8901 68.59 82.8501 68.72C82.5901 68.69 82.3401 68.59 82.1301 68.44C81.9201 68.28 81.7501 68.08 81.6401 67.84C81.5401 67.66 81.4601 67.46 81.4101 67.26C81.3601 67.06 81.3201 66.86 81.3101 66.66C81.3101 66.42 81.3401 66.19 81.4101 65.96C81.4501 65.85 81.5201 65.75 81.6101 65.66C81.7001 65.58 81.8001 65.52 81.9201 65.48C82.8901 65.15 83.8801 64.9 84.8901 64.71C85.1801 64.64 85.4901 64.67 85.7601 64.8C86.0301 64.93 86.2501 65.15 86.3701 65.43L86.4801 65.8L86.8301 66.91C86.8601 67.05 86.8501 67.19 86.8201 67.33C86.7901 67.47 86.7301 67.6 86.6401 67.71C86.5501 67.82 86.4501 67.92 86.3201 67.99C86.2001 68.06 86.0601 68.11 85.9201 68.12Z" fill="#654C3A"/>
<path d="M85.92 68.12C84.91 68.39 83.89 68.59 82.85 68.72C82.59 68.69 82.34 68.59 82.13 68.44C81.92 68.28 81.75 68.08 81.64 67.84C81.59 67.65 81.56 67.46 81.55 67.27C81.55 67.03 81.58 66.79 81.65 66.56C81.69 66.45 81.76 66.35 81.85 66.27C81.94 66.19 82.04 66.13 82.16 66.1C83.13 65.78 84.12 65.52 85.13 65.34C85.38 65.29 85.63 65.3 85.87 65.38C86.11 65.46 86.32 65.61 86.49 65.8L86.84 66.91C86.87 67.05 86.86 67.19 86.83 67.33C86.8 67.47 86.74 67.6 86.65 67.71C86.56 67.82 86.46 67.92 86.33 67.99C86.21 68.06 86.07 68.11 85.93 68.12" fill="#654C3A"/>
<path d="M15.46 115.58C15.46 115.58 24.6 123.7 30.79 126.8L35.46 123.76V128.28C35.46 128.28 44.65 129.8 47.55 128.28V115.95L21.74 103.99L15.46 115.58Z" fill="#013A53"/>
<path d="M23.6701 96.88C23.6701 96.88 17.8601 104.91 12.0801 113.5C12.0801 113.5 24.2701 121.24 30.8701 123.51L39.5301 114.35L38.2901 125.38C38.2901 125.38 45.9601 127.96 49.5101 127.29C49.5101 127.29 49.2901 117.28 49.2901 110.73C49.2901 110.73 28.2201 105.27 23.6801 96.89" fill="#F1F6FF"/>
<path d="M25.0901 117.27C25.0701 116.98 25.1401 116.69 25.2801 116.44C25.4301 116.19 25.6501 115.99 25.9101 115.86C26.1701 115.74 26.4701 115.69 26.7501 115.74C27.0401 115.78 27.3001 115.92 27.5201 116.12C27.7301 116.32 27.8801 116.58 27.9401 116.86C28.0001 117.14 27.9801 117.44 27.8701 117.71C27.7601 117.98 27.5701 118.21 27.3301 118.37C27.0901 118.53 26.8001 118.62 26.5101 118.62C26.1401 118.63 25.7801 118.5 25.5201 118.24C25.2501 117.99 25.0901 117.64 25.0801 117.27H25.0901Z" fill="#686867"/>
<path d="M90.7901 52.9601L90.6901 52.9901L84.8601 54.3701C82.3001 54.9801 79.6501 53.7001 78.9601 51.5201L78.6101 50.4101C77.9601 48.3201 79.3601 46.1401 81.7401 45.4301L83.6701 44.9701L87.5701 44.0501C90.1301 43.4401 92.7801 44.7201 93.4601 46.9001L93.8101 48.0201C94.4501 50.0501 93.1001 52.2301 90.7601 52.9701" fill="#9E6936"/>
<path d="M88.1201 51.45L85.3001 52.63C85.1901 52.63 85.0701 52.68 84.9601 52.7H84.7601C84.6901 52.7 84.6201 52.69 84.5601 52.65C84.5001 52.62 84.4401 52.57 84.4001 52.51C84.3601 52.45 84.3401 52.38 84.3301 52.31C84.3301 52.24 84.3301 52.17 84.3701 52.1C84.6501 51.55 84.7001 50.92 84.5301 50.33L84.4601 50.1L84.2401 49.36C84.0701 48.78 83.7101 48.27 83.2201 47.91C83.1601 47.86 83.1001 47.82 83.0401 47.78C82.9201 47.7 82.8201 47.59 82.7601 47.46C82.7001 47.33 82.6801 47.18 82.7101 47.04C82.7401 46.9 82.8001 46.76 82.9101 46.66C83.0101 46.56 83.1401 46.48 83.2901 46.45L86.4001 46.01C86.7701 45.94 87.1501 46.01 87.4701 46.2C87.7901 46.4 88.0201 46.71 88.1201 47.07L88.3701 47.92L88.8701 49.71C89.0801 50.42 88.8701 51.23 88.1301 51.42" fill="#654C3A"/>
<path d="M88.12 51.4499L85.3 52.6299L84.76 52.7099C84.69 52.7099 84.62 52.6999 84.56 52.6599C84.5 52.6299 84.44 52.5799 84.4 52.5199C84.36 52.4599 84.34 52.3899 84.33 52.3199C84.33 52.2499 84.33 52.1799 84.37 52.1099C84.65 51.5599 84.7 50.9299 84.53 50.3399L84.46 50.1099L84.24 49.3699C84.07 48.7899 83.71 48.2799 83.22 47.9199C83.33 47.7699 83.49 47.6699 83.67 47.6299L86.78 47.1899C87.09 47.1299 87.41 47.1599 87.69 47.2999C87.97 47.4299 88.21 47.6499 88.35 47.9299L88.86 49.7199C89.07 50.4299 88.86 51.2399 88.12 51.4299" fill="#654C3A"/>
<path d="M41.42 80.98C41.42 80.98 40.15 70.72 38.98 68.72C37.81 66.72 36.81 62.71 38.61 59.74C40.41 56.77 41.04 51.03 41.04 51.03C41.74 57.57 39.63 62.42 41.11 63.72C41.17 63.77 41.27 63.72 41.41 63.66V80.98H41.42Z" fill="#654C3A"/>
<path d="M76.31 104.28H45.92C45.18 104.28 44.45 104.13 43.7701 103.85C43.09 103.57 42.4701 103.15 41.9501 102.63C41.4301 102.11 41.01 101.49 40.73 100.81C40.45 100.13 40.3 99.4 40.3 98.66V27.12C40.3 26.38 40.4401 25.65 40.7201 24.97C41.0001 24.29 41.42 23.67 41.94 23.14C42.46 22.62 43.08 22.2 43.7701 21.92C44.45 21.64 45.19 21.49 45.92 21.49H76.31C77.05 21.49 77.78 21.63 78.46 21.92C79.14 22.2 79.7601 22.62 80.2901 23.14C80.82 23.66 81.2301 24.28 81.5101 24.96C81.7901 25.64 81.9401 26.37 81.9401 27.11V98.65C81.9401 100.14 81.3501 101.57 80.2901 102.62C79.2401 103.67 77.8 104.26 76.31 104.26" fill="#063241"/>
<path d="M76.1301 23.16H69.3701C69.0601 23.16 68.7601 23.3 68.5401 23.53C68.3201 23.76 68.2101 24.06 68.2201 24.38C68.2201 24.69 68.1101 24.99 67.9001 25.22C67.6901 25.45 67.3901 25.58 67.0801 25.59H55.1601C55.0101 25.59 54.8501 25.55 54.7101 25.49C54.5701 25.43 54.4401 25.34 54.3401 25.23C54.2301 25.12 54.1501 24.99 54.1001 24.84C54.0401 24.7 54.0201 24.54 54.0201 24.39C54.0201 24.23 54.0001 24.08 53.9401 23.93C53.8801 23.78 53.8001 23.65 53.7001 23.54C53.5901 23.43 53.4701 23.34 53.3201 23.27C53.1801 23.21 53.0301 23.17 52.8701 23.17H46.1101C45.1001 23.2 44.1401 23.63 43.4401 24.36C42.7401 25.1 42.3701 26.08 42.4001 27.09V97.62C42.3701 98.63 42.7501 99.61 43.4401 100.35C44.1401 101.09 45.1001 101.51 46.1101 101.54H76.1301C77.1401 101.51 78.1001 101.08 78.8001 100.35C79.4901 99.61 79.8701 98.63 79.8401 97.62V27.09C79.8701 26.08 79.4901 25.1 78.8001 24.36C78.1001 23.62 77.1501 23.19 76.1301 23.17V23.16Z" fill="#FDF7F9"/>
<path d="M57.5099 24.6C57.5099 24.71 57.4699 24.82 57.3999 24.91C57.3299 25 57.2399 25.07 57.1299 25.11C57.0199 25.15 56.9099 25.16 56.7999 25.13C56.6899 25.1 56.5899 25.05 56.5099 24.96C56.4299 24.88 56.3799 24.77 56.3599 24.66C56.3399 24.55 56.3599 24.43 56.3999 24.33C56.4499 24.23 56.5199 24.14 56.6199 24.08C56.7199 24.02 56.8299 23.99 56.9399 23.99C57.0999 23.99 57.2399 24.06 57.3499 24.18C57.4599 24.29 57.5199 24.45 57.5099 24.6Z" fill="#043058"/>
<path d="M65.5 24.92H58.32C58.32 24.92 58.24 24.91 58.2 24.89C58.16 24.87 58.13 24.85 58.1 24.82C58.07 24.79 58.05 24.76 58.04 24.72C58.03 24.68 58.02 24.64 58.02 24.6C58.02 24.56 58.02 24.52 58.04 24.48C58.05 24.44 58.08 24.41 58.1 24.38C58.13 24.35 58.16 24.33 58.2 24.31C58.24 24.29 58.28 24.29 58.32 24.28H65.5C65.5 24.28 65.58 24.28 65.62 24.31C65.66 24.33 65.69 24.35 65.72 24.38C65.75 24.41 65.77 24.44 65.78 24.48C65.79 24.52 65.8 24.56 65.8 24.6C65.8 24.64 65.8 24.68 65.78 24.72C65.77 24.76 65.74 24.79 65.72 24.82C65.69 24.85 65.66 24.87 65.62 24.89C65.58 24.91 65.54 24.91 65.5 24.92Z" fill="#043058"/>
<path d="M72.5201 25.43H70.0101C70.0101 25.43 69.9501 25.43 69.9301 25.41C69.9001 25.4 69.8801 25.38 69.8601 25.36C69.8401 25.34 69.8301 25.32 69.8201 25.29C69.8101 25.26 69.8101 25.24 69.8101 25.21C69.8101 25.15 69.8301 25.1 69.8701 25.06C69.9101 25.02 69.9601 24.99 70.0201 24.99H72.5301C72.5301 24.99 72.5901 24.99 72.6101 25.01C72.6401 25.02 72.6601 25.04 72.6801 25.06C72.7001 25.08 72.7201 25.11 72.7301 25.13C72.7401 25.16 72.7501 25.19 72.7401 25.21C72.7401 25.24 72.7401 25.27 72.7301 25.29C72.7201 25.32 72.7001 25.34 72.6801 25.36C72.6601 25.38 72.6401 25.4 72.6101 25.41C72.5801 25.42 72.5601 25.43 72.5301 25.43H72.5201Z" fill="#0FAF4B"/>
<path d="M73.0399 25.82H69.9899C69.8399 25.81 69.6999 25.74 69.5999 25.62C69.4999 25.51 69.4399 25.36 69.4399 25.21C69.4399 25.06 69.4999 24.91 69.5999 24.8C69.6999 24.69 69.8399 24.62 69.9899 24.6H73.0399C73.1899 24.61 73.3299 24.68 73.4299 24.8C73.5299 24.91 73.5899 25.06 73.5899 25.21C73.5899 25.36 73.5299 25.51 73.4299 25.62C73.3299 25.73 73.1899 25.8 73.0399 25.82ZM69.9899 24.75C69.8699 24.75 69.7499 24.8 69.6599 24.89C69.5699 24.98 69.5199 25.1 69.5199 25.22C69.5199 25.34 69.5699 25.46 69.6599 25.55C69.7499 25.64 69.8699 25.69 69.9899 25.69H73.0399C73.1599 25.69 73.2799 25.64 73.3699 25.55C73.4599 25.46 73.5099 25.34 73.5099 25.22C73.5099 25.1 73.4599 24.98 73.3699 24.89C73.2799 24.8 73.1599 24.75 73.0399 24.75H69.9899Z" fill="#FDF7F9"/>
<path d="M76.7999 24.65H74.1899V25.87H76.7999V24.65Z" fill="#FCC5D2"/>
<path d="M48.58 24.59H45.97V25.81H48.58V24.59Z" fill="#FCC5D2"/>
<path d="M164.27 182.13L151.79 151.96C151.79 151.96 153.63 140.35 151.86 128.66L100.01 108.3L91.5595 100.99C91.0995 100.6 90.5595 100.32 89.9795 100.17C89.3995 100.02 88.7895 100.02 88.1995 100.15C87.6095 100.28 87.0595 100.55 86.5995 100.93C86.1295 101.31 85.7595 101.8 85.5195 102.35C84.9295 103.59 84.7295 104.97 84.9295 106.33C85.1295 107.69 85.7295 108.95 86.6595 109.96L98.3895 122.48L97.3795 129.03L88.0795 120.3L83.5095 129.34L89.0495 134.92L86.2595 139.84L92.0895 145.75L90.7395 149.3C90.7395 149.3 96.1795 153.98 102.24 156C107.86 161.93 111.84 164.89 120.99 166.45L126.83 182.15H164.29L164.27 182.13Z" fill="#9E6936"/>
<path d="M120.959 166.45C123.819 167.07 129.129 166.19 132.469 165.51C132.819 165.45 133.179 165.48 133.519 165.59C133.859 165.7 134.169 165.89 134.419 166.14C134.669 166.39 134.859 166.7 134.969 167.04C135.079 167.38 135.109 167.74 135.049 168.09L133.379 182.13H126.809L120.949 166.45H120.959Z" fill="#654C3A"/>
<path d="M141.12 124.43C141.12 124.43 139.53 127.33 138.23 128.62C136.92 129.91 137.36 122.64 137.36 122.64L141.12 124.43Z" fill="#654C3A"/>
<path d="M100.95 155.54L106.47 110.81L100.03 108.27L91.5795 100.96C91.1195 100.57 90.5795 100.28 89.9995 100.14C89.4195 99.9999 88.8095 99.9799 88.2195 100.12C87.6295 100.25 87.0795 100.52 86.6195 100.9C86.1495 101.28 85.7895 101.77 85.5395 102.32C84.9495 103.56 84.7395 104.94 84.9395 106.3C85.1395 107.66 85.7395 108.92 86.6695 109.93L98.3995 122.45L97.3795 129L88.0795 120.27L83.5095 129.31L89.0395 134.89L86.2495 139.81L92.0795 145.72L90.7295 149.27C90.7295 149.27 95.4395 153.33 100.97 155.51" fill="#9E6936"/>
<path d="M93.1995 150.02C93.1995 150.02 95.8495 151.67 100.079 144.66L97.1795 142.89L93.1995 150.02Z" fill="#654C3A"/>
<path d="M134.06 156.8H103.67C102.93 156.8 102.2 156.65 101.52 156.37C100.84 156.09 100.22 155.67 99.6895 155.15C99.1695 154.63 98.7495 154.01 98.4695 153.32C98.1895 152.64 98.0395 151.91 98.0495 151.17V79.62C98.0495 78.88 98.1895 78.15 98.4795 77.47C98.7595 76.79 99.1795 76.17 99.6995 75.65C100.22 75.13 100.84 74.71 101.52 74.43C102.2 74.15 102.93 74 103.67 74H134.06C134.8 74 135.53 74.15 136.21 74.43C136.89 74.71 137.51 75.13 138.03 75.65C138.55 76.17 138.97 76.79 139.25 77.47C139.53 78.15 139.68 78.88 139.68 79.62V151.17C139.68 151.91 139.54 152.64 139.25 153.32C138.97 154 138.55 154.62 138.03 155.14C137.51 155.66 136.89 156.08 136.21 156.36C135.53 156.64 134.8 156.79 134.06 156.79" fill="#063241"/>
<path d="M133.89 76.22H127.11C126.8 76.23 126.5 76.36 126.29 76.59C126.07 76.82 125.96 77.12 125.97 77.44C125.97 77.75 125.86 78.05 125.65 78.28C125.44 78.51 125.14 78.64 124.83 78.65H112.91C112.6 78.64 112.31 78.51 112.09 78.28C111.88 78.05 111.76 77.75 111.77 77.44C111.77 77.13 111.66 76.82 111.45 76.59C111.23 76.36 110.94 76.23 110.62 76.22H103.86C102.85 76.25 101.89 76.68 101.19 77.41C100.49 78.15 100.12 79.13 100.15 80.14V150.66C100.12 151.67 100.5 152.65 101.19 153.39C101.88 154.13 102.84 154.55 103.86 154.58H133.9C134.91 154.55 135.87 154.12 136.57 153.39C137.27 152.65 137.64 151.67 137.61 150.66V80.13C137.64 79.12 137.26 78.14 136.57 77.4C135.87 76.66 134.92 76.24 133.9 76.21" fill="#FDF7F9"/>
<path d="M115.3 77.12C115.3 77.2 115.3 77.28 115.27 77.36C115.24 77.44 115.2 77.51 115.15 77.57C115.1 77.63 115.03 77.68 114.96 77.71C114.89 77.74 114.81 77.76 114.73 77.76C114.65 77.76 114.57 77.74 114.5 77.71C114.43 77.68 114.36 77.63 114.31 77.57C114.26 77.51 114.21 77.44 114.19 77.36C114.16 77.28 114.15 77.2 114.16 77.12C114.16 77.04 114.16 76.96 114.19 76.88C114.21 76.8 114.26 76.73 114.31 76.67C114.36 76.61 114.43 76.56 114.5 76.53C114.57 76.5 114.65 76.48 114.73 76.48C114.81 76.48 114.89 76.5 114.96 76.53C115.03 76.56 115.1 76.61 115.15 76.67C115.2 76.73 115.25 76.8 115.27 76.88C115.3 76.96 115.31 77.04 115.3 77.12Z" fill="#043058"/>
<path d="M123.28 77.4301H116.12C116.04 77.4301 115.96 77.4001 115.9 77.3401C115.84 77.2801 115.81 77.2001 115.81 77.1201C115.81 77.0401 115.84 76.9601 115.9 76.9001C115.96 76.8401 116.04 76.8101 116.12 76.8101H123.3C123.38 76.8101 123.46 76.8401 123.52 76.9001C123.58 76.9601 123.61 77.0401 123.61 77.1201C123.61 77.2001 123.58 77.2801 123.52 77.3401C123.46 77.4001 123.38 77.4301 123.3 77.4301" fill="#043058"/>
<path d="M130.84 78.34H127.79C127.64 78.33 127.5 78.26 127.4 78.14C127.3 78.03 127.24 77.88 127.24 77.73C127.24 77.58 127.3 77.43 127.4 77.32C127.5 77.21 127.64 77.14 127.79 77.12H130.84C130.99 77.13 131.13 77.2 131.23 77.32C131.33 77.43 131.389 77.58 131.389 77.73C131.389 77.88 131.33 78.03 131.23 78.14C131.13 78.25 130.99 78.32 130.84 78.34ZM127.79 77.26C127.67 77.26 127.55 77.31 127.46 77.4C127.37 77.49 127.32 77.61 127.32 77.73C127.32 77.85 127.37 77.97 127.46 78.06C127.55 78.15 127.67 78.2 127.79 78.2H130.84C130.96 78.2 131.079 78.15 131.169 78.06C131.259 77.97 131.309 77.85 131.309 77.73C131.309 77.61 131.259 77.49 131.169 77.4C131.079 77.31 130.96 77.26 130.84 77.26H127.79Z" fill="#FDF7F9"/>
<path d="M130.31 77.95H127.8C127.8 77.95 127.74 77.95 127.72 77.93C127.69 77.92 127.67 77.9 127.65 77.88C127.63 77.86 127.61 77.83 127.6 77.81C127.6 77.78 127.59 77.75 127.59 77.73C127.59 77.71 127.59 77.67 127.6 77.65C127.61 77.62 127.63 77.6 127.65 77.58C127.67 77.56 127.69 77.54 127.72 77.53C127.75 77.52 127.77 77.51 127.8 77.51H130.31C130.31 77.51 130.37 77.51 130.39 77.53C130.42 77.54 130.44 77.56 130.46 77.58C130.48 77.6 130.49 77.62 130.5 77.65C130.5 77.68 130.51 77.7 130.51 77.73C130.51 77.79 130.49 77.84 130.45 77.88C130.41 77.92 130.36 77.95 130.3 77.95H130.31Z" fill="#0FAF4B"/>
<path d="M115.92 118.65L112.87 114.03L114.57 112.91L116.34 115.6L124.57 108.46L125.9 109.99L115.92 118.65Z" fill="#0FAF4B"/>
<path d="M119.479 123.95C117.349 123.95 115.259 123.32 113.489 122.13C111.719 120.95 110.329 119.26 109.519 117.29C108.699 115.32 108.489 113.15 108.909 111.06C109.329 108.97 110.349 107.05 111.859 105.54C113.369 104.03 115.289 103.01 117.379 102.59C119.469 102.17 121.639 102.39 123.609 103.2C125.579 104.02 127.269 105.4 128.449 107.17C129.629 108.94 130.269 111.03 130.269 113.16C130.269 116.02 129.129 118.76 127.109 120.78C125.089 122.8 122.349 123.94 119.489 123.94L119.479 123.95ZM119.479 104.42C117.749 104.42 116.059 104.93 114.619 105.89C113.179 106.85 112.059 108.22 111.399 109.82C110.739 111.42 110.559 113.18 110.899 114.87C111.239 116.57 112.069 118.12 113.299 119.35C114.519 120.57 116.079 121.41 117.779 121.74C119.479 122.08 121.239 121.9 122.839 121.24C124.439 120.58 125.809 119.46 126.769 118.02C127.729 116.58 128.249 114.89 128.249 113.16C128.249 110.84 127.329 108.62 125.679 106.98C124.039 105.34 121.809 104.42 119.489 104.42H119.479Z" fill="#0FAF4B"/>
<path d="M87.8896 139.98C87.8896 139.98 92.3597 142.01 98.1597 135.04L98.5997 127.87L87.8896 139.98Z" fill="#654C3A"/>
<path d="M84.8096 129.61L95.2896 127.18L91.1696 123.31L84.8096 129.61Z" fill="#654C3A"/>
<path d="M88.2395 109.48C88.2395 109.48 95.0595 110.13 98.3095 106.9L93.3695 102.65L88.2395 109.49V109.48Z" fill="#654C3A"/>
<path d="M90.8195 149.49C89.0795 148.11 88.6695 145.23 90.3995 142.26C91.7395 140.15 93.2495 138.15 94.8995 136.28C95.4095 135.86 96.9695 132.43 98.1495 132.43C99.3295 132.43 100.909 133.78 100.509 137.11C100.109 140.44 98.4395 141.63 98.4395 141.63C98.4395 141.63 97.1695 146.42 95.9295 148.18C94.6995 149.95 92.3295 150.68 90.8195 149.48V149.49Z" fill="#9E6936"/>
<path d="M96.4196 140.04L96.0796 140.47C96.7796 141.06 97.5396 141.57 98.3496 141.99L98.4496 141.63C98.5096 141.59 98.5596 141.55 98.6096 141.5C97.8296 141.1 97.0896 140.6 96.4196 140.03" fill="#9E6936"/>
<path d="M99.3096 135.36C99.8196 133.78 98.2097 132.2 97.4897 132.75C96.6097 133.46 95.6596 135.29 95.1396 136.01L98.1597 138.3C98.5997 137.35 98.9896 136.37 99.3096 135.37V135.36Z" fill="#9E6936"/>
<path d="M86.3394 140.03C84.4994 139.02 84.3794 136.29 85.6594 134.26C86.7594 132.52 91.2394 127.52 91.8594 126.77C92.7194 125.98 93.6194 125.23 94.5594 124.53C94.5594 124.53 97.7594 120.71 98.7894 121.49C99.8194 122.27 101.239 125.12 99.3994 127.92C97.5594 130.72 95.9394 131.72 95.9394 131.72C95.3194 133.43 94.3894 135.02 93.1994 136.4C91.1194 138.89 88.6894 141.34 86.3494 140.04" fill="#9E6936"/>
<path d="M96.6295 127.51C96.6295 127.51 100.51 123.39 97.5896 121.71C96.2696 122.51 94.5396 124.55 94.5396 124.55C95.5096 125.31 96.2295 126.34 96.6095 127.51" fill="#9E6936"/>
<path d="M94.4595 129.61L94.1995 130.09C94.9195 130.56 95.4895 131.22 95.8495 132C95.9195 131.82 95.9495 131.72 95.9495 131.72C96.0495 131.66 96.1395 131.59 96.2295 131.52C95.8195 130.74 95.2195 130.08 94.4695 129.61H94.4595Z" fill="#9E6936"/>
<path d="M83.1195 129.48C84.7595 131.13 91.8495 126.52 94.6695 120.75C97.3395 118.78 99.9495 115.71 99.3095 112.69C98.6695 109.68 96.8095 109.78 96.8095 109.78C96.8095 109.78 93.4095 112.79 91.2695 114.09C89.1295 115.39 86.1895 118.82 84.3495 120.85C82.5095 122.87 80.7995 127.14 83.1295 129.48H83.1195Z" fill="#9E6936"/>
<path d="M95.4394 116.26C96.4694 115.57 97.3194 114.64 97.9194 113.55C98.6894 112.09 97.7294 110.45 96.7994 109.78C96.7994 109.78 94.9694 111.4 93.1494 112.78C93.8394 113.98 94.6094 115.15 95.4394 116.26Z" fill="#9E6936"/>
<path d="M93.4196 118.75L93.0796 119.17C93.6396 119.7 94.1496 120.28 94.5796 120.92C94.6096 120.86 94.6396 120.81 94.6696 120.75L94.9596 120.53C94.5196 119.88 94.0096 119.29 93.4396 118.75" fill="#9E6936"/>
<path d="M85.8496 108.04C84.1596 106.18 84.3696 102.77 86.6896 98.68C89.0096 94.6 90.1396 93.04 91.4996 91.32C92.6196 89.9 96.0696 85.74 96.0696 85.74C96.0696 85.74 98.8496 86.39 99.2096 88.96C99.5696 91.53 97.1796 96.03 95.6996 97.24C95.4196 99.67 93.7596 104.47 92.3396 106.37C90.9196 108.28 87.9496 110.36 85.8296 108.02" fill="#9E6936"/>
<path d="M95.6196 86.34C94.7996 87.32 93.0796 89.38 92.0696 90.66C92.9696 91.66 93.9996 92.54 95.1196 93.28C96.0996 92.45 96.8496 91.38 97.2896 90.17C98.1396 88.14 96.2796 86.75 95.6596 86.33" fill="#9E6936"/>
<path d="M93.9296 96.4299L93.6196 96.8799C94.2296 97.2899 94.9396 97.5399 95.6796 97.6099C95.6796 97.4899 95.7196 97.3799 95.7296 97.2699C95.7396 97.1599 95.8696 97.1399 95.9396 97.0699C95.2196 97.0399 94.5196 96.8199 93.9096 96.4299" fill="#9E6936"/>
<path d="M151.82 128.92C151.82 128.92 146.92 114.85 146.1 112.04C145.64 110.42 145 108.86 144.19 107.38C144.19 107.38 142.09 101.08 141.27 101.08C140.45 101.08 135.77 104.85 139.75 114.72C139.6 117.57 140.04 120.42 141.05 123.09V128L151.82 128.92Z" fill="#9E6936"/>
<path d="M144.199 107.39C144.199 107.39 142.839 103.33 141.889 101.73C139.269 103.03 141.269 108.6 141.269 108.6L144.199 107.39Z" fill="#9E6936"/>
<path d="M141.079 123.36L143.18 122.95L143.09 122.44L140.99 122.84C141.02 122.92 141.049 123 141.079 123.07V123.35V123.36Z" fill="#9E6936"/>
<path d="M139.779 114.72V114.89L142.019 113.88L141.819 113.41L139.669 114.42C139.709 114.53 139.749 114.64 139.799 114.75" fill="#9E6936"/>
<path d="M143.9 113.77L143.87 114.28C144.07 114.29 144.27 114.29 144.47 114.28C145.21 114.21 145.95 114.06 146.66 113.82L146.5 113.34C145.66 113.63 144.78 113.78 143.89 113.79" fill="#9E6936"/>
<path d="M143.69 112.43C144.34 111.91 145.07 111.5 145.85 111.22C145.8 111.05 145.74 110.9 145.69 110.74C144.85 111.04 144.08 111.47 143.39 112.03L143.7 112.43H143.69Z" fill="#9E6936"/>
<path d="M134.759 77.1H132.149V78.32H134.759V77.1Z" fill="#FCC5D2"/>
<path d="M106.539 77.03H103.919V78.25H106.539V77.03Z" fill="#FCC5D2"/>
<path d="M86.0572 171.575C88.3394 171.686 90.6343 171.55 92.914 171.155C95.0876 170.729 97.2235 170.048 99.2821 169.129L99.5508 168.996L99.9995 168.762L100.608 168.479C101.076 168.333 101.55 168.305 102.013 168.387C102.755 168.524 103.423 168.928 103.906 169.523C104.126 169.783 104.284 170.087 104.38 170.412C104.486 170.741 104.52 171.087 104.486 171.44C104.431 171.659 104.372 171.887 104.311 172.092C104.123 172.51 103.817 172.869 103.442 173.108L103.063 173.301L103.006 173.335L102.966 173.354C101.064 174.312 99.0783 175.077 97.0441 175.638C95.8614 175.956 94.6375 176.189 93.4572 176.393C92.42 176.562 91.3708 176.681 90.3227 176.744C88.0185 176.876 85.7099 176.778 83.4431 176.467C81.1207 176.134 78.8495 175.592 76.6334 174.832C74.493 174.125 72.4356 173.21 70.4704 172.091C68.3754 170.921 66.4044 169.548 64.5589 167.996C63.5471 167.132 62.5856 166.197 61.6677 165.234C60.9478 164.476 60.2715 163.69 59.6296 162.871C58.242 161.09 57.0185 159.167 55.9922 157.129C55.4118 155.968 54.9108 154.771 54.48 153.532C53.9905 152.144 53.603 150.717 53.3002 149.266C53.1324 148.339 53.0005 147.404 52.9228 146.467C52.4426 146.86 51.9665 147.242 51.4956 147.639L50.7444 148.278C50.6161 148.41 50.4825 148.529 50.3344 148.63L50.2867 148.668C49.8566 148.909 49.3931 149.044 48.9188 149.072C48.4444 149.1 47.9725 149.015 47.544 148.82C47.1155 148.626 46.7359 148.337 46.4329 147.963C46.1299 147.59 45.9182 147.15 45.8084 146.67C45.7279 146.225 45.7825 145.766 45.9618 145.345C46.1504 144.927 46.4557 144.568 46.8275 144.338C47.8459 143.462 48.8842 142.616 49.9172 141.757C50.3602 141.35 50.79 140.949 51.1972 140.55C51.6005 140.161 52.1625 139.618 52.6146 139.134C52.8195 138.918 53.0205 138.712 53.224 138.472L53.3694 138.324C53.5585 138.147 53.753 137.985 53.9474 137.822C54.3629 137.564 54.8304 137.418 55.31 137.404C55.8387 137.375 56.3611 137.469 56.828 137.702C57.1212 137.83 57.3853 138.005 57.6243 138.215C57.9789 138.54 58.303 138.888 58.606 139.261C59.1083 139.863 59.6263 140.426 60.167 140.986C61.0331 141.917 61.8846 142.831 62.7414 143.758C62.9672 143.975 63.2022 144.195 63.4505 144.409C63.7865 144.727 64.1569 145.012 64.5484 145.272L65.0677 145.778C65.3561 146.134 65.5492 146.567 65.635 147.025C65.6954 147.359 65.679 147.696 65.5896 148.027C65.5002 148.358 65.3327 148.669 65.1119 148.925C64.6347 149.445 63.9861 149.747 63.3077 149.774L62.584 149.725C62.0802 149.638 61.5961 149.421 61.1965 149.101C60.8952 148.912 60.6205 148.71 60.3522 148.465C60.0522 148.219 59.76 147.953 59.4772 147.691C59.1226 147.366 58.7906 147.038 58.4625 146.7C58.6331 148.293 58.956 149.855 59.3941 151.372C60.0907 153.507 61.0123 155.538 62.1483 157.437C63.3878 159.4 64.831 161.204 66.4501 162.837C68.1938 164.509 70.1121 165.987 72.153 167.239C74.284 168.482 76.551 169.492 78.8983 170.247C81.2003 170.928 83.5747 171.373 85.9829 171.546" fill="#FFCB05"/>
</g>
<defs>
<clipPath id="clip0_1_1001">
<rect width="235" height="182" fill="white"/>
</clipPath>
</defs>
</svg>
