<svg width="14" height="14" viewBox="0 0 14 14" fill="none" xmlns="http://www.w3.org/2000/svg">
<g id="Frame" clip-path="url(#clip0_35_5741)">
<path id="Vector" d="M1.44181 11.2556C1.44181 10.5205 1.43911 9.78587 1.44451 9.05078C1.44541 8.93606 1.40896 8.88658 1.30141 8.84654C0.510303 8.55232 0.000900925 7.82533 8.85815e-07 7.00207C-0.000899153 6.17655 0.508053 5.44416 1.29556 5.15399C1.41076 5.11171 1.44496 5.05637 1.44451 4.93716C1.44046 3.48947 1.44181 2.04223 1.44226 0.594545C1.44226 0.295831 1.57186 0.103286 1.81801 0.0254583C2.11051 -0.0667659 2.42686 0.115432 2.48671 0.417295C2.50426 0.504571 2.50606 0.595446 2.50606 0.68497C2.50741 2.09307 2.50831 3.50117 2.50426 4.90971C2.50426 5.04333 2.53351 5.1126 2.67256 5.16389C3.43801 5.44506 3.93707 6.1779 3.93797 6.99577C3.93886 7.81273 3.43981 8.54872 2.67886 8.83304C2.54746 8.88208 2.50291 8.94146 2.50381 9.08227C2.50921 10.5016 2.50831 11.921 2.50516 13.3408C2.50516 13.451 2.49481 13.5679 2.45701 13.6696C2.37061 13.9008 2.12086 14.0336 1.88866 13.9922C1.63171 13.9467 1.44676 13.7411 1.44451 13.4771C1.43956 12.9552 1.44226 12.4334 1.44226 11.912C1.44226 11.6933 1.44226 11.4742 1.44226 11.2556L1.44181 11.2556ZM1.06965 7.00476C1.07145 7.49782 1.47601 7.90271 1.96831 7.90541C2.46691 7.90811 2.87461 7.49692 2.87191 6.99442C2.86921 6.49821 2.46826 6.09557 1.97461 6.09377C1.47646 6.09153 1.06785 6.50316 1.06965 7.00522L1.06965 7.00476Z" fill="#004F71"/>
<path id="Vector_2" d="M11.5003 13.0242C11.5827 12.6621 11.4531 12.4745 11.0976 12.3063C10.3114 11.9338 9.94061 11.0669 10.1049 10.1824C10.2493 9.40413 10.9315 8.76396 11.7397 8.6479C12.7428 8.50349 13.6878 9.12251 13.9353 10.0861C14.1891 11.0732 13.6774 12.0714 12.727 12.4291C12.6046 12.4754 12.5511 12.5276 12.5578 12.6666C12.5709 12.9298 12.5646 13.1938 12.5605 13.4575C12.5556 13.7589 12.3369 13.9879 12.0507 13.9987C11.7654 14.0095 11.5273 13.7971 11.5026 13.4957C11.49 13.3396 11.5003 13.1817 11.5003 13.0247L11.5003 13.0242ZM12.0381 11.4906C12.543 11.487 12.9394 11.0826 12.934 10.5765C12.9286 10.0834 12.5236 9.6871 12.0264 9.6889C11.5237 9.6907 11.125 10.0992 11.1322 10.6048C11.139 11.1037 11.5381 11.4938 12.0381 11.4906Z" fill="#004F71"/>
<path id="Vector_3" d="M7.5496 1.51068C7.97755 1.64879 8.3389 1.89217 8.60665 2.26556C9.07961 2.92417 9.09131 3.83921 8.63366 4.50997C8.1589 5.20637 7.31245 5.52218 6.4912 5.30894C5.71269 5.10695 5.12364 4.4155 5.04534 3.61158C4.95669 2.69969 5.46429 1.88092 6.32515 1.56106C6.43045 1.52192 6.47455 1.47829 6.47005 1.36042C6.4597 1.09724 6.46465 0.833169 6.46735 0.569544C6.4705 0.240239 6.7009 -0.00224264 7.00465 7.06648e-06C7.30885 0.00225629 7.53295 0.243388 7.53565 0.575843C7.53835 0.873208 7.53745 1.17057 7.53835 1.46794C7.53835 1.47873 7.54375 1.48953 7.54915 1.51068L7.5496 1.51068ZM7.0033 2.50759C6.5065 2.50669 6.10285 2.90258 6.09565 3.39744C6.08845 3.89365 6.5002 4.30798 7.00015 4.30888C7.501 4.30933 7.91275 3.89724 7.9078 3.40059C7.9033 2.90663 7.49965 2.50804 7.00285 2.50759L7.0033 2.50759Z" fill="#004F71"/>
<path id="Vector_4" d="M12.5616 3.78256C12.5616 4.84875 12.5638 5.9145 12.5602 6.98069C12.5589 7.37568 12.2026 7.63121 11.8476 7.49805C11.6672 7.43012 11.5507 7.3001 11.5147 7.10756C11.5026 7.04188 11.4976 6.97395 11.4976 6.90692C11.4967 4.81411 11.4958 2.72131 11.4999 0.628958C11.4999 0.509293 11.5224 0.37928 11.5737 0.27311C11.6731 0.0657191 11.9277 -0.0377512 12.1432 0.0135345C12.3884 0.071568 12.5494 0.266362 12.5602 0.51784C12.5625 0.574074 12.5616 0.629857 12.5616 0.686091C12.5616 1.71855 12.5616 2.75055 12.5616 3.78301L12.5616 3.78256Z" fill="#004F71"/>
<path id="Vector_5" d="M7.53628 10.2494C7.53628 11.3097 7.53808 12.3705 7.53538 13.4309C7.53403 13.8362 7.17638 14.0967 6.81603 13.9635C6.601 13.8839 6.46918 13.6909 6.46828 13.4385C6.46559 12.9617 6.46738 12.4848 6.46738 12.0079C6.46738 10.4033 6.46738 8.79856 6.46738 7.19387C6.46738 7.15473 6.46738 7.11514 6.46738 7.076C6.46873 6.71431 6.68287 6.46823 6.99823 6.46598C7.31359 6.46373 7.53538 6.71116 7.53628 7.06836C7.53718 7.48359 7.53628 7.89882 7.53628 8.31405C7.53628 8.95917 7.53628 9.60473 7.53628 10.2498L7.53628 10.2494Z" fill="#004F71"/>
</g>
<defs>
<clipPath id="clip0_35_5741">
<rect width="14" height="14" fill="white" transform="translate(0 14) rotate(-90)"/>
</clipPath>
</defs>
</svg>
