<svg width="32" height="45" viewBox="0 0 32 45" fill="none" xmlns="http://www.w3.org/2000/svg">
<g id="Frame 119">
<path id="Union" fill-rule="evenodd" clip-rule="evenodd" d="M20.9957 0.5C21.2621 0.5 21.5165 0.605596 21.7037 0.795189L31.7072 10.7932C31.8944 10.9804 32 11.2348 32 11.5012V40.4993C32 42.7049 30.2072 44.5 28.0015 44.5H4.0009C1.79524 44.5 0 42.7049 0 40.4993V4.50065C0 2.29513 1.79524 0.5 4.0009 0.5H20.9957Z" fill="#FFCB05"/>
<path id="shape:icon" fill-rule="evenodd" clip-rule="evenodd" d="M12.5007 23.3349H8.99985V20.7098C8.99985 20.2268 9.39256 19.8341 9.87557 19.8341H12.5007V23.3349ZM14.25 23.3349H17.7508V19.8341H14.25V23.3349ZM19.5002 19.8341H22.1253C22.6083 19.8341 23.001 20.2268 23.001 20.7098V23.3349H19.5002V19.8341ZM23.001 34.7109C23.001 35.1939 22.6083 35.5846 22.1253 35.5846H19.5002V31.2101C19.5002 30.7271 19.1096 30.3344 18.6265 30.3344H8.99985V25.0842H23.001V34.7109ZM14.25 35.5845H17.7508V32.0837H14.25V35.5845ZM12.5007 35.5846H9.87557C9.39256 35.5846 8.99985 35.194 8.99985 34.711V32.0859H12.5007V35.5846ZM7.25049 20.7098V34.7109C7.25049 36.1579 8.42862 37.336 9.87557 37.336H22.1252C23.5743 37.336 24.7503 36.1579 24.7503 34.7109V20.7098C24.7503 19.2629 23.5743 18.0847 22.1252 18.0847H9.87557C8.42862 18.0847 7.25049 19.2629 7.25049 20.7098Z" fill="#004F71"/>
</g>
</svg>
