<svg width="44" height="44" viewBox="0 0 44 44" fill="none" xmlns="http://www.w3.org/2000/svg">
<g id="icon:button">
<path id="background:icon" fill-rule="evenodd" clip-rule="evenodd" d="M44 22C44 34.1504 34.1504 44 22 44C9.84958 44 0 34.1504 0 22C0 9.84958 9.84958 0 22 0C34.1504 0 44 9.84958 44 22Z" fill="#FFCB05"/>
<path id="shape:icon" fill-rule="evenodd" clip-rule="evenodd" d="M15.8125 19.7083C13.6611 19.7083 11.9167 17.9639 11.9167 15.8125C11.9167 13.6611 13.6611 11.9167 15.8125 11.9167C17.9639 11.9167 19.7083 13.6611 19.7083 15.8125C19.7083 17.9639 17.9639 19.7083 15.8125 19.7083ZM15.8125 10.3125C12.7751 10.3125 10.3125 12.7751 10.3125 15.8125C10.3125 18.8499 12.7751 21.3125 15.8125 21.3125C18.8499 21.3125 21.3125 18.8499 21.3125 15.8125C21.3125 12.7751 18.8499 10.3125 15.8125 10.3125Z" fill="#004E72"/>
<path id="shape:icon_2" fill-rule="evenodd" clip-rule="evenodd" d="M18.3333 15.8125C18.3333 17.2049 17.2049 18.3333 15.8125 18.3333C14.42 18.3333 13.2916 17.2049 13.2916 15.8125C13.2916 14.42 14.42 13.2916 15.8125 13.2916C17.2049 13.2916 18.3333 14.42 18.3333 15.8125Z" fill="#004E72"/>
<path id="shape:icon_3" fill-rule="evenodd" clip-rule="evenodd" d="M27.7291 19.7083C25.5777 19.7083 23.8333 17.9639 23.8333 15.8125C23.8333 13.6611 25.5777 11.9167 27.7291 11.9167C29.8805 11.9167 31.625 13.6611 31.625 15.8125C31.625 17.9639 29.8805 19.7083 27.7291 19.7083ZM27.7291 10.3125C24.6918 10.3125 22.2291 12.7751 22.2291 15.8125C22.2291 18.8499 24.6918 21.3125 27.7291 21.3125C30.7665 21.3125 33.2291 18.8499 33.2291 15.8125C33.2291 12.7751 30.7665 10.3125 27.7291 10.3125Z" fill="#004E72"/>
<path id="shape:icon_4" fill-rule="evenodd" clip-rule="evenodd" d="M30.25 15.8125C30.25 17.2049 29.1216 18.3333 27.7292 18.3333C26.3368 18.3333 25.2084 17.2049 25.2084 15.8125C25.2084 14.42 26.3368 13.2916 27.7292 13.2916C29.1216 13.2916 30.25 14.42 30.25 15.8125Z" fill="#004E72"/>
<path id="shape:icon_5" fill-rule="evenodd" clip-rule="evenodd" d="M27.5 25.4375C27.5 26.5765 26.5765 27.5 25.4375 27.5C24.2985 27.5 23.375 26.5765 23.375 25.4375C23.375 24.2985 24.2985 23.375 25.4375 23.375C26.5765 23.375 27.5 24.2985 27.5 25.4375Z" fill="#004E72"/>
<path id="shape:icon_6" fill-rule="evenodd" clip-rule="evenodd" d="M27.5 30.4791C27.5 31.6181 26.5765 32.5416 25.4375 32.5416C24.2985 32.5416 23.375 31.6181 23.375 30.4791C23.375 29.3402 24.2985 28.4166 25.4375 28.4166C26.5765 28.4166 27.5 29.3402 27.5 30.4791Z" fill="#004E72"/>
<path id="shape:icon_7" fill-rule="evenodd" clip-rule="evenodd" d="M32.5416 25.4375C32.5416 26.5765 31.6181 27.5 30.4791 27.5C29.3402 27.5 28.4166 26.5765 28.4166 25.4375C28.4166 24.2985 29.3402 23.375 30.4791 23.375C31.6181 23.375 32.5416 24.2985 32.5416 25.4375Z" fill="#004E72"/>
<path id="shape:icon_8" fill-rule="evenodd" clip-rule="evenodd" d="M32.5416 30.4791C32.5416 31.6181 31.6181 32.5416 30.4791 32.5416C29.3402 32.5416 28.4166 31.6181 28.4166 30.4791C28.4166 29.3402 29.3402 28.4166 30.4791 28.4166C31.6181 28.4166 32.5416 29.3402 32.5416 30.4791Z" fill="#004E72"/>
<path id="shape:icon_9" fill-rule="evenodd" clip-rule="evenodd" d="M15.8125 32.0833C13.6611 32.0833 11.9167 30.3389 11.9167 28.1875C11.9167 26.0361 13.6611 24.2917 15.8125 24.2917C17.9639 24.2917 19.7083 26.0361 19.7083 28.1875C19.7083 30.3389 17.9639 32.0833 15.8125 32.0833ZM15.8125 22.6875C12.7751 22.6875 10.3125 25.1501 10.3125 28.1875C10.3125 31.2249 12.7751 33.6875 15.8125 33.6875C18.8499 33.6875 21.3125 31.2249 21.3125 28.1875C21.3125 25.1501 18.8499 22.6875 15.8125 22.6875Z" fill="#004E72"/>
<path id="shape:icon_10" fill-rule="evenodd" clip-rule="evenodd" d="M18.3333 28.1875C18.3333 29.5799 17.2049 30.7083 15.8125 30.7083C14.42 30.7083 13.2916 29.5799 13.2916 28.1875C13.2916 26.795 14.42 25.6666 15.8125 25.6666C17.2049 25.6666 18.3333 26.795 18.3333 28.1875Z" fill="#004E72"/>
</g>
</svg>
