<svg width="24" height="24" viewBox="0 0 24 24" fill="#000" xmlns="http://www.w3.org/2000/svg">
    <path fill-rule="evenodd" clip-rule="evenodd"
        d="M3.0214 10.0756V21.1886C3.0214 21.5206 3.07247 21.7236 3.16439 21.8126C3.21444 21.8626 3.38297 21.9786 3.8518 22.0006L3.94576 22.4996L3.95904 21.9996H8.67586C8.85869 21.9996 9.00475 21.9876 9.06705 21.9266C9.09872 21.8956 9.20188 21.7716 9.25601 21.3996L9.25193 16.6766H15.0616V21.4776C15.0616 21.7836 15.1015 21.9366 15.126 21.9996H19.7539C20.4894 21.9996 20.7314 21.8566 20.805 21.7946C20.9163 21.7026 20.9745 21.5126 20.9786 21.2276V10.0626C16.7572 6.49164 14.1291 4.26864 13.0924 3.39464C12.4428 2.84564 11.9259 2.87864 11.1742 3.43164L3.0214 10.0756ZM19.853 22.9996L14.9472 22.9926C14.6541 22.9416 14.4396 22.8096 14.2905 22.5886C14.124 22.3416 14.0402 21.9826 14.0402 21.5186V17.6766H10.2733V21.4716C10.1947 22.0306 10.0333 22.3986 9.7851 22.6376C9.53485 22.8806 9.19473 22.9996 8.74634 22.9996H3.83852C3.19708 22.9706 2.74051 22.8106 2.44533 22.5226C2.14912 22.2376 2 21.8056 2 21.2406V9.63864L2.18385 9.45664L10.5399 2.64864C11.7176 1.77864 12.7574 1.79164 13.7594 2.63664C14.8104 3.52364 17.4977 5.79664 21.8233 9.45464L22 9.60464V21.2356C21.9908 21.8376 21.8151 22.2676 21.4658 22.5586C21.1114 22.8516 20.569 22.9996 19.853 22.9996Z"
        fill="#000" />
</svg>