<svg width="24" height="24" viewBox="0 0 24 24" fill="none" xmlns="http://www.w3.org/2000/svg">
<path fill-rule="evenodd" clip-rule="evenodd" d="M21.8235 8.45563C17.4978 4.79663 14.8105 2.52363 13.7585 1.63763C12.7575 0.792625 11.7167 0.778625 10.54 1.64863L2.18283 8.45763L2 8.63963V20.2406C2 20.8066 2.14913 21.2376 2.44431 21.5226C2.7395 21.8106 3.19709 21.9716 3.83854 22.0006H8.7464C9.1948 22.0006 9.53493 21.8816 9.78518 21.6386C10.0334 21.3986 10.1948 21.0306 10.2724 20.4726V16.6776H14.0404V20.5186C14.0404 20.9826 14.1241 21.3426 14.2906 21.5896C14.4397 21.8096 14.6532 21.9416 14.9474 21.9926L19.8522 22.0006C20.5682 22.0006 21.1116 21.8516 21.465 21.5596C21.8153 21.2686 21.991 20.8386 22.0002 20.2356V8.60463L21.8235 8.45563Z" fill="#000"/>
</svg>
