<svg width="44" height="44" viewBox="0 0 44 44" fill="none" xmlns="http://www.w3.org/2000/svg">
<g id="icons - banking services">
<path id="shape:icon" fill-rule="evenodd" clip-rule="evenodd" d="M5.33325 17.0002V14.9744L21.2007 5.5474C21.7214 5.2614 22.2732 5.26323 22.7847 5.5419L38.6669 14.9744V17.0002H5.33325ZM32.0009 33.6671H35.3339V18.6667H32.0009V33.6671ZM25.3331 33.6671H30.3326V18.6667H25.3331V33.6671ZM20.3336 33.6671H23.6666V18.6667H20.3336V33.6671ZM13.6657 33.6671H18.6652V18.6667H13.6657V33.6671ZM8.66625 33.6671H11.9992V18.6667H8.66625V33.6671ZM38.6669 37.0001V38.6666H5.33325V37.0001C5.33325 36.0816 6.08125 35.3336 6.99975 35.3336H7.83391H36.1662H37.0004C37.9189 35.3336 38.6669 36.0816 38.6669 37.0001ZM39.4992 18.6667C39.9613 18.6667 40.3334 18.2964 40.3334 17.8362V14.5032C40.3334 14.2099 40.1794 13.9367 39.9264 13.7864L23.6244 4.1064C23.6171 4.1009 23.6097 4.09723 23.6024 4.09357C22.5886 3.53073 21.4464 3.51423 20.3739 4.10457L4.07375 13.7864C3.82075 13.9367 3.66675 14.2099 3.66675 14.5032V17.8362C3.66675 18.2964 4.03891 18.6667 4.49908 18.6667H6.99975V33.6671C5.16091 33.6671 3.66675 35.1631 3.66675 37.0001V39.5007C3.66675 39.9609 4.03891 40.3331 4.49908 40.3331H39.4992C39.9613 40.3331 40.3334 39.9609 40.3334 39.5007V37.0001C40.3334 35.1631 38.8374 33.6671 37.0004 33.6671V18.6667H39.4992Z" fill="#004F71"/>
<path id="shape:icon_2" fill-rule="evenodd" clip-rule="evenodd" d="M21.9979 13.6687C21.0776 13.6687 20.3296 12.9207 20.3296 12.0004C20.3296 11.08 21.0776 10.332 21.9979 10.332C22.9183 10.332 23.6663 11.08 23.6663 12.0004C23.6663 12.9207 22.9183 13.6687 21.9979 13.6687ZM21.9979 8.66553C20.1591 8.66553 18.6631 10.1615 18.6631 12.0004C18.6631 13.8392 20.1591 15.3352 21.9979 15.3352C23.8368 15.3352 25.3328 13.8392 25.3328 12.0004C25.3328 10.1615 23.8368 8.66553 21.9979 8.66553Z" fill="#004F71"/>
</g>
</svg>
