<svg width="24" height="24" viewBox="0 0 24 24" fill="none" xmlns="http://www.w3.org/2000/svg">
<g clip-path="url(#clip0_4873_4288)">
<path d="M13.3625 23.6734C14.8886 22.783 16.3234 21.745 17.6281 20.5889C19.0145 19.3597 19.9621 18.2954 20.7001 17.1381C21.1384 16.451 21.6041 15.6215 21.7379 14.6778C21.8495 13.888 21.9259 13.0553 21.9642 12.2027C22.0704 9.84375 21.9427 7.27054 21.5731 4.33549C21.5068 3.80686 21.2751 3.44632 20.8446 3.20061C20.8034 3.17687 20.7544 3.15442 20.6947 3.13068C19.4486 2.64119 18.2025 2.15105 16.9564 1.66155L16.6327 1.53453C15.3974 1.04888 14.162 0.563881 12.926 0.0775936C12.6585 -0.0276189 12.3904 -0.0250527 12.1062 0.0846506C11.2852 0.402213 10.4642 0.717209 9.6426 1.03285L9.63424 1.03605C8.56605 1.44664 7.46084 1.8707 6.37592 2.29219C5.75615 2.53341 5.09218 2.80863 4.34701 3.13389C3.86158 3.3456 3.62692 3.61184 3.56124 4.02435C3.52601 4.24632 3.48661 4.47022 3.44899 4.68641C3.37674 5.10021 3.30211 5.52747 3.25374 5.94768C2.97968 8.35345 2.92713 10.8003 3.0985 13.2182C3.21732 14.8907 3.73261 16.3304 4.67422 17.6205C5.51194 18.7676 6.52699 19.8377 7.7773 20.8917C9.44198 22.2948 10.8905 23.2827 12.3331 24H12.7075C12.7678 23.9705 12.8281 23.9422 12.889 23.9134C13.0478 23.8383 13.212 23.7607 13.3619 23.6734H13.3625ZM12.5295 22.6514C12.4346 22.6514 12.342 22.6284 12.2698 22.5854C9.90473 21.1996 7.98508 19.6548 6.401 17.8636C6.01289 17.4242 5.66837 16.9379 5.33579 16.4676L5.32266 16.449C4.6581 15.5092 4.31238 14.3506 4.23476 12.8025C4.2055 12.2155 4.18281 11.6195 4.1643 11.1403C4.15714 10.9459 4.14997 10.7656 4.14341 10.6059V10.5924C4.18699 8.35089 4.28551 6.49042 4.62227 4.67679C4.66825 4.42787 4.78826 4.27326 4.99904 4.19115C5.83018 3.86653 6.66133 3.54062 7.49189 3.21536L7.49786 3.2128C9.04731 2.6059 10.6499 1.97783 12.2274 1.36516C12.4131 1.29331 12.646 1.29395 12.8341 1.36709C14.4151 1.98168 16.0207 2.61168 17.5732 3.22114L17.5893 3.22755C18.4133 3.55089 19.2372 3.87423 20.0618 4.19692C20.2851 4.28417 20.4099 4.44904 20.4422 4.70053C20.7885 7.38665 20.8972 10.1203 20.7748 13.0579C20.7025 14.7887 20.0385 16.306 18.6849 17.8328C17.0853 19.6369 15.1549 21.1926 12.7833 22.5873C12.7128 22.629 12.6221 22.6514 12.5283 22.6514H12.5295Z" fill="#004F71"/>
</g>
<path fill-rule="evenodd" clip-rule="evenodd" d="M9.05353 9.73117C9.05353 9.17385 9.5236 8.71968 10.102 8.71968C10.6803 8.71968 11.1504 9.17385 11.1504 9.73117C11.1504 10.2885 10.6803 10.7426 10.102 10.7426C9.5236 10.7426 9.05353 10.2885 9.05353 9.73117ZM10.1022 11.2748C10.9802 11.2748 11.6946 10.5825 11.6946 9.73115C11.6946 8.87978 10.9802 8.1875 10.1022 8.1875C9.22412 8.1875 8.50977 8.87978 8.50977 9.73115C8.50977 10.5825 9.22412 11.2748 10.1022 11.2748Z" fill="#004F71"/>
<path d="M9.25353 9.73117C9.25353 9.29093 9.62732 8.91968 10.102 8.91968V8.51968C9.41988 8.51968 8.85353 9.05677 8.85353 9.73117H9.25353ZM10.102 8.91968C10.5766 8.91968 10.9504 9.29093 10.9504 9.73117H11.3504C11.3504 9.05677 10.784 8.51968 10.102 8.51968V8.91968ZM10.9504 9.73117C10.9504 10.1714 10.5766 10.5426 10.102 10.5426V10.9426C10.784 10.9426 11.3504 10.4056 11.3504 9.73117H10.9504ZM10.102 10.5426C9.62732 10.5426 9.25353 10.1714 9.25353 9.73117H8.85353C8.85353 10.4056 9.41988 10.9426 10.102 10.9426V10.5426ZM10.1022 11.4748C11.0848 11.4748 11.8946 10.6988 11.8946 9.73115H11.4946C11.4946 10.4662 10.8757 11.0748 10.1022 11.0748V11.4748ZM11.8946 9.73115C11.8946 8.76349 11.0848 7.9875 10.1022 7.9875V8.3875C10.8757 8.3875 11.4946 8.99607 11.4946 9.73115H11.8946ZM10.1022 7.9875C9.11958 7.9875 8.30977 8.76349 8.30977 9.73115H8.70977C8.70977 8.99607 9.32865 8.3875 10.1022 8.3875V7.9875ZM8.30977 9.73115C8.30977 10.6988 9.11958 11.4748 10.1022 11.4748V11.0748C9.32865 11.0748 8.70977 10.4662 8.70977 9.73115H8.30977Z" fill="#004F71"/>
<path fill-rule="evenodd" clip-rule="evenodd" d="M11.1377 12.3153C10.6866 12.9218 10.448 13.6326 10.448 14.3742V14.8571H8.04524C8.00572 14.8571 7.97288 14.8268 7.97288 14.7903V14.1083C7.97288 12.9737 8.92791 12.0505 10.1026 12.0505C10.4659 12.0505 10.8144 12.1392 11.1377 12.3153ZM17.204 14.3747V15.3338C17.204 15.4452 17.1091 15.5355 16.9916 15.5355H11.2044C11.0874 15.5355 10.9924 15.4452 10.9924 15.3338V14.3747C10.9924 12.7186 12.3857 11.372 14.0982 11.372C15.8107 11.372 17.204 12.7186 17.204 14.3747ZM14.098 10.8394C13.1111 10.8394 12.1869 11.2176 11.4926 11.9047C11.0671 11.6517 10.5878 11.5178 10.1029 11.5178C8.62899 11.5178 7.42969 12.6801 7.42969 14.1083V14.7903C7.42969 15.1208 7.70629 15.3897 8.04551 15.3897H10.4528C10.4831 15.7721 10.8075 16.0682 11.2041 16.0682H16.9918C17.4085 16.0682 17.7477 15.7387 17.7477 15.3338V14.3742C17.7477 12.4251 16.1102 10.8394 14.098 10.8394Z" fill="#004F71"/>
<path d="M10.448 14.8571V15.0571H10.648V14.8571H10.448ZM11.4926 11.9047L11.3903 12.0766L11.5233 12.1557L11.6332 12.0469L11.4926 11.9047ZM10.4528 15.3897L10.6522 15.374L10.6376 15.1897H10.4528V15.3897ZM10.9772 12.1959C10.5011 12.8362 10.248 13.5886 10.248 14.3742H10.648C10.648 13.6766 10.8721 13.0075 11.2982 12.4346L10.9772 12.1959ZM10.248 14.3742V14.8571H10.648V14.3742H10.248ZM10.448 14.6571H8.04524V15.0571H10.448V14.6571ZM8.04524 14.6571C8.10057 14.6571 8.17288 14.7013 8.17288 14.7903H7.77288C7.77288 14.9522 7.91088 15.0571 8.04524 15.0571V14.6571ZM8.17288 14.7903V14.1083H7.77288V14.7903H8.17288ZM8.17288 14.1083C8.17288 13.0905 9.03187 12.2505 10.1026 12.2505V11.8505C8.82396 11.8505 7.77288 12.8568 7.77288 14.1083H8.17288ZM10.1026 12.2505C10.4323 12.2505 10.7479 12.3307 11.042 12.4909L11.2333 12.1396C10.8809 11.9477 10.4996 11.8505 10.1026 11.8505V12.2505ZM17.004 14.3747V15.3338H17.404V14.3747H17.004ZM17.004 15.3338C17.004 15.3329 17.0043 15.3318 17.0046 15.331C17.0049 15.3304 17.0049 15.3306 17.0041 15.3314C17.0025 15.333 16.9985 15.3355 16.9916 15.3355V15.7355C17.2097 15.7355 17.404 15.5652 17.404 15.3338H17.004ZM16.9916 15.3355H11.2044V15.7355H16.9916V15.3355ZM11.2044 15.3355C11.1979 15.3355 11.1941 15.3331 11.1924 15.3315C11.1916 15.3307 11.1916 15.3304 11.1919 15.331C11.1922 15.3318 11.1924 15.3329 11.1924 15.3338H10.7924C10.7924 15.5649 10.9864 15.7355 11.2044 15.7355V15.3355ZM11.1924 15.3338V14.3747H10.7924V15.3338H11.1924ZM11.1924 14.3747C11.1924 12.8354 12.4898 11.572 14.0982 11.572V11.172C12.2817 11.172 10.7924 12.6018 10.7924 14.3747H11.1924ZM14.0982 11.572C15.7067 11.572 17.004 12.8354 17.004 14.3747H17.404C17.404 12.6018 15.9147 11.172 14.0982 11.172V11.572ZM14.098 10.6394C13.059 10.6394 12.084 11.038 11.3519 11.7626L11.6332 12.0469C12.2897 11.3972 13.1633 11.0394 14.098 11.0394V10.6394ZM11.5948 11.7328C11.1393 11.4619 10.6248 11.3178 10.1029 11.3178V11.7178C10.5509 11.7178 10.995 11.8415 11.3903 12.0766L11.5948 11.7328ZM10.1029 11.3178C8.5245 11.3178 7.22969 12.5638 7.22969 14.1083H7.62969C7.62969 12.7965 8.73349 11.7178 10.1029 11.7178V11.3178ZM7.22969 14.1083V14.7903H7.62969V14.1083H7.22969ZM7.22969 14.7903C7.22969 15.2364 7.60104 15.5897 8.04551 15.5897V15.1897C7.81155 15.1897 7.62969 15.0052 7.62969 14.7903H7.22969ZM8.04551 15.5897H10.4528V15.1897H8.04551V15.5897ZM10.2535 15.4055C10.2923 15.8954 10.7067 16.2682 11.2041 16.2682V15.8682C10.9082 15.8682 10.674 15.6488 10.6522 15.374L10.2535 15.4055ZM11.2041 16.2682H16.9918V15.8682H11.2041V16.2682ZM16.9918 16.2682C17.5135 16.2682 17.9477 15.8546 17.9477 15.3338H17.5477C17.5477 15.6228 17.3036 15.8682 16.9918 15.8682V16.2682ZM17.9477 15.3338V14.3742H17.5477V15.3338H17.9477ZM17.9477 14.3742C17.9477 12.3086 16.2145 10.6394 14.098 10.6394V11.0394C16.0058 11.0394 17.5477 12.5415 17.5477 14.3742H17.9477Z" fill="#004F71"/>
<path fill-rule="evenodd" clip-rule="evenodd" d="M12.5373 8.74388C12.5373 7.95255 13.2034 7.30953 14.023 7.30953C14.842 7.30953 15.5087 7.95255 15.5087 8.74388C15.5087 9.53521 14.842 10.1782 14.023 10.1782C13.2034 10.1782 12.5373 9.53521 12.5373 8.74388ZM14.0233 10.7109C15.1415 10.7109 16.0524 9.82824 16.0524 8.74388C16.0524 7.65953 15.1415 6.77686 14.0233 6.77686C12.9045 6.77686 11.9941 7.65953 11.9941 8.74388C11.9941 9.82824 12.9045 10.7109 14.0233 10.7109Z" fill="#004F71"/>
<path d="M12.7373 8.74388C12.7373 8.06959 13.3072 7.50953 14.023 7.50953V7.10953C13.0997 7.10953 12.3373 7.83552 12.3373 8.74388H12.7373ZM14.023 7.50953C14.7383 7.50953 15.3087 8.06963 15.3087 8.74388H15.7087C15.7087 7.83548 14.9458 7.10953 14.023 7.10953V7.50953ZM15.3087 8.74388C15.3087 9.41813 14.7383 9.97822 14.023 9.97822V10.3782C14.9458 10.3782 15.7087 9.65228 15.7087 8.74388H15.3087ZM14.023 9.97822C13.3072 9.97822 12.7373 9.41817 12.7373 8.74388H12.3373C12.3373 9.65224 13.0997 10.3782 14.023 10.3782V9.97822ZM14.0233 10.9109C15.246 10.9109 16.2524 9.94453 16.2524 8.74388H15.8524C15.8524 9.71194 15.037 10.5109 14.0233 10.5109V10.9109ZM16.2524 8.74388C16.2524 7.54324 15.246 6.57686 14.0233 6.57686V6.97686C15.037 6.97686 15.8524 7.77582 15.8524 8.74388H16.2524ZM14.0233 6.57686C12.8 6.57686 11.7941 7.54327 11.7941 8.74388H12.1941C12.1941 7.77579 13.0091 6.97686 14.0233 6.97686V6.57686ZM11.7941 8.74388C11.7941 9.9445 12.8 10.9109 14.0233 10.9109V10.5109C13.0091 10.5109 12.1941 9.71198 12.1941 8.74388H11.7941Z" fill="#004F71"/>
<defs>
<clipPath id="clip0_4873_4288">
<rect width="19" height="24" fill="white" transform="translate(3)"/>
</clipPath>
</defs>
</svg>
