<svg width="36" height="36" viewBox="0 0 36 36" fill="none" xmlns="http://www.w3.org/2000/svg">
<g id="icons - data">
<g id="wifi (2)">
<ellipse id="Oval" cx="17.9297" cy="30.6485" rx="2.32031" ry="2.35154" fill="#004F71"/>
<path id="Path" d="M35.6225 10.7932C31.0009 5.76777 24.7426 3.00007 17.9997 3C11.2575 3.00007 4.99919 5.76777 0.377486 10.7932C-0.151966 11.3689 -0.120677 12.2708 0.447447 12.8074C1.01564 13.344 1.90544 13.3124 2.43497 12.7365C6.51871 8.29596 12.0464 5.85043 18.0002 5.85036C23.9536 5.85043 29.4813 8.29596 33.565 12.7365C33.842 13.0377 34.2175 13.19 34.594 13.19C34.9374 13.19 35.2815 13.0633 35.5525 12.8074C36.1206 12.2707 36.152 11.3689 35.6225 10.7932Z" fill="#004F71"/>
<path id="Path_2" d="M30.4589 16.6787C27.0426 13.1903 22.6179 11.2693 17.9998 11.2694C13.3806 11.2695 8.95587 13.1906 5.54065 16.6789C4.99362 17.2376 4.99707 18.14 5.54839 18.6944C6.09971 19.2488 6.99007 19.2453 7.5371 18.6865C10.4203 15.7417 14.136 14.1198 17.9998 14.1198C21.8626 14.1196 25.5784 15.7415 28.4626 18.6867C28.7375 18.9674 29.099 19.1079 29.4607 19.1079C29.8187 19.1079 30.1771 18.9701 30.4514 18.6942C31.0026 18.1398 31.006 17.2374 30.4589 16.6787Z" fill="#004F71"/>
<path id="Path_3" d="M24.8308 22.5814C23.0013 20.7445 20.3789 19.6034 17.9867 19.6034C17.9864 19.6034 17.9859 19.6034 17.9857 19.6034H17.8843C17.8839 19.6034 17.8837 19.6034 17.8833 19.6034C15.491 19.6034 12.8684 20.7445 11.0389 22.5814C10.4873 23.1354 10.4831 24.0378 11.0297 24.5969C11.3047 24.8782 11.6667 25.0191 12.0287 25.0191C12.3864 25.0191 12.7442 24.8816 13.0184 24.6063C14.3208 23.2986 16.2302 22.4537 17.8834 22.4537C17.8836 22.4537 17.8839 22.4537 17.8841 22.4537H17.9859C17.9861 22.4537 17.9862 22.4537 17.9865 22.4537C19.6395 22.4537 21.5491 23.2987 22.8513 24.6063C23.403 25.1602 24.2935 25.1562 24.8401 24.5969C25.3867 24.0378 25.3826 23.1354 24.8308 22.5814Z" fill="#004F71"/>
</g>
</g>
</svg>
