<svg width="36" height="36" viewBox="0 0 36 36" fill="none" xmlns="http://www.w3.org/2000/svg">
<g id="icons - airtime">
<path id="Union" fill-rule="evenodd" clip-rule="evenodd" d="M21.7468 1.5C21.9466 1.5 22.1374 1.5792 22.2778 1.72139L29.7804 9.21992C29.9208 9.36031 30 9.55111 30 9.7509V31.4995C30 33.1537 28.6554 34.5 27.0011 34.5H9.00068C7.34643 34.5 6 33.1537 6 31.4995V4.50049C6 2.84635 7.34643 1.5 9.00068 1.5H21.7468Z" fill="#004F71"/>
<path id="shape:icon" fill-rule="evenodd" clip-rule="evenodd" d="M15.3754 18.6262H12.7498V16.6574C12.7498 16.2951 13.0443 16.0006 13.4066 16.0006H15.3754V18.6262ZM16.6874 18.6262H19.313V16.0006H16.6874V18.6262ZM20.625 16.0006H22.5939C22.9561 16.0006 23.2507 16.2951 23.2507 16.6574V18.6262H20.625V16.0006ZM23.2506 27.1582C23.2506 27.5205 22.9561 27.8134 22.5938 27.8134H20.625V24.5326C20.625 24.1703 20.3321 23.8758 19.9698 23.8758H12.7498V19.9382H23.2506V27.1582ZM16.6874 27.8134H19.313V25.1878H16.6874V27.8134ZM15.3754 27.8135H13.4066C13.0443 27.8135 12.7498 27.5205 12.7498 27.1583V25.1895H15.3754V27.8135ZM11.4378 16.6573V27.1582C11.4378 28.2434 12.3214 29.127 13.4066 29.127H22.5938C23.6806 29.127 24.5627 28.2434 24.5627 27.1582V16.6573C24.5627 15.5721 23.6806 14.6885 22.5938 14.6885H13.4066C12.3214 14.6885 11.4378 15.5721 11.4378 16.6573Z" fill="white"/>
</g>
</svg>
