<svg width="24" height="24" viewBox="0 0 24 24" fill="none" xmlns="http://www.w3.org/2000/svg">
<g id="icons - transfer">
<path id="shape:icon" fill-rule="evenodd" clip-rule="evenodd" d="M21.3333 12.0012H14.6673V11.6662C14.6673 11.4762 14.8093 11.3342 14.9993 11.3342H20.9983C21.1883 11.3342 21.3333 11.4762 21.3333 11.6662V12.0012ZM20.9983 10.6672H14.9993C14.4513 10.6672 14.0003 11.1182 14.0003 11.6662V12.3332C14.0003 12.5172 14.1493 12.6652 14.3333 12.6672L21.3333 12.6682V20.9982C21.3333 21.1882 21.1883 21.3332 20.9983 21.3332H14.9993C14.8093 21.3332 14.6673 21.1882 14.6673 20.9982V20.6662H20.3313C20.7763 20.6662 20.7763 19.9992 20.3313 19.9992H14.6673V13.6662C14.6773 13.2122 13.9903 13.2122 14.0003 13.6662V20.9982C14.0003 21.5462 14.4513 22.0002 14.9993 22.0002H20.9983C21.5463 22.0002 22.0003 21.5462 22.0003 20.9982V11.6662C22.0003 11.1182 21.5463 10.6672 20.9983 10.6672Z" fill="white"/>
<path id="shape:icon_2" fill-rule="evenodd" clip-rule="evenodd" d="M14.3328 4.00282H18.3328C18.8928 4.00282 19.3328 4.44182 19.3328 5.00182V9.00182C19.3228 9.45682 20.0098 9.45682 19.9998 9.00182V5.00182C19.9998 4.08382 19.2508 3.33582 18.3328 3.33582H14.3168C13.8558 3.35682 13.8878 4.02382 14.3328 4.00282Z" fill="white"/>
<path id="shape:icon_3" fill-rule="evenodd" clip-rule="evenodd" d="M12.332 19.9996H5.666C5.106 19.9996 4.667 19.5606 4.667 19.0006V15.0006C4.67 14.8116 4.516 14.6596 4.327 14.6626C4.144 14.6666 3.999 14.8176 4.001 15.0006V19.0006C4.001 19.9186 4.749 20.6666 5.666 20.6666H12.332C12.786 20.6766 12.786 19.9896 12.332 19.9996Z" fill="white"/>
<path id="shape:icon_4" fill-rule="evenodd" clip-rule="evenodd" d="M12 12.6678H2.66701V12.0008H9.00101C9.43501 11.9908 9.43501 11.3438 9.00101 11.3348H3.33301V10.6678H11.333V11.3348H10.331C9.89701 11.3448 9.89701 11.9918 10.331 12.0008H12V12.6678ZM4.00001 10.0008H4.66701V5.33378H4.00001V10.0008ZM5.33101 10.0008H6.333V5.33378H5.33101V10.0008ZM7.00001 10.0008H7.66701V5.33378H7.00001V10.0008ZM8.333 10.0008H9.333V5.33378H8.333V10.0008ZM9.99901 10.0008H10.666V5.33378H9.99901V10.0008ZM2.66701 4.66978V4.56078L7.33201 2.69378L12 4.56078V4.66978H2.66701ZM12.667 12.9998V11.6668C12.666 11.4828 12.516 11.3338 12.332 11.3348H12V10.3328C11.999 10.1488 11.849 9.99978 11.665 10.0008H11.333V5.33378H12.332C12.516 5.33378 12.666 5.18578 12.667 5.00178V4.33478C12.667 4.19878 12.584 4.07578 12.458 4.02478L7.458 2.02478C7.366 1.98778 7.28 1.99578 7.209 2.02478L2.209 4.02478C2.083 4.07578 2.00001 4.19878 2.00001 4.33478V5.00178C2.00101 5.18478 2.149 5.33278 2.332 5.33378H3.333V10.0008H2.99901C2.81601 10.0018 2.66701 10.1498 2.66701 10.3328V11.3348H2.332C2.149 11.3348 2.00101 11.4838 2.00001 11.6668V12.9998C1.99901 13.1838 2.148 13.3338 2.332 13.3348H12.332C12.517 13.3348 12.667 13.1848 12.667 12.9998Z" fill="white"/>
<path id="shape:icon_5" fill-rule="evenodd" clip-rule="evenodd" d="M17.6019 15.6731C17.4999 15.5611 17.4599 15.4111 17.4939 15.2611C17.5209 15.1391 17.5939 15.0341 17.6989 14.9621V15.7501H17.6979C17.6589 15.7261 17.6269 15.7001 17.6019 15.6731ZM18.2589 16.5811C18.6629 16.7261 18.6379 17.0731 18.6209 17.1771C18.5889 17.3651 18.4659 17.5641 18.2589 17.6631V16.5811ZM17.2439 17.5311C17.1139 17.4461 16.9409 17.4831 16.8559 17.6121C16.7709 17.7421 16.8069 17.9161 16.9369 18.0011C17.2339 18.1961 17.4419 18.2601 17.6979 18.2791V18.4971C17.6979 18.6521 17.8239 18.7781 17.9789 18.7781C18.1329 18.7781 18.2589 18.6521 18.2589 18.4971V18.2531C18.7719 18.1331 19.1009 17.6981 19.1729 17.2701C19.2659 16.7191 18.9789 16.2401 18.4409 16.0501C18.3799 16.0281 18.3199 16.0071 18.2589 15.9861V14.9011C18.3519 14.9411 18.4169 14.9951 18.4459 15.0231C18.4979 15.0901 18.5779 15.1331 18.6689 15.1331C18.8239 15.1331 18.9499 15.0071 18.9499 14.8511C18.9499 14.7781 18.9219 14.7121 18.8769 14.6621V14.6611C18.8629 14.6451 18.6309 14.3941 18.2589 14.3151V14.1701C18.2589 14.0151 18.1329 13.8891 17.9789 13.8891C17.8239 13.8891 17.6979 14.0151 17.6979 14.1701V14.3461C17.6649 14.3571 17.6299 14.3691 17.5959 14.3831C17.2599 14.5201 17.0239 14.7951 16.9469 15.1381C16.8729 15.4641 16.9639 15.8061 17.1889 16.0521C17.3159 16.1921 17.4919 16.2901 17.6979 16.3761V17.7151C17.5389 17.6981 17.4259 17.6501 17.2439 17.5311Z" fill="white"/>
</g>
</svg>
