<svg width="20" height="23" viewBox="0 0 20 23" fill="none" xmlns="http://www.w3.org/2000/svg">
<g id="icon:notifications" clip-path="url(#clip0_145_1869)">
<path id="shape:icon_3" fill-rule="evenodd" clip-rule="evenodd" d="M15.1555 0C12.4889 0 10.3111 2.16667 10.3111 4.83333C10.3111 7.5 12.4889 9.66667 15.1555 9.66667C17.8222 9.66667 20 7.5 20 4.83333C20 2.16667 17.8222 0 15.1555 0Z" fill="#FFCB05"/>
<path id="text:icon" d="M15.6666 5.93334V2.17778L13.6222 2.5L13.6666 3.14445L14.8 3.02222V5.93334H13.7222V6.66667H16.5444V5.93334H15.6666Z" fill="#004F71"/>
<path id="Vector" fill-rule="evenodd" clip-rule="evenodd" d="M16.9444 16.9889L15.7444 15.1444C15.5666 14.8667 15.4666 14.5333 15.4666 14.1889V10.8556C15.3666 10.8556 15.2666 10.8889 15.1555 10.8889C15.1333 10.8889 15.1111 10.8889 15.0889 10.8889V10.8667C11.8 10.8222 9.13331 8.14444 9.13331 4.84444C9.13331 3.74444 9.43331 2.72222 9.95553 1.83333C9.97776 1.78889 9.98887 1.74444 10.0111 1.71111C9.56665 1.61111 9.11109 1.56666 8.64442 1.56666C4.87776 1.55555 1.81109 4.84444 1.81109 8.87777V14.1778C1.81109 14.5222 1.71109 14.8556 1.5222 15.1333L0.322201 16.9778C-0.0222431 17.3889 -0.100021 17.9444 0.0999792 18.4222C0.299979 18.9 0.733313 19.2 1.21109 19.2H5.34442L5.37776 19.3444C5.68887 21 7.05554 22.2 8.63331 22.2C10.2111 22.2 11.5778 21 11.8889 19.3444L11.9111 19.2H16.0444C16.5222 19.2 16.9555 18.8889 17.1555 18.4222C17.3555 17.9444 17.2666 17.3778 16.9444 16.9889V16.9667V16.9889Z" fill="white"/>
</g>
<defs>
<clipPath id="clip0_145_1869">
<rect width="20" height="22.2222" fill="white"/>
</clipPath>
</defs>
</svg>
