<svg width="24" height="24" viewBox="0 0 24 24" fill="none" xmlns="http://www.w3.org/2000/svg">
<g id="icons - search">
<g id="shape:icon">
<path fill-rule="evenodd" clip-rule="evenodd" d="M10.7124 18.4734C6.43333 18.4734 2.95237 14.9924 2.95237 10.7133C2.95237 6.43333 6.43333 2.95237 10.7124 2.95237C14.9914 2.95237 18.4724 6.43333 18.4724 10.7133C18.4724 14.9924 14.9914 18.4734 10.7124 18.4734ZM21.8724 21.1991L17.3762 16.3638C17.3686 16.3553 17.3572 16.3524 17.3496 16.3448C18.641 14.8248 19.4248 12.86 19.4248 10.7134C19.4248 5.90858 15.5172 2 10.7124 2C5.90763 2 2 5.90858 2 10.7134C2 15.5172 5.90763 19.4258 10.7124 19.4258C13.0295 19.4258 15.1324 18.5105 16.6953 17.0305L21.1743 21.8486C21.2686 21.9486 21.3962 22 21.5239 22C21.64 22 21.7562 21.9581 21.8477 21.8724C22.041 21.6934 22.0515 21.3915 21.8724 21.1991Z" fill="#FFCB05"/>
<path d="M17.3762 16.3638L17.1146 16.5964L17.1199 16.6022L17.3762 16.3638ZM17.3496 16.3448L17.0828 16.1182L16.8739 16.3641L17.1021 16.5923L17.3496 16.3448ZM16.6953 17.0305L16.9516 16.7922L16.7111 16.5335L16.4546 16.7764L16.6953 17.0305ZM21.1743 21.8486L20.918 22.0869L20.9197 22.0887L21.1743 21.8486ZM21.8477 21.8724L21.6098 21.6156L21.6083 21.6171L21.8477 21.8724ZM10.7124 18.1234C6.62663 18.1234 3.30237 14.7991 3.30237 10.7133H2.60237C2.60237 15.1857 6.24003 18.8234 10.7124 18.8234V18.1234ZM3.30237 10.7133C3.30237 6.6266 6.62666 3.30237 10.7124 3.30237V2.60237C6.24 2.60237 2.60237 6.24006 2.60237 10.7133H3.30237ZM10.7124 3.30237C14.7981 3.30237 18.1224 6.6266 18.1224 10.7133H18.8224C18.8224 6.24006 15.1848 2.60237 10.7124 2.60237V3.30237ZM18.1224 10.7133C18.1224 14.7991 14.7981 18.1234 10.7124 18.1234V18.8234C15.1847 18.8234 18.8224 15.1857 18.8224 10.7133H18.1224ZM22.1287 20.9608L17.6325 16.1255L17.1199 16.6022L21.6161 21.4374L22.1287 20.9608ZM17.6378 16.1313C17.6134 16.1038 17.5891 16.0846 17.5714 16.0721C17.5548 16.0605 17.5402 16.0522 17.5374 16.0505C17.5342 16.0488 17.5359 16.0497 17.5365 16.0501C17.5379 16.0509 17.5418 16.0532 17.5469 16.0565C17.5568 16.063 17.576 16.0763 17.597 16.0973L17.1021 16.5923C17.1269 16.6171 17.1504 16.6336 17.1649 16.6431C17.1722 16.6478 17.1784 16.6516 17.1822 16.6537C17.1841 16.6549 17.1857 16.6558 17.1867 16.6564C17.1872 16.6567 17.1876 16.6569 17.1879 16.6571C17.1882 16.6573 17.1883 16.6573 17.1884 16.6574C17.189 16.6577 17.1868 16.6564 17.1837 16.6545C17.1804 16.6526 17.175 16.6492 17.1684 16.6445C17.1552 16.6352 17.1353 16.6196 17.1146 16.5964L17.6378 16.1313ZM17.6163 16.5714C18.9589 14.9911 19.7748 12.9469 19.7748 10.7134H19.0748C19.0748 12.7731 18.3231 14.6584 17.0828 16.1182L17.6163 16.5714ZM19.7748 10.7134C19.7748 5.71533 15.7105 1.65 10.7124 1.65V2.35C15.3238 2.35 19.0748 6.10183 19.0748 10.7134H19.7748ZM10.7124 1.65C5.71428 1.65 1.65 5.71533 1.65 10.7134H2.35C2.35 6.10183 6.10098 2.35 10.7124 2.35V1.65ZM1.65 10.7134C1.65 15.7104 5.7143 19.7758 10.7124 19.7758V19.0758C6.10095 19.0758 2.35 15.3239 2.35 10.7134H1.65ZM10.7124 19.7758C13.1238 19.7758 15.3116 18.8229 16.9359 17.2846L16.4546 16.7764C14.9532 18.1981 12.9353 19.0758 10.7124 19.0758V19.7758ZM16.4389 17.2688L20.918 22.0869L21.4307 21.6103L16.9516 16.7922L16.4389 17.2688ZM20.9197 22.0887C21.082 22.2608 21.3026 22.35 21.5239 22.35V21.65C21.4899 21.65 21.4553 21.6364 21.429 21.6085L20.9197 22.0887ZM21.5239 22.35C21.7245 22.35 21.9276 22.2773 22.087 22.1278L21.6083 21.6171C21.5849 21.639 21.5556 21.65 21.5239 21.65V22.35ZM22.0855 22.1292C22.4214 21.8182 22.4392 21.2943 22.1286 20.9606L21.6162 21.4375C21.6638 21.4887 21.6606 21.5686 21.6098 21.6156L22.0855 22.1292Z" fill="#FFCB05"/>
</g>
</g>
</svg>
