<svg width="24" height="24" viewBox="0 0 24 24" fill="none" xmlns="http://www.w3.org/2000/svg">
<g id="icon:arrow">
<circle id="Ellipse 10" cx="12" cy="12" r="11.5" stroke="#004F71"/>
<path id="shape:icon" d="M10.3685 8.15037C10.4706 8.05409 10.6092 8 10.7537 8C10.8982 8 11.0368 8.05409 11.139 8.15037L14.8403 11.6328C14.9425 11.729 15 11.8595 15 11.9956C15 12.1316 14.9425 12.2621 14.8403 12.3583L11.139 15.8408C11.0025 15.9757 10.7991 16.0304 10.6076 15.9835C10.4161 15.9367 10.2667 15.7957 10.2173 15.6153C10.1679 15.4349 10.2263 15.2435 10.3698 15.1153L13.6859 11.9956L10.3698 8.87583C10.2674 8.77983 10.2097 8.64944 10.2094 8.51336C10.2092 8.37729 10.2664 8.2467 10.3685 8.15037Z" fill="#004F71"/>
</g>
</svg>
