<svg width="24" height="24" viewBox="0 0 24 24" fill="none" xmlns="http://www.w3.org/2000/svg">
<g id="icon:arrow">
<circle id="Ellipse 10" cx="12" cy="12" r="11.5" transform="rotate(-180 12 12)" stroke="#004F71"/>
<path id="shape:icon" d="M13.6315 15.8496C13.5294 15.9459 13.3908 16 13.2463 16C13.1018 16 12.9632 15.9459 12.861 15.8496L9.1597 12.3672C9.05745 12.271 9 12.1405 9 12.0044C9 11.8684 9.05745 11.7379 9.1597 11.6417L12.861 8.15924C12.9975 8.0243 13.2009 7.96964 13.3924 8.01648C13.5839 8.06332 13.7333 8.20429 13.7827 8.38468C13.8321 8.56507 13.7737 8.75651 13.6302 8.8847L10.3141 12.0044L13.6302 15.1242C13.7326 15.2202 13.7903 15.3506 13.7906 15.4866C13.7908 15.6227 13.7336 15.7533 13.6315 15.8496Z" fill="#004F71"/>
</g>
</svg>
