<svg width="14" height="14" viewBox="0 0 14 14" fill="none" xmlns="http://www.w3.org/2000/svg">
<g id="icon:money in">
<circle id="Ellipse 9" cx="7" cy="7" r="7" fill="#5CB85C"/>
<path id="Union" fill-rule="evenodd" clip-rule="evenodd" d="M6.99944 11.0001C6.94741 11.0001 6.89913 10.9794 6.8625 10.9425L3.45781 7.48786C3.40037 7.43024 3.38372 7.34402 3.41494 7.26692C3.44449 7.19272 3.51483 7.14464 3.59391 7.14464H5.44152V3.54573C5.44152 3.24437 5.68168 2.99939 5.9772 2.99939H8.02084C8.31594 2.99939 8.55652 3.24437 8.55652 3.54573V7.14464H10.405C10.4828 7.14464 10.5544 7.19396 10.5848 7.26775C10.6156 7.34402 10.5989 7.43024 10.5415 7.48786L7.13637 10.9425C7.10016 10.9794 7.05105 11.0001 6.99944 11.0001Z" fill="white"/>
</g>
</svg>
