<svg width="24" height="24" viewBox="0 0 24 24" fill="none" xmlns="http://www.w3.org/2000/svg">
<g id="icons - more">
<path id="shape:icon" fill-rule="evenodd" clip-rule="evenodd" d="M13.9657 4.44725C13.9657 5.50638 13.0834 6.36796 12.0005 6.36796C10.9166 6.36796 10.0353 5.50638 10.0353 4.44725C10.0353 3.38813 10.9166 2.52655 12.0005 2.52655C13.0834 2.52655 13.9657 3.38813 13.9657 4.44725ZM9 4.44725C9 6.0618 10.3467 7.37433 12.0005 7.37433C13.6533 7.37433 15 6.0618 15 4.44725C15 2.8327 13.6533 1.52017 12.0005 1.52017C10.3467 1.52017 9 2.8327 9 4.44725Z" fill="#FFCB05"/>
<path id="shape:icon_2" fill-rule="evenodd" clip-rule="evenodd" d="M13.9657 11.7601C13.9657 12.8192 13.0834 13.6808 12.0005 13.6808C10.9166 13.6808 10.0353 12.8192 10.0353 11.7601C10.0353 10.701 10.9166 9.83939 12.0005 9.83939C13.0834 9.83939 13.9657 10.701 13.9657 11.7601ZM9 11.7601C9 13.3746 10.3467 14.6871 12.0005 14.6871C13.6533 14.6871 15 13.3746 15 11.7601C15 10.1455 13.6533 8.83299 12.0005 8.83299C10.3467 8.83299 9 10.1455 9 11.7601Z" fill="#FFCB05"/>
<path id="shape:icon_3" fill-rule="evenodd" clip-rule="evenodd" d="M13.9657 19.0729C13.9657 20.1321 13.0834 20.9936 12.0005 20.9936C10.9166 20.9936 10.0353 20.1321 10.0353 19.0729C10.0353 18.0138 10.9166 17.1522 12.0005 17.1522C13.0834 17.1522 13.9657 18.0138 13.9657 19.0729ZM9 19.0729C9 20.6875 10.3467 22 12.0005 22C13.6533 22 15 20.6875 15 19.0729C15 17.4584 13.6533 16.1458 12.0005 16.1458C10.3467 16.1458 9 17.4584 9 19.0729Z" fill="#FFCB05"/>
</g>
</svg>
