<svg width="24" height="24" viewBox="0 0 24 24" fill="none" xmlns="http://www.w3.org/2000/svg">
<path fill-rule="evenodd" clip-rule="evenodd" d="M12.534 20.854H7.549C6.194 20.854 5.095 19.7 5.095 18.286V5.714C5.095 4.296 6.198 3.146 7.549 3.146H12.615C12.919 3.146 13.163 2.891 13.163 2.573C13.163 2.255 12.919 2 12.615 2H7.549C5.59 2 4 3.668 4 5.714V18.286C4 20.336 5.594 22 7.549 22H12.534C12.838 22 13.082 21.745 13.082 21.427C13.082 21.109 12.834 20.854 12.534 20.854Z" fill="#004F71"/>
<path d="M12.534 20.854H7.549C6.194 20.854 5.095 19.7 5.095 18.286V5.714C5.095 4.296 6.198 3.146 7.549 3.146H12.615C12.919 3.146 13.163 2.891 13.163 2.573C13.163 2.255 12.919 2 12.615 2H7.549C5.59 2 4 3.668 4 5.714V18.286C4 20.336 5.594 22 7.549 22H12.534C12.838 22 13.082 21.745 13.082 21.427C13.082 21.109 12.834 20.854 12.534 20.854" stroke="#004F71" stroke-width="0.3"/>
<path fill-rule="evenodd" clip-rule="evenodd" d="M19.8595 11.5969L16.8205 7.95488C16.6335 7.72988 16.3315 7.72988 16.1445 7.95488C15.9565 8.17988 15.9565 8.54088 16.1445 8.76588L18.3685 11.4309H8.66745C8.40245 11.4309 8.18945 11.6859 8.18945 12.0039C8.18945 12.3229 8.40245 12.5779 8.66745 12.5779H18.3685L16.1445 15.2429C15.9565 15.4679 15.9565 15.8289 16.1445 16.0539C16.2365 16.1639 16.3605 16.2239 16.4805 16.2239C16.6015 16.2239 16.7255 16.1679 16.8175 16.0539L19.8555 12.4119C20.0475 12.1829 20.0475 11.8179 19.8595 11.5969Z" fill="#004F71"/>
<path d="M19.8595 11.5969L16.8205 7.95488C16.6335 7.72988 16.3315 7.72988 16.1445 7.95488C15.9565 8.17988 15.9565 8.54088 16.1445 8.76588L18.3685 11.4309H8.66745C8.40245 11.4309 8.18945 11.6859 8.18945 12.0039C8.18945 12.3229 8.40245 12.5779 8.66745 12.5779H18.3685L16.1445 15.2429C15.9565 15.4679 15.9565 15.8289 16.1445 16.0539C16.2365 16.1639 16.3605 16.2239 16.4805 16.2239C16.6015 16.2239 16.7255 16.1679 16.8175 16.0539L19.8555 12.4119C20.0475 12.1829 20.0475 11.8179 19.8595 11.5969" stroke="#004F71" stroke-width="0.3"/>
</svg>
