<svg width="24" height="24" viewBox="0 0 24 24" fill="none" xmlns="http://www.w3.org/2000/svg">
<g id="icons - cost">
<g id="shape:icon">
<path fill-rule="evenodd" clip-rule="evenodd" d="M6.18976 8.70978C6.63974 8.70978 7.08972 8.77644 7.52748 8.90866C9.10074 9.39864 10.2873 10.7052 10.6229 12.3196C10.684 12.6274 10.714 12.9351 10.714 13.2329C10.7184 14.5006 10.1796 15.7217 9.23406 16.5805C8.3941 17.3438 7.32193 17.7594 6.19309 17.7594C6.12087 17.7594 6.04866 17.7571 5.97644 17.7538C4.76872 17.6971 3.65654 17.1738 2.84325 16.2794C1.16555 14.4317 1.29999 11.563 3.14323 9.88528C3.9732 9.12643 5.05537 8.70978 6.18976 8.70978V8.70978ZM7.89413 5.85547C7.90413 5.6677 8.22967 5.37104 9.11408 5.10328C10.0263 4.82329 11.2329 4.66886 12.5106 4.66886C13.795 4.66886 15.0494 4.82774 15.9526 5.10328C16.9437 5.40327 17.2048 5.72992 17.2048 5.86102C17.2048 5.99435 16.9426 6.32545 15.9471 6.6221C15.0427 6.89542 13.7905 7.05208 12.5106 7.05208C11.2762 7.05208 10.1063 6.90986 9.2174 6.64987C8.42966 6.42211 8.04746 6.15879 7.93413 5.97102H7.88747L7.89413 5.85547ZM17.2537 8.17314L17.2304 8.20203C17.2104 8.22759 17.2093 8.24758 17.2093 8.30092V8.31536C17.2093 8.44646 16.9482 8.77645 15.9582 9.07755C15.0382 9.35309 13.7839 9.51197 12.5161 9.51197C11.404 9.51197 10.324 9.39198 9.47405 9.17532C9.45294 9.17088 9.44294 9.16865 9.43072 9.16421L9.39739 9.14643C8.97852 8.81756 8.52298 8.55757 8.04078 8.37869L7.97079 8.35314L7.9319 6.84209L8.09856 6.92765C8.40077 7.07986 8.7152 7.20097 9.03518 7.28652C9.9807 7.56095 11.2162 7.71316 12.5161 7.71316C13.8783 7.71316 15.1682 7.54873 16.1493 7.25207C16.4826 7.1543 16.7993 7.02653 17.0926 6.87431L17.2537 6.78876V8.17314ZM17.6481 11.3852C18.9436 11.3852 20.198 11.5408 21.0891 11.8108C22.0535 12.1007 22.3268 12.4129 22.3357 12.5518C22.3257 12.7152 22.0457 13.0385 21.048 13.334C20.1402 13.6062 18.9336 13.7551 17.6514 13.7551C16.4226 13.7551 15.2527 13.614 14.3594 13.3573C13.4739 13.1018 13.0972 12.794 13.0428 12.6085L13.0294 12.5329L13.045 12.4918C13.1017 12.3218 13.4905 12.0174 14.3849 11.7652C15.2493 11.5197 16.3815 11.3852 17.5715 11.3852H17.6481ZM22.3446 14.9784H22.3212C22.3179 14.9917 22.3146 15.0062 22.3146 15.0139C22.3146 15.1462 22.0546 15.475 21.0713 15.775C20.1536 16.0528 18.937 16.205 17.6437 16.205C15.2316 16.205 13.5061 15.6772 13.1072 15.1806L13.0828 15.1517L13.0783 14.7406L13.0572 13.5396L13.2206 13.6207C13.5194 13.7707 13.8383 13.8929 14.1672 13.9851C15.1116 14.2595 16.3482 14.4117 17.6481 14.4117C18.987 14.4117 20.2602 14.2517 21.2335 13.964C21.5591 13.8729 21.8779 13.7473 22.1835 13.5907L22.3446 13.5062V14.9784ZM21.1246 18.2338C20.218 18.5171 19.0103 18.6738 17.7226 18.6738C16.4348 18.6738 15.2293 18.5227 14.3294 18.2482C13.3772 17.9538 13.1228 17.6327 13.1228 17.4894L13.0972 16.0172L13.2594 16.0961C13.6016 16.2628 13.9661 16.3961 14.3405 16.4928C15.2727 16.7361 16.4437 16.8705 17.6392 16.8705C18.9992 16.8705 20.2869 16.7061 21.2624 16.4094C21.5679 16.3172 21.8735 16.1928 22.1757 16.0406L22.3357 15.9572L22.3401 17.4683C22.3401 17.6016 22.0868 17.9338 21.1246 18.2338V18.2338ZM12.6384 11.9296L12.6039 11.9663H12.5106C12.1273 11.9663 11.7262 11.9519 11.2862 11.9219L11.2084 11.9163L11.1862 11.8407C11.0206 11.2519 10.7584 10.7086 10.4118 10.2275L10.2618 10.0208L10.5162 10.0519C12.5906 10.313 14.6938 10.1575 16.1449 9.71974C16.4626 9.62641 16.777 9.50086 17.0837 9.34531L17.2437 9.26309V10.7141L17.137 10.7164C15.4527 10.7641 13.3872 11.1063 12.6384 11.9296V11.9296ZM11.3551 12.714L11.3451 12.5863L11.474 12.5952C11.7017 12.6107 11.9617 12.6207 12.2706 12.6252L12.3772 12.6263L12.4084 14.4184L12.2939 14.4162C11.9906 14.4117 11.6817 14.3984 11.3784 14.3762L11.2551 14.3673L11.2773 14.244C11.3451 13.9018 11.3784 13.5596 11.3784 13.2273C11.3784 13.0718 11.3706 12.904 11.3551 12.714V12.714ZM12.3328 16.8872C11.6506 16.8794 10.9551 16.8183 10.2662 16.705L10.0774 16.675L10.1985 16.525C10.554 16.0894 10.834 15.6095 11.0295 15.0973L11.0606 15.0206L11.144 15.0273C11.5562 15.0617 11.9373 15.0795 12.3095 15.0839L12.4184 15.085V15.275L12.4472 16.8894L12.3328 16.8872ZM1.09222 12.2607C1.03111 12.5818 1 12.9074 1 13.2274C1 16.0917 3.32878 18.4204 6.18976 18.4204C7.37971 18.4204 8.53965 18.0071 9.45628 17.2583L9.49961 17.2238L9.55183 17.2361C10.3685 17.4283 11.3406 17.5338 12.3628 17.5438H12.4539L12.4706 17.6338C12.685 18.8015 15.3404 19.3337 17.7181 19.3337C19.0703 19.3337 20.348 19.166 21.3146 18.8638C22.0846 18.6271 23.0001 18.1916 23.0001 17.4638V12.5996C23.0001 12.5774 23.0001 12.5541 22.9968 12.5318L22.9957 12.5196C22.9712 11.9552 22.3946 11.4985 21.2802 11.1597C20.3691 10.8863 19.2414 10.7286 18.0214 10.703L17.9137 10.7008V5.86436C17.9103 5.80992 17.8914 5.75103 17.8614 5.70103L17.8481 5.66881C17.7348 5.17328 17.1615 4.76663 16.1449 4.46109C15.1638 4.16333 13.8739 4 12.5106 4C11.1551 4 9.87626 4.16333 8.91297 4.46109C8.14523 4.69886 7.22971 5.13439 7.22971 5.85658C7.22971 5.89769 7.23305 5.93991 7.24082 5.98102L7.29527 8.15759L7.16083 8.13203C5.79645 7.87315 4.41762 8.1587 3.27101 8.93755C2.12439 9.71751 1.35109 10.8986 1.09222 12.2607V12.2607Z" fill="#004F71"/>
<path d="M7.52748 8.90866L7.54234 8.86092L7.54193 8.8608L7.52748 8.90866ZM10.6229 12.3196L10.6719 12.3099L10.6718 12.3094L10.6229 12.3196ZM10.714 13.2329H10.664L10.664 13.2331L10.714 13.2329ZM9.23406 16.5805L9.20045 16.5435L9.20044 16.5435L9.23406 16.5805ZM5.97644 17.7538L5.97409 17.8038L5.97413 17.8038L5.97644 17.7538ZM2.84325 16.2794L2.80623 16.313L2.80626 16.3131L2.84325 16.2794ZM3.14323 9.88528L3.17689 9.92226L3.17697 9.92218L3.14323 9.88528ZM7.89413 5.85547L7.94405 5.85835L7.94406 5.85813L7.89413 5.85547ZM9.11408 5.10328L9.12856 5.15113L9.12875 5.15108L9.11408 5.10328ZM15.9526 5.10328L15.9381 5.1511L15.9382 5.15114L15.9526 5.10328ZM15.9471 6.6221L15.9328 6.57418L15.9326 6.57424L15.9471 6.6221ZM9.2174 6.64987L9.23144 6.60189L9.23129 6.60184L9.2174 6.64987ZM7.93413 5.97102L7.97694 5.94518L7.96235 5.92102H7.93413V5.97102ZM7.88747 5.97102L7.83755 5.96814L7.8345 6.02102H7.88747V5.97102ZM17.2537 8.17314L17.2926 8.20456L17.3037 8.19081V8.17314H17.2537ZM17.2304 8.20203L17.1915 8.17061L17.191 8.17122L17.2304 8.20203ZM15.9582 9.07755L15.9725 9.12544L15.9727 9.12538L15.9582 9.07755ZM9.47405 9.17532L9.48641 9.12683L9.48435 9.12639L9.47405 9.17532ZM9.43072 9.16421L9.40695 9.20877L9.41363 9.2112L9.43072 9.16421ZM9.39739 9.14643L9.36603 9.18637L9.37386 9.19055L9.39739 9.14643ZM8.04078 8.37869L8.05818 8.33181L8.05793 8.33172L8.04078 8.37869ZM7.97079 8.35314L7.9208 8.35442L7.92168 8.38843L7.95364 8.4001L7.97079 8.35314ZM7.9319 6.84209L7.95473 6.79761L7.87975 6.75912L7.88192 6.84338L7.9319 6.84209ZM8.09856 6.92765L8.07573 6.97213L8.07607 6.9723L8.09856 6.92765ZM9.03518 7.28652L9.04912 7.23849L9.0481 7.23821L9.03518 7.28652ZM16.1493 7.25207L16.1352 7.20409L16.1348 7.20421L16.1493 7.25207ZM17.0926 6.87431L17.1156 6.9187L17.116 6.91847L17.0926 6.87431ZM17.2537 6.78876H17.3037V6.7056L17.2302 6.7446L17.2537 6.78876ZM21.0891 11.8108L21.0746 11.8586L21.0747 11.8586L21.0891 11.8108ZM22.3357 12.5518L22.386 12.5549L22.3856 12.5486L22.3357 12.5518ZM21.048 13.334L21.0338 13.2861L21.0336 13.2861L21.048 13.334ZM14.3594 13.3573L14.3455 13.4054L14.3456 13.4054L14.3594 13.3573ZM13.0428 12.6085L12.9932 12.6172L12.9948 12.6226L13.0428 12.6085ZM13.0294 12.5329L12.9827 12.5152L12.9778 12.5281L12.9802 12.5416L13.0294 12.5329ZM13.045 12.4918L13.0918 12.5095L13.0924 12.5076L13.045 12.4918ZM14.3849 11.7652L14.3985 11.8133L14.3986 11.8133L14.3849 11.7652ZM22.3446 14.9784V15.0284H22.3946V14.9784H22.3446ZM22.3212 14.9784V14.9284H22.2822L22.2727 14.9663L22.3212 14.9784ZM21.0713 15.775L21.0858 15.8229L21.0859 15.8228L21.0713 15.775ZM13.1072 15.1806L13.1462 15.1493L13.1454 15.1483L13.1072 15.1806ZM13.0828 15.1517L13.0328 15.1522L13.033 15.1703L13.0446 15.184L13.0828 15.1517ZM13.0783 14.7406L13.1283 14.7401L13.1283 14.7397L13.0783 14.7406ZM13.0572 13.5396L13.0795 13.4948L13.0058 13.4582L13.0072 13.5404L13.0572 13.5396ZM13.2206 13.6207L13.243 13.576L13.2428 13.5759L13.2206 13.6207ZM14.1672 13.9851L14.1811 13.9371L14.1807 13.937L14.1672 13.9851ZM21.2335 13.964L21.22 13.9158L21.2193 13.916L21.2335 13.964ZM22.1835 13.5907L22.2063 13.6352L22.2067 13.635L22.1835 13.5907ZM22.3446 13.5062H22.3946V13.4236L22.3214 13.4619L22.3446 13.5062ZM14.3294 18.2482L14.3146 18.296L14.3148 18.2961L14.3294 18.2482ZM13.1228 17.4894H13.1728L13.1728 17.4885L13.1228 17.4894ZM13.0972 16.0172L13.1191 15.9723L13.0458 15.9366L13.0472 16.0181L13.0972 16.0172ZM13.2594 16.0961L13.2813 16.0512L13.2813 16.0511L13.2594 16.0961ZM14.3405 16.4928L14.3531 16.4444L14.353 16.4443L14.3405 16.4928ZM21.2624 16.4094L21.248 16.3616L21.2479 16.3616L21.2624 16.4094ZM22.1757 16.0406L22.1982 16.0852L22.1988 16.0849L22.1757 16.0406ZM22.3357 15.9572L22.3857 15.9571L22.3854 15.8749L22.3126 15.9129L22.3357 15.9572ZM22.3401 17.4683H22.3901L22.3901 17.4681L22.3401 17.4683ZM21.1246 18.2338L21.1097 18.1861L21.1097 18.1861L21.1246 18.2338ZM12.6039 11.9663V12.0163H12.6255L12.6404 12.0005L12.6039 11.9663ZM11.2862 11.9219L11.2826 11.9717L11.2828 11.9717L11.2862 11.9219ZM11.2084 11.9163L11.1604 11.9304L11.1702 11.9637L11.2049 11.9662L11.2084 11.9163ZM11.1862 11.8407L11.1381 11.8543L11.1382 11.8549L11.1862 11.8407ZM10.4118 10.2275L10.4524 10.1983L10.4523 10.1981L10.4118 10.2275ZM10.2618 10.0208L10.2679 9.9712L10.1539 9.95727L10.2213 10.0502L10.2618 10.0208ZM10.5162 10.0519L10.5225 10.0023L10.5223 10.0023L10.5162 10.0519ZM16.1449 9.71974L16.1308 9.67176L16.1304 9.67187L16.1449 9.71974ZM17.0837 9.34531L17.1063 9.3899L17.1066 9.38978L17.0837 9.34531ZM17.2437 9.26309H17.2937V9.18118L17.2208 9.21862L17.2437 9.26309ZM17.2437 10.7141L17.2447 10.7641L17.2937 10.7631V10.7141H17.2437ZM17.137 10.7164L17.136 10.6664L17.1356 10.6664L17.137 10.7164ZM11.3451 12.5863L11.3485 12.5364L11.2907 12.5324L11.2952 12.5902L11.3451 12.5863ZM11.474 12.5952L11.4705 12.645L11.4706 12.645L11.474 12.5952ZM12.2706 12.6252L12.2699 12.6751L12.2701 12.6752L12.2706 12.6252ZM12.3772 12.6263L12.4272 12.6254L12.4264 12.5768L12.3778 12.5763L12.3772 12.6263ZM12.4084 14.4184L12.4074 14.4684L12.4593 14.4694L12.4584 14.4175L12.4084 14.4184ZM12.2939 14.4162L12.2949 14.3662L12.2947 14.3662L12.2939 14.4162ZM11.3784 14.3762L11.3821 14.3263L11.382 14.3263L11.3784 14.3762ZM11.2551 14.3673L11.2059 14.3584L11.196 14.4132L11.2515 14.4172L11.2551 14.3673ZM11.2773 14.244L11.2282 14.2343L11.2281 14.2351L11.2773 14.244ZM11.3551 12.714L11.3052 12.7179L11.3052 12.7181L11.3551 12.714ZM12.3328 16.8872L12.3338 16.8372L12.3334 16.8372L12.3328 16.8872ZM10.2662 16.705L10.2744 16.6556L10.2741 16.6556L10.2662 16.705ZM10.0774 16.675L10.0385 16.6436L9.98417 16.7108L10.0695 16.7244L10.0774 16.675ZM10.1985 16.525L10.1597 16.4934L10.1596 16.4936L10.1985 16.525ZM11.0295 15.0973L10.9832 15.0785L10.9828 15.0794L11.0295 15.0973ZM11.0606 15.0206L11.0646 14.9708L11.0281 14.9678L11.0143 15.0018L11.0606 15.0206ZM11.144 15.0273L11.1481 14.9774L11.148 14.9774L11.144 15.0273ZM12.3095 15.0839L12.3089 15.1339L12.309 15.1339L12.3095 15.0839ZM12.4184 15.085H12.4684V15.0356L12.4189 15.035L12.4184 15.085ZM12.4184 15.275H12.3684L12.3684 15.2759L12.4184 15.275ZM12.4472 16.8894L12.4463 16.9394L12.4982 16.9404L12.4972 16.8885L12.4472 16.8894ZM9.45628 17.2583L9.42516 17.2191L9.42464 17.2196L9.45628 17.2583ZM9.49961 17.2238L9.511 17.1752L9.48744 17.1696L9.4685 17.1847L9.49961 17.2238ZM9.55183 17.2361L9.56328 17.1874L9.56322 17.1874L9.55183 17.2361ZM12.3628 17.5438L12.3623 17.5938H12.3628V17.5438ZM12.4539 17.5438L12.5031 17.5347L12.4955 17.4938H12.4539V17.5438ZM12.4706 17.6338L12.5198 17.6248L12.5197 17.6247L12.4706 17.6338ZM21.3146 18.8638L21.2999 18.816L21.2997 18.816L21.3146 18.8638ZM22.9968 12.5318L22.9469 12.5364L22.9473 12.5392L22.9968 12.5318ZM22.9957 12.5196L22.9456 12.5218L22.9459 12.5241L22.9957 12.5196ZM21.2802 11.1597L21.2947 11.1118L21.2945 11.1118L21.2802 11.1597ZM18.0214 10.703L18.0225 10.653L18.0225 10.653L18.0214 10.703ZM17.9137 10.7008H17.8637V10.7498L17.9126 10.7508L17.9137 10.7008ZM17.9137 5.86436H17.9638L17.9636 5.8613L17.9137 5.86436ZM17.8614 5.70103L17.8147 5.72036L17.8186 5.72676L17.8614 5.70103ZM17.8481 5.66881L17.7987 5.68012L17.8019 5.68793L17.8481 5.66881ZM16.1449 4.46109L16.1303 4.50893L16.1305 4.50897L16.1449 4.46109ZM8.91297 4.46109L8.8982 4.41332L8.89818 4.41333L8.91297 4.46109ZM7.24082 5.98102L7.29147 5.97975L7.28995 5.97173L7.24082 5.98102ZM7.29527 8.15759L7.28593 8.20671L7.3468 8.21828L7.34525 8.15634L7.29527 8.15759ZM7.16083 8.13203L7.17016 8.08291L7.17015 8.08291L7.16083 8.13203ZM3.27101 8.93755L3.24291 8.89619L3.24288 8.89621L3.27101 8.93755ZM6.18976 8.75978C6.63479 8.75978 7.0799 8.82571 7.51302 8.95653L7.54193 8.8608C7.09954 8.72718 6.64469 8.65978 6.18976 8.65978V8.75978ZM7.51261 8.9564C9.06854 9.44098 10.2421 10.7332 10.5739 12.3298L10.6718 12.3094C10.3326 10.6773 9.13294 9.3563 7.54234 8.86092L7.51261 8.9564ZM10.5738 12.3294C10.6343 12.634 10.664 12.9385 10.664 13.2329H10.764C10.764 12.9318 10.7337 12.6208 10.6719 12.3099L10.5738 12.3294ZM10.664 13.2331C10.6684 14.4866 10.1355 15.6941 9.20045 16.5435L9.26768 16.6175C10.2236 15.7492 10.7685 14.5147 10.764 13.2327L10.664 13.2331ZM9.20044 16.5435C8.36963 17.2985 7.30943 17.7094 6.19309 17.7094V17.8094C7.33444 17.8094 8.41858 17.3891 9.26769 16.6175L9.20044 16.5435ZM6.19309 17.7094C6.12188 17.7094 6.05047 17.7072 5.97874 17.7039L5.97413 17.8038C6.04684 17.8071 6.11987 17.8094 6.19309 17.8094V17.7094ZM5.97878 17.7039C4.78431 17.6478 3.68461 17.1304 2.88024 16.2458L2.80626 16.3131C3.62848 17.2173 4.75312 17.7465 5.97409 17.8038L5.97878 17.7039ZM2.88027 16.2458C1.22107 14.4185 1.3541 11.5813 3.17689 9.92226L3.10958 9.84831C1.24588 11.5446 1.11003 14.445 2.80623 16.313L2.88027 16.2458ZM3.17697 9.92218C3.9976 9.17187 5.06769 8.75978 6.18976 8.75978V8.65978C5.04304 8.65978 3.94879 9.08099 3.1095 9.84838L3.17697 9.92218ZM7.94406 5.85813C7.94584 5.82476 7.96213 5.78061 8.00396 5.72721C8.04559 5.67406 8.11054 5.61436 8.20428 5.55074C8.3918 5.42349 8.68909 5.28419 9.12856 5.15113L9.09959 5.05542C8.65465 5.19013 8.34698 5.33305 8.14813 5.468C8.04868 5.53549 7.97509 5.6019 7.92524 5.66555C7.87558 5.72894 7.84743 5.79229 7.8442 5.85281L7.94406 5.85813ZM9.12875 5.15108C10.0349 4.87295 11.2363 4.71886 12.5106 4.71886V4.61886C11.2295 4.61886 10.0176 4.77364 9.0994 5.05548L9.12875 5.15108ZM12.5106 4.71886C13.7916 4.71886 15.0408 4.87741 15.9381 5.1511L15.9672 5.05546C15.0579 4.77806 13.7983 4.61886 12.5106 4.61886V4.71886ZM15.9382 5.15114C16.4305 5.30017 16.738 5.45481 16.9213 5.58612C17.0129 5.65178 17.0723 5.71081 17.1084 5.75933C17.1452 5.80885 17.1548 5.84341 17.1548 5.86102H17.2548C17.2548 5.81308 17.2318 5.75764 17.1887 5.69967C17.1448 5.6407 17.077 5.57474 16.9795 5.50484C16.7844 5.36505 16.4658 5.20638 15.9671 5.05542L15.9382 5.15114ZM17.1548 5.86102C17.1548 5.87935 17.145 5.91468 17.108 5.96479C17.0718 6.01396 17.0121 6.07361 16.9201 6.13971C16.7361 6.27192 16.4273 6.42682 15.9328 6.57418L15.9614 6.67002C16.4624 6.52072 16.7825 6.36175 16.9784 6.22092C17.0765 6.15049 17.1445 6.08383 17.1885 6.02415C17.2318 5.96542 17.2548 5.90936 17.2548 5.86102H17.1548ZM15.9326 6.57424C15.0342 6.84574 13.7872 7.00208 12.5106 7.00208V7.10208C13.7938 7.10208 15.0511 6.9451 15.9616 6.66996L15.9326 6.57424ZM12.5106 7.00208C11.2794 7.00208 10.1145 6.86017 9.23144 6.60189L9.20337 6.69786C10.098 6.95955 11.273 7.10208 12.5106 7.10208V7.00208ZM9.23129 6.60184C8.84007 6.48872 8.55141 6.36729 8.34748 6.25193C8.14239 6.13591 8.02713 6.02834 7.97694 5.94518L7.89132 5.99685C7.95446 6.10146 8.08697 6.21944 8.29824 6.33897C8.51068 6.45915 8.807 6.58326 9.20352 6.69791L9.23129 6.60184ZM7.93413 5.92102H7.88747V6.02102H7.93413V5.92102ZM7.93738 5.9739L7.94405 5.85835L7.84422 5.85259L7.83755 5.96814L7.93738 5.9739ZM17.2148 8.14173L17.1915 8.17061L17.2693 8.23345L17.2926 8.20456L17.2148 8.14173ZM17.191 8.17122C17.1764 8.18982 17.1675 8.20852 17.1632 8.23187C17.1594 8.25216 17.1593 8.2754 17.1593 8.30092H17.2593C17.2593 8.2731 17.2597 8.25968 17.2615 8.25024C17.2626 8.24387 17.2643 8.2398 17.2697 8.23285L17.191 8.17122ZM17.1593 8.30092V8.31536H17.2593V8.30092H17.1593ZM17.1593 8.31536C17.1593 8.33303 17.1496 8.36783 17.1128 8.41771C17.0767 8.46658 17.0172 8.52605 16.9257 8.59217C16.7426 8.72441 16.4354 8.88014 15.9436 9.02971L15.9727 9.12538C16.471 8.97385 16.7893 8.81404 16.9842 8.67324C17.0817 8.60284 17.1494 8.53641 17.1932 8.47713C17.2363 8.41885 17.2593 8.36325 17.2593 8.31536H17.1593ZM15.9439 9.02965C15.0297 9.30344 13.7804 9.46197 12.5161 9.46197V9.56197C13.7873 9.56197 15.0467 9.40274 15.9725 9.12544L15.9439 9.02965ZM12.5161 9.46197C11.4071 9.46197 10.3314 9.34227 9.4864 9.12687L9.4617 9.22377C10.3166 9.44168 11.4008 9.56197 12.5161 9.56197V9.46197ZM9.48435 9.12639C9.46287 9.12187 9.45622 9.12028 9.44781 9.11722L9.41363 9.2112C9.42966 9.21703 9.44301 9.21988 9.46375 9.22425L9.48435 9.12639ZM9.45425 9.12009L9.42092 9.10231L9.37386 9.19055L9.40719 9.20833L9.45425 9.12009ZM9.42827 9.10711C9.00562 8.77526 8.54558 8.51262 8.05818 8.33181L8.02339 8.42557C8.50039 8.60252 8.95142 8.85985 9.36651 9.18576L9.42827 9.10711ZM8.05793 8.33172L7.98794 8.30617L7.95364 8.4001L8.02364 8.42566L8.05793 8.33172ZM8.02077 8.35185L7.98188 6.84081L7.88192 6.84338L7.9208 8.35442L8.02077 8.35185ZM7.90907 6.88658L8.07573 6.97213L8.12139 6.88316L7.95473 6.79761L7.90907 6.88658ZM8.07607 6.9723C8.38119 7.12598 8.69882 7.24834 9.02227 7.33482L9.0481 7.23821C8.73158 7.15359 8.42035 7.03374 8.12105 6.88299L8.07607 6.9723ZM9.02125 7.33454C9.97244 7.61062 11.2129 7.76316 12.5161 7.76316V7.66316C11.2195 7.66316 9.98895 7.51128 9.04912 7.2385L9.02125 7.33454ZM12.5161 7.76316C13.8817 7.76316 15.1768 7.59838 16.1638 7.29993L16.1348 7.20421C15.1597 7.49908 13.8749 7.66316 12.5161 7.66316V7.76316ZM16.1634 7.30005C16.4998 7.20138 16.8194 7.07241 17.1156 6.91869L17.0696 6.82993C16.7791 6.98065 16.4655 7.10722 16.1352 7.2041L16.1634 7.30005ZM17.116 6.91847L17.2771 6.83292L17.2302 6.7446L17.0691 6.83015L17.116 6.91847ZM17.2037 6.78876V8.17314H17.3037V6.78876H17.2037ZM17.6481 11.4352C18.9404 11.4352 20.1896 11.5905 21.0746 11.8586L21.1036 11.7629C20.2064 11.4911 18.9468 11.3352 17.6481 11.3352V11.4352ZM21.0747 11.8586C21.5538 12.0027 21.858 12.1514 22.0422 12.2791C22.1343 12.3429 22.1954 12.4007 22.2335 12.4491C22.2721 12.4983 22.2845 12.5343 22.2858 12.555L22.3856 12.5486C22.3825 12.4999 22.3573 12.4448 22.3121 12.3873C22.2662 12.3291 22.197 12.2647 22.0992 12.1969C21.9034 12.0612 21.5887 11.9088 21.1035 11.7629L21.0747 11.8586ZM22.2858 12.5488C22.2822 12.6069 22.2261 12.7166 22.0334 12.8525C21.8435 12.9864 21.5296 13.1392 21.0338 13.2861L21.0622 13.382C21.564 13.2333 21.8891 13.0766 22.091 12.9342C22.2903 12.7937 22.3791 12.6601 22.3856 12.5549L22.2858 12.5488ZM21.0336 13.2861C20.1319 13.5565 18.9304 13.7051 17.6514 13.7051V13.8051C18.9368 13.8051 20.1486 13.6559 21.0623 13.3819L21.0336 13.2861ZM17.6514 13.7051C16.4259 13.7051 15.2608 13.5643 14.3732 13.3093L14.3456 13.4054C15.2445 13.6637 16.4194 13.8051 17.6514 13.8051V13.7051ZM14.3732 13.3093C13.9335 13.1824 13.6225 13.0432 13.4159 12.9143C13.3126 12.8498 13.2362 12.7884 13.1829 12.7331C13.1292 12.6774 13.1013 12.6302 13.0908 12.5944L12.9948 12.6226C13.0115 12.6795 13.051 12.7404 13.1109 12.8025C13.1713 12.8652 13.2546 12.9315 13.363 12.9991C13.5796 13.1343 13.8998 13.2768 14.3455 13.4054L14.3732 13.3093ZM13.092 12.5998L13.0787 12.5243L12.9802 12.5416L12.9935 12.6172L13.092 12.5998ZM13.0762 12.5506L13.0918 12.5095L12.9982 12.4741L12.9827 12.5152L13.0762 12.5506ZM13.0924 12.5076C13.103 12.476 13.1316 12.4317 13.1872 12.378C13.2422 12.325 13.3207 12.2653 13.4264 12.2023C13.6378 12.0762 13.9543 11.9386 14.3985 11.8133L14.3714 11.7171C13.9212 11.844 13.5961 11.9847 13.3752 12.1164C13.2648 12.1823 13.1796 12.2464 13.1178 12.3061C13.0566 12.3652 13.0153 12.4227 12.9976 12.476L13.0924 12.5076ZM14.3986 11.8133C15.2574 11.5694 16.3847 11.4352 17.5715 11.4352V11.3352C16.3783 11.3352 15.2413 11.47 14.3713 11.7171L14.3986 11.8133ZM17.5715 11.4352H17.6481V11.3352H17.5715V11.4352ZM22.3446 14.9284H22.3212V15.0284H22.3446V14.9284ZM22.2727 14.9663C22.271 14.9731 22.2691 14.981 22.2676 14.9884C22.2663 14.995 22.2646 15.0047 22.2646 15.0139H22.3646C22.3646 15.0152 22.3645 15.0153 22.3647 15.0138C22.3649 15.0124 22.3652 15.0105 22.3657 15.008C22.3667 15.003 22.3681 14.997 22.3698 14.9905L22.2727 14.9663ZM22.2646 15.0139C22.2646 15.032 22.2549 15.067 22.2183 15.1169C22.1824 15.1657 22.1233 15.2251 22.0323 15.2911C21.8504 15.423 21.5451 15.5782 21.0567 15.7272L21.0859 15.8228C21.5808 15.6719 21.8972 15.5126 22.091 15.372C22.188 15.3018 22.2553 15.2354 22.2989 15.176C22.3418 15.1177 22.3646 15.062 22.3646 15.0139H22.2646ZM21.0568 15.7272C20.1451 16.0031 18.9337 16.155 17.6437 16.155V16.255C18.9403 16.255 20.162 16.1025 21.0858 15.8229L21.0568 15.7272ZM17.6437 16.155C16.441 16.155 15.4108 16.0234 14.6325 15.8305C14.2433 15.734 13.9181 15.6225 13.6663 15.5049C13.4132 15.3867 13.2388 15.2646 13.1462 15.1493L13.0682 15.2119C13.1751 15.3449 13.3659 15.475 13.624 15.5955C13.8832 15.7165 14.2149 15.83 14.6085 15.9276C15.3957 16.1227 16.4342 16.255 17.6437 16.255V16.155ZM13.1454 15.1483L13.121 15.1194L13.0446 15.184L13.0691 15.2129L13.1454 15.1483ZM13.1328 15.1512L13.1283 14.7401L13.0283 14.7412L13.0328 15.1522L13.1328 15.1512ZM13.1283 14.7397L13.1072 13.5387L13.0072 13.5404L13.0283 14.7415L13.1283 14.7397ZM13.035 13.5843L13.1983 13.6654L13.2428 13.5759L13.0795 13.4948L13.035 13.5843ZM13.1981 13.6654C13.5 13.8168 13.8219 13.9402 14.1537 14.0332L14.1807 13.937C13.8547 13.8456 13.5389 13.7245 13.243 13.576L13.1981 13.6654ZM14.1532 14.0331C15.1033 14.3092 16.3449 14.4617 17.6481 14.4617V14.3617C16.3515 14.3617 15.1198 14.2099 14.1811 13.9371L14.1532 14.0331ZM17.6481 14.4617C18.9904 14.4617 20.2686 14.3014 21.2477 14.0119L21.2193 13.916C20.2518 14.2021 18.9835 14.3617 17.6481 14.3617V14.4617ZM21.247 14.0121C21.5758 13.9201 21.8978 13.7933 22.2063 13.6352L22.1607 13.5462C21.858 13.7013 21.5423 13.8257 21.22 13.9158L21.247 14.0121ZM22.2067 13.635L22.3678 13.5505L22.3214 13.4619L22.1603 13.5464L22.2067 13.635ZM22.2946 13.5062V14.9784H22.3946V13.5062H22.2946ZM21.1097 18.1861C20.2093 18.4675 19.0069 18.6238 17.7226 18.6238V18.7238C19.0137 18.7238 20.2267 18.5668 21.1395 18.2815L21.1097 18.1861ZM17.7226 18.6238C16.4381 18.6238 15.2378 18.473 14.344 18.2004L14.3148 18.2961C15.2209 18.5724 16.4316 18.7238 17.7226 18.7238V18.6238ZM14.3442 18.2005C13.8713 18.0542 13.5753 17.9025 13.3987 17.7719C13.3105 17.7067 13.2531 17.6476 13.2183 17.5982C13.1829 17.5482 13.1728 17.5112 13.1728 17.4894H13.0728C13.0728 17.5392 13.0944 17.5961 13.1366 17.6558C13.1791 17.7162 13.2449 17.7826 13.3393 17.8524C13.528 17.9918 13.8353 18.1478 14.3146 18.296L14.3442 18.2005ZM13.1728 17.4885L13.1472 16.0164L13.0472 16.0181L13.0728 17.4902L13.1728 17.4885ZM13.0754 16.0622L13.2376 16.1411L13.2813 16.0511L13.1191 15.9723L13.0754 16.0622ZM13.2375 16.1411C13.5828 16.3092 13.9504 16.4437 14.328 16.5412L14.353 16.4443C13.9817 16.3485 13.6204 16.2163 13.2813 16.0512L13.2375 16.1411ZM14.3279 16.5411C15.265 16.7858 16.4404 16.9205 17.6392 16.9205V16.8205C16.447 16.8205 15.2803 16.6864 14.3531 16.4444L14.3279 16.5411ZM17.6392 16.9205C19.0026 16.9205 20.2955 16.7557 21.2769 16.4573L21.2479 16.3616C20.2783 16.6564 18.9957 16.8205 17.6392 16.8205V16.9205ZM21.2768 16.4573C21.5855 16.3642 21.8937 16.2386 22.1982 16.0852L22.1532 15.9959C21.8533 16.147 21.5504 16.2703 21.248 16.3616L21.2768 16.4573ZM22.1988 16.0849L22.3588 16.0016L22.3126 15.9129L22.1526 15.9962L22.1988 16.0849ZM22.2857 15.9574L22.2901 17.4684L22.3901 17.4681L22.3857 15.9571L22.2857 15.9574ZM22.2901 17.4683C22.2901 17.4871 22.2804 17.5228 22.2448 17.573C22.2097 17.6223 22.1521 17.6821 22.0633 17.7485C21.8857 17.8812 21.5875 18.0371 21.1097 18.1861L21.1395 18.2815C21.624 18.1305 21.9335 17.9703 22.1231 17.8286C22.2179 17.7577 22.2837 17.6908 22.3263 17.6309C22.3682 17.572 22.3901 17.5161 22.3901 17.4683H22.2901ZM12.6019 11.8954L12.5675 11.9321L12.6404 12.0005L12.6748 11.9639L12.6019 11.8954ZM12.6039 11.9163H12.5106V12.0163H12.6039V11.9163ZM12.5106 11.9163C12.1285 11.9163 11.7286 11.9019 11.2896 11.872L11.2828 11.9717C11.7238 12.0018 12.126 12.0163 12.5106 12.0163V11.9163ZM11.2898 11.872L11.212 11.8664L11.2049 11.9662L11.2826 11.9717L11.2898 11.872ZM11.2564 11.9022L11.2342 11.8266L11.1382 11.8549L11.1604 11.9304L11.2564 11.9022ZM11.2343 11.8272C11.0672 11.2328 10.8025 10.6842 10.4524 10.1983L10.3712 10.2567C10.7144 10.733 10.9741 11.271 11.1381 11.8543L11.2343 11.8272ZM10.4523 10.1981L10.3023 9.99146L10.2213 10.0502L10.3713 10.2569L10.4523 10.1981ZM10.2557 10.0705L10.5102 10.1016L10.5223 10.0023L10.2679 9.9712L10.2557 10.0705ZM10.51 10.1016C12.5898 10.3633 14.7003 10.2078 16.1593 9.7676L16.1304 9.67187C14.6874 10.1072 12.5914 10.2627 10.5225 10.0023L10.51 10.1016ZM16.1589 9.76771C16.4798 9.67348 16.7971 9.54677 17.1063 9.3899L17.0611 9.30072C16.757 9.45494 16.4455 9.57933 16.1308 9.67176L16.1589 9.76771ZM17.1066 9.38978L17.2665 9.30756L17.2208 9.21862L17.0608 9.30084L17.1066 9.38978ZM17.1937 9.26309V10.7141H17.2937V9.26309H17.1937ZM17.2427 10.6641L17.136 10.6664L17.1381 10.7663L17.2447 10.7641L17.2427 10.6641ZM17.1356 10.6664C16.291 10.6903 15.35 10.7881 14.5253 10.9835C13.7033 11.1783 12.9866 11.4724 12.6014 11.896L12.6753 11.9633C13.0389 11.5635 13.7294 11.2749 14.5484 11.0808C15.3647 10.8874 16.2987 10.7902 17.1385 10.7663L17.1356 10.6664ZM11.4049 12.7101L11.3949 12.5824L11.2952 12.5902L11.3052 12.7179L11.4049 12.7101ZM11.3416 12.6361L11.4705 12.645L11.4774 12.5453L11.3485 12.5364L11.3416 12.6361ZM11.4706 12.645C11.6994 12.6607 11.9603 12.6707 12.2699 12.6751L12.2713 12.5752C11.9631 12.5707 11.704 12.5608 11.4774 12.5453L11.4706 12.645ZM12.2701 12.6752L12.3767 12.6763L12.3778 12.5763L12.2711 12.5752L12.2701 12.6752ZM12.3273 12.6271L12.3584 14.4193L12.4584 14.4175L12.4272 12.6254L12.3273 12.6271ZM12.4093 14.3684L12.2949 14.3662L12.2929 14.4662L12.4074 14.4684L12.4093 14.3684ZM12.2947 14.3662C11.9923 14.3618 11.6844 14.3485 11.3821 14.3263L11.3748 14.4261C11.6791 14.4483 11.9889 14.4617 12.2932 14.4662L12.2947 14.3662ZM11.382 14.3263L11.2587 14.3174L11.2515 14.4172L11.3748 14.4261L11.382 14.3263ZM11.3043 14.3762L11.3265 14.2528L11.2281 14.2351L11.2059 14.3584L11.3043 14.3762ZM11.3263 14.2537C11.3947 13.9083 11.4284 13.5629 11.4284 13.2273H11.3284C11.3284 13.5562 11.2954 13.8952 11.2283 14.2343L11.3263 14.2537ZM11.4284 13.2273C11.4284 13.0701 11.4205 12.901 11.4049 12.71L11.3052 12.7181C11.3207 12.9071 11.3284 13.0735 11.3284 13.2273H11.4284ZM12.3334 16.8372C11.6538 16.8294 10.9608 16.7686 10.2744 16.6556L10.2581 16.7543C10.9494 16.868 11.6475 16.9294 12.3322 16.9372L12.3334 16.8372ZM10.2741 16.6556L10.0852 16.6256L10.0695 16.7244L10.2584 16.7544L10.2741 16.6556ZM10.1163 16.7064L10.2374 16.5564L10.1596 16.4936L10.0385 16.6436L10.1163 16.7064ZM10.2372 16.5566C10.596 16.1171 10.8787 15.6325 11.0762 15.1151L10.9828 15.0794C10.7892 15.5865 10.512 16.0618 10.1597 16.4934L10.2372 16.5566ZM11.0759 15.1161L11.107 15.0394L11.0143 15.0018L10.9832 15.0785L11.0759 15.1161ZM11.0567 15.0704L11.14 15.0771L11.148 14.9774L11.0646 14.9708L11.0567 15.0704ZM11.1398 15.0771C11.5532 15.1116 11.9355 15.1295 12.3089 15.1339L12.3101 15.0339C11.9391 15.0295 11.5592 15.0118 11.1481 14.9774L11.1398 15.0771ZM12.309 15.1339L12.4179 15.135L12.4189 15.035L12.31 15.0339L12.309 15.1339ZM12.3684 15.085V15.275H12.4684V15.085H12.3684ZM12.3684 15.2759L12.3973 16.8903L12.4972 16.8885L12.4684 15.2741L12.3684 15.2759ZM12.4482 16.8394L12.3338 16.8372L12.3318 16.9372L12.4463 16.9394L12.4482 16.8394ZM1.0431 12.2514C0.981419 12.5755 0.95 12.9042 0.95 13.2274H1.05C1.05 12.9106 1.0808 12.5882 1.14134 12.2701L1.0431 12.2514ZM0.95 13.2274C0.95 16.1193 3.30115 18.4704 6.18976 18.4704V18.3704C3.35642 18.3704 1.05 16.0641 1.05 13.2274H0.95ZM6.18976 18.4704C7.3912 18.4704 8.56233 18.0532 9.48791 17.297L9.42464 17.2196C8.51698 17.9611 7.36822 18.3704 6.18976 18.3704V18.4704ZM9.48739 17.2974L9.53072 17.263L9.4685 17.1847L9.42517 17.2191L9.48739 17.2974ZM9.48821 17.2725L9.54043 17.2847L9.56322 17.1874L9.511 17.1752L9.48821 17.2725ZM9.54037 17.2847C10.3613 17.478 11.3373 17.5838 12.3623 17.5938L12.3633 17.4938C11.344 17.4839 10.3756 17.3786 9.56328 17.1874L9.54037 17.2847ZM12.3628 17.5938H12.4539V17.4938H12.3628V17.5938ZM12.4048 17.5529L12.4214 17.6429L12.5197 17.6247L12.5031 17.5347L12.4048 17.5529ZM12.4214 17.6428C12.4784 17.9531 12.6965 18.2154 13.0186 18.4335C13.341 18.6517 13.7729 18.8295 14.2695 18.9698C15.2632 19.2504 16.5263 19.3837 17.7181 19.3837V19.2837C16.5323 19.2837 15.2789 19.151 14.2967 18.8736C13.8055 18.7348 13.3848 18.5606 13.0746 18.3507C12.7643 18.1405 12.57 17.8984 12.5198 17.6248L12.4214 17.6428ZM17.7181 19.3837C19.0738 19.3837 20.3568 19.2156 21.3295 18.9115L21.2997 18.816C20.3392 19.1163 19.0668 19.2837 17.7181 19.2837V19.3837ZM21.3293 18.9116C21.7163 18.7926 22.1435 18.6227 22.4749 18.3888C22.8059 18.1552 23.0501 17.8513 23.0501 17.4638H22.9501C22.9501 17.8041 22.7365 18.0818 22.4173 18.3071C22.0985 18.5321 21.6829 18.6983 21.2999 18.816L21.3293 18.9116ZM23.0501 17.4638V12.5996H22.9501V17.4638H23.0501ZM23.0501 12.5996C23.0501 12.5781 23.0502 12.551 23.0462 12.5244L22.9473 12.5392C22.95 12.5571 22.9501 12.5767 22.9501 12.5996H23.0501ZM23.0466 12.5273L23.0454 12.5151L22.9459 12.5241L22.947 12.5364L23.0466 12.5273ZM23.0456 12.5174C23.0326 12.2167 22.872 11.9491 22.5777 11.7159C22.2842 11.4833 21.8548 11.2821 21.2947 11.1118L21.2656 11.2075C21.82 11.3761 22.236 11.5727 22.5156 11.7942C22.7944 12.0152 22.9343 12.2581 22.9457 12.5218L23.0456 12.5174ZM21.2945 11.1118C20.3781 10.8369 19.2457 10.6787 18.0225 10.653L18.0204 10.753C19.237 10.7785 20.3601 10.9358 21.2658 11.2076L21.2945 11.1118ZM18.0225 10.653L17.9147 10.6508L17.9126 10.7508L18.0204 10.753L18.0225 10.653ZM17.9637 10.7008V5.86436H17.8637V10.7008H17.9637ZM17.9636 5.8613C17.9597 5.79825 17.9381 5.73165 17.9043 5.67531L17.8186 5.72676C17.8448 5.77041 17.861 5.82158 17.8638 5.86741L17.9636 5.8613ZM17.9076 5.68192L17.8943 5.64969L17.8019 5.68793L17.8152 5.72015L17.9076 5.68192ZM17.8969 5.65766C17.8366 5.39405 17.6549 5.15913 17.3641 4.95292C17.0735 4.74681 16.6704 4.56682 16.1592 4.41321L16.1305 4.50897C16.636 4.6609 17.0278 4.83701 17.3063 5.03449C17.5846 5.23187 17.7463 5.44804 17.7994 5.67996L17.8969 5.65766ZM16.1594 4.41325C15.1723 4.11367 13.8772 3.95 12.5106 3.95V4.05C13.8705 4.05 15.1552 4.21298 16.1303 4.50893L16.1594 4.41325ZM12.5106 3.95C11.1517 3.95 9.86762 4.11366 8.8982 4.41332L8.92774 4.50886C9.8849 4.21299 11.1585 4.05 12.5106 4.05V3.95ZM8.89818 4.41333C8.51232 4.53283 8.08575 4.70301 7.75464 4.9363C7.42407 5.16922 7.17971 5.47177 7.17971 5.85658H7.27971C7.27971 5.51921 7.49312 5.24289 7.81224 5.01805C8.13082 4.79358 8.54588 4.62712 8.92776 4.50885L8.89818 4.41333ZM7.17971 5.85658C7.17971 5.90032 7.18325 5.9457 7.1917 5.99031L7.28995 5.97173C7.28284 5.93413 7.27971 5.89506 7.27971 5.85658H7.17971ZM7.19084 5.98227L7.24528 8.15884L7.34525 8.15634L7.29081 5.97977L7.19084 5.98227ZM7.3046 8.10847L7.17016 8.08291L7.15149 8.18115L7.28593 8.20671L7.3046 8.10847ZM7.17015 8.08291C5.79279 7.82157 4.4005 8.10988 3.24291 8.89619L3.2991 8.97891C4.43474 8.20751 5.80011 7.92474 7.15151 8.18116L7.17015 8.08291ZM3.24288 8.89621C2.08527 9.68365 1.30444 10.8762 1.0431 12.2514L1.14134 12.2701C1.39775 10.9209 2.16351 9.75138 3.29913 8.97889L3.24288 8.89621Z" fill="#004F71"/>
</g>
<g id="shape:icon_2">
<path fill-rule="evenodd" clip-rule="evenodd" d="M6.83145 14.1703C6.7959 14.3792 6.66035 14.6014 6.42925 14.7103V13.5081C6.87812 13.6703 6.85034 14.0559 6.83145 14.1703V14.1703ZM5.80705 12.5859C5.76372 12.5582 5.72706 12.5304 5.69928 12.4993C5.58595 12.3748 5.54151 12.2082 5.57929 12.0415C5.60928 11.906 5.69039 11.7904 5.80705 11.7093V12.5859ZM6.63146 12.9181C6.5648 12.8948 6.49703 12.8704 6.42925 12.847V11.6426C6.53258 11.686 6.6048 11.746 6.63813 11.7782C6.6948 11.8515 6.78368 11.8993 6.88479 11.8993C7.05811 11.8993 7.19699 11.7593 7.19699 11.586C7.19699 11.5049 7.167 11.4315 7.11589 11.376V11.376C7.10033 11.3582 6.84368 11.0782 6.42925 10.9916V10.8293C6.42925 10.6571 6.29037 10.5182 6.11816 10.5182C5.94594 10.5182 5.80706 10.6571 5.80706 10.8293V11.026C5.76928 11.0371 5.73151 11.0504 5.69262 11.066C5.3193 11.2182 5.05709 11.5249 4.97154 11.9049C4.89043 12.2682 4.99043 12.6482 5.24042 12.9215C5.38263 13.077 5.57818 13.1848 5.80706 13.2803V14.7692C5.62929 14.7492 5.50374 14.6969 5.30153 14.5647C5.1582 14.4703 4.96487 14.5103 4.87043 14.6547C4.77711 14.7992 4.8171 14.9925 4.96043 15.0858C5.29153 15.3025 5.52152 15.3747 5.80706 15.3958V15.638C5.80706 15.8102 5.94594 15.9491 6.11816 15.9491C6.29037 15.9491 6.42925 15.8102 6.42925 15.638V15.3669C6.99923 15.2325 7.36588 14.7503 7.44587 14.2736C7.54809 13.6614 7.22921 13.1292 6.63146 12.9181V12.9181Z" fill="#004F71"/>
<path d="M6.42925 14.7103H6.37925V14.7891L6.45056 14.7555L6.42925 14.7103ZM6.42925 13.5081L6.44624 13.4611L6.37925 13.4369V13.5081H6.42925ZM5.80705 12.5859L5.78007 12.628L5.85705 12.6774V12.5859H5.80705ZM5.69928 12.4993L5.73658 12.466L5.73625 12.4656L5.69928 12.4993ZM5.57929 12.0415L5.62805 12.0526L5.6281 12.0523L5.57929 12.0415ZM5.80705 11.7093H5.85705V11.6136L5.77851 11.6682L5.80705 11.7093ZM6.42925 12.847H6.37925V12.8827L6.41298 12.8943L6.42925 12.847ZM6.42925 11.6426L6.44859 11.5965L6.37925 11.5675V11.6426H6.42925ZM6.63813 11.7782L6.67811 11.7473L6.67288 11.7422L6.63813 11.7782ZM7.11589 11.376L7.07825 11.4089L7.07909 11.4098L7.11589 11.376ZM6.42925 10.9916H6.37925V11.0322L6.41902 11.0405L6.42925 10.9916ZM5.80706 11.026L5.82117 11.074L5.85706 11.0634V11.026H5.80706ZM5.69262 11.066L5.67405 11.0196L5.67374 11.0197L5.69262 11.066ZM4.97154 11.9049L4.92276 11.8939L4.92274 11.894L4.97154 11.9049ZM5.24042 12.9215L5.27732 12.8877L5.27731 12.8877L5.24042 12.9215ZM5.80706 13.2803H5.85706V13.247L5.82632 13.2342L5.80706 13.2803ZM5.80706 14.7692L5.80147 14.8189L5.85706 14.8251V14.7692H5.80706ZM5.30153 14.5647L5.27402 14.6065L5.27416 14.6066L5.30153 14.5647ZM4.87043 14.6547L4.82859 14.6274L4.82844 14.6276L4.87043 14.6547ZM4.96043 15.0858L4.98781 15.044L4.98771 15.0439L4.96043 15.0858ZM5.80706 15.3958H5.85706V15.3494L5.81074 15.3459L5.80706 15.3958ZM6.42925 15.3669L6.41777 15.3183L6.37925 15.3273V15.3669H6.42925ZM7.44587 14.2736L7.49518 14.2819L7.49519 14.2819L7.44587 14.2736ZM6.78216 14.1619C6.74889 14.3574 6.62194 14.5642 6.40794 14.665L6.45056 14.7555C6.69876 14.6386 6.84291 14.401 6.88074 14.1787L6.78216 14.1619ZM6.47925 14.7103V13.5081H6.37925V14.7103H6.47925ZM6.41226 13.5551C6.62248 13.6311 6.71683 13.7569 6.75868 13.8739C6.80143 13.9936 6.7909 14.109 6.78212 14.1622L6.88079 14.1784C6.89089 14.1172 6.90369 13.9826 6.85284 13.8403C6.80108 13.6955 6.68489 13.5473 6.44624 13.4611L6.41226 13.5551ZM5.83404 12.5438C5.79222 12.517 5.75993 12.4921 5.73658 12.466L5.66198 12.5326C5.69418 12.5686 5.73522 12.5993 5.78007 12.628L5.83404 12.5438ZM5.73625 12.4656C5.63394 12.3533 5.59388 12.2033 5.62805 12.0526L5.53052 12.0305C5.48914 12.213 5.53796 12.3964 5.66231 12.5329L5.73625 12.4656ZM5.6281 12.0523C5.65518 11.93 5.72846 11.8248 5.83559 11.7504L5.77851 11.6682C5.65233 11.756 5.56338 11.882 5.53047 12.0307L5.6281 12.0523ZM5.75705 11.7093V12.5859H5.85705V11.7093H5.75705ZM6.64798 12.8709C6.58207 12.8479 6.51331 12.8231 6.44553 12.7998L6.41298 12.8943C6.48074 12.9176 6.54754 12.9417 6.61495 12.9653L6.64798 12.8709ZM6.47925 12.847V11.6426H6.37925V12.847H6.47925ZM6.40992 11.6888C6.50606 11.7291 6.57321 11.785 6.60338 11.8141L6.67288 11.7422C6.63639 11.707 6.5591 11.6429 6.44859 11.5965L6.40992 11.6888ZM6.59857 11.8088C6.66425 11.8938 6.76747 11.9493 6.88479 11.9493V11.8493C6.79989 11.8493 6.72534 11.8093 6.6777 11.7476L6.59857 11.8088ZM6.88479 11.9493C7.08596 11.9493 7.24699 11.7867 7.24699 11.586H7.14699C7.14699 11.7319 7.03027 11.8493 6.88479 11.8493V11.9493ZM7.24699 11.586C7.24699 11.4922 7.21219 11.4068 7.15268 11.3421L7.07909 11.4098C7.1218 11.4563 7.14699 11.5175 7.14699 11.586H7.24699ZM7.15352 11.3431C7.13522 11.3221 6.86962 11.0326 6.43949 10.9426L6.41902 11.0405C6.81774 11.1239 7.06545 11.3943 7.07826 11.4089L7.15352 11.3431ZM6.47925 10.9916V10.8293H6.37925V10.9916H6.47925ZM6.47925 10.8293C6.47925 10.6295 6.31798 10.4682 6.11816 10.4682V10.5682C6.26276 10.5682 6.37925 10.6847 6.37925 10.8293H6.47925ZM6.11816 10.4682C5.91833 10.4682 5.75706 10.6295 5.75706 10.8293H5.85706C5.85706 10.6847 5.97356 10.5682 6.11816 10.5682V10.4682ZM5.75706 10.8293V11.026H5.85706V10.8293H5.75706ZM5.79295 10.978C5.75343 10.9897 5.71416 11.0035 5.67405 11.0196L5.71119 11.1124C5.74885 11.0974 5.78513 11.0846 5.82117 11.074L5.79295 10.978ZM5.67374 11.0197C5.28576 11.1779 5.01202 11.4974 4.92276 11.8939L5.02032 11.9158C5.10217 11.5523 5.35285 11.2585 5.7115 11.1123L5.67374 11.0197ZM4.92274 11.894C4.83812 12.273 4.9424 12.6697 5.20352 12.9552L5.27731 12.8877C5.03846 12.6266 4.94275 12.2633 5.02034 11.9157L4.92274 11.894ZM5.20352 12.9552C5.35314 13.1189 5.55677 13.23 5.7878 13.3265L5.82632 13.2342C5.59959 13.1395 5.41213 13.0352 5.27732 12.8877L5.20352 12.9552ZM5.75706 13.2803V14.7692H5.85706V13.2803H5.75706ZM5.81265 14.7195C5.64518 14.7006 5.52709 14.6525 5.32889 14.5229L5.27416 14.6066C5.48039 14.7414 5.61339 14.7977 5.80147 14.8189L5.81265 14.7195ZM5.32904 14.523C5.16254 14.4133 4.93814 14.4598 4.82859 14.6274L4.91228 14.6821C4.99161 14.5608 5.15386 14.5273 5.27402 14.6065L5.32904 14.523ZM4.82844 14.6276C4.7204 14.7948 4.76637 15.0191 4.93315 15.1277L4.98771 15.0439C4.86784 14.9659 4.83381 14.8035 4.91243 14.6819L4.82844 14.6276ZM4.93305 15.1277C5.27038 15.3484 5.50841 15.4239 5.80337 15.4457L5.81074 15.3459C5.53462 15.3255 5.31267 15.2566 4.98781 15.044L4.93305 15.1277ZM5.75706 15.3958V15.638H5.85706V15.3958H5.75706ZM5.75706 15.638C5.75706 15.8378 5.91833 15.9991 6.11816 15.9991V15.8991C5.97356 15.8991 5.85706 15.7826 5.85706 15.638H5.75706ZM6.11816 15.9991C6.31798 15.9991 6.47925 15.8378 6.47925 15.638H6.37925C6.37925 15.7826 6.26276 15.8991 6.11816 15.8991V15.9991ZM6.47925 15.638V15.3669H6.37925V15.638H6.47925ZM6.44073 15.4156C7.03274 15.2759 7.41229 14.7758 7.49518 14.2819L7.39656 14.2654C7.31946 14.7248 6.96571 15.189 6.41777 15.3183L6.44073 15.4156ZM7.49519 14.2819C7.60151 13.6451 7.26811 13.09 6.64811 12.871L6.61481 12.9653C7.19031 13.1685 7.49466 13.6778 7.39655 14.2654L7.49519 14.2819Z" fill="#004F71"/>
</g>
</g>
</svg>
