<svg width="44" height="44" viewBox="0 0 44 44" fill="none" xmlns="http://www.w3.org/2000/svg">
<g id="icons - transfer">
<path id="shape:icon" fill-rule="evenodd" clip-rule="evenodd" d="M15.8245 10.0436C12.0589 10.0436 8.87802 12.9641 8.87802 16.42V19.588C10.099 17.6135 12.2257 15.6225 15.8245 15.6225H27.4039C27.831 15.6225 28.1757 15.98 28.1757 16.42V18.6035L34.7482 12.4343L28.1757 6.26698V9.24614C28.1757 9.68614 27.831 10.0436 27.4039 10.0436H15.8245ZM8.10619 24.3913C8.08419 24.3913 8.06035 24.3895 8.03835 24.3876C7.64052 24.3528 7.33252 24.0081 7.33252 23.5938V16.42C7.33252 12.1006 11.2229 8.44864 15.8245 8.44864H26.632V4.46481C26.632 4.14764 26.8117 3.86348 27.0922 3.73514C27.3709 3.60681 27.6972 3.66181 27.9227 3.87448L36.4147 11.8458C36.5742 11.9961 36.6659 12.2106 36.6659 12.4343C36.6659 12.6598 36.5742 12.8725 36.4147 13.0246L27.9227 20.996C27.6972 21.2086 27.3709 21.2618 27.0922 21.1353C26.8117 21.007 26.632 20.721 26.632 20.4056V17.2175H15.8245C10.0294 17.2175 8.91102 23.4636 8.86519 23.7295C8.80102 24.1145 8.47652 24.3913 8.10619 24.3913Z" fill="#004F71"/>
<path id="shape:icon_2" fill-rule="evenodd" clip-rule="evenodd" d="M28.1756 33.9562C31.9412 33.9562 35.1221 31.0357 35.1221 27.5799V24.4119C33.9011 26.3864 31.7744 28.3774 28.1756 28.3774H17.3681C16.9427 28.3774 16.5962 28.0199 16.5962 27.5799V25.2955L9.31056 31.5655L16.5962 37.8337V34.7537C16.5962 34.3137 16.9427 33.9562 17.3681 33.9562H28.1756ZM35.1349 20.2704C35.2027 19.8615 35.5639 19.5737 35.9617 19.6122C36.3596 19.647 36.6676 19.9917 36.6676 20.406V27.5799C36.6676 31.8992 32.7791 35.5494 28.1756 35.5494H18.1399V39.535C18.1399 39.8449 17.9676 40.1272 17.6962 40.2574C17.5917 40.3087 17.4799 40.3325 17.3681 40.3325C17.1921 40.3325 17.0161 40.2702 16.8749 40.1474L7.61106 32.1779C7.43506 32.0257 7.33423 31.802 7.33423 31.5655C7.33423 31.3272 7.43506 31.1035 7.61106 30.9532L16.8749 22.9819C17.1041 22.7839 17.4249 22.7417 17.6962 22.8719C17.9676 23.0039 18.1399 23.2844 18.1399 23.5942V26.7824H28.1756C33.9707 26.7824 35.0891 20.5362 35.1349 20.2704Z" fill="#004F71"/>
</g>
</svg>
