<svg width="24" height="24" viewBox="0 0 24 24" fill="none" xmlns="http://www.w3.org/2000/svg">
<g id="icons - share">
<g id="shape:icon">
<path fill-rule="evenodd" clip-rule="evenodd" d="M18.112 20.828C16.83 20.828 15.787 19.777 15.787 18.484C15.787 17.192 16.83 16.141 18.112 16.141C19.394 16.141 20.437 17.192 20.437 18.484C20.437 19.777 19.394 20.828 18.112 20.828ZM6.487 14.93C5.205 14.93 4.162 13.878 4.162 12.586C4.162 11.293 5.205 10.242 6.487 10.242C7.769 10.242 8.812 11.293 8.812 12.586C8.812 13.878 7.769 14.93 6.487 14.93ZM18.112 3.172C19.394 3.172 20.437 4.223 20.437 5.515C20.437 6.808 19.394 7.859 18.112 7.859C16.83 7.859 15.787 6.808 15.787 5.515C15.787 4.223 16.83 3.172 18.112 3.172ZM18.112 14.969C16.964 14.969 15.943 15.531 15.307 16.397L9.833 13.577C9.925 13.263 9.975 12.93 9.975 12.586C9.975 12.12 9.884 11.675 9.72 11.267L15.457 7.792C16.097 8.55 17.05 9.031 18.112 9.031C20.035 9.031 21.599 7.454 21.599 5.515C21.599 3.577 20.035 2 18.112 2C16.189 2 14.625 3.577 14.625 5.515C14.625 5.964 14.708 6.392 14.861 6.787L9.109 10.27C8.469 9.535 7.531 9.07 6.487 9.07C4.564 9.07 3 10.647 3 12.586C3 14.524 4.564 16.101 6.487 16.101C7.655 16.101 8.69 15.52 9.323 14.63L14.781 17.442C14.679 17.771 14.625 18.122 14.625 18.484C14.625 20.423 16.189 22 18.112 22C20.035 22 21.599 20.423 21.599 18.484C21.599 16.546 20.035 14.969 18.112 14.969Z" fill="#004F71"/>
<path d="M15.307 16.397L15.2383 16.5303L15.3521 16.589L15.4279 16.4858L15.307 16.397ZM9.833 13.577L9.68905 13.5348L9.65424 13.6536L9.76431 13.7103L9.833 13.577ZM9.72 11.267L9.64229 11.1387L9.5333 11.2047L9.58082 11.3229L9.72 11.267ZM15.457 7.792L15.5716 7.69523L15.4889 7.59729L15.3793 7.6637L15.457 7.792ZM14.861 6.787L14.9387 6.91531L15.0463 6.85014L15.0009 6.73282L14.861 6.787ZM9.109 10.27L8.99588 10.3685L9.07875 10.4637L9.1867 10.3983L9.109 10.27ZM9.323 14.63L9.3917 14.4967L9.27612 14.4371L9.20076 14.5431L9.323 14.63ZM14.781 17.442L14.9243 17.4864L14.9615 17.3663L14.8497 17.3087L14.781 17.442ZM18.112 20.678C16.914 20.678 15.937 19.6953 15.937 18.484H15.637C15.637 19.8587 16.746 20.978 18.112 20.978V20.678ZM15.937 18.484C15.937 17.2738 16.9139 16.291 18.112 16.291V15.991C16.7461 15.991 15.637 17.1102 15.637 18.484H15.937ZM18.112 16.291C19.3101 16.291 20.287 17.2738 20.287 18.484H20.587C20.587 17.1102 19.4779 15.991 18.112 15.991V16.291ZM20.287 18.484C20.287 19.6953 19.31 20.678 18.112 20.678V20.978C19.478 20.978 20.587 19.8587 20.587 18.484H20.287ZM6.487 14.78C5.28901 14.78 4.312 13.7963 4.312 12.586H4.012C4.012 13.9597 5.12099 15.08 6.487 15.08V14.78ZM4.312 12.586C4.312 11.3747 5.28897 10.392 6.487 10.392V10.092C5.12103 10.092 4.012 11.2113 4.012 12.586H4.312ZM6.487 10.392C7.68503 10.392 8.662 11.3747 8.662 12.586H8.962C8.962 11.2113 7.85297 10.092 6.487 10.092V10.392ZM8.662 12.586C8.662 13.7963 7.68499 14.78 6.487 14.78V15.08C7.85301 15.08 8.962 13.9597 8.962 12.586H8.662ZM18.112 3.322C19.3101 3.322 20.287 4.30475 20.287 5.515H20.587C20.587 4.14125 19.4779 3.022 18.112 3.022V3.322ZM20.287 5.515C20.287 6.72629 19.31 7.709 18.112 7.709V8.009C19.478 8.009 20.587 6.88971 20.587 5.515H20.287ZM18.112 7.709C16.914 7.709 15.937 6.72629 15.937 5.515H15.637C15.637 6.88971 16.746 8.009 18.112 8.009V7.709ZM15.937 5.515C15.937 4.30475 16.9139 3.322 18.112 3.322V3.022C16.7461 3.022 15.637 4.14125 15.637 5.515H15.937ZM18.112 14.819C16.9138 14.819 15.8489 15.4057 15.1861 16.3082L15.4279 16.4858C16.0371 15.6563 17.0142 15.119 18.112 15.119V14.819ZM15.3757 16.2637L9.90169 13.4437L9.76431 13.7103L15.2383 16.5303L15.3757 16.2637ZM9.97695 13.6192C10.0729 13.2918 10.125 12.9446 10.125 12.586H9.825C9.825 12.9154 9.77712 13.2342 9.68905 13.5348L9.97695 13.6192ZM10.125 12.586C10.125 12.1003 10.0301 11.6363 9.85918 11.2111L9.58082 11.3229C9.73787 11.7137 9.825 12.1397 9.825 12.586H10.125ZM9.79771 11.3953L15.5347 7.9203L15.3793 7.6637L9.64229 11.1387L9.79771 11.3953ZM15.3424 7.88877C16.0094 8.67881 17.0036 9.181 18.112 9.181V8.881C17.0964 8.881 16.1846 8.42119 15.5716 7.69523L15.3424 7.88877ZM18.112 9.181C20.119 9.181 21.749 7.53567 21.749 5.515H21.449C21.449 7.37233 19.951 8.881 18.112 8.881V9.181ZM21.749 5.515C21.749 3.4953 20.119 1.85 18.112 1.85V2.15C19.951 2.15 21.449 3.6587 21.449 5.515H21.749ZM18.112 1.85C16.105 1.85 14.475 3.4953 14.475 5.515H14.775C14.775 3.6587 16.273 2.15 18.112 2.15V1.85ZM14.475 5.515C14.475 5.98268 14.5615 6.42904 14.7211 6.84118L15.0009 6.73282C14.8545 6.35496 14.775 5.94532 14.775 5.515H14.475ZM14.7833 6.65869L9.0313 10.1417L9.1867 10.3983L14.9387 6.91531L14.7833 6.65869ZM9.22212 10.1715C8.55514 9.4055 7.57661 8.92 6.487 8.92V9.22C7.48539 9.22 8.38286 9.6645 8.99588 10.3685L9.22212 10.1715ZM6.487 8.92C4.47999 8.92 2.85 10.5653 2.85 12.586H3.15C3.15 10.7287 4.64801 9.22 6.487 9.22V8.92ZM2.85 12.586C2.85 14.6057 4.48002 16.251 6.487 16.251V15.951C4.64798 15.951 3.15 14.4423 3.15 12.586H2.85ZM6.487 16.251C7.70603 16.251 8.78557 15.6444 9.44524 14.7169L9.20076 14.5431C8.59443 15.3956 7.60397 15.951 6.487 15.951V16.251ZM9.2543 14.7633L14.7123 17.5753L14.8497 17.3087L9.3917 14.4967L9.2543 14.7633ZM14.6377 17.3976C14.5312 17.7411 14.475 18.1071 14.475 18.484H14.775C14.775 18.1369 14.8268 17.8009 14.9243 17.4864L14.6377 17.3976ZM14.475 18.484C14.475 20.5047 16.105 22.15 18.112 22.15V21.85C16.273 21.85 14.775 20.3413 14.775 18.484H14.475ZM18.112 22.15C20.119 22.15 21.749 20.5047 21.749 18.484H21.449C21.449 20.3413 19.951 21.85 18.112 21.85V22.15ZM21.749 18.484C21.749 16.4643 20.119 14.819 18.112 14.819V15.119C19.951 15.119 21.449 16.6277 21.449 18.484H21.749Z" fill="#004F71"/>
</g>
</g>
</svg>
