<svg width="24" height="24" viewBox="0 0 24 24" fill="none" xmlns="http://www.w3.org/2000/svg">
<g id="icons - information">
<g id="shape:icon">
<path fill-rule="evenodd" clip-rule="evenodd" d="M17.5218 19.1165C15.9568 20.3345 13.9858 21.0055 11.9728 21.0055C11.1878 21.0055 10.4068 20.9025 9.6518 20.7005C6.4088 19.8275 3.8698 17.1395 3.1828 13.8535C2.4828 10.5055 3.7758 6.98551 6.4748 4.88551C8.0338 3.67151 10.0028 3.00351 12.0218 3.00351C13.4178 3.00351 14.8008 3.32651 16.0238 3.93951C19.0498 5.45451 21.0058 8.61851 21.0058 12.0005C21.0058 14.7605 19.7038 17.4215 17.5218 19.1165ZM16.4658 3.04051C15.1058 2.35951 13.5678 1.99951 12.0208 1.99951C9.7848 1.99951 7.5998 2.74251 5.8658 4.09051C2.8658 6.42351 1.4308 10.3365 2.2088 14.0605C2.9718 17.7135 5.7928 20.7015 9.3948 21.6705C12.3638 22.4675 15.7108 21.7935 18.1308 19.9105C20.5538 18.0255 21.9998 15.0685 21.9998 12.0005C21.9998 8.23951 19.8278 4.72251 16.4658 3.04051Z" fill="#004F71"/>
<path d="M9.6518 20.7005L9.58681 20.9419L9.58718 20.942L9.6518 20.7005ZM3.1828 13.8535L3.42751 13.8024L3.42751 13.8023L3.1828 13.8535ZM6.4748 4.88551L6.62832 5.08282L6.6284 5.08276L6.4748 4.88551ZM16.0238 3.93951L15.9118 4.16301L15.9119 4.16306L16.0238 3.93951ZM5.8658 4.09051L5.71236 3.89314L5.71233 3.89316L5.8658 4.09051ZM2.2088 14.0605L2.45352 14.0094L2.45351 14.0094L2.2088 14.0605ZM9.3948 21.6705L9.32985 21.9119L9.32998 21.912L9.3948 21.6705ZM18.1308 19.9105L17.9773 19.7132L17.9773 19.7132L18.1308 19.9105ZM17.3683 18.9192C15.8479 20.1025 13.9311 20.7555 11.9728 20.7555V21.2555C14.0405 21.2555 16.0657 20.5665 17.6753 19.3138L17.3683 18.9192ZM11.9728 20.7555C11.2096 20.7555 10.4504 20.6554 9.71641 20.459L9.58718 20.942C10.3632 21.1497 11.166 21.2555 11.9728 21.2555V20.7555ZM9.71678 20.4591C6.56474 19.6106 4.09523 16.9961 3.42751 13.8024L2.93809 13.9047C3.64437 17.2829 6.25285 20.0444 9.58681 20.9419L9.71678 20.4591ZM3.42751 13.8023C2.74705 10.5478 4.00462 7.12423 6.62832 5.08282L6.32128 4.6882C3.54698 6.84679 2.21854 10.4632 2.93809 13.9047L3.42751 13.8023ZM6.6284 5.08276C8.14246 3.90375 10.0571 3.25351 12.0218 3.25351V2.75351C9.94847 2.75351 7.92513 3.43927 6.3212 4.68826L6.6284 5.08276ZM12.0218 3.25351C13.3798 3.25351 14.7243 3.56784 15.9118 4.16301L16.1358 3.71601C14.8772 3.08518 13.4558 2.75351 12.0218 2.75351V3.25351ZM15.9119 4.16306C18.8533 5.63574 20.7558 8.71327 20.7558 12.0005H21.2558C21.2558 8.52375 19.2462 5.27328 16.1357 3.71596L15.9119 4.16306ZM20.7558 12.0005C20.7558 14.6833 19.4895 17.2714 17.3684 18.9191L17.6752 19.3139C19.9181 17.5716 21.2558 14.8377 21.2558 12.0005H20.7558ZM16.5777 2.81697C15.1823 2.11825 13.6059 1.74951 12.0208 1.74951V2.24951C13.5297 2.24951 15.0293 2.60077 16.3539 3.26405L16.5777 2.81697ZM12.0208 1.74951C9.73023 1.74951 7.49102 2.51042 5.71236 3.89314L6.01924 4.28789C7.70857 2.97461 9.83937 2.24951 12.0208 2.24951V1.74951ZM5.71233 3.89316C2.63684 6.28487 1.16659 10.2943 1.96408 14.1116L2.45351 14.0094C1.69501 10.3787 3.09475 6.56216 6.01927 4.28786L5.71233 3.89316ZM1.96408 14.1116C2.74633 17.8568 5.63676 20.9184 9.32985 21.9119L9.45974 21.4291C5.94883 20.4846 3.19727 17.5702 2.45352 14.0094L1.96408 14.1116ZM9.32998 21.912C12.3744 22.7292 15.8023 22.0391 18.2843 20.1078L17.9773 19.7132C15.6193 21.5479 12.3532 22.2058 9.45961 21.4291L9.32998 21.912ZM18.2843 20.1078C20.7682 18.1755 22.2498 15.1457 22.2498 12.0005H21.7498C21.7498 14.9914 20.3394 17.8755 17.9773 19.7132L18.2843 20.1078ZM22.2498 12.0005C22.2498 8.14491 20.0244 4.54132 16.5777 2.81693L16.3539 3.26409C19.6312 4.9037 21.7498 8.33411 21.7498 12.0005H22.2498Z" fill="#004F71"/>
</g>
<g id="shape:icon_2">
<path fill-rule="evenodd" clip-rule="evenodd" d="M11.2896 10.232L12.7246 9.928V17H11.2896V10.232ZM11.0586 7.913C11.0586 7.406 11.4646 7 11.9996 7C12.5216 7 12.9416 7.406 12.9416 7.913C12.9416 8.435 12.5216 8.811 11.9996 8.811C11.4646 8.811 11.0586 8.435 11.0586 7.913Z" fill="#004F71"/>
<path d="M11.2896 10.232L11.2585 10.0853L11.1396 10.1104V10.232H11.2896ZM12.7246 9.928H12.8746V9.74289L12.6935 9.78126L12.7246 9.928ZM12.7246 17V17.15H12.8746V17H12.7246ZM11.2896 17H11.1396V17.15H11.2896V17ZM11.3207 10.3787L12.7557 10.0747L12.6935 9.78126L11.2585 10.0853L11.3207 10.3787ZM12.5746 9.928V17H12.8746V9.928H12.5746ZM12.7246 16.85H11.2896V17.15H12.7246V16.85ZM11.4396 17V10.232H11.1396V17H11.4396ZM11.2086 7.913C11.2086 7.4918 11.5445 7.15 11.9996 7.15V6.85C11.3847 6.85 10.9086 7.3202 10.9086 7.913H11.2086ZM11.9996 7.15C12.4433 7.15 12.7916 7.49334 12.7916 7.913H13.0916C13.0916 7.31866 12.5999 6.85 11.9996 6.85V7.15ZM12.7916 7.913C12.7916 8.34288 12.4483 8.661 11.9996 8.661V8.961C12.5948 8.961 13.0916 8.52712 13.0916 7.913H12.7916ZM11.9996 8.661C11.5395 8.661 11.2086 8.34439 11.2086 7.913H10.9086C10.9086 8.52561 11.3897 8.961 11.9996 8.961V8.661Z" fill="#004F71"/>
</g>
</g>
</svg>
