<svg width="20" height="20" viewBox="0 0 20 20" fill="none" xmlns="http://www.w3.org/2000/svg">
<g id="icon:money out">
<circle id="Ellipse 9" cx="10" cy="10" r="10" fill="#C2334D"/>
<path id="Union" fill-rule="evenodd" clip-rule="evenodd" d="M9.99993 4.28485C10.0743 4.28485 10.1432 4.31446 10.1956 4.36716L15.0594 9.30237C15.1415 9.38469 15.1652 9.50786 15.1206 9.618C15.0784 9.724 14.9779 9.7927 14.865 9.7927L12.2255 9.7927L12.2255 14.934C12.2255 15.3645 11.8824 15.7145 11.4603 15.7145L8.54078 15.7145C8.11921 15.7145 7.77553 15.3645 7.77553 14.934L7.77553 9.7927L5.1349 9.7927C5.02371 9.7927 4.92144 9.72223 4.87803 9.61682C4.83403 9.50786 4.85782 9.38469 4.93987 9.30237L9.80431 4.36716C9.85604 4.31446 9.9262 4.28485 9.99993 4.28485Z" fill="white"/>
</g>
</svg>
