<svg width="24" height="24" viewBox="0 0 24 24" fill="none" xmlns="http://www.w3.org/2000/svg">
<g id="icons - add recipient">
<path id="shape:icon" fill-rule="evenodd" clip-rule="evenodd" d="M6.6296 7.37871C7.6676 7.37871 8.5116 8.21271 8.5116 9.23571C8.5116 10.2587 7.6676 11.0927 6.6296 11.0927C5.5916 11.0927 4.7476 10.2587 4.7476 9.23571C4.7476 8.21271 5.5916 7.37871 6.6296 7.37871ZM6.6296 11.9487C8.1386 11.9487 9.3676 10.7327 9.3676 9.23571C9.3676 7.73871 8.1386 6.52271 6.6296 6.52271C5.1206 6.52271 3.8916 7.73971 3.8916 9.23571C3.8916 10.7317 5.1206 11.9487 6.6296 11.9487Z" fill="#1C1B1F"/>
<path id="shape:icon_2" fill-rule="evenodd" clip-rule="evenodd" d="M13.4886 4.856C14.9486 4.856 16.1346 6.029 16.1346 7.47C16.1346 8.911 14.9486 10.084 13.4886 10.084C12.0286 10.084 10.8426 8.911 10.8426 7.47C10.8426 6.029 12.0286 4.856 13.4886 4.856ZM13.4886 10.94C15.4196 10.94 16.9916 9.384 16.9916 7.47C16.9916 5.556 15.4196 4 13.4886 4C11.5576 4 9.98657 5.556 9.98657 7.47C9.98657 9.384 11.5576 10.94 13.4886 10.94Z" fill="#1C1B1F"/>
<path id="shape:icon_3" fill-rule="evenodd" clip-rule="evenodd" d="M7.281 17.5404V18.4524H3.03C2.933 18.4524 2.856 18.3754 2.856 18.2844V17.0644C2.856 15.0094 4.548 13.3354 6.63 13.3354C7.3 13.3354 7.94 13.5154 8.51 13.8424C7.741 14.8804 7.281 16.1564 7.281 17.5404ZM13.618 11.2654C11.833 11.2654 10.221 12.0034 9.068 13.1834C8.335 12.7304 7.504 12.4794 6.63 12.4794C4.077 12.4794 2 14.5364 2 17.0644V18.2844C2 18.8494 2.462 19.3084 3.03 19.3084H7.292C7.321 19.9814 7.872 20.5224 8.556 20.5224H14.981C14.881 20.2454 14.797 19.9624 14.745 19.6664H8.556C8.324 19.6664 8.137 19.4814 8.137 19.2564V18.8814C8.137 18.8804 8.137 18.8804 8.137 18.8804C8.137 18.8804 8.137 18.8804 8.137 18.8794V17.5404C8.137 14.5534 10.595 12.1224 13.618 12.1224C15.261 12.1224 16.719 12.8544 17.725 13.9894C18.006 13.8604 18.301 13.7614 18.606 13.6834C17.445 12.2144 15.644 11.2654 13.618 11.2654Z" fill="#1C1B1F"/>
<path id="shape:icon_4" fill-rule="evenodd" clip-rule="evenodd" d="M21.8883 18.4143C21.8133 18.3363 21.7263 18.2973 21.6273 18.2973H20.2733V17.0403C20.2733 16.9283 20.2363 16.8373 20.1613 16.7683C20.0953 16.6903 20.0083 16.6513 19.9003 16.6513C19.7933 16.6513 19.7023 16.6903 19.6273 16.7683C19.5523 16.8373 19.5153 16.9283 19.5153 17.0403V18.2973H18.1863C18.0783 18.2973 17.9873 18.3363 17.9133 18.4143C17.8383 18.4833 17.8013 18.5743 17.8013 18.6863C17.8013 18.7983 17.8383 18.8943 17.9133 18.9713C17.9873 19.0403 18.0783 19.0753 18.1863 19.0753H19.5153V20.4623C19.5153 20.5743 19.5523 20.6693 19.6273 20.7473C19.7023 20.8163 19.7933 20.8503 19.9003 20.8503C20.0083 20.8503 20.0953 20.8163 20.1613 20.7473C20.2363 20.6693 20.2733 20.5743 20.2733 20.4623V19.0753H21.6273C21.7263 19.0753 21.8133 19.0403 21.8883 18.9713C21.9633 18.8943 22.0003 18.7983 22.0003 18.6863C22.0003 18.5743 21.9633 18.4833 21.8883 18.4143Z" fill="#1C1B1F"/>
</g>
</svg>
