<svg width="24" height="24" viewBox="0 0 24 24" fill="none" xmlns="http://www.w3.org/2000/svg">
<g id="icons - support">
<g id="Shape">
<path fill-rule="evenodd" clip-rule="evenodd" d="M19.0542 10.1847H19.1028C20.2217 10.1847 21 11.4345 21 12.4881V15.5512C21 16.5069 20.3433 17.1685 19.2974 17.242L18.8352 17.9282C17.9216 19.1523 16.4879 19.8699 14.9678 19.8641C14.8995 20.3078 14.6954 20.719 14.384 21.0403C13.9224 21.5162 13.293 21.7892 12.6327 21.8C11.2988 21.8001 10.2137 20.7178 10.2004 19.374C10.2093 18.2283 11.0128 17.2451 12.1271 17.0161C13.4302 16.7484 14.702 17.5956 14.9678 18.9084C16.1817 18.9142 17.327 18.3418 18.0569 17.3646L18.1055 17.2911H17.5461C17.5369 17.2907 17.5277 17.29 17.5186 17.289C17.2648 17.2616 17.0811 17.0322 17.1083 16.7765V10.7728C17.1083 10.4787 17.2785 10.1846 17.5461 10.1846H18.0812V8.98389C18.0812 5.66814 15.4131 2.98016 12.1219 2.98016C8.83075 2.98016 6.16268 5.66814 6.16268 8.98389V10.1846H6.6978C6.96536 10.1846 7.13562 10.4787 7.13562 10.7728V16.7765C7.1366 16.7857 7.1373 16.7949 7.13772 16.8042C7.14973 17.061 6.95275 17.2791 6.6978 17.2911H4.89787L4.87277 17.2907C3.81188 17.2635 2.97368 16.3751 3.00063 15.3063V12.2431C3.00063 11.1404 3.82762 10.1847 4.89787 10.1847H5.18973V8.98394C5.18973 5.12682 8.29335 2 12.1219 2C15.9505 2 19.0542 5.12682 19.0542 8.98394V10.1847ZM4.89787 16.3109H6.16268V11.1649H4.89787C4.36275 11.1649 3.97358 11.6795 3.97358 12.2431V15.3062L3.9726 15.3323C3.95985 15.86 4.37411 16.2981 4.89787 16.3109ZM13.6787 20.3543C13.4091 20.6488 13.0304 20.8174 12.6328 20.8199C11.8414 20.8072 11.1992 20.171 11.1734 19.3741C11.173 18.5756 11.8153 17.928 12.6079 17.9277C13.4005 17.9274 14.0432 18.5744 14.0435 19.3729V19.3741C14.0638 19.7379 13.9314 20.0936 13.6787 20.3543ZM19.1028 16.311C19.3947 16.311 20.0271 16.2129 20.0271 15.5513V12.4882C20.0271 11.9246 19.6379 11.1649 19.1028 11.1649H18.0812V16.311H19.1028Z" fill="#004F71"/>
<path d="M19.0542 10.1847H18.9042V10.3347H19.0542V10.1847ZM21 12.4881L20.85 12.4881V12.4881H21ZM19.2974 17.242L19.2869 17.0924L19.2138 17.0975L19.173 17.1582L19.2974 17.242ZM18.8352 17.9282L18.9556 18.018L18.9596 18.012L18.8352 17.9282ZM14.9678 19.8641L14.9684 19.7141L14.8392 19.7136L14.8195 19.8413L14.9678 19.8641ZM14.384 21.0403L14.4917 21.1448L14.4917 21.1447L14.384 21.0403ZM12.6327 21.8L12.6327 21.95L12.6352 21.95L12.6327 21.8ZM10.2004 19.374L10.0503 19.3728L10.0504 19.3755L10.2004 19.374ZM12.1271 17.0161L12.1573 17.1631L12.1573 17.1631L12.1271 17.0161ZM14.9678 18.9084L14.8208 18.9382L14.845 19.0578L14.9671 19.0584L14.9678 18.9084ZM18.0569 17.3646L18.1772 17.4545L18.1819 17.4474L18.0569 17.3646ZM18.1055 17.2911L18.2306 17.3739L18.3847 17.1411H18.1055V17.2911ZM17.5461 17.2911L17.5392 17.4411H17.5461V17.2911ZM17.5186 17.289L17.5347 17.1399L17.5347 17.1399L17.5186 17.289ZM17.1083 16.7765L17.2574 16.7923L17.2583 16.7845V16.7765H17.1083ZM18.0812 10.1846V10.3346H18.2312V10.1846H18.0812ZM6.16268 10.1846H6.01268V10.3346H6.16268V10.1846ZM7.13562 16.7765H6.98562V16.7845L6.98646 16.7924L7.13562 16.7765ZM7.13772 16.8042L6.98787 16.811L6.98788 16.8112L7.13772 16.8042ZM6.6978 17.2911V17.4413L6.70488 17.441L6.6978 17.2911ZM4.89787 17.2911L4.89507 17.4411H4.89787V17.2911ZM4.87277 17.2907L4.86894 17.4406L4.86998 17.4407L4.87277 17.2907ZM3.00063 15.3063L3.15063 15.31V15.3063H3.00063ZM5.18973 10.1847V10.3347H5.33973V10.1847H5.18973ZM6.16268 16.3109V16.4609H6.31268V16.3109H6.16268ZM4.89787 16.3109L4.89419 16.4609H4.89787V16.3109ZM6.16268 11.1649H6.31268V11.0149H6.16268V11.1649ZM3.97358 15.3062L4.12358 15.3118V15.3062H3.97358ZM3.9726 15.3323L3.8227 15.3267L3.82265 15.3287L3.9726 15.3323ZM12.6328 20.8199L12.6304 20.9699L12.6337 20.9699L12.6328 20.8199ZM13.6787 20.3543L13.5709 20.2498L13.568 20.253L13.6787 20.3543ZM11.1734 19.3741L11.0233 19.3741L11.0234 19.3789L11.1734 19.3741ZM12.6079 17.9277L12.6079 18.0777L12.6079 17.9277ZM14.0435 19.3729H14.1935V19.3729L14.0435 19.3729ZM14.0435 19.3741H13.8933L13.8938 19.3824L14.0435 19.3741ZM18.0812 11.1649V11.0149H17.9312V11.1649H18.0812ZM18.0812 16.311H17.9312V16.461H18.0812V16.311ZM19.1028 10.0347H19.0542V10.3347H19.1028V10.0347ZM21.15 12.4881C21.15 11.9275 20.9441 11.3202 20.5908 10.851C20.2371 10.3812 19.7226 10.0347 19.1028 10.0347V10.3347C19.602 10.3347 20.0361 10.613 20.3512 11.0315C20.6668 11.4506 20.85 11.995 20.85 12.4881L21.15 12.4881ZM21.15 15.5512V12.4881H20.85V15.5512H21.15ZM19.3079 17.3917C19.86 17.3529 20.3219 17.1576 20.6468 16.8337C20.9726 16.5088 21.15 16.065 21.15 15.5512H20.85C20.85 15.9931 20.699 16.358 20.435 16.6212C20.1701 16.8854 19.7806 17.0577 19.2869 17.0924L19.3079 17.3917ZM18.9596 18.012L19.4218 17.3258L19.173 17.1582L18.7108 17.8444L18.9596 18.012ZM14.9672 20.0141C16.5352 20.0201 18.0135 19.2799 18.9554 18.0179L18.715 17.8385C17.8296 19.0247 16.4407 19.7197 14.9684 19.7141L14.9672 20.0141ZM14.4917 21.1447C14.8249 20.801 15.043 20.3613 15.116 19.8869L14.8195 19.8413C14.7559 20.2544 14.566 20.6371 14.2763 20.9359L14.4917 21.1447ZM12.6352 21.95C13.3354 21.9385 14.0026 21.6491 14.4917 21.1448L14.2763 20.9359C13.8423 21.3834 13.2507 21.6399 12.6303 21.65L12.6352 21.95ZM10.0504 19.3755C10.0645 20.8005 11.2155 21.9501 12.6327 21.95L12.6327 21.65C11.3821 21.6501 10.3629 20.6351 10.3504 19.3725L10.0504 19.3755ZM12.0969 16.8692C10.9125 17.1125 10.0599 18.1571 10.0504 19.3728L10.3504 19.3752C10.3588 18.2995 11.113 17.3776 12.1573 17.1631L12.0969 16.8692ZM15.1148 18.8786C14.8328 17.4854 13.4823 16.5845 12.0969 16.8692L12.1573 17.1631C13.3781 16.9122 14.5713 17.7058 14.8208 18.9382L15.1148 18.8786ZM17.9367 17.2748C17.2351 18.2142 16.1346 18.764 14.9685 18.7584L14.9671 19.0584C16.2288 19.0644 17.4189 18.4695 18.177 17.4544L17.9367 17.2748ZM17.9804 17.2083L17.9318 17.2818L18.1819 17.4474L18.2306 17.3739L17.9804 17.2083ZM17.5461 17.4411H18.1055V17.1411H17.5461V17.4411ZM17.5025 17.4381C17.5147 17.4394 17.527 17.4404 17.5392 17.4409L17.553 17.1413C17.5469 17.141 17.5408 17.1405 17.5347 17.1399L17.5025 17.4381ZM16.9591 16.7607C16.9233 17.0976 17.1655 17.4018 17.5026 17.4381L17.5347 17.1399C17.3642 17.1215 17.2389 16.9668 17.2574 16.7923L16.9591 16.7607ZM16.9583 10.7728V16.7765H17.2583V10.7728H16.9583ZM17.5461 10.0346C17.3508 10.0346 17.1997 10.1436 17.1033 10.2833C17.0081 10.4215 16.9583 10.5991 16.9583 10.7728H17.2583C17.2583 10.6524 17.2936 10.5359 17.3503 10.4536C17.406 10.3727 17.4738 10.3346 17.5461 10.3346V10.0346ZM18.0812 10.0346H17.5461V10.3346H18.0812V10.0346ZM17.9312 8.98389V10.1846H18.2312V8.98389H17.9312ZM12.1219 3.13016C15.3292 3.13016 17.9312 5.74993 17.9312 8.98389H18.2312C18.2312 5.58635 15.497 2.83016 12.1219 2.83016V3.13016ZM6.31268 8.98389C6.31268 5.74993 8.91465 3.13016 12.1219 3.13016V2.83016C8.74686 2.83016 6.01268 5.58635 6.01268 8.98389H6.31268ZM6.31268 10.1846V8.98389H6.01268V10.1846H6.31268ZM6.6978 10.0346H6.16268V10.3346H6.6978V10.0346ZM7.28562 10.7728C7.28562 10.5991 7.23583 10.4215 7.14055 10.2833C7.04424 10.1436 6.89307 10.0346 6.6978 10.0346V10.3346C6.77009 10.3346 6.83784 10.3728 6.89354 10.4536C6.95028 10.5359 6.98562 10.6524 6.98562 10.7728H7.28562ZM7.28562 16.7765V10.7728H6.98562V16.7765H7.28562ZM7.28756 16.7974C7.28701 16.7851 7.28608 16.7729 7.28478 16.7606L6.98646 16.7924C6.98712 16.7985 6.98759 16.8047 6.98787 16.811L7.28756 16.7974ZM6.70488 17.441C7.0436 17.425 7.30338 17.1357 7.28755 16.7972L6.98788 16.8112C6.99607 16.9864 6.86189 17.1332 6.69072 17.1413L6.70488 17.441ZM4.89787 17.4411H6.6978V17.1411H4.89787V17.4411ZM4.86998 17.4407L4.89507 17.4411L4.90067 17.1412L4.87557 17.1407L4.86998 17.4407ZM2.85068 15.3025C2.82166 16.453 3.72421 17.4113 4.86894 17.4406L4.87661 17.1407C3.89956 17.1157 3.12569 16.2971 3.15058 15.31L2.85068 15.3025ZM2.85063 12.2431V15.3063H3.15063V12.2431H2.85063ZM4.89787 10.0347C3.73087 10.0347 2.85063 11.0722 2.85063 12.2431H3.15063C3.15063 11.2086 3.92437 10.3347 4.89787 10.3347V10.0347ZM5.18973 10.0347H4.89787V10.3347H5.18973V10.0347ZM5.03973 8.98394V10.1847H5.33973V8.98394H5.03973ZM12.1219 1.85C8.20946 1.85 5.03973 5.04503 5.03973 8.98394H5.33973C5.33973 5.20861 8.37724 2.15 12.1219 2.15V1.85ZM19.2042 8.98394C19.2042 5.04503 16.0344 1.85 12.1219 1.85V2.15C15.8666 2.15 18.9042 5.20861 18.9042 8.98394H19.2042ZM19.2042 10.1847V8.98394H18.9042V10.1847H19.2042ZM6.16268 16.1609H4.89787V16.4609H6.16268V16.1609ZM6.01268 11.1649V16.3109H6.31268V11.1649H6.01268ZM4.89787 11.3148H6.16268V11.0149H4.89787V11.3148ZM4.12358 12.2431C4.12358 11.734 4.47136 11.3148 4.89787 11.3148V11.0149C4.25414 11.0149 3.82358 11.625 3.82358 12.2431H4.12358ZM4.12358 15.3062V12.2431H3.82358V15.3062H4.12358ZM4.1225 15.3379L4.12348 15.3118L3.82369 15.3006L3.82271 15.3267L4.1225 15.3379ZM4.90155 16.161C4.46162 16.1502 4.11178 15.7818 4.12256 15.3359L3.82265 15.3287C3.80792 15.9381 4.2866 16.446 4.89419 16.4609L4.90155 16.161ZM12.6337 20.9699C13.0733 20.9671 13.4917 20.7807 13.7893 20.4556L13.568 20.253C13.3265 20.5168 12.9875 20.6676 12.6318 20.6699L12.6337 20.9699ZM11.0234 19.3789C11.0518 20.2549 11.758 20.9559 12.6304 20.9699L12.6352 20.6699C11.9248 20.6586 11.3466 20.0872 11.3233 19.3692L11.0234 19.3789ZM12.6078 17.7777C11.7313 17.7781 11.023 18.4939 11.0234 19.3741L11.3234 19.374C11.3231 18.6573 11.8992 18.078 12.6079 18.0777L12.6078 17.7777ZM14.1935 19.3729C14.1932 18.4926 13.4843 17.7773 12.6078 17.7777L12.6079 18.0777C13.3166 18.0774 13.8932 18.6563 13.8935 19.373L14.1935 19.3729ZM14.1935 19.3741V19.3729H13.8935V19.3741H14.1935ZM13.7864 20.4587C14.0683 20.1678 14.2159 19.7712 14.1933 19.3658L13.8938 19.3824C13.9117 19.7046 13.7944 20.0194 13.571 20.2499L13.7864 20.4587ZM19.8771 15.5513C19.8771 15.8218 19.7539 15.9642 19.602 16.0479C19.4391 16.1376 19.2371 16.161 19.1028 16.161V16.461C19.2603 16.461 19.5205 16.4353 19.7468 16.3106C19.9841 16.1798 20.1771 15.9424 20.1771 15.5513H19.8771ZM19.8771 12.4882V15.5513H20.1771V12.4882H19.8771ZM19.1028 11.3149C19.295 11.3149 19.4862 11.4534 19.6387 11.6952C19.7888 11.9331 19.8771 12.2364 19.8771 12.4882H20.1771C20.1771 12.1763 20.0708 11.818 19.8925 11.5352C19.7166 11.2563 19.4458 11.0149 19.1028 11.0149V11.3149ZM18.0812 11.3149H19.1028V11.0149H18.0812V11.3149ZM18.2312 16.311V11.1649H17.9312V16.311H18.2312ZM19.1028 16.161H18.0812V16.461H19.1028V16.161Z" fill="#004F71"/>
</g>
</g>
</svg>
