<svg width="24" height="24" viewBox="0 0 24 24" fill="none" xmlns="http://www.w3.org/2000/svg">
    <circle cx="12" cy="9" r="3" stroke="currentColor" />
    <path
        d="M11.9999 22L11.5838 22.2773C11.6766 22.4164 11.8327 22.5 11.9999 22.5C12.167 22.5 12.3232 22.4165 12.4159 22.2773L11.9999 22ZM5.49991 11L5.0527 11.2236H5.0527L5.49991 11ZM18.0527 10.7764C15.5641 15.7534 15.5754 15.7352 11.5838 21.7227L12.4159 22.2773C16.4243 16.2648 16.4356 16.2466 18.9471 11.2236L18.0527 10.7764ZM12.4159 21.7227C8.42443 15.7353 8.43584 15.7534 5.94712 10.7764L5.0527 11.2236C7.56436 16.2465 7.57557 16.2647 11.5838 22.2773L12.4159 21.7227ZM5.94712 10.7764C5.296 9.47425 5.48134 7.40956 6.54531 5.63177C7.59264 3.88177 9.44246 2.5 11.9999 2.5V1.5C9.03442 1.5 6.8842 3.11823 5.68724 5.11823C4.50691 7.09044 4.2037 9.52575 5.0527 11.2236L5.94712 10.7764ZM11.9999 2.5C14.5573 2.5 16.4071 3.88177 17.4544 5.63177C18.5184 7.40956 18.7037 9.47426 18.0527 10.7764L18.9471 11.2236C19.796 9.52574 19.4928 7.09044 18.3125 5.11823C17.1155 3.11823 14.9653 1.5 11.9999 1.5V2.5Z"
        fill="currentColor" />
</svg>