<svg width="48" height="41" viewBox="0 0 48 41" fill="none" xmlns="http://www.w3.org/2000/svg">
<g id="icon:button" clip-path="url(#clip0_815_231)">
<g id="Group">
<path id="Vector" fill-rule="evenodd" clip-rule="evenodd" d="M16.0599 15.59V15.61C15.9899 15.56 15.8199 15.51 15.8199 15.51V20.84C16.9999 20.43 17.6899 19.4 17.8599 18.44C17.9599 17.94 18.0799 16.28 16.0599 15.58V15.59Z" fill="#FFCB05"/>
<path id="Vector_2" fill-rule="evenodd" clip-rule="evenodd" d="M12.05 9.78C11.88 10.55 12.17 11.36 12.75 11.8H12.77C13.01 11.99 13.35 12.18 13.68 12.38V8.25C13.68 8.25 13.61 8.27 13.56 8.27C12.5 8.58 12.14 9.25 12.05 9.78Z" fill="#FFCB05"/>
<path id="Vector_3" fill-rule="evenodd" clip-rule="evenodd" d="M14.76 0C6.61 0 0 6.61 0 14.76C0 22.91 6.61 29.52 14.76 29.52C22.91 29.52 29.52 22.91 29.52 14.76C29.52 6.61 22.91 0 14.76 0ZM19.99 18.8C19.65 20.6 18.24 22.54 15.81 23V24.22C15.81 24.8 15.33 25.25 14.73 25.25C14.13 25.25 13.65 24.79 13.65 24.22V23.07C12.43 23 11.49 22.76 10.1 21.87C9.6 21.56 9.45 20.91 9.79 20.43C10.13 19.95 10.77 19.81 11.28 20.12H11.33C12.27 20.72 12.87 20.94 13.71 20.98V14.67C12.73 14.24 12.03 13.85 11.45 13.42C10.27 12.53 9.67 10.9 9.96 9.39C10.25 7.88 11.35 6.75 12.96 6.27C13.2 6.2 13.44 6.15 13.68 6.1V5.16C13.68 4.58 14.16 4.13 14.76 4.13C15.36 4.13 15.84 4.59 15.84 5.16V6.12C17.5 6.43 18.55 7.32 18.62 7.37C19.05 7.75 19.1 8.4 18.72 8.83C18.34 9.26 17.66 9.29 17.21 8.93C17.16 8.91 16.66 8.5 15.84 8.26V13.3C16.15 13.42 16.49 13.52 16.8 13.64C19.13 14.46 20.4 16.47 19.99 18.8Z" fill="#FFCB05"/>
</g>
<path id="Vector_4" fill-rule="evenodd" clip-rule="evenodd" d="M27.84 26.5C27.37 26.5 26.94 26.67 26.6 26.99L24.97 28.57C24.65 28.87 24.47 29.29 24.47 29.75C24.47 30.18 24.65 30.61 24.97 30.93L33.75 39.42C34.86 40.49 36.74 40.49 37.86 39.42L46.64 30.92C46.97 30.61 47.14 30.21 47.14 29.74C47.14 29.41 47.05 29.1 46.86 28.83H46.85L44.96 27C44.3 26.37 43.16 26.37 42.48 27L38.64 30.72V11.87C38.64 10.95 37.86 10.21 36.91 10.21H34.61C33.65 10.21 32.88 10.95 32.88 11.87L32.93 30.71L29.08 26.99C28.75 26.68 28.32 26.51 27.84 26.51V26.5Z" fill="#FFCB05"/>
</g>
<defs>
<clipPath id="clip0_815_231">
<rect width="47.14" height="40.23" fill="white"/>
</clipPath>
</defs>
</svg>
