<svg width="48" height="43" viewBox="0 0 48 43" fill="none" xmlns="http://www.w3.org/2000/svg">
<g id="icon:button">
<path id="Vector" d="M7.23878 0C7.81948 1.86352 8.4201 3.72133 8.96807 5.59485C9.12178 6.11892 9.35235 6.27743 9.89746 6.276C22.2899 6.25887 34.6838 6.26315 47.0763 6.26315H48C47.4093 8.20236 46.84 10.0687 46.2721 11.9365C45.1335 15.6807 44.0077 19.4292 42.8549 23.1705C41.4985 27.5716 37.4322 30.5732 32.8635 30.5732C26.6907 30.5732 20.518 30.5632 14.3452 30.5875C13.7432 30.5903 13.4998 30.4047 13.3276 29.8306C10.7059 21.1442 8.05432 12.4663 5.43265 3.77988C5.28747 3.29865 5.09533 3.15157 4.60857 3.15871C3.07285 3.1787 1.53572 3.14586 0 3.13443V0C2.41388 0 4.82633 0 7.23878 0ZM33.6619 18.401C33.6576 14.7939 30.7371 11.8594 27.149 11.8551C23.541 11.8509 20.5763 14.8196 20.5806 18.4339C20.5834 21.9924 23.5438 25.0212 27.1163 24.9898C31.0203 24.9555 33.7132 21.7939 33.6633 18.4025L33.6619 18.401Z" fill="#FFCB05"/>
<path id="Vector_2" d="M20.4755 38.2271C20.4627 40.4862 18.6651 42.2569 16.4049 42.2398C14.206 42.2227 12.4297 40.402 12.4496 38.1843C12.471 35.9295 14.297 34.1217 16.5188 34.1574C18.7192 34.1931 20.4883 36.0123 20.4755 38.2271Z" fill="#FFCB05"/>
<path id="Vector_3" d="M36.1927 38.2402C36.1912 40.4764 34.4363 42.2343 32.2004 42.24C29.9758 42.2457 28.2067 40.4822 28.1967 38.2488C28.1867 35.9826 29.9729 34.1533 32.189 34.1576C34.4292 34.1619 36.1927 35.9597 36.1912 38.2402H36.1927Z" fill="#FFCB05"/>
</g>
</svg>
