<svg width="24" height="24" viewBox="0 0 24 24" fill="none" xmlns="http://www.w3.org/2000/svg">
    <path
        d="M18.2 2.9505L1.66745 8.44291C0.774591 8.73954 0.748193 9.99284 1.62777 10.3268L8.59999 12.974M18.2 2.9505L13.6942 20.2006C13.4542 21.1194 12.1888 21.2177 11.8098 20.347L8.59999 12.974M18.2 2.9505L8.59999 12.974"
        stroke="currentColor" stroke-linejoin="round" />
    <ellipse cx="18.32" cy="13.4752" rx="4.31999" ry="4.51057" fill="white" stroke="currentColor" />
    <path
        d="M16.9234 15.9646V14.1531H16.3737V13.702H16.9234V13.124H16.3737V12.6729H16.9234V10.9319H17.6565L18.3261 12.6729H19.1578V10.9319H19.7147V12.6729H20.2645V13.124H19.7147V13.702H20.2645V14.1531H19.7147V15.9646H18.9746L18.305 14.1531H17.4732V15.9646H16.9234ZM17.4732 13.702H18.1358L17.9243 13.124H17.4591L17.4732 13.702ZM19.1578 14.9707H19.186L19.1649 14.1531H18.8689L19.1578 14.9707ZM17.4591 12.6729H17.7552L17.4591 11.7989H17.4309L17.4591 12.6729ZM18.6997 13.702H19.1719L19.1578 13.124H18.4882L18.6997 13.702Z"
        fill="currentColor" />
</svg>
    