<svg width="24" height="24" viewBox="0 0 24 24" fill="none" xmlns="http://www.w3.org/2000/svg">
<path fill-rule="evenodd" clip-rule="evenodd" d="M20.324 6H3.6768C3.3033 6 3 6.38388 3 6.85714C3 7.3304 3.3033 7.71428 3.6768 7.71428H20.324C20.6975 7.71428 20.9999 7.3304 20.9999 6.85714C20.9999 6.38388 20.6975 6 20.324 6Z" fill="#000"/>
<path fill-rule="evenodd" clip-rule="evenodd" d="M20.324 11.1427H3.6768C3.3033 11.1427 3 11.5266 3 11.9998C3 12.4731 3.3033 12.857 3.6768 12.857H20.324C20.6975 12.857 20.9999 12.4731 20.9999 11.9998C20.9999 11.5266 20.6975 11.1427 20.324 11.1427Z" fill="#000"/>
<path fill-rule="evenodd" clip-rule="evenodd" d="M20.324 16.2858H3.6768C3.3033 16.2858 3 16.6696 3 17.1429C3 17.6162 3.3033 18 3.6768 18H20.324C20.6975 18 20.9999 17.6162 20.9999 17.1429C20.9999 16.6696 20.6975 16.2858 20.324 16.2858Z" fill="#000"/>
</svg>
