<svg width="18" height="18" viewBox="0 0 18 18" fill="none" xmlns="http://www.w3.org/2000/svg">
    <path
        d="M13.6005 8.25C14.0363 12.2812 15 14.25 15 14.25H3C3 14.25 4.5 11.9002 4.5 6.3C4.5 5.02725 4.974 3.80625 5.81775 2.90625C6.66225 2.00625 7.8075 1.5 9 1.5C9.25275 1.5 9.504 1.5225 9.75 1.5675M11.25 14.25C11.1183 14.4775 11.25 16.5 9 16.5C6.75 16.5 7.01287 14.25 6.75 14.25"
        stroke="white" stroke-linecap="round" stroke-linejoin="round" />
    <circle cx="13.125" cy="4.125" r="2.625" fill="#FFCB05" />
    <path
        d="M13.6241 5.32311H14.2841V5.87311H12.1691V5.32311H12.9741V3.13811L12.1241 3.22811L12.0891 2.74811L13.6241 2.50311V5.32311Z"
        fill="#004F71" />
</svg>