<svg width="24" height="24" viewBox="0 0 24 24" fill="none" xmlns="http://www.w3.org/2000/svg">
<path fill-rule="evenodd" clip-rule="evenodd" d="M17.164 1C14.4974 1 12.3196 3.16667 12.3196 5.83333C12.3196 8.5 14.4974 10.6667 17.164 10.6667C19.8307 10.6667 22.0085 8.5 22.0085 5.83333C22.0085 3.16667 19.8307 1 17.164 1Z" fill="#FFCB05"/>
<path d="M17.6751 6.93335V3.1778L15.6306 3.50002L15.6751 4.14446L16.8084 4.02224V6.93335H15.7306V7.66668H18.5528V6.93335H17.6751Z" fill="#004F71"/>
<path fill-rule="evenodd" clip-rule="evenodd" d="M18.953 17.9889L17.753 16.1445C17.5752 15.8667 17.4752 15.5333 17.4752 15.1889V11.8556C17.3752 11.8556 17.2752 11.8889 17.1641 11.8889C17.1419 11.8889 17.1196 11.8889 17.0974 11.8889V11.8667C13.8085 11.8222 11.1419 9.14446 11.1419 5.84446C11.1419 4.74446 11.4419 3.72223 11.9641 2.83335C11.9863 2.7889 11.9974 2.74446 12.0196 2.71112C11.5752 2.61112 11.1196 2.56668 10.653 2.56668C6.8863 2.55557 3.81964 5.84446 3.81964 9.87779V15.1778C3.81964 15.5222 3.71964 15.8556 3.53075 16.1333L2.33075 17.9778C1.9863 18.3889 1.90852 18.9445 2.10852 19.4222C2.30852 19.9 2.74186 20.2 3.21964 20.2H7.35297L7.3863 20.3445C7.69741 22 9.06408 23.2 10.6419 23.2C12.2196 23.2 13.5863 22 13.8974 20.3445L13.9196 20.2H18.053C18.5307 20.2 18.9641 19.8889 19.1641 19.4222C19.3641 18.9445 19.2752 18.3778 18.953 17.9889V17.9667V17.9889Z" fill="white"/>
</svg>
