<svg width="18" height="18" viewBox="0 0 18 18" fill="none" xmlns="http://www.w3.org/2000/svg">
    <path
        d="M4.5 15V14.3906C4.5 13.2593 4.97411 12.1743 5.81802 11.3744C6.66193 10.5744 7.80653 10.125 9 10.125M9 10.125C10.1935 10.125 11.3381 10.5744 12.182 11.3744C13.0259 12.1743 13.5 13.2593 13.5 14.3906V15M9 10.125C9.68199 10.125 10.336 9.86819 10.8183 9.41107C11.3005 8.95395 11.5714 8.33397 11.5714 7.6875C11.5714 7.04103 11.3005 6.42105 10.8183 5.96393C10.336 5.50681 9.68199 5.25 9 5.25C8.31801 5.25 7.66396 5.50681 7.18173 5.96393C6.69949 6.42105 6.42857 7.04103 6.42857 7.6875C6.42857 8.33397 6.69949 8.95395 7.18173 9.41107C7.66396 9.86819 8.31801 10.125 9 10.125Z"
        stroke="white" stroke-linecap="round" stroke-linejoin="round" />
    <circle cx="9" cy="9" r="7.5" stroke="white" />
</svg>