<svg width="24" height="24" viewBox="0 0 24 24" fill="none" xmlns="http://www.w3.org/2000/svg">
    <path
        d="M12 15C12.9283 15 13.8185 14.6313 14.4749 13.9749C15.1313 13.3185 15.5 12.4283 15.5 11.5C15.5 10.5717 15.1313 9.6815 14.4749 9.02513C13.8185 8.36875 12.9283 8 12 8C11.0717 8 10.1815 8.36875 9.52513 9.02513C8.86875 9.6815 8.5 10.5717 8.5 11.5C8.5 12.4283 8.86875 13.3185 9.52513 13.9749C10.1815 14.6313 11.0717 15 12 15V15Z"
        stroke="currentColor" stroke-linecap="round" stroke-linejoin="round" />
    <path
        d="M19.622 10.395L18.525 7.745L20 6L18 4L16.265 5.483L13.558 4.37L12.935 2H10.981L10.349 4.401L7.704 5.516L6 4L4 6L5.453 7.789L4.373 10.446L2 11V13L4.401 13.655L5.516 16.3L4 18L6 20L7.791 18.54L10.397 19.612L11 22H13L13.604 19.613L16.255 18.515C16.697 18.831 18 20 18 20L20 18L18.516 16.25L19.614 13.598L22 12.978V11L19.622 10.395V10.395Z"
        stroke="currentColor" stroke-linecap="round" stroke-linejoin="round" />
</svg>
    