<svg width="20" height="20" viewBox="0 0 20 20" fill="none" xmlns="http://www.w3.org/2000/svg">
<g clip-path="url(#clip0_1_12253)">
<path d="M18.0583 0.833374C18.1416 0.850041 18.2166 0.875041 18.3 0.891707C19.1333 1.12504 19.4416 2.11671 18.8916 2.79171C18.8333 2.85837 18.7666 2.92504 18.7083 2.98337C16.4166 5.27504 14.125 7.56671 11.8333 9.85837C11.7833 9.90837 11.725 9.94171 11.6416 10.0084C11.7333 10.0834 11.7916 10.125 11.8416 10.175C14.15 12.475 16.45 14.7834 18.7583 17.0834C19.0833 17.4084 19.2333 17.775 19.1416 18.2334C18.9583 19.0917 17.9583 19.4584 17.2583 18.925C17.1833 18.8667 17.1166 18.8 17.05 18.7334C14.7583 16.4417 12.4666 14.15 10.175 11.8584C10.125 11.8084 10.0833 11.75 10.025 11.675C9.94998 11.7417 9.89998 11.7917 9.84998 11.8417C7.54165 14.15 5.23331 16.4584 2.92498 18.7667C2.56665 19.125 2.14998 19.25 1.66665 19.1167C1.28331 19.0084 1.02498 18.7417 0.891646 18.3584C0.87498 18.3 0.84998 18.25 0.833313 18.1917C0.833313 18.0584 0.833313 17.925 0.833313 17.8C0.916646 17.4417 1.14165 17.1834 1.39165 16.9334C3.64998 14.6834 5.90831 12.425 8.16665 10.1667C8.21665 10.1167 8.28331 10.0834 8.37498 10.025C8.26665 9.94171 8.20831 9.90004 8.15831 9.85004C5.90831 7.60004 3.65831 5.35004 1.39998 3.10004C1.14998 2.85004 0.916646 2.59171 0.833313 2.23337V1.84171C0.933313 1.50004 1.08331 1.20004 1.39998 1.03337C1.56665 0.941707 1.75831 0.900041 1.94165 0.833374C1.99165 0.833374 2.03331 0.833374 2.08331 0.833374C2.51665 0.883374 2.81665 1.15004 3.11665 1.45004C5.35831 3.70004 7.59998 5.94171 9.84998 8.18337C9.89165 8.22504 9.94165 8.27504 10.0333 8.35837C10.075 8.29171 10.1083 8.22504 10.1583 8.17504C12.4 5.93337 14.6416 3.69171 16.875 1.45004C17.175 1.15004 17.475 0.883374 17.9166 0.833374C17.9583 0.833374 18.0083 0.833374 18.0583 0.833374Z" fill="#004F71"/>
</g>
<defs>
<clipPath id="clip0_1_12253">
<rect width="20" height="20" fill="white"/>
</clipPath>
</defs>
</svg>
