<svg width="24" height="24" viewBox="0 0 24 24" fill="none" xmlns="http://www.w3.org/2000/svg">
<path fill-rule="evenodd" clip-rule="evenodd" d="M14.3328 4.00282H18.3328C18.8928 4.00282 19.3328 4.44182 19.3328 5.00182V9.00182C19.3228 9.45682 20.0098 9.45682 19.9998 9.00182V5.00182C19.9998 4.08382 19.2508 3.33582 18.3328 3.33582H14.3168C13.8558 3.35682 13.8878 4.02382 14.3328 4.00282Z" fill="#000"/>
<path fill-rule="evenodd" clip-rule="evenodd" d="M12.332 19.9996H5.666C5.106 19.9996 4.667 19.5606 4.667 19.0006V15.0006C4.67 14.8116 4.516 14.6596 4.327 14.6626C4.144 14.6666 3.999 14.8176 4.001 15.0006V19.0006C4.001 19.9186 4.749 20.6666 5.666 20.6666H12.332C12.786 20.6766 12.786 19.9896 12.332 19.9996Z" fill="#000"/>
<path fill-rule="evenodd" clip-rule="evenodd" d="M4.66701 10.0008H4.00001L4 10H4.66701V10.0008ZM6.333 10.0008H5.33101V5.33384H6.333V10.0008ZM7.66701 10.0008H7.00001L7 10H7.66701V10.0008ZM9.333 10.0008H8.333V5.33384H9.333V10.0008ZM10.666 10.0008H9.99901V5.33384H10V10H10.666V10.0008ZM12.667 11.6668V12.9998C12.667 13.1848 12.517 13.3348 12.332 13.3348H2.332C2.148 13.3338 1.99901 13.1838 2.00001 12.9998V11.6668C2.00101 11.4838 2.149 11.3348 2.332 11.3348H2.66701V10.3328C2.66701 10.1498 2.816 10.0018 2.99901 10.0008H3.333V5.33384H2.332C2.149 5.33284 2.00101 5.18484 2.00001 5.00184V4.33484C2.00001 4.19884 2.083 4.07584 2.209 4.02484L7.209 2.02484C7.28 1.99584 7.366 1.98784 7.458 2.02484L12.458 4.02484C12.584 4.07584 12.667 4.19884 12.667 4.33484V5.00184C12.666 5.18584 12.516 5.33384 12.332 5.33384H11.333V10.0008H11.665C11.849 9.99984 11.999 10.1488 12 10.3328V11.3348H12.332C12.516 11.3338 12.666 11.4828 12.667 11.6668Z" fill="#000"/>
<path fill-rule="evenodd" clip-rule="evenodd" d="M21.3333 12H14.6673V11.6662C14.6673 11.4762 14.8093 11.3342 14.9993 11.3342H20.9983C21.1883 11.3342 21.3333 11.4762 21.3333 11.6662V12ZM14.0003 12V11.6662C14.0003 11.1182 14.4513 10.6672 14.9993 10.6672H20.9983C21.5463 10.6672 22.0003 11.1182 22.0003 11.6662V20.9982C22.0003 21.5462 21.5463 22.0002 20.9983 22.0002H14.9993C14.4513 22.0002 14.0003 21.5462 14.0003 20.9982V20.75H14V12H14.0003ZM14.6673 20.75H21.3333V20.9982C21.3333 21.1882 21.1883 21.3332 20.9983 21.3332H14.9993C14.8093 21.3332 14.6673 21.1882 14.6673 20.9982V20.75ZM17.6019 15.6731C17.4999 15.5611 17.4599 15.4111 17.4939 15.2611C17.5209 15.1391 17.5939 15.0341 17.6989 14.9621V15.7501H17.6979C17.6589 15.7261 17.6269 15.7001 17.6019 15.6731ZM18.2589 16.5811C18.6629 16.7261 18.6379 17.0731 18.6209 17.1771C18.5889 17.3651 18.4659 17.5641 18.2589 17.6631V16.5811ZM17.2439 17.5311C17.1139 17.4461 16.9409 17.4831 16.8559 17.6121C16.7709 17.7421 16.8069 17.9161 16.9369 18.0011C17.2339 18.1961 17.4419 18.2601 17.6979 18.2791V18.4971C17.6979 18.6521 17.8239 18.7781 17.9789 18.7781C18.1329 18.7781 18.2589 18.6521 18.2589 18.4971V18.2531C18.7719 18.1331 19.1009 17.6981 19.1729 17.2701C19.2659 16.7191 18.9789 16.2401 18.4409 16.0501C18.3799 16.0281 18.3199 16.0071 18.2589 15.9861V14.9011C18.3519 14.9411 18.4169 14.9951 18.4459 15.0231C18.4979 15.0901 18.5779 15.1331 18.6689 15.1331C18.8239 15.1331 18.9499 15.0071 18.9499 14.8511C18.9499 14.7781 18.9219 14.7121 18.8769 14.6621V14.6611C18.8629 14.6451 18.6309 14.3941 18.2589 14.3151V14.1701C18.2589 14.0151 18.1329 13.8891 17.9789 13.8891C17.8239 13.8891 17.6979 14.0151 17.6979 14.1701V14.3461C17.6649 14.3571 17.6299 14.3691 17.5959 14.3831C17.2599 14.5201 17.0239 14.7951 16.9469 15.1381C16.8729 15.4641 16.9639 15.8061 17.1889 16.0521C17.3159 16.1921 17.4919 16.2901 17.6979 16.3761V17.7151C17.5389 17.6981 17.4259 17.6501 17.2439 17.5311Z" fill="#000"/>
</svg>
