<svg width="24" height="24" viewBox="0 0 24 24" fill="none" xmlns="http://www.w3.org/2000/svg">
<path fill-rule="evenodd" clip-rule="evenodd" d="M21.3333 12.0012H14.6673V11.6662C14.6673 11.4762 14.8093 11.3342 14.9993 11.3342H20.9983C21.1883 11.3342 21.3333 11.4762 21.3333 11.6662V12.0012ZM20.9983 10.6672H14.9993C14.4513 10.6672 14.0003 11.1182 14.0003 11.6662V12.3332C14.0003 12.5172 14.1493 12.6652 14.3333 12.6672L21.3333 12.6682V20.9982C21.3333 21.1882 21.1883 21.3332 20.9983 21.3332H14.9993C14.8093 21.3332 14.6673 21.1882 14.6673 20.9982V20.6662H20.3313C20.7763 20.6662 20.7763 19.9992 20.3313 19.9992H14.6673V13.6662C14.6773 13.2122 13.9903 13.2122 14.0003 13.6662V20.9982C14.0003 21.5462 14.4513 22.0002 14.9993 22.0002H20.9983C21.5463 22.0002 22.0003 21.5462 22.0003 20.9982V11.6662C22.0003 11.1182 21.5463 10.6672 20.9983 10.6672Z" fill="#000"/>
<path fill-rule="evenodd" clip-rule="evenodd" d="M14.3328 4.00282H18.3328C18.8928 4.00282 19.3328 4.44182 19.3328 5.00182V9.00182C19.3228 9.45682 20.0098 9.45682 19.9998 9.00182V5.00182C19.9998 4.08382 19.2508 3.33582 18.3328 3.33582H14.3168C13.8558 3.35682 13.8878 4.02382 14.3328 4.00282Z" fill="#000"/>
<path fill-rule="evenodd" clip-rule="evenodd" d="M12.332 19.9996H5.666C5.106 19.9996 4.667 19.5606 4.667 19.0006V15.0006C4.67 14.8116 4.516 14.6596 4.327 14.6626C4.144 14.6666 3.999 14.8176 4.001 15.0006V19.0006C4.001 19.9186 4.749 20.6666 5.666 20.6666H12.332C12.786 20.6766 12.786 19.9896 12.332 19.9996Z" fill="#000"/>
<path fill-rule="evenodd" clip-rule="evenodd" d="M12 12.6678H2.66701V12.0008H9.00101C9.43501 11.9908 9.43501 11.3438 9.00101 11.3348H3.33301V10.6678H11.333V11.3348H10.331C9.89701 11.3448 9.89701 11.9918 10.331 12.0008H12V12.6678ZM4.00001 10.0008H4.66701V5.33384H4.00001V10.0008ZM5.33101 10.0008H6.333V5.33384H5.33101V10.0008ZM7.00001 10.0008H7.66701V5.33384H7.00001V10.0008ZM8.333 10.0008H9.333V5.33384H8.333V10.0008ZM9.99901 10.0008H10.666V5.33384H9.99901V10.0008ZM2.66701 4.66984V4.56084L7.33201 2.69384L12 4.56084V4.66984H2.66701ZM12.667 12.9998V11.6668C12.666 11.4828 12.516 11.3338 12.332 11.3348H12V10.3328C11.999 10.1488 11.849 9.99984 11.665 10.0008H11.333V5.33384H12.332C12.516 5.33384 12.666 5.18584 12.667 5.00184V4.33484C12.667 4.19884 12.584 4.07584 12.458 4.02484L7.458 2.02484C7.366 1.98784 7.28 1.99584 7.209 2.02484L2.209 4.02484C2.083 4.07584 2.00001 4.19884 2.00001 4.33484V5.00184C2.00101 5.18484 2.149 5.33284 2.332 5.33384H3.333V10.0008H2.99901C2.81601 10.0018 2.66701 10.1498 2.66701 10.3328V11.3348H2.332C2.149 11.3348 2.00101 11.4838 2.00001 11.6668V12.9998C1.99901 13.1838 2.148 13.3338 2.332 13.3348H12.332C12.517 13.3348 12.667 13.1848 12.667 12.9998Z" fill="#000"/>
<path fill-rule="evenodd" clip-rule="evenodd" d="M17.6019 15.6732C17.4999 15.5612 17.4599 15.4112 17.4939 15.2612C17.5209 15.1392 17.5939 15.0342 17.6989 14.9622V15.7502H17.6979C17.6589 15.7262 17.6269 15.7002 17.6019 15.6732ZM18.2589 16.5812C18.6629 16.7262 18.6379 17.0732 18.6209 17.1772C18.5889 17.3652 18.4659 17.5642 18.2589 17.6632V16.5812ZM17.2439 17.5312C17.1139 17.4462 16.9409 17.4832 16.8559 17.6122C16.7709 17.7422 16.8069 17.9162 16.9369 18.0012C17.2339 18.1962 17.4419 18.2602 17.6979 18.2792V18.4972C17.6979 18.6522 17.8239 18.7782 17.9789 18.7782C18.1329 18.7782 18.2589 18.6522 18.2589 18.4972V18.2532C18.7719 18.1332 19.1009 17.6982 19.1729 17.2702C19.2659 16.7192 18.9789 16.2402 18.4409 16.0502C18.3799 16.0282 18.3199 16.0072 18.2589 15.9862V14.9012C18.3519 14.9412 18.4169 14.9952 18.4459 15.0232C18.4979 15.0902 18.5779 15.1332 18.6689 15.1332C18.8239 15.1332 18.9499 15.0072 18.9499 14.8512C18.9499 14.7782 18.9219 14.7122 18.8769 14.6622V14.6612C18.8629 14.6452 18.6309 14.3942 18.2589 14.3152V14.1702C18.2589 14.0152 18.1329 13.8892 17.9789 13.8892C17.8239 13.8892 17.6979 14.0152 17.6979 14.1702V14.3462C17.6649 14.3572 17.6299 14.3692 17.5959 14.3832C17.2599 14.5202 17.0239 14.7952 16.9469 15.1382C16.8729 15.4642 16.9639 15.8062 17.1889 16.0522C17.3159 16.1922 17.4919 16.2902 17.6979 16.3762V17.7152C17.5389 17.6982 17.4259 17.6502 17.2439 17.5312Z" fill="#000"/>
</svg>
