<svg width="27" height="28" viewBox="0 0 27 28" fill="none" xmlns="http://www.w3.org/2000/svg">
<path fill-rule="evenodd" clip-rule="evenodd" d="M6.9412 11.3856C4.48682 11.3856 2.49675 9.39552 2.49675 6.94114C2.49675 4.48676 4.48682 2.49669 6.9412 2.49669C9.39558 2.49669 11.3856 4.48676 11.3856 6.94114C11.3856 9.39552 9.39558 11.3856 6.9412 11.3856ZM6.9412 0.666626C3.47558 0.666626 0.666687 3.47551 0.666687 6.94114C0.666687 10.4068 3.47558 13.2156 6.9412 13.2156C10.4068 13.2156 13.2157 10.4068 13.2157 6.94114C13.2157 3.47551 10.4068 0.666626 6.9412 0.666626Z" fill="#004F71"/>
<path fill-rule="evenodd" clip-rule="evenodd" d="M9.817 6.94112C9.817 8.52962 8.52968 9.81694 6.94119 9.81694C5.35269 9.81694 4.06537 8.52962 4.06537 6.94112C4.06537 5.35263 5.35269 4.06531 6.94119 4.06531C8.52968 4.06531 9.817 5.35263 9.817 6.94112Z" fill="#004F71"/>
<path fill-rule="evenodd" clip-rule="evenodd" d="M20.536 11.3856C18.0816 11.3856 16.0915 9.39552 16.0915 6.94114C16.0915 4.48676 18.0816 2.49669 20.536 2.49669C22.9904 2.49669 24.9804 4.48676 24.9804 6.94114C24.9804 9.39552 22.9904 11.3856 20.536 11.3856ZM20.536 0.666626C17.0704 0.666626 14.2615 3.47551 14.2615 6.94114C14.2615 10.4068 17.0704 13.2156 20.536 13.2156C24.0016 13.2156 26.8105 10.4068 26.8105 6.94114C26.8105 3.47551 24.0016 0.666626 20.536 0.666626Z" fill="#004F71"/>
<path fill-rule="evenodd" clip-rule="evenodd" d="M23.4118 6.94112C23.4118 8.52962 22.1245 9.81694 20.536 9.81694C18.9475 9.81694 17.6602 8.52962 17.6602 6.94112C17.6602 5.35263 18.9475 4.06531 20.536 4.06531C22.1245 4.06531 23.4118 5.35263 23.4118 6.94112Z" fill="#004F71"/>
<path fill-rule="evenodd" clip-rule="evenodd" d="M20.2745 17.9215C20.2745 19.2214 19.2215 20.2745 17.9216 20.2745C16.6217 20.2745 15.5687 19.2214 15.5687 17.9215C15.5687 16.6217 16.6217 15.5686 17.9216 15.5686C19.2215 15.5686 20.2745 16.6217 20.2745 17.9215Z" fill="#004F71"/>
<path fill-rule="evenodd" clip-rule="evenodd" d="M20.2745 23.6731C20.2745 24.973 19.2215 26.0261 17.9216 26.0261C16.6217 26.0261 15.5687 24.973 15.5687 23.6731C15.5687 22.3733 16.6217 21.3202 17.9216 21.3202C19.2215 21.3202 20.2745 22.3733 20.2745 23.6731Z" fill="#004F71"/>
<path fill-rule="evenodd" clip-rule="evenodd" d="M26.0262 17.9215C26.0262 19.2214 24.9731 20.2745 23.6733 20.2745C22.3734 20.2745 21.3203 19.2214 21.3203 17.9215C21.3203 16.6217 22.3734 15.5686 23.6733 15.5686C24.9731 15.5686 26.0262 16.6217 26.0262 17.9215Z" fill="#004F71"/>
<path fill-rule="evenodd" clip-rule="evenodd" d="M26.0262 23.6731C26.0262 24.973 24.9731 26.0261 23.6733 26.0261C22.3734 26.0261 21.3203 24.973 21.3203 23.6731C21.3203 22.3733 22.3734 21.3202 23.6733 21.3202C24.9731 21.3202 26.0262 22.3733 26.0262 23.6731Z" fill="#004F71"/>
<path fill-rule="evenodd" clip-rule="evenodd" d="M6.9412 25.5033C4.48682 25.5033 2.49675 23.5132 2.49675 21.0588C2.49675 18.6044 4.48682 16.6144 6.9412 16.6144C9.39558 16.6144 11.3856 18.6044 11.3856 21.0588C11.3856 23.5132 9.39558 25.5033 6.9412 25.5033ZM6.9412 14.7843C3.47558 14.7843 0.666687 17.5932 0.666687 21.0588C0.666687 24.5244 3.47558 27.3333 6.9412 27.3333C10.4068 27.3333 13.2157 24.5244 13.2157 21.0588C13.2157 17.5932 10.4068 14.7843 6.9412 14.7843Z" fill="#004F71"/>
<path fill-rule="evenodd" clip-rule="evenodd" d="M9.817 21.0588C9.817 22.6473 8.52968 23.9346 6.94119 23.9346C5.35269 23.9346 4.06537 22.6473 4.06537 21.0588C4.06537 19.4703 5.35269 18.183 6.94119 18.183C8.52968 18.183 9.817 19.4703 9.817 21.0588Z" fill="#004F71"/>
</svg>
