<svg width="18" height="18" viewBox="0 0 18 18" fill="none" xmlns="http://www.w3.org/2000/svg">
    <path
        d="M13.65 2.21289L1.91745 6.11066C1.02459 6.40728 0.998191 7.66058 1.87777 7.99454L6.44999 9.73051M13.65 2.21289L10.4533 14.4512C10.2133 15.37 8.9479 15.4684 8.56886 14.5977L6.44999 9.73051M13.65 2.21289L6.44999 9.73051"
        stroke="#AFAFAF" stroke-linejoin="round" />
    <ellipse cx="13.74" cy="10.1064" rx="3.24" ry="3.38293" fill="white" stroke="#AFAFAF" />
    <path
        d="M12.6926 11.9734V10.6148H12.2802V10.2765H12.6926V9.843H12.2802V9.50466H12.6926V8.19891H13.2424L13.7446 9.50466H14.3684V8.19891H14.786V9.50466H15.1984V9.843H14.786V10.2765H15.1984V10.6148H14.786V11.9734H14.2309L13.7287 10.6148H13.1049V11.9734H12.6926ZM13.1049 10.2765H13.6019L13.4433 9.843H13.0944L13.1049 10.2765ZM14.3684 11.228H14.3895L14.3737 10.6148H14.1516L14.3684 11.228ZM13.0944 9.50466H13.3164L13.0944 8.84915H13.0732L13.0944 9.50466ZM14.0248 10.2765H14.379L14.3684 9.843H13.8662L14.0248 10.2765Z"
        fill="#AFAFAF" />
</svg>
    