<svg width="24" height="24" viewBox="0 0 24 24" fill="none" xmlns="http://www.w3.org/2000/svg">
    <path
        d="M2 18.2667V8.73333C2 8.27362 2.21071 7.83274 2.58579 7.50768C2.96086 7.18262 3.46957 7 4 7H20C20.5304 7 21.0391 7.18262 21.4142 7.50768C21.7893 7.83274 22 8.27362 22 8.73333V18.2667C22 18.7264 21.7893 19.1673 21.4142 19.4923C21.0391 19.8174 20.5304 20 20 20H4C3.46957 20 2.96086 19.8174 2.58579 19.4923C2.21071 19.1673 2 18.7264 2 18.2667Z"
        stroke="currentColor" />
    <path d="M8 2L11.5 6L15 2" stroke="currentColor" stroke-linecap="round" stroke-linejoin="round" />
    <path
        d="M5.5 22C5.5 22.2761 5.72386 22.5 6 22.5C6.27614 22.5 6.5 22.2761 6.5 22H5.5ZM5.5 20.5V22H6.5V20.5H5.5Z"
        fill="currentColor" />
    <path
        d="M17.5 22C17.5 22.2761 17.7239 22.5 18 22.5C18.2761 22.5 18.5 22.2761 18.5 22H17.5ZM17.5 20.5V22H18.5V20.5H17.5Z"
        fill="currentColor" />
</svg>