<svg width="24" height="24" viewBox="0 0 24 24" fill="none" xmlns="http://www.w3.org/2000/svg">
    <path
        d="M7.18796 14.7894C7.06762 14.6618 7 14.4885 7 14.3079C7 14.1272 7.06762 13.954 7.18796 13.8263L11.541 9.19962C11.6612 9.07181 11.8244 9 11.9945 9C12.1645 9 12.3277 9.07181 12.4479 9.19962L16.8009 13.8263C16.9696 13.9968 17.0379 14.2511 16.9794 14.4905C16.9208 14.7298 16.7446 14.9167 16.5192 14.9784C16.2937 15.0402 16.0544 14.9672 15.8941 14.7877L11.9945 10.6426L8.09478 14.7877C7.97479 14.9158 7.81179 14.9879 7.6417 14.9882C7.47161 14.9885 7.30838 14.917 7.18796 14.7894Z"
        fill="#1C1B1F" />
</svg>