<svg width="24" height="24" viewBox="0 0 24 24" fill="none" xmlns="http://www.w3.org/2000/svg">
<path fill-rule="evenodd" clip-rule="evenodd" d="M18.9189 18.4424V20.5194C18.9189 20.7634 18.7059 20.9634 18.4429 20.9634H5.66188C5.39888 20.9634 5.18688 20.7634 5.18688 20.5194V18.4424C5.18688 14.8544 8.26688 11.9354 12.0529 11.9354C13.8849 11.9354 15.6089 12.6134 16.9069 13.8444C18.2049 15.0754 18.9199 16.7084 18.9189 18.4424ZM12.0529 10.7944C7.61188 10.7944 3.99988 14.2254 3.99988 18.4424V20.5194C3.99988 21.3934 4.74588 22.1044 5.66188 22.1044H18.4429C19.3589 22.1044 20.1059 21.3934 20.1059 20.5194V18.4424C20.1059 14.2254 16.4929 10.7944 12.0529 10.7944Z" fill="#000"/>
<path fill-rule="evenodd" clip-rule="evenodd" d="M8.60161 6.252C8.60161 4.536 10.0766 3.14 11.8896 3.14C13.7036 3.14 15.1776 4.536 15.1776 6.252C15.1776 7.968 13.7036 9.364 11.8896 9.364C10.0766 9.364 8.60161 7.968 8.60161 6.252ZM11.8896 10.505C14.3566 10.505 16.3636 8.597 16.3636 6.252C16.3636 3.907 14.3566 2 11.8896 2C9.42261 2 7.41461 3.907 7.41461 6.252C7.41461 8.597 9.42261 10.505 11.8896 10.505Z" fill="#000"/>
</svg>
