<svg width="57" height="43" viewBox="0 0 57 43" fill="none" xmlns="http://www.w3.org/2000/svg">
<path id="Vector" d="M18.8204 5.97136C16.5552 5.67976 14.2604 5.64399 11.9585 5.8392C9.75209 6.09003 7.56601 6.60788 5.44531 7.36663C5.35059 7.40508 5.26032 7.43387 5.17469 7.4765L4.71019 7.67295C4.49814 7.75117 4.28609 7.8294 4.07403 7.90762C3.59967 8.00583 3.12431 7.98645 2.67524 7.86202C1.94044 7.66483 1.30769 7.2217 0.872468 6.58826C0.680091 6.31243 0.541638 5.9911 0.466398 5.65197C0.391158 5.31284 0.388217 4.9601 0.448679 4.61307C0.542022 4.41 0.603468 4.18055 0.678639 3.96913C0.897028 3.56585 1.22464 3.23621 1.61665 3.02986L2.02258 2.86505L2.08115 2.83341L2.1084 2.84594C4.07484 2.03971 6.11534 1.43151 8.18023 1.03364C9.39593 0.831096 10.5803 0.672724 11.815 0.572596C12.8685 0.459488 13.9048 0.455609 14.964 0.47393C17.2725 0.527729 19.5557 0.804164 21.7864 1.2907C24.0715 1.8023 26.2997 2.53368 28.439 3.45845C30.51 4.34014 32.4922 5.41524 34.3628 6.68505C36.3515 8.00915 38.2152 9.53347 39.9264 11.2219C40.8666 12.1695 41.7575 13.1764 42.5854 14.2246C43.2484 15.033 43.8618 15.8772 44.4347 16.7379C45.6814 18.6228 46.7482 20.6359 47.6121 22.7548C48.1064 23.9542 48.515 25.1962 48.8469 26.4615C49.2254 27.8888 49.5045 29.3407 49.6843 30.8172C49.7917 31.7567 49.8448 32.6948 49.8482 33.6451C50.3565 33.2814 50.8695 32.9316 51.3688 32.5637C51.6342 32.3694 51.8862 32.2042 52.1605 31.9906C52.2952 31.8651 52.4437 31.7576 52.5968 31.664L52.6463 31.6282C53.0926 31.4234 53.567 31.3252 54.0468 31.3349C54.5265 31.3446 54.9847 31.4732 55.3984 31.6985C55.8121 31.9238 56.1679 32.2513 56.4382 32.6449C56.7085 33.0386 56.8842 33.4942 56.9562 33.9841C57.0052 34.4283 56.914 34.89 56.6956 35.2933C56.4863 35.7008 56.1587 36.0304 55.7531 36.2422C54.6736 37.0345 53.5666 37.7907 52.478 38.5787C52.006 38.9591 51.579 39.3134 51.1114 39.6841C50.6439 40.0548 50.0822 40.5346 49.5926 40.9772C49.368 41.1785 49.1569 41.3743 48.9279 41.5853L48.7752 41.7259C48.5819 41.883 48.3704 42.0318 48.1634 42.1709C47.7308 42.3937 47.252 42.5016 46.7766 42.4822C46.2516 42.4752 45.748 42.3257 45.2977 42.0601C45.0159 41.9072 44.7609 41.7197 44.5463 41.4922C44.213 41.1398 43.9112 40.7669 43.6453 40.3635C43.1966 39.7356 42.7208 39.1186 42.2225 38.5265C41.4225 37.5614 40.6538 36.5521 39.8626 35.5677C39.6525 35.3305 39.4288 35.0988 39.2051 34.8672C38.8899 34.5232 38.5433 34.1999 38.1789 33.9152L37.7036 33.3688C37.438 32.989 37.2759 32.5514 37.2403 32.0782C37.2059 31.7461 37.2437 31.4004 37.3587 31.0785C37.4737 30.7565 37.6613 30.4679 37.9037 30.2279C38.1552 29.9921 38.4614 29.8049 38.7681 29.6882C39.0884 29.5661 39.4228 29.5089 39.7534 29.532L40.4783 29.631C40.9773 29.7666 41.4364 30.0128 41.815 30.3625C42.1019 30.5764 42.3573 30.8109 42.6128 31.069C42.8912 31.3492 43.1606 31.6253 43.4254 31.911C43.7496 32.2592 44.0559 32.6225 44.3621 32.9858C44.308 31.3796 44.1184 29.8049 43.7886 28.2477C43.2544 26.0578 42.4902 23.9613 41.505 21.9623C40.4106 19.8897 39.1001 17.952 37.5874 16.1908C35.9748 14.3836 34.1873 12.7655 32.2385 11.3543C30.2128 9.94298 28.0442 8.74699 25.7688 7.78309C23.5259 6.91611 21.1945 6.28956 18.7974 5.92565" fill="#FFCB05"/>
</svg>


