<svg width="36" height="36" viewBox="0 0 36 36" fill="none" xmlns="http://www.w3.org/2000/svg">
<g id="icons/outlined/voice-bundles">
<path id="shape:icon" fill-rule="evenodd" clip-rule="evenodd" d="M33.2113 13.2304C33.2113 14.2963 32.3434 15.1643 31.2774 15.1643H29.4244C29.2545 15.1643 29.0911 15.2319 28.9707 15.3524L27.5384 16.778V15.8094C27.5384 15.453 27.2513 15.1643 26.8949 15.1643H20.5785C19.5126 15.1643 18.6447 14.2963 18.6447 13.2304V7.30013C18.6447 6.2342 19.5126 5.36627 20.5785 5.36627H31.2774C32.3434 5.36627 33.2113 6.2342 33.2113 7.30013V13.2304ZM31.2775 4.07758H20.5786C18.8015 4.07758 17.3544 5.52302 17.3544 7.30012V13.2304C17.3544 15.0075 18.8015 16.4529 20.5786 16.4529H26.2498V18.3307C26.2498 18.5897 26.4065 18.8257 26.6474 18.9247C26.7266 18.9577 26.8108 18.9742 26.8949 18.9742C27.0616 18.9742 27.2266 18.9099 27.3504 18.7861L29.6918 16.4529H31.2775C33.0546 16.4529 34.5 15.0075 34.5 13.2304V7.30012C34.5 5.52302 33.0546 4.07758 31.2775 4.07758Z" fill="#004F71"/>
<path id="Vector 3" d="M27 4.5L19.5 5L18 6V11.5L18.5 15L20.5 16H26.5L27 17.5L29.5 16L31.5 15.5L33.5 14L34 7L32.5 5L27 4.5Z" fill="#004F71"/>
<path id="shape:icon_2" fill-rule="evenodd" clip-rule="evenodd" d="M32.2145 30.2316C32.1782 30.2679 32.1419 30.3025 32.1056 30.3388C32.0924 30.324 32.0809 30.3091 32.066 30.2959L24.7398 22.9697L24.8454 22.8624C25.4889 22.2206 26.342 21.8658 27.2512 21.8658C28.1604 21.8658 29.0151 22.2206 29.6569 22.8624L32.2145 25.42C32.858 26.0619 33.2111 26.9166 33.2111 27.8258C33.2111 28.735 32.858 29.5897 32.2145 30.2316ZM19.1362 31.3371C13.5162 27.3539 8.64689 22.4846 4.66203 16.8645C1.78434 12.8038 2.24966 7.30414 5.76921 3.78459C6.41108 3.14272 7.2658 2.78796 8.17498 2.78796C9.08251 2.78796 9.93723 3.14272 10.5808 3.78459L13.1367 6.34217C13.7802 6.98569 14.1333 7.84041 14.1333 8.74794C14.1333 9.65711 13.7802 10.5118 13.1367 11.1537L13.0311 11.261L8.83005 7.05994C8.57924 6.80748 8.17003 6.80748 7.91922 7.05994C7.66677 7.31075 7.66677 7.71996 7.91922 7.97076L12.1186 12.1718L11.4157 12.8747C10.2738 14.0182 10.193 15.8134 11.2276 17.0543C13.5574 19.8462 16.1546 22.4433 18.9465 24.7716C20.1857 25.8061 21.9826 25.7269 23.1244 24.5834L23.8273 23.8805L31.1255 31.1787C27.6307 33.8089 22.7977 33.9326 19.1362 31.3371ZM30.5694 21.9516C28.7395 20.1217 25.7628 20.1217 23.9346 21.9516L22.2119 23.6726C21.5453 24.3392 20.4959 24.3871 19.7715 23.7832C17.039 21.5028 14.498 18.9601 12.2176 16.2276C11.6137 15.5032 11.6599 14.4538 12.3281 13.7872L14.0491 12.0662C15.8774 10.2363 15.8774 7.25958 14.0491 5.43133L11.4916 2.87376C10.6055 1.98768 9.42736 1.49927 8.17497 1.49927C6.92093 1.49927 5.7428 1.98768 4.85672 2.87376C2.94597 4.78451 1.76783 7.32064 1.54013 10.0135C1.31242 12.7064 2.04834 15.4042 3.61094 17.6087C7.67831 23.3492 12.6516 28.3208 18.3904 32.3898C20.3325 33.766 22.6574 34.5002 25.0236 34.5002C25.3437 34.5002 25.6655 34.487 25.9856 34.4606C28.6801 34.2329 31.2146 33.0548 33.1253 31.144C34.0114 30.258 34.4998 29.0782 34.4998 27.8258C34.4998 26.5734 34.0114 25.3953 33.1253 24.5075L30.5694 21.9516Z" fill="#004F71"/>
<path id="Vector 4" d="M22 24.5L25.5 22L26.5 21L28 21.5L32.5 24.5L34 27.5L33 29.5L31.5 32L26.5 33.5H22.5L16.5 30.5L7.5 21.5L2.5 15L2 9.5L4 5L7 2.5H9.5L13.5 5.5L15 8.5L14 11.5L11 14.5L12 17L16.5 21.5L20.5 25L22 24.5Z" fill="#004F71"/>
<g id="shape:icon_3">
<path fill-rule="evenodd" clip-rule="evenodd" d="M29.0537 9.62087C28.8837 9.62087 28.717 9.69017 28.5982 9.80897C28.4778 9.92942 28.4085 10.0961 28.4085 10.266C28.4085 10.4343 28.4778 10.601 28.5982 10.7214C28.717 10.8403 28.8837 10.9096 29.0537 10.9096C29.2236 10.9096 29.3903 10.8403 29.5091 10.7214C29.6295 10.601 29.6988 10.4343 29.6988 10.266C29.6988 10.0961 29.6295 9.92942 29.5091 9.80897C29.3903 9.69017 29.2236 9.62087 29.0537 9.62087" fill="white"/>
<path d="M29.0537 9.62087C28.8837 9.62087 28.717 9.69017 28.5982 9.80897C28.4778 9.92942 28.4085 10.0961 28.4085 10.266C28.4085 10.4343 28.4778 10.601 28.5982 10.7214C28.717 10.8403 28.8837 10.9096 29.0537 10.9096C29.2236 10.9096 29.3903 10.8403 29.5091 10.7214C29.6295 10.601 29.6988 10.4343 29.6988 10.266C29.6988 10.0961 29.6295 9.92942 29.5091 9.80897C29.3903 9.69017 29.2236 9.62087 29.0537 9.62087" stroke="white" stroke-width="0.33001"/>
</g>
<g id="shape:icon_4">
<path fill-rule="evenodd" clip-rule="evenodd" d="M25.9313 9.62087C25.7614 9.62087 25.5947 9.69017 25.4759 9.80897C25.3554 9.92942 25.2861 10.0961 25.2861 10.266C25.2861 10.4343 25.3554 10.601 25.4759 10.7214C25.5964 10.8403 25.7614 10.9096 25.9313 10.9096C26.1013 10.9096 26.2679 10.8403 26.3867 10.7214C26.5072 10.601 26.5765 10.4343 26.5765 10.266C26.5765 10.0961 26.5072 9.92942 26.3867 9.80897C26.2679 9.69017 26.1013 9.62087 25.9313 9.62087" fill="white"/>
<path d="M25.9313 9.62087C25.7614 9.62087 25.5947 9.69017 25.4759 9.80897C25.3554 9.92942 25.2861 10.0961 25.2861 10.266C25.2861 10.4343 25.3554 10.601 25.4759 10.7214C25.5964 10.8403 25.7614 10.9096 25.9313 10.9096C26.1013 10.9096 26.2679 10.8403 26.3867 10.7214C26.5072 10.601 26.5765 10.4343 26.5765 10.266C26.5765 10.0961 26.5072 9.92942 26.3867 9.80897C26.2679 9.69017 26.1013 9.62087 25.9313 9.62087" stroke="white" stroke-width="0.33001"/>
</g>
<g id="shape:icon_5">
<path fill-rule="evenodd" clip-rule="evenodd" d="M22.8099 9.62087C22.6399 9.62087 22.4749 9.69017 22.3545 9.80897C22.234 9.92942 22.1647 10.0961 22.1647 10.266C22.1647 10.4343 22.234 10.601 22.3545 10.7214C22.4749 10.8403 22.6399 10.9096 22.8099 10.9096C22.9798 10.9096 23.1465 10.8403 23.2653 10.7214C23.3857 10.601 23.455 10.4343 23.455 10.266C23.455 10.0961 23.3857 9.92942 23.2653 9.80897C23.1465 9.69017 22.9798 9.62087 22.8099 9.62087" fill="white"/>
<path d="M22.8099 9.62087C22.6399 9.62087 22.4749 9.69017 22.3545 9.80897C22.234 9.92942 22.1647 10.0961 22.1647 10.266C22.1647 10.4343 22.234 10.601 22.3545 10.7214C22.4749 10.8403 22.6399 10.9096 22.8099 10.9096C22.9798 10.9096 23.1465 10.8403 23.2653 10.7214C23.3857 10.601 23.455 10.4343 23.455 10.266C23.455 10.0961 23.3857 9.92942 23.2653 9.80897C23.1465 9.69017 22.9798 9.62087 22.8099 9.62087" stroke="white" stroke-width="0.33001"/>
</g>
</g>
</svg>
