<svg width="44" height="44" viewBox="0 0 44 44" fill="none" xmlns="http://www.w3.org/2000/svg">
<g clip-path="url(#clip0_1_12285)">
<path fill-rule="evenodd" clip-rule="evenodd" d="M34.32 23.43C33.98 23.43 33.64 23.43 33.3 23.43C33 23.43 32.79 23.63 32.78 23.93C32.77 24.29 32.77 24.65 32.78 25C32.79 25.29 32.99 25.48 33.28 25.49C33.46 25.49 33.64 25.49 33.82 25.49C33.98 25.49 34.14 25.49 34.31 25.49C34.64 25.48 34.84 25.29 34.86 24.96C34.87 24.62 34.87 24.28 34.86 23.94C34.85 23.62 34.65 23.43 34.33 23.42L34.32 23.43Z" fill="#004F71"/>
<path fill-rule="evenodd" clip-rule="evenodd" d="M38.87 14.83C38.51 13.7 37.52 13.02 36.25 13.02C33.63 13.02 31.02 13.02 28.4 13.02V6.89C28.4 4.74 26.65 3 24.5 3H9.9C7.75 3 6 4.74 6 6.89V36.44C6 38.59 7.75 40.33 9.9 40.33H24.5C26.65 40.33 28.4 38.58 28.4 36.44V29.66H30.41C32.36 29.66 34.32 29.66 36.27 29.66C37.21 29.66 37.99 29.33 38.51 28.54C38.74 28.2 38.83 27.77 38.99 27.39V15.3C38.95 15.15 38.91 14.99 38.86 14.83H38.87ZM31.77 23.64C31.87 23 32.4 22.47 33.05 22.41C33.55 22.36 34.07 22.36 34.58 22.41C35.31 22.48 35.86 23.13 35.89 23.88C35.9 24.24 35.89 24.6 35.89 24.95C35.89 25.79 35.32 26.44 34.5 26.52C34.04 26.56 33.56 26.56 33.1 26.52C32.33 26.44 31.79 25.81 31.76 25.04C31.76 24.85 31.76 24.67 31.76 24.48H31.78C31.78 24.2 31.74 23.92 31.78 23.65L31.77 23.64ZM11.41 5.3V4.4H12.81V5.3C12.81 5.68 13.12 5.99 13.5 5.99H20.9C21.28 5.99 21.59 5.68 21.59 5.3V4.4H22.99V5.3C22.99 6.45 22.05 7.38 20.9 7.39H13.5C12.35 7.39 11.41 6.45 11.41 5.3ZM26.95 29.65C23.58 29.65 20.21 29.65 16.85 29.65C15.59 29.65 14.6 28.98 14.24 27.85C14.15 27.56 14.11 27.25 14.11 26.94C14.11 23.2 14.11 19.45 14.11 15.71C14.11 14.13 15.23 13.01 16.81 13.01C18.33 13.01 19.86 13.01 21.38 13.01C23.24 13.01 25.1 13.01 26.96 13.01H28.4V14.01H16.63C15.8 14.01 15.13 14.68 15.13 15.51V16.07H30.49H31.49H37.95V17.18H32.53H29.77H15.15H15.13V19.19H15.15H30.48H31.48H37.94V20.3H31.62H28.62H15.14H15.12V27.13C15.12 27.96 15.79 28.63 16.62 28.63H28.39V29.64H26.95V29.65ZM17.58 25.53C17.68 25.5 17.79 25.5 17.89 25.5C18.87 25.5 19.85 25.5 20.83 25.5H23.74C23.81 25.5 23.89 25.5 23.96 25.5C24.27 25.53 24.46 25.74 24.46 26.02C24.46 26.3 24.26 26.51 23.95 26.54C23.9 26.54 23.85 26.54 23.8 26.54C21.82 26.54 19.83 26.54 17.85 26.54C17.75 26.54 17.65 26.54 17.56 26.5C17.34 26.44 17.2 26.23 17.2 26.01C17.2 25.78 17.35 25.58 17.57 25.52L17.58 25.53ZM17.21 23.94C17.21 23.66 17.42 23.43 17.72 23.43C18.19 23.43 18.66 23.43 19.13 23.43C19.71 23.43 20.28 23.43 20.86 23.43C21.87 23.43 22.88 23.43 23.9 23.43C24.21 23.43 24.41 23.58 24.47 23.82C24.54 24.16 24.32 24.45 23.96 24.46C23.57 24.46 23.18 24.46 22.79 24.46H17.96C17.89 24.46 17.81 24.46 17.74 24.46C17.45 24.44 17.23 24.22 17.23 23.94H17.21Z" fill="#004F71"/>
</g>
<defs>
<clipPath id="clip0_1_12285">
<rect width="33" height="37.34" fill="white" transform="translate(6 3)"/>
</clipPath>
</defs>
</svg>
