<svg width="320" height="340" viewBox="0 0 320 340" fill="none" xmlns="http://www.w3.org/2000/svg">
<mask id="mask0_4_27390" style="mask-type:alpha" maskUnits="userSpaceOnUse" x="0" y="0" width="320" height="340">
<rect width="320" height="340" fill="#C4C4C4"/>
</mask>
<g mask="url(#mask0_4_27390)">
</g>
<g clip-path="url(#clip0_4_27390)">
<path d="M240.104 80H166.936C157.605 80 150.04 87.5681 150.04 96.9039V281.002C150.04 290.338 157.605 297.906 166.936 297.906H240.104C249.435 297.906 257 290.338 257 281.002V96.9039C257 87.5681 249.435 80 240.104 80Z" fill="#063241"/>
<path d="M237.555 85.6836H169.738C162.055 85.6836 155.827 91.9147 155.827 99.6012V276.888C155.827 284.575 162.055 290.806 169.738 290.806H237.555C245.238 290.806 251.466 284.575 251.466 276.888V99.6012C251.466 91.9147 245.238 85.6836 237.555 85.6836Z" fill="white"/>
<path d="M219.568 82.8101H188.605C186.681 82.8101 185.121 84.371 185.121 86.2965V90.7267C185.121 92.6522 186.681 94.2132 188.605 94.2132H219.568C221.492 94.2132 223.053 92.6522 223.053 90.7267V86.2965C223.053 84.371 221.492 82.8101 219.568 82.8101Z" fill="#063241"/>
<path d="M182.319 155.652C191.44 155.652 198.835 148.254 198.835 139.128C198.835 130.002 191.44 122.604 182.319 122.604C173.197 122.604 165.803 130.002 165.803 139.128C165.803 148.254 173.197 155.652 182.319 155.652Z" fill="#0F6987"/>
<path opacity="0.41" d="M168.957 148.841C171.304 152.045 174.726 154.295 178.596 155.18C182.466 156.066 186.526 155.527 190.031 153.662C193.536 151.797 196.253 148.732 197.684 145.027C199.114 141.322 199.163 137.225 197.821 133.487C187.85 137.918 178.204 143.049 168.957 148.841Z" fill="#063241"/>
<path d="M115.579 146.327C117.542 146.327 119.134 144.867 119.134 143.066C119.134 141.265 117.542 139.805 115.579 139.805C113.615 139.805 112.023 141.265 112.023 143.066C112.023 144.867 113.615 146.327 115.579 146.327Z" fill="white"/>
<path d="M134.692 137.051C134.923 138.354 135.062 139.672 135.108 140.995C134.999 142.108 134.743 143.203 134.348 144.249C133.96 145.397 130.659 149.229 130.278 149.292C129.7 149.192 129.141 148.999 128.624 148.721C127.852 148.86 127.057 148.77 126.336 148.461C125.385 147.954 124.09 145.911 123.147 145.911C122.203 145.911 120.683 146.207 120.464 146.207C120.246 146.207 120.204 145.313 119.57 145.313C118.937 145.313 118.275 145.629 117.81 145.629C116.762 145.969 115.745 146.398 114.769 146.911C114.769 146.911 116.367 145.608 116.881 142.312V141.735C116.881 141.735 116.374 142.312 116.177 141.608C115.98 140.903 116.24 140.241 115.67 139.107C115.491 138.797 115.388 138.448 115.372 138.09C115.357 137.732 115.427 137.376 115.579 137.051L117.367 138.967L117.254 137.917C117.254 137.917 118.902 134.734 121.126 134.283C122.581 133.916 124.075 133.725 125.576 133.712C127.096 133.712 127.167 132.754 129.384 131.543C131.602 130.331 133.707 130.451 133.897 131.219C134.366 133.13 134.633 135.084 134.692 137.051Z" fill="#91693C"/>
<path d="M117.958 139.044C117.958 139.044 119.021 133.691 122.302 134.818C125.582 135.945 124.9 137.825 126.096 137.248C127.293 136.67 129.511 130.571 130.672 130.36C131.834 130.148 132.96 128.324 130.672 129.338C128.384 130.353 130.525 131.008 128.384 130.36C126.244 129.712 126.8 128.599 123.829 129.035C120.859 129.472 121.084 128.979 118.901 130.064C116.719 131.148 117.071 131.592 115.086 131.663C113.1 131.733 111.882 133.473 113.023 135.219C114.163 136.966 117.958 139.044 117.958 139.044Z" fill="url(#paint0_linear_4_27390)"/>
<path d="M116.832 138.797L118.352 140.262C118.352 140.262 118.908 133.965 123.942 136.445L125.779 137.656L126.336 136.769C125.567 135.881 124.603 135.184 123.52 134.733C121.633 133.902 120.274 133.965 119.394 134.733C118.514 135.501 117.796 138.339 117.796 138.339L115.585 137.198L116.832 138.797Z" fill="#5F3919"/>
<path opacity="0.27" d="M116.219 146.285C117.829 146.285 119.134 144.979 119.134 143.369C119.134 141.758 117.829 140.453 116.219 140.453C114.61 140.453 113.305 141.758 113.305 143.369C113.305 144.979 114.61 146.285 116.219 146.285Z" fill="#662E22"/>
<path d="M120.464 139.389C120.464 139.389 119.69 138.544 121.788 138.762C123.886 138.98 125.561 141.157 127.258 139.389C128.955 137.621 128.617 133.909 128.617 133.909V133.479L125.843 137.656C125.843 137.656 124.555 135.874 123.097 135.909C121.64 135.945 120.176 137.05 120.464 139.389Z" fill="#6D3F1D"/>
<path d="M119.76 141.347C119.76 141.347 120.852 143.241 119.76 143.741C119.167 143.937 118.667 144.343 118.352 144.882L118.43 145.418L114.741 146.826C115.835 145.295 116.558 143.53 116.853 141.671C116.853 141.671 116.24 142.248 116.149 141.544C116.057 140.84 115.959 140.84 115.797 139.952C115.598 139.284 115.452 138.601 115.36 137.91C115.417 137.452 115.36 136.269 115.966 136.818C116.534 137.451 117.009 138.162 117.374 138.931L117.782 137.881C118.018 138.469 118.357 139.011 118.782 139.48C119.255 140.013 119.591 140.654 119.76 141.347Z" fill="#5F3919"/>
<path d="M129.947 142.206C129.947 142.206 131.355 143.474 131.707 143.939C132.059 144.404 132.411 145.045 132.306 145.108C132.416 146.094 132.185 147.089 131.651 147.925C130.686 149.334 130.757 149.447 129.947 149.299C129.46 149.214 129.003 149.003 128.624 148.686C128.624 148.686 128.145 149.158 128.427 148.059C128.708 146.96 129.307 145.763 129.307 144.847C129.307 143.932 128.912 141.643 129.947 142.206Z" fill="#6D3F1D"/>
<path d="M104.737 115.167C104.562 114.646 104.282 114.166 103.913 113.759C103.462 113.399 101.653 110.892 103.124 111.131C104.05 111.283 104.959 111.519 105.842 111.836C105.842 111.836 104.596 110.519 105.842 110.04C107.088 109.561 106.405 107.892 106.405 107.892L106.588 106.335C107.255 106.875 107.994 107.318 108.785 107.652C109.806 108.011 109.58 108.251 111.052 108.49C112.523 108.73 112.185 107.413 112.185 106.335C112.185 105.257 113.656 105.138 114.107 105.138C114.558 105.138 115.128 107.532 115.578 107.173C116.029 106.814 119.802 102.87 120.675 102.87C121.548 102.87 121.013 104.187 121.584 104.278C122.154 104.37 123.956 103.799 123.618 104.983C123.28 106.166 124.766 106.391 126.568 104.278C128.37 102.165 129.849 103.919 128.68 104.75C127.511 105.581 129.701 105.109 129.701 106.666V108.997C130.715 109.173 133.664 107.025 133.925 107.744C134.185 108.462 134.939 109.652 134.713 110.73C134.488 111.808 134.453 112.765 134.756 112.765C135.058 112.765 137.656 113.47 137.656 113.47C137.093 115.505 136.952 113.59 137.093 115.505C137.234 117.421 138.452 117.414 137.093 118.851C135.734 120.288 139.015 119.809 139.81 119.809C140.606 119.809 142.626 123.035 141.169 122.795C139.712 122.556 139.81 120.682 139.698 122.556C139.585 124.429 140.261 123.211 138.79 124.316C137.318 125.422 135.509 126.141 136.98 126.141C138.452 126.141 139.592 127.331 139.247 127.817C138.543 128.775 137.769 128.521 137.318 129.014C135.847 130.684 136.755 130.803 136.755 130.803C136.755 130.803 137.318 129.395 135.847 130.684C134.375 131.973 134.826 132.36 135.509 132.719C136.192 133.078 134.488 133.55 133.925 134.029C133.362 134.508 133.136 135.727 132.904 137.051L132.679 138.361C132.679 138.361 133.017 135.255 132.109 133.226C131.2 131.198 125.885 130.113 125.885 130.113C125.885 130.113 129.504 129.993 127.694 132.268C125.885 134.543 127.244 131.416 124.639 131.416C122.034 131.416 121.464 131.177 120.338 132.015C119.211 132.853 115.691 133.212 115.804 134.642C115.916 136.072 116.825 139.664 116.508 138.945C116.191 138.227 116.733 139.305 115.487 137.748C114.241 136.191 113.769 136.804 112.72 135.642C111.671 134.48 110.228 133.846 110.115 133.254C110.003 132.663 108.074 135.762 107.848 134.445C107.623 133.128 106.384 131.543 106.067 131.543C105.434 131.791 104.831 132.113 104.272 132.501C104.272 132.501 103.477 133.099 103.477 131.184C103.477 129.268 103.533 129.627 104.751 129.275C105.969 128.923 108.686 128.078 105.969 126.761C103.251 125.443 103.702 125.352 101.892 124.338C100.083 123.323 101.097 123.894 101.892 123.056C102.688 122.218 104.948 121.358 103.589 120.943C102.23 120.527 99.4144 117.548 100.879 116.477C102.343 115.407 105.103 117.794 104.737 115.167Z" fill="url(#paint1_linear_4_27390)"/>
<path d="M130.152 131.416C129.939 131.496 129.746 131.618 129.582 131.775C129.418 131.932 129.288 132.12 129.2 132.329C129.112 132.538 129.067 132.763 129.068 132.99C129.07 133.217 129.117 133.441 129.208 133.649C129.623 134.45 129.766 135.365 129.617 136.255C129.617 137.079 130.321 137.706 130.638 138.213C130.954 138.72 130.117 137.994 130.11 136.959C130.095 136.328 130.166 135.698 130.321 135.086C130.321 135.086 129.976 134.269 129.779 133.712C129.582 133.156 128.913 132.268 130.87 131.416H130.152Z" fill="#6D3F1D"/>
<path d="M131.588 140.037C130.707 140.037 130.546 139.494 130.539 139.466V139.431C130.539 139.431 130.926 138.67 130.539 138.304C130.28 137.974 130.096 137.591 129.998 137.182C129.901 136.774 129.893 136.349 129.975 135.938C129.984 135.696 130.034 135.458 130.123 135.233C130.215 134.987 130.236 134.937 129.68 133.768C129.545 133.548 129.464 133.299 129.446 133.042C129.428 132.784 129.472 132.526 129.574 132.289C129.686 132.116 129.835 131.969 130.01 131.859C130.186 131.75 130.383 131.68 130.588 131.655V131.831C130.411 131.856 130.241 131.918 130.089 132.012C129.938 132.107 129.808 132.233 129.708 132.381C129.619 132.592 129.582 132.821 129.602 133.05C129.622 133.278 129.697 133.498 129.82 133.691C130.391 134.895 130.384 134.987 130.271 135.29C130.189 135.496 130.141 135.715 130.13 135.938C130.054 136.325 130.059 136.723 130.147 137.108C130.234 137.492 130.401 137.854 130.637 138.17C131.052 138.579 130.75 139.29 130.637 139.459C130.693 139.586 130.982 140.051 132.094 139.804L132.13 139.973C131.952 140.013 131.77 140.034 131.588 140.037Z" fill="black"/>
<path d="M131.13 146.559C132.845 146.559 134.235 144.727 134.235 142.467C134.235 140.207 132.845 138.375 131.13 138.375C129.415 138.375 128.025 140.207 128.025 142.467C128.025 144.727 129.415 146.559 131.13 146.559Z" fill="white"/>
<path d="M131.426 145.418C132.464 145.418 133.305 144.226 133.305 142.756C133.305 141.285 132.464 140.093 131.426 140.093C130.387 140.093 129.546 141.285 129.546 142.756C129.546 144.226 130.387 145.418 131.426 145.418Z" fill="#6D3F1D"/>
<path d="M130.518 132.642C130.744 132.772 130.941 132.947 131.098 133.157C131.254 133.366 131.365 133.606 131.426 133.86C131.619 134.362 131.721 134.893 131.728 135.431C131.826 136.016 131.826 136.613 131.728 137.199L131.538 137.685C131.538 137.685 133.136 133.923 130.518 132.642Z" fill="#481E13"/>
<path d="M89.6075 305.005C89.6075 305.005 91.1141 301.484 91.6139 299.821C92.1138 298.159 94.1061 292.778 94.1061 292.778C94.1061 292.778 89.0373 291.475 88.1854 291.32C87.3336 291.165 84.4964 290.862 84.4964 290.862C84.4964 290.862 85.4046 289.933 84.4964 294.447C84.1289 296.477 83.6589 298.487 83.0884 300.469C83.0884 300.469 84.0881 298.131 86.2635 299.8C88.4388 301.47 89.6075 305.005 89.6075 305.005Z" fill="#773B30"/>
<path d="M139.923 298.976V310.358C139.923 310.358 149.779 312.696 147.78 313.175C145.781 313.654 133.073 312.168 133.073 312.168L130.729 298.976H139.923Z" fill="#773B30"/>
<path d="M83.0883 300.491C83.0883 300.491 73.7813 309.612 78.1392 315.676C82.497 321.74 89.6075 305.005 89.6075 305.005C89.6075 305.005 87.1998 295.18 83.0883 300.491Z" fill="black"/>
<path d="M133.073 312.196V316.204L150.582 317C150.582 317 154.412 316.824 152.567 314.598C150.723 312.372 147.104 309.189 142.176 310.921C142.176 310.921 149.864 313.408 148.822 313.302C147.78 313.196 133.073 312.196 133.073 312.196Z" fill="black"/>
<path d="M80.526 222.31C80.3438 223.095 80.3438 223.912 80.526 224.697C80.8287 226.106 82.0678 229.254 81.23 229.409C80.3922 229.564 80.1388 228.81 79.646 227.472C79.1532 226.134 78.6533 224.697 78.1535 225.585C77.6536 226.472 76.8581 231.093 75.6965 231.219C75.5296 231.257 75.3564 231.257 75.1896 231.219C74.5912 231.022 74.6827 230.233 74.4363 229.909C74.1899 229.585 74.1899 230.106 74.0913 228.867C73.8295 227.116 74.0738 225.327 74.7954 223.711C75.788 221.676 76.0837 221.232 76.0837 221.232C76.0837 221.232 75.7739 220.88 77.0411 221.338C78.3084 221.795 80.526 222.31 80.526 222.31Z" fill="#91693C"/>
<path d="M145.281 169.619C145.281 169.619 141.31 163.428 147.048 164.491C152.785 165.555 151.089 171.767 158.108 169.619C165.127 167.471 165.936 169.246 170.21 162.998C174.483 156.751 166.443 170.668 161.761 171.507C157.08 172.345 155.503 172.373 153.461 171.866C151.42 171.359 145.281 169.619 145.281 169.619Z" fill="#FFC310"/>
<path d="M88.6995 205.603C88.6995 205.603 88.277 203.702 88.6995 198.623C89.1219 193.545 90.4102 191.728 91.959 187.354C93.5078 182.98 93.7613 186.847 93.7613 180.156C93.7613 173.465 95.8733 163.9 97.3658 166.774C98.9076 169.83 98.3937 164.661 98.9076 169.83C99.4215 175 98.8372 182.72 98.8372 182.72C98.8372 182.72 90.3891 200.588 88.6995 205.603Z" fill="#FFC310"/>
<path d="M109.559 194.024C109.559 194.024 126.371 190.242 132.024 174.732C132.024 174.732 132.27 190.242 109.559 194.024Z" fill="#FFC310"/>
<path d="M165.711 105.799H168.133C168.491 105.792 168.848 105.813 169.203 105.863C169.428 105.896 169.642 105.98 169.829 106.109C170.022 106.239 170.182 106.413 170.294 106.616C170.421 106.829 170.487 107.073 170.484 107.321C170.482 107.599 170.401 107.87 170.25 108.104C170.099 108.337 169.885 108.522 169.632 108.638C169.969 108.723 170.268 108.916 170.484 109.187C170.682 109.448 170.787 109.768 170.78 110.096C170.779 110.375 170.714 110.649 170.59 110.899C170.472 111.15 170.29 111.367 170.062 111.526C169.818 111.688 169.537 111.785 169.245 111.807C169.041 111.807 168.541 111.843 167.774 111.85H165.711V105.799ZM166.929 106.807V108.215H167.731C168.201 108.215 168.496 108.215 168.618 108.215C168.802 108.199 168.976 108.122 169.111 107.997C169.171 107.934 169.218 107.86 169.248 107.779C169.278 107.698 169.292 107.612 169.287 107.525C169.296 107.358 169.24 107.195 169.132 107.067C169.011 106.943 168.848 106.867 168.675 106.856C168.555 106.856 168.203 106.856 167.626 106.856L166.929 106.807ZM166.929 109.215V110.828H168.055C168.335 110.84 168.615 110.828 168.893 110.793C169.074 110.772 169.239 110.682 169.354 110.541C169.47 110.401 169.527 110.221 169.513 110.04C169.515 109.875 169.469 109.713 169.379 109.575C169.284 109.445 169.151 109.349 168.999 109.3C168.642 109.226 168.278 109.197 167.914 109.215H166.929Z" fill="black"/>
<path d="M174.673 111.85V111.195C174.509 111.428 174.292 111.619 174.039 111.751C173.787 111.883 173.507 111.951 173.223 111.948C172.946 111.953 172.672 111.888 172.427 111.758C172.202 111.636 172.024 111.443 171.92 111.209C171.803 110.901 171.75 110.573 171.765 110.244V107.469H172.92V109.483C172.903 109.862 172.924 110.242 172.983 110.617C173.029 110.749 173.112 110.864 173.223 110.948C173.349 111.034 173.5 111.076 173.652 111.068C173.84 111.07 174.025 111.013 174.18 110.906C174.328 110.807 174.441 110.664 174.504 110.497C174.581 110.108 174.609 109.71 174.588 109.314V107.469H175.75V111.85H174.673Z" fill="black"/>
<path d="M176.412 107.469H177.651L178.693 110.582L179.721 107.469H180.918L179.369 111.695L179.094 112.455C179.021 112.661 178.924 112.857 178.806 113.04C178.723 113.17 178.615 113.282 178.489 113.371C178.354 113.462 178.204 113.529 178.045 113.568C177.852 113.615 177.653 113.639 177.454 113.639C177.234 113.637 177.015 113.613 176.799 113.568L176.694 112.66C176.856 112.694 177.021 112.713 177.187 112.716C177.298 112.727 177.411 112.71 177.515 112.669C177.619 112.627 177.711 112.561 177.785 112.477C177.922 112.296 178.022 112.09 178.081 111.871L176.412 107.469Z" fill="black"/>
<path d="M184.015 111.85V105.8H185.979C186.465 105.782 186.95 105.813 187.43 105.891C187.777 105.984 188.082 106.193 188.295 106.483C188.544 106.823 188.668 107.238 188.647 107.659C188.659 107.985 188.591 108.309 188.45 108.603C188.325 108.836 188.15 109.038 187.936 109.194C187.746 109.331 187.531 109.429 187.303 109.483C186.884 109.549 186.46 109.577 186.036 109.568H185.233V111.85H184.015ZM185.233 106.828V108.539H185.937C186.261 108.558 186.587 108.527 186.902 108.448C187.056 108.39 187.188 108.287 187.282 108.152C187.374 108.012 187.423 107.848 187.423 107.68C187.427 107.479 187.356 107.283 187.225 107.131C187.096 106.988 186.922 106.894 186.733 106.863C186.44 106.845 186.146 106.845 185.853 106.863L185.233 106.828Z" fill="black"/>
<path d="M190.752 111.85H189.591V107.469H190.668V108.089C190.795 107.865 190.965 107.669 191.168 107.511C191.318 107.418 191.491 107.369 191.668 107.37C191.939 107.37 192.204 107.446 192.435 107.588L192.076 108.603C191.915 108.488 191.724 108.422 191.527 108.413C191.379 108.407 191.234 108.454 191.119 108.546C190.98 108.673 190.886 108.841 190.851 109.025C190.766 109.511 190.733 110.005 190.752 110.497V111.85Z" fill="black"/>
<path d="M195.469 110.455L196.624 110.652C196.499 111.041 196.252 111.38 195.92 111.617C195.563 111.851 195.142 111.966 194.716 111.948C194.395 111.973 194.072 111.918 193.777 111.788C193.482 111.657 193.224 111.456 193.026 111.202C192.723 110.759 192.57 110.231 192.59 109.694C192.554 109.072 192.758 108.459 193.16 107.983C193.343 107.783 193.566 107.625 193.815 107.519C194.064 107.414 194.333 107.363 194.603 107.37C194.892 107.356 195.181 107.407 195.448 107.519C195.715 107.631 195.953 107.802 196.145 108.018C196.563 108.589 196.756 109.293 196.687 109.997H193.78C193.773 110.29 193.873 110.576 194.061 110.8C194.15 110.897 194.259 110.973 194.381 111.021C194.503 111.07 194.634 111.091 194.765 111.082C194.93 111.088 195.092 111.035 195.223 110.934C195.352 110.803 195.437 110.636 195.469 110.455ZM195.533 109.286C195.547 109.006 195.454 108.731 195.272 108.518C195.197 108.434 195.105 108.367 195.002 108.322C194.898 108.277 194.786 108.255 194.674 108.257C194.556 108.254 194.438 108.277 194.33 108.325C194.221 108.372 194.125 108.443 194.047 108.532C193.872 108.743 193.784 109.012 193.801 109.286H195.533Z" fill="black"/>
<path d="M197.596 107.469H198.68V108.11C198.825 107.889 199.02 107.705 199.25 107.574C199.493 107.438 199.767 107.367 200.046 107.37C200.292 107.368 200.537 107.42 200.761 107.524C200.985 107.628 201.183 107.779 201.341 107.969C201.719 108.44 201.907 109.035 201.869 109.638C201.907 110.253 201.716 110.86 201.334 111.343C201.175 111.533 200.976 111.687 200.751 111.791C200.525 111.896 200.28 111.95 200.032 111.948C199.806 111.95 199.582 111.902 199.377 111.807C199.142 111.68 198.932 111.511 198.757 111.307V113.519H197.596V107.469ZM198.743 109.582C198.714 109.969 198.819 110.354 199.039 110.673C199.121 110.782 199.228 110.871 199.35 110.932C199.472 110.993 199.606 111.025 199.743 111.026C199.877 111.03 200.011 111.003 200.133 110.947C200.255 110.891 200.363 110.807 200.447 110.702C200.652 110.387 200.746 110.013 200.714 109.638C200.743 109.273 200.644 108.909 200.433 108.61C200.35 108.503 200.243 108.418 200.12 108.36C199.998 108.302 199.864 108.275 199.729 108.279C199.594 108.277 199.461 108.306 199.339 108.363C199.217 108.42 199.109 108.505 199.025 108.61C198.814 108.888 198.714 109.234 198.743 109.582Z" fill="black"/>
<path d="M203.657 108.807L202.601 108.617C202.689 108.241 202.906 107.907 203.213 107.673C203.602 107.444 204.052 107.339 204.502 107.37C204.895 107.35 205.289 107.412 205.656 107.553C205.88 107.648 206.067 107.81 206.191 108.018C206.32 108.35 206.373 108.706 206.346 109.061V110.413C206.34 110.698 206.359 110.983 206.403 111.265C206.445 111.469 206.516 111.666 206.614 111.85H205.466C205.421 111.74 205.384 111.627 205.354 111.512L205.311 111.371C205.13 111.555 204.915 111.703 204.678 111.808C204.454 111.899 204.215 111.947 203.974 111.948C203.585 111.971 203.203 111.84 202.911 111.582C202.783 111.464 202.681 111.32 202.613 111.16C202.545 110.999 202.512 110.827 202.516 110.652C202.514 110.419 202.578 110.19 202.699 109.99C202.817 109.798 202.988 109.644 203.192 109.547C203.487 109.42 203.797 109.33 204.115 109.279C204.498 109.219 204.875 109.122 205.241 108.99V108.878C205.249 108.791 205.239 108.703 205.211 108.621C205.183 108.538 205.138 108.463 205.079 108.399C204.891 108.285 204.671 108.236 204.452 108.258C204.285 108.249 204.118 108.291 203.974 108.377C203.824 108.482 203.712 108.633 203.657 108.807ZM205.206 109.744C204.974 109.817 204.739 109.878 204.502 109.927C204.281 109.959 204.068 110.025 203.868 110.124C203.8 110.169 203.744 110.229 203.705 110.301C203.666 110.372 203.644 110.451 203.643 110.533C203.643 110.612 203.66 110.69 203.691 110.763C203.723 110.835 203.768 110.901 203.826 110.955C203.887 111.015 203.96 111.061 204.04 111.091C204.12 111.122 204.205 111.135 204.291 111.131C204.507 111.13 204.717 111.059 204.889 110.927C205.02 110.831 205.117 110.695 205.164 110.54C205.2 110.354 205.214 110.165 205.206 109.976V109.744Z" fill="black"/>
<path d="M207.487 106.877V105.799H208.648V106.877H207.487ZM207.487 111.85V107.469H208.648V111.85H207.487Z" fill="black"/>
<path d="M213.851 111.85H212.774V111.209C212.613 111.444 212.395 111.636 212.14 111.765C211.924 111.881 211.682 111.944 211.436 111.948C211.189 111.949 210.945 111.895 210.721 111.79C210.497 111.686 210.299 111.533 210.141 111.342C209.759 110.862 209.568 110.258 209.606 109.645C209.564 109.034 209.749 108.429 210.127 107.948C210.292 107.76 210.496 107.611 210.725 107.512C210.953 107.412 211.201 107.363 211.451 107.37C211.695 107.371 211.937 107.426 212.157 107.532C212.378 107.638 212.572 107.792 212.725 107.983V105.799H213.879L213.851 111.85ZM210.761 109.582C210.736 109.93 210.802 110.279 210.951 110.596C211.029 110.736 211.143 110.851 211.282 110.931C211.421 111.01 211.579 111.05 211.739 111.047C211.875 111.052 212.01 111.024 212.133 110.965C212.256 110.906 212.362 110.818 212.443 110.708C212.653 110.411 212.753 110.05 212.725 109.687C212.757 109.306 212.663 108.925 212.457 108.603C212.374 108.497 212.266 108.412 212.144 108.354C212.022 108.297 211.888 108.268 211.753 108.272C211.619 108.269 211.486 108.296 211.364 108.353C211.242 108.409 211.134 108.492 211.049 108.596C210.842 108.881 210.74 109.229 210.761 109.582Z" fill="black"/>
<path d="M100.457 294.757C100.457 294.757 123.548 265.563 121.07 240.946C121.07 240.946 125.456 250.103 124.506 257.85C123.555 265.598 128.026 298.997 128.026 298.997H141.683C141.683 298.997 148.815 262.069 148.815 254.688C148.815 247.306 145.64 198.644 145.64 198.644C145.64 198.644 138.311 197.876 124.935 202.715C111.559 207.554 97.8588 201.687 97.8588 201.687C97.8588 201.687 95.0428 229.015 96.4508 239.214C97.8588 249.412 87.2987 274.381 84.4827 279.304C81.6666 284.227 79.9136 290.904 84.4827 290.904C89.0517 290.904 100.457 294.757 100.457 294.757Z" fill="#0F6987"/>
<path d="M84.4967 290.883C84.4967 290.883 79.8009 291.877 82.7296 283.023C85.6583 274.17 86.7917 272.578 93.7614 255.935C93.7614 255.935 96.8379 246.778 96.4507 239.193C96.0635 231.607 97.8588 201.666 97.8588 201.666C97.8588 201.666 101.337 203.511 111.143 204.568C120.95 205.624 127.293 201.666 127.293 201.666C127.293 201.666 141.69 212.632 136.945 248.779C132.2 284.925 134.228 298.913 134.228 298.913L128.026 298.976C128.026 298.976 124.555 274.254 124.4 262.731C124.245 251.209 124.942 251.138 122.992 246.046L121.056 240.946C121.056 240.946 121.76 261.59 111.101 278.17L100.457 294.757C97.9575 293.845 95.4069 293.081 92.818 292.468C90.0734 291.797 87.2959 291.268 84.4967 290.883Z" fill="#063241"/>
<path d="M127.3 201.666C127.3 201.666 131.172 185.466 135.115 181.346C133.581 185.155 132.276 189.052 131.208 193.016C130.597 195.457 130.159 197.938 129.898 200.44L129.771 201.144C129.771 201.144 127.997 201.926 127.659 201.849L127.3 201.666Z" fill="#FAEB1B"/>
<path d="M129.384 131.564C129.212 133.322 128.908 135.064 128.476 136.776C127.589 140.819 124.717 139.199 120.795 140.453C116.874 141.706 119.535 145.291 119.535 145.291C119.535 145.291 116.388 145.756 115.579 146.32L114.769 146.911C115.752 145.295 116.465 143.53 116.881 141.685C116.881 141.685 116.128 142.643 116.177 141.558C116.152 141.356 116.112 141.156 116.057 140.96C115.98 140.671 115.966 140.586 115.825 139.967C115.607 139.441 115.469 138.885 115.417 138.318C115.473 137.776 115.255 137.516 115.473 137.776C115.691 138.037 116.494 138.974 116.494 138.974L116.198 137.051C116.6 137.47 117.033 137.859 117.494 138.213C117.789 138.368 118.198 137.185 118.423 136.417C118.648 135.649 119.908 133.233 122.358 134.346C124.808 135.459 126.322 136.332 126.336 136.797C126.35 137.262 129.384 131.564 129.384 131.564Z" fill="#6D3F1D"/>
<path d="M79.3153 222.021C79.1828 222.35 79.1237 222.703 79.1419 223.057C79.1601 223.411 79.2553 223.757 79.4209 224.071C80.011 225.119 80.4832 226.229 80.8289 227.381C80.8993 228.05 81.3358 228.508 81.2302 229.409C81.2302 229.409 81.6596 229.543 81.4414 228.106L81.1739 226.994C81.1739 226.994 80.8359 225.824 80.7515 225.514C80.433 224.612 80.3317 223.646 80.4558 222.697L80.5332 222.282L79.3153 222.021Z" fill="#5F3919"/>
<path d="M222.018 154.884C231.139 154.884 238.534 147.486 238.534 138.36C238.534 129.235 231.139 121.837 222.018 121.837C212.896 121.837 205.501 129.235 205.501 138.36C205.501 147.486 212.896 154.884 222.018 154.884Z" fill="#0F6987"/>
<path d="M178.44 135.529L177.736 136.403C177.691 136.468 177.633 136.524 177.566 136.566C177.499 136.609 177.425 136.638 177.347 136.651C177.268 136.664 177.188 136.661 177.111 136.643C177.034 136.624 176.962 136.591 176.898 136.544C176.833 136.494 176.78 136.43 176.742 136.358C176.704 136.286 176.682 136.207 176.678 136.125C176.673 136.044 176.686 135.962 176.715 135.886C176.745 135.81 176.79 135.741 176.849 135.684C177.419 134.98 177.989 134.325 178.566 133.649C178.618 133.564 178.69 133.494 178.777 133.446C178.863 133.398 178.96 133.372 179.059 133.372C179.158 133.372 179.255 133.398 179.342 133.446C179.428 133.494 179.5 133.564 179.552 133.649L181.171 135.642C181.237 135.695 181.29 135.763 181.327 135.84C181.364 135.916 181.383 136 181.383 136.085C181.383 136.17 181.364 136.254 181.327 136.33C181.291 136.407 181.238 136.475 181.172 136.528C181.106 136.582 181.029 136.62 180.947 136.64C180.864 136.66 180.778 136.661 180.695 136.644C180.612 136.626 180.534 136.591 180.467 136.539C180.399 136.488 180.344 136.422 180.305 136.346C180.091 136.074 179.856 135.82 179.601 135.586V144.242C179.601 144.622 179.46 144.834 179.172 144.904C179.082 144.927 178.987 144.927 178.897 144.905C178.807 144.882 178.724 144.839 178.654 144.777C178.585 144.715 178.532 144.637 178.499 144.55C178.467 144.463 178.456 144.369 178.468 144.277C178.468 143.369 178.468 142.453 178.468 141.537V135.811C178.454 135.748 178.447 135.677 178.44 135.529Z" fill="white"/>
<path d="M185.388 142.763C185.641 142.467 185.832 142.227 186.029 142.002C186.31 141.671 186.634 141.6 186.902 141.812C186.963 141.868 187.011 141.937 187.044 142.013C187.078 142.09 187.095 142.172 187.095 142.256C187.095 142.339 187.078 142.421 187.044 142.498C187.011 142.574 186.963 142.643 186.902 142.699C186.388 143.319 185.874 143.939 185.353 144.552C184.98 145.002 184.649 145.002 184.262 144.552L182.628 142.594C182.568 142.538 182.52 142.47 182.488 142.394C182.456 142.318 182.441 142.236 182.444 142.154C182.446 142.072 182.467 141.991 182.504 141.917C182.541 141.844 182.593 141.779 182.657 141.728C182.722 141.676 182.796 141.639 182.876 141.619C182.956 141.599 183.039 141.597 183.12 141.613C183.201 141.628 183.277 141.661 183.344 141.708C183.411 141.756 183.467 141.818 183.508 141.889C183.736 142.171 183.983 142.437 184.248 142.685V134.106C184.241 133.981 184.253 133.855 184.283 133.733C184.325 133.608 184.41 133.502 184.524 133.434C184.638 133.367 184.772 133.343 184.902 133.367C185.043 133.386 185.171 133.458 185.261 133.567C185.351 133.677 185.396 133.817 185.388 133.959C185.388 134.818 185.388 135.677 185.388 136.536V142.763Z" fill="white"/>
<path d="M177.024 145.186C177.024 145.186 175.799 137.438 177.024 137.635C178.249 137.832 178.256 138.642 178.256 140.037C178.256 141.432 178.813 142.439 179.263 140.453C179.714 138.466 181.608 134.818 183.008 135.346C184.409 135.874 183.565 137.579 183.677 138.755C183.79 139.931 183.748 140.262 183.825 141.157C183.903 142.051 182.114 143.84 181.608 145.186C181.393 146 180.87 146.7 180.15 147.137C179.896 147.197 179.63 147.197 179.376 147.137L177.024 145.186Z" fill="#5F3919"/>
<path d="M177.024 145.185C177.447 144.784 180.312 142.037 181.389 139.551C181.77 138.744 182.085 137.908 182.333 137.05C182.713 135.642 182.628 135.099 183.037 135.36C183.593 135.74 183.903 135.895 183.853 136.649C183.734 137.609 183.704 138.578 183.762 139.544C183.853 141.171 183.952 141.305 183.72 141.748C183.487 142.192 183.016 142.953 182.896 143.108C182.776 143.263 182.347 143.868 182.114 144.27C181.488 145.34 181.636 145.587 181.143 146.207C180.84 146.58 180.333 147.214 179.693 147.193C179.334 147.193 179.186 146.989 177.827 145.84L177.024 145.185Z" fill="#91693C"/>
<path opacity="0.41" d="M208.29 148.221C210.642 151.412 214.063 153.651 217.928 154.529C221.793 155.408 225.845 154.867 229.344 153.005C232.844 151.143 235.558 148.085 236.992 144.389C238.425 140.692 238.483 136.602 237.154 132.867C227.182 137.297 217.537 142.428 208.29 148.221Z" fill="#063241"/>
<path d="M217.294 144.798C217.421 144.227 217.54 143.699 217.66 143.171C217.752 142.791 217.829 142.41 217.935 142.037C217.963 141.96 217.966 141.876 217.944 141.798C217.921 141.719 217.873 141.65 217.808 141.6C216.895 140.819 216.281 139.747 216.069 138.565C215.936 137.82 215.979 137.055 216.194 136.33C216.41 135.604 216.791 134.94 217.308 134.388C218.403 133.15 219.898 132.338 221.532 132.092C222.597 131.879 223.694 131.887 224.756 132.115C225.818 132.343 226.822 132.785 227.706 133.416C228.309 133.815 228.825 134.333 229.221 134.939C229.617 135.545 229.885 136.225 230.008 136.938C230.154 137.716 230.107 138.519 229.871 139.275C229.636 140.031 229.219 140.718 228.657 141.276C227.944 142.02 227.083 142.606 226.13 142.997C225.177 143.387 224.153 143.574 223.123 143.544C222.504 143.544 221.891 143.424 221.272 143.368C221.119 143.358 220.965 143.379 220.821 143.432C219.758 143.847 218.709 144.277 217.632 144.699L217.294 144.798ZM218.188 143.763C219.061 143.41 219.871 143.058 220.694 142.762C220.891 142.696 221.1 142.675 221.307 142.699C221.588 142.699 221.863 142.805 222.145 142.833C223.121 142.97 224.116 142.905 225.066 142.643C226.017 142.38 226.903 141.924 227.671 141.304C228.205 140.91 228.642 140.401 228.952 139.814C229.262 139.227 229.435 138.578 229.46 137.914C229.484 137.251 229.359 136.591 229.093 135.983C228.827 135.375 228.428 134.834 227.924 134.402C226.628 133.295 224.995 132.66 223.291 132.603C221.588 132.545 219.915 133.068 218.547 134.085C217.931 134.522 217.434 135.108 217.101 135.787C216.769 136.466 216.613 137.218 216.646 137.973C216.684 138.597 216.853 139.206 217.142 139.761C217.43 140.315 217.832 140.803 218.322 141.192C218.463 141.3 218.566 141.451 218.617 141.622C218.667 141.792 218.663 141.975 218.603 142.143C218.427 142.685 218.322 143.199 218.188 143.784V143.763Z" fill="white"/>
<path d="M129.947 149.327C129.947 149.327 133.84 148.01 139.472 152.814C145.105 157.617 151.046 159.258 154.257 158.913C157.467 158.568 172.772 148.123 173.814 145.432C174.856 142.742 180.551 148.827 180.551 148.827C180.551 148.827 175.25 155.631 172.561 159.589C169.872 163.548 165.387 171.429 159.713 172.485C154.038 173.542 147.217 169.908 145.252 169.908C143.288 169.908 144.907 175.063 145.02 178.93C145.133 182.797 145.618 199.278 145.618 199.278C145.618 199.278 140.585 197.94 129.518 201.87C118.451 205.8 112.903 206.314 106.384 204.589C99.865 202.863 97.8937 202.377 97.8937 202.377L98.8653 189.601V183.212C98.8653 183.212 96.6828 182.508 89.8892 202.87L83.0955 223.296C83.0955 223.296 79.2164 223.535 76.5482 222.063C73.88 220.591 78.4913 193.32 78.4913 190.368C78.4913 187.417 86.4958 159.413 97.408 154.99C103.354 152.627 109.152 149.906 114.769 146.841C114.769 146.841 123.703 142.96 129.947 149.327Z" fill="#FAEB1B"/>
<path d="M145.21 185.037C145.21 185.037 140.486 175.127 135.115 181.952C135.115 181.952 131.503 185.473 129.546 202.835C129.546 202.835 128.624 205.195 117.493 205.392C106.363 205.589 100.351 203.61 97.8657 202.61L98.8372 183.368C98.8372 183.368 93.2966 195.109 91.6 199.476C89.9033 203.842 89.5443 203.321 88.7206 206.61C87.8969 209.9 86.3129 214.731 84.7007 219.655L83.0885 224.585C83.0885 224.585 83.0533 224.289 80.5471 223.613C78.0408 222.937 76.0907 222.514 76.0907 222.514C76.0907 222.514 75.619 220.958 75.7105 215.084C75.802 209.209 78.0901 193.446 78.4843 191.136C78.8786 188.826 81.0539 178.726 84.8204 171.45C88.5868 164.175 91.6915 157.92 95.634 156.068C99.5764 154.215 117.775 145.552 117.775 145.552C117.775 145.552 124.773 143.96 129.947 149.398C135.122 154.835 135.988 159.596 147.048 164.808C149.324 166.065 151.368 167.704 153.088 169.654C156.397 173.176 165.634 169.915 170.21 163.315C170.21 163.315 166.056 170.528 159.741 172.986C153.426 175.444 145.281 169.732 145.281 170.049C145.281 170.366 143.485 168.879 144.689 175.909C145.893 182.938 145.21 185.037 145.21 185.037Z" fill="#FFC310"/>
<path d="M181.08 208.089C190.201 208.089 197.596 200.691 197.596 191.566C197.596 182.44 190.201 175.042 181.08 175.042C171.958 175.042 164.563 182.44 164.563 191.566C164.563 200.691 171.958 208.089 181.08 208.089Z" fill="#0F6987"/>
<path opacity="0.41" d="M167.717 201.278C170.064 204.482 173.486 206.732 177.357 207.617C181.227 208.503 185.286 207.964 188.792 206.099C192.297 204.234 195.014 201.169 196.444 197.464C197.875 193.759 197.924 189.662 196.582 185.924C186.609 190.352 176.963 195.483 167.717 201.278Z" fill="#063241"/>
<path d="M183.015 183.283L180.967 190.854H184.93L178.116 201.462L180.164 193.89H176.201L183.015 183.276V183.283Z" fill="white"/>
<path d="M222.003 206.807C231.125 206.807 238.519 199.41 238.519 190.284C238.519 181.158 231.125 173.76 222.003 173.76C212.882 173.76 205.487 181.158 205.487 190.284C205.487 199.41 212.882 206.807 222.003 206.807Z" fill="#0F6987"/>
<path opacity="0.41" d="M208.642 199.996C210.989 203.2 214.411 205.45 218.281 206.336C222.151 207.221 226.211 206.682 229.716 204.817C233.221 202.952 235.938 199.887 237.369 196.182C238.799 192.477 238.848 188.38 237.506 184.642C227.536 189.075 217.89 194.206 208.642 199.996Z" fill="#063241"/>
<path d="M222.609 186.191C223.965 186.203 225.302 186.506 226.531 187.081C227.759 187.656 228.849 188.489 229.726 189.523C229.891 189.719 229.972 189.972 229.952 190.227C229.922 190.342 229.864 190.447 229.783 190.533C229.701 190.62 229.6 190.684 229.487 190.72C229.235 190.747 228.982 190.673 228.783 190.516C228.311 190.129 227.924 189.643 227.438 189.269C225.807 188.021 223.766 187.431 221.721 187.616C219.675 187.801 217.773 188.748 216.393 190.269C216.308 190.361 216.231 190.46 216.146 190.544C216.026 190.671 215.862 190.749 215.688 190.762C215.514 190.775 215.341 190.722 215.203 190.615C215.066 190.495 214.981 190.327 214.965 190.146C214.949 189.964 215.004 189.784 215.118 189.643C215.296 189.418 215.489 189.206 215.696 189.009C216.603 188.103 217.682 187.388 218.869 186.904C220.056 186.42 221.327 186.178 222.609 186.191Z" fill="white"/>
<path d="M227.988 191.876C227.826 192.087 227.713 192.354 227.523 192.425C227.288 192.473 227.045 192.456 226.819 192.376C226.72 192.376 226.643 192.207 226.558 192.115C226.045 191.549 225.419 191.097 224.721 190.788C224.022 190.479 223.267 190.319 222.503 190.319C221.74 190.319 220.984 190.479 220.286 190.788C219.588 191.097 218.962 191.549 218.448 192.115C218.399 192.171 218.357 192.228 218.3 192.284C218.25 192.377 218.179 192.458 218.093 192.52C218.007 192.582 217.908 192.624 217.804 192.643C217.7 192.661 217.593 192.656 217.491 192.627C217.389 192.598 217.294 192.547 217.215 192.477C217.135 192.407 217.073 192.319 217.032 192.222C216.991 192.124 216.972 192.018 216.978 191.912C216.984 191.806 217.013 191.703 217.064 191.61C217.115 191.517 217.186 191.437 217.272 191.375C217.966 190.548 218.847 189.899 219.842 189.481C221.168 188.921 222.637 188.793 224.039 189.115C225.442 189.438 226.708 190.194 227.657 191.277C227.781 191.468 227.892 191.668 227.988 191.876Z" fill="white"/>
<path d="M222.708 191.693C223.245 191.719 223.771 191.853 224.255 192.088C224.739 192.323 225.17 192.653 225.524 193.059C225.601 193.122 225.664 193.202 225.708 193.291C225.752 193.381 225.776 193.479 225.78 193.579C225.783 193.679 225.765 193.779 225.727 193.871C225.689 193.964 225.632 194.047 225.559 194.115C225.249 194.404 224.855 194.355 224.51 193.989C224.254 193.697 223.939 193.463 223.586 193.303C223.232 193.143 222.849 193.06 222.461 193.06C222.073 193.06 221.69 193.143 221.337 193.303C220.983 193.463 220.668 193.697 220.412 193.989C220.356 194.067 220.285 194.133 220.202 194.183C220.119 194.233 220.027 194.265 219.931 194.277C219.835 194.29 219.738 194.283 219.645 194.256C219.552 194.229 219.466 194.184 219.392 194.122C219.317 194.056 219.257 193.975 219.216 193.884C219.175 193.793 219.153 193.694 219.153 193.594C219.153 193.494 219.175 193.395 219.216 193.304C219.257 193.213 219.317 193.132 219.392 193.066C219.81 192.607 220.323 192.247 220.897 192.009C221.47 191.772 222.088 191.664 222.708 191.693Z" fill="white"/>
<path d="M222.468 197.186C222.198 197.179 221.936 197.093 221.715 196.937C221.494 196.782 221.323 196.565 221.225 196.313C221.127 196.061 221.105 195.786 221.162 195.521C221.22 195.257 221.354 195.016 221.548 194.828C221.742 194.639 221.987 194.512 222.253 194.463C222.519 194.414 222.793 194.444 223.042 194.55C223.29 194.656 223.502 194.833 223.651 195.059C223.799 195.285 223.878 195.55 223.876 195.82C223.879 196.004 223.843 196.186 223.773 196.355C223.702 196.525 223.598 196.678 223.466 196.806C223.334 196.934 223.178 197.033 223.006 197.099C222.835 197.164 222.652 197.194 222.468 197.186Z" fill="white"/>
</g>
<defs>
<linearGradient id="paint0_linear_4_27390" x1="122.288" y1="128.93" x2="122.288" y2="139.044" gradientUnits="userSpaceOnUse">
<stop stop-color="#42210B"/>
<stop offset="0.13" stop-color="#391C09"/>
<stop offset="0.34" stop-color="#1F1005"/>
<stop offset="0.55"/>
<stop offset="0.87"/>
<stop offset="0.99"/>
</linearGradient>
<linearGradient id="paint1_linear_4_27390" x1="2856.15" y1="3134.98" x2="2856.15" y2="1276.58" gradientUnits="userSpaceOnUse">
<stop stop-color="#42210B"/>
<stop offset="0.13" stop-color="#391C09"/>
<stop offset="0.34" stop-color="#1F1005"/>
<stop offset="0.55"/>
<stop offset="0.87"/>
<stop offset="0.99"/>
</linearGradient>
<clipPath id="clip0_4_27390">
<rect width="183" height="237" fill="white" transform="translate(74 80)"/>
</clipPath>
</defs>
</svg>
