<svg width="320" height="340" viewBox="0 0 320 340" fill="none" xmlns="http://www.w3.org/2000/svg">
<mask id="mask0_4_27482" style="mask-type:alpha" maskUnits="userSpaceOnUse" x="0" y="0" width="320" height="340">
<rect width="320" height="340" fill="#C4C4C4"/>
</mask>
<g mask="url(#mask0_4_27482)">
</g>
<g clip-path="url(#clip0_4_27482)">
<path d="M232.389 247.188H75.4359C69.9062 247.188 64.6029 244.992 60.6928 241.083C56.7826 237.173 54.5859 231.871 54.5859 226.342V122.847C54.5859 117.318 56.7826 112.015 60.6928 108.106C64.6029 104.196 69.9062 102 75.4359 102H232.389C237.918 102.001 243.22 104.198 247.128 108.108C251.037 112.017 253.233 117.319 253.233 122.847V226.342C253.233 231.87 251.037 237.171 247.128 241.081C243.22 244.99 237.918 247.187 232.389 247.188Z" fill="#D3D3D3"/>
<path d="M181.928 200.742H155.282C149.811 200.654 144.594 198.419 140.756 194.52C136.918 190.62 134.768 185.369 134.768 179.898C134.768 174.427 136.918 169.175 140.756 165.276C144.594 161.376 149.811 159.142 155.282 159.053H181.928C184.694 159.009 187.441 159.515 190.009 160.543C192.578 161.57 194.916 163.099 196.887 165.039C198.859 166.979 200.425 169.291 201.494 171.842C202.563 174.394 203.113 177.132 203.113 179.898C203.113 182.664 202.563 185.402 201.494 187.953C200.425 190.504 198.859 192.817 196.887 194.757C194.916 196.697 192.578 198.225 190.009 199.253C187.441 200.28 184.694 200.786 181.928 200.742Z" fill="#004F71"/>
<path d="M140.903 178.027L141.583 177.967C141.6 178.204 141.676 178.432 141.805 178.631C141.941 178.82 142.129 178.966 142.345 179.053C142.608 179.164 142.891 179.219 143.177 179.215C143.424 179.218 143.669 179.176 143.901 179.09C144.084 179.027 144.245 178.913 144.365 178.761C144.464 178.626 144.517 178.464 144.516 178.297C144.52 178.135 144.468 177.977 144.371 177.848C144.241 177.7 144.073 177.589 143.884 177.53C143.739 177.476 143.415 177.384 142.918 177.265C142.559 177.191 142.21 177.079 141.875 176.93C141.641 176.818 141.441 176.644 141.297 176.428C141.17 176.226 141.104 175.991 141.108 175.753C141.107 175.48 141.188 175.212 141.34 174.986C141.505 174.739 141.743 174.55 142.021 174.446C142.335 174.319 142.671 174.257 143.009 174.262C143.379 174.252 143.747 174.319 144.09 174.457C144.378 174.569 144.625 174.767 144.797 175.024C144.962 175.279 145.054 175.574 145.062 175.877L144.376 175.931C144.369 175.783 144.332 175.638 144.268 175.505C144.204 175.371 144.114 175.252 144.003 175.153C143.716 174.987 143.39 174.899 143.058 174.899C142.726 174.899 142.4 174.987 142.113 175.153C142.021 175.218 141.946 175.304 141.895 175.403C141.843 175.503 141.816 175.614 141.816 175.726C141.813 175.816 141.831 175.907 141.867 175.99C141.904 176.073 141.958 176.147 142.026 176.206C142.356 176.407 142.724 176.537 143.107 176.59C143.515 176.672 143.916 176.788 144.306 176.936C144.584 177.048 144.825 177.235 145.003 177.476C145.155 177.704 145.234 177.973 145.229 178.248C145.229 178.538 145.142 178.822 144.981 179.063C144.808 179.326 144.562 179.532 144.273 179.658C143.945 179.802 143.589 179.874 143.231 179.868C142.81 179.882 142.391 179.809 141.999 179.652C141.679 179.522 141.406 179.298 141.216 179.009C141.022 178.718 140.913 178.377 140.903 178.027Z" fill="white"/>
<path d="M148.794 178.502L149.48 178.588C149.385 178.958 149.166 179.284 148.859 179.511C148.532 179.743 148.136 179.859 147.736 179.841C147.483 179.853 147.231 179.811 146.997 179.718C146.762 179.625 146.55 179.483 146.374 179.301C146.019 178.891 145.838 178.357 145.872 177.816C145.837 177.258 146.019 176.708 146.38 176.282C146.549 176.102 146.754 175.961 146.983 175.868C147.211 175.774 147.457 175.731 147.703 175.742C147.944 175.735 148.183 175.779 148.404 175.873C148.626 175.966 148.825 176.105 148.989 176.282C149.338 176.701 149.516 177.238 149.486 177.783C149.486 177.826 149.486 177.886 149.486 177.961H146.563C146.56 178.324 146.689 178.675 146.925 178.95C147.03 179.062 147.157 179.152 147.299 179.211C147.44 179.271 147.593 179.299 147.746 179.295C147.97 179.301 148.19 179.235 148.373 179.106C148.569 178.95 148.715 178.74 148.794 178.502ZM146.634 177.421H148.794C148.787 177.155 148.698 176.897 148.54 176.681C148.443 176.557 148.319 176.458 148.176 176.391C148.033 176.325 147.877 176.293 147.719 176.298C147.577 176.295 147.436 176.32 147.303 176.372C147.17 176.424 147.049 176.502 146.947 176.6C146.736 176.824 146.616 177.119 146.612 177.427L146.634 177.421Z" fill="white"/>
<path d="M150.312 179.765V175.844H150.912V176.384C151.045 176.176 151.23 176.007 151.449 175.893C151.668 175.779 151.913 175.725 152.16 175.736C152.384 175.734 152.607 175.778 152.813 175.866C152.989 175.935 153.142 176.051 153.256 176.201C153.359 176.348 153.429 176.516 153.462 176.692C153.494 176.905 153.506 177.12 153.499 177.335V179.749H152.835V177.362C152.843 177.158 152.817 176.953 152.759 176.757C152.705 176.622 152.609 176.508 152.484 176.433C152.342 176.353 152.182 176.312 152.019 176.314C151.749 176.309 151.487 176.406 151.285 176.584C151.165 176.724 151.076 176.886 151.023 177.062C150.97 177.238 150.955 177.423 150.977 177.605V179.765H150.312Z" fill="white"/>
<path d="M157.064 179.766V179.269C156.952 179.453 156.792 179.604 156.603 179.706C156.413 179.809 156.199 179.859 155.984 179.852C155.676 179.854 155.375 179.763 155.12 179.593C154.854 179.414 154.642 179.166 154.509 178.875C154.359 178.535 154.285 178.166 154.293 177.794C154.285 177.424 154.353 177.057 154.493 176.714C154.606 176.416 154.81 176.161 155.076 175.985C155.336 175.814 155.64 175.724 155.951 175.726C156.171 175.724 156.388 175.775 156.583 175.877C156.76 175.974 156.915 176.106 157.037 176.266V174.327H157.696V179.728L157.064 179.766ZM154.963 177.811C154.931 178.211 155.044 178.61 155.282 178.934C155.37 179.047 155.483 179.139 155.612 179.202C155.741 179.265 155.883 179.298 156.027 179.298C156.171 179.298 156.313 179.265 156.442 179.202C156.571 179.139 156.684 179.047 156.772 178.934C156.996 178.62 157.103 178.238 157.075 177.854C157.11 177.435 156.999 177.017 156.762 176.671C156.672 176.554 156.557 176.458 156.425 176.393C156.293 176.327 156.148 176.293 156 176.293C155.857 176.292 155.716 176.325 155.588 176.387C155.459 176.45 155.347 176.542 155.26 176.655C155.031 176.995 154.926 177.403 154.963 177.811Z" fill="white"/>
<path d="M163.919 179.128C163.721 179.356 163.479 179.54 163.206 179.668C162.942 179.792 162.654 179.855 162.363 179.852C162.117 179.865 161.872 179.823 161.644 179.729C161.416 179.636 161.211 179.493 161.045 179.312C160.794 179.03 160.654 178.668 160.651 178.291C160.649 177.96 160.764 177.639 160.975 177.384C161.24 177.077 161.571 176.834 161.942 176.671C161.752 176.465 161.588 176.237 161.456 175.99C161.378 175.832 161.336 175.659 161.331 175.483C161.332 175.322 161.367 175.164 161.433 175.018C161.499 174.872 161.595 174.741 161.715 174.635C161.976 174.394 162.322 174.266 162.676 174.278C163.011 174.267 163.337 174.387 163.584 174.613C163.696 174.718 163.785 174.845 163.845 174.987C163.906 175.128 163.936 175.28 163.935 175.434C163.935 175.974 163.595 176.384 162.914 176.752L163.881 177.988C164.002 177.75 164.089 177.495 164.14 177.232L164.832 177.378C164.739 177.793 164.577 178.19 164.351 178.55C164.588 178.869 164.874 179.148 165.199 179.376L164.751 179.917C164.436 179.696 164.156 179.43 163.919 179.128ZM163.503 178.588L162.282 177.081C162.004 177.229 161.757 177.431 161.558 177.675C161.443 177.832 161.377 178.02 161.369 178.215C161.38 178.466 161.471 178.706 161.629 178.901C161.715 179.016 161.828 179.108 161.958 179.169C162.088 179.23 162.231 179.258 162.374 179.252C162.592 179.248 162.805 179.184 162.99 179.069C163.196 178.955 163.372 178.794 163.503 178.599V178.588ZM162.568 176.293C162.775 176.181 162.958 176.03 163.109 175.85C163.19 175.722 163.233 175.574 163.233 175.423C163.235 175.34 163.221 175.257 163.192 175.179C163.162 175.101 163.117 175.03 163.06 174.969C163.002 174.913 162.934 174.869 162.859 174.839C162.783 174.81 162.703 174.795 162.622 174.797C162.54 174.794 162.458 174.808 162.381 174.838C162.304 174.868 162.234 174.912 162.174 174.969C162.116 175.024 162.071 175.091 162.04 175.164C162.009 175.237 161.994 175.317 161.996 175.396C161.998 175.486 162.02 175.575 162.061 175.655C162.107 175.764 162.171 175.864 162.25 175.952L162.568 176.293Z" fill="white"/>
<path d="M168.067 179.765V174.365H170.466C170.832 174.351 171.197 174.4 171.546 174.51C171.798 174.609 172.009 174.79 172.146 175.023C172.296 175.269 172.375 175.551 172.372 175.839C172.381 176.2 172.247 176.549 172 176.811C171.686 177.106 171.279 177.284 170.849 177.313C171.006 177.382 171.151 177.473 171.281 177.583C171.509 177.797 171.709 178.038 171.875 178.302L172.815 179.776H171.913L171.2 178.647C170.991 178.323 170.811 178.075 170.66 177.902C170.558 177.764 170.436 177.642 170.298 177.54C170.196 177.477 170.085 177.429 169.969 177.4C169.836 177.385 169.702 177.385 169.569 177.4H168.743V179.803L168.067 179.765ZM168.786 176.741H170.325C170.585 176.751 170.844 176.717 171.092 176.638C171.266 176.582 171.414 176.467 171.514 176.314C171.608 176.17 171.657 176.001 171.654 175.828C171.657 175.709 171.633 175.591 171.586 175.482C171.538 175.373 171.468 175.275 171.379 175.196C171.124 175.012 170.812 174.924 170.498 174.948H168.786V176.741Z" fill="white"/>
<path d="M176.116 178.502L176.802 178.588C176.713 178.959 176.502 179.288 176.202 179.523C175.874 179.754 175.479 179.869 175.079 179.852C174.826 179.864 174.573 179.822 174.337 179.728C174.102 179.635 173.889 179.493 173.712 179.312C173.356 178.902 173.176 178.369 173.21 177.827C173.176 177.268 173.36 176.719 173.723 176.293C173.891 176.113 174.095 175.972 174.323 175.879C174.55 175.786 174.795 175.743 175.041 175.753C175.281 175.746 175.52 175.79 175.742 175.883C175.964 175.976 176.163 176.116 176.326 176.293C176.681 176.71 176.859 177.248 176.823 177.794V177.973H173.896C173.887 178.337 174.012 178.693 174.247 178.972C174.351 179.084 174.478 179.174 174.62 179.233C174.762 179.293 174.914 179.321 175.068 179.317C175.29 179.323 175.508 179.257 175.689 179.128C175.892 178.968 176.041 178.749 176.116 178.502ZM173.955 177.422H176.148C176.14 177.155 176.052 176.897 175.894 176.682C175.797 176.558 175.672 176.459 175.529 176.392C175.387 176.326 175.23 176.294 175.073 176.298C174.931 176.295 174.789 176.321 174.657 176.373C174.524 176.424 174.403 176.502 174.301 176.601C174.078 176.82 173.947 177.115 173.933 177.427L173.955 177.422Z" fill="white"/>
<path d="M180.188 178.329L180.842 178.415C180.796 178.828 180.604 179.211 180.302 179.495C180 179.749 179.616 179.883 179.222 179.873C178.98 179.882 178.74 179.838 178.517 179.745C178.294 179.651 178.094 179.511 177.931 179.333C177.578 178.914 177.402 178.373 177.439 177.826C177.43 177.445 177.502 177.066 177.65 176.714C177.777 176.411 178.004 176.159 178.292 176.001C178.577 175.84 178.9 175.756 179.227 175.758C179.603 175.741 179.974 175.856 180.275 176.082C180.562 176.311 180.754 176.638 180.815 177L180.167 177.103C180.128 176.874 180.014 176.665 179.843 176.509C179.685 176.374 179.483 176.303 179.276 176.309C179.122 176.304 178.969 176.334 178.828 176.395C178.686 176.457 178.561 176.549 178.46 176.665C178.224 176.996 178.112 177.4 178.147 177.805C178.11 178.212 178.217 178.619 178.449 178.955C178.545 179.071 178.665 179.163 178.802 179.225C178.939 179.287 179.088 179.316 179.238 179.312C179.478 179.318 179.712 179.233 179.891 179.074C180.071 178.866 180.175 178.603 180.188 178.329Z" fill="white"/>
<path d="M184.104 178.502L184.79 178.588C184.702 178.958 184.49 179.288 184.191 179.523C183.863 179.753 183.468 179.869 183.067 179.852C182.814 179.864 182.561 179.822 182.326 179.729C182.09 179.636 181.877 179.494 181.701 179.312C181.345 178.902 181.164 178.369 181.198 177.827C181.163 177.269 181.345 176.719 181.706 176.293C181.875 176.113 182.081 175.972 182.309 175.879C182.537 175.786 182.783 175.743 183.029 175.753C183.27 175.746 183.509 175.791 183.731 175.884C183.952 175.977 184.152 176.116 184.315 176.293C184.664 176.713 184.842 177.249 184.812 177.794C184.812 177.838 184.812 177.897 184.812 177.973H181.89C181.888 178.336 182.019 178.687 182.257 178.961C182.361 179.073 182.487 179.162 182.628 179.221C182.768 179.281 182.92 179.31 183.073 179.307C183.296 179.313 183.516 179.247 183.699 179.118C183.891 178.956 184.031 178.742 184.104 178.502ZM181.944 177.422H184.131C184.125 177.156 184.038 176.898 183.883 176.682C183.785 176.558 183.659 176.458 183.515 176.392C183.372 176.325 183.215 176.293 183.056 176.298C182.771 176.294 182.495 176.403 182.289 176.601C182.065 176.818 181.933 177.115 181.922 177.427L181.944 177.422Z" fill="white"/>
<path d="M185.627 175.116V174.354H186.292V175.116H185.627ZM185.627 179.766V175.845H186.292V179.766H185.627Z" fill="white"/>
<path d="M188.393 179.766L186.902 175.845H187.605L188.447 178.194C188.539 178.442 188.62 178.707 188.696 178.983C188.755 178.777 188.836 178.529 188.944 178.237L189.814 175.845H190.5L189.014 179.766H188.393Z" fill="white"/>
<path d="M193.719 178.501L194.405 178.588C194.314 178.956 194.101 179.281 193.8 179.511C193.422 179.757 192.973 179.871 192.524 179.835C192.074 179.798 191.649 179.615 191.315 179.312C190.959 178.902 190.779 178.368 190.813 177.826C190.777 177.269 190.959 176.719 191.321 176.293C191.49 176.113 191.695 175.972 191.924 175.878C192.152 175.785 192.398 175.742 192.644 175.752C192.885 175.746 193.124 175.79 193.345 175.883C193.567 175.976 193.766 176.116 193.93 176.293C194.279 176.712 194.457 177.249 194.427 177.794C194.427 177.837 194.427 177.897 194.427 177.972H191.504C191.5 178.336 191.631 178.688 191.872 178.961C191.975 179.072 192.102 179.161 192.242 179.221C192.383 179.28 192.535 179.309 192.687 179.306C192.911 179.312 193.131 179.245 193.314 179.117C193.505 178.955 193.646 178.741 193.719 178.501ZM191.558 177.421H193.746C193.74 177.155 193.653 176.897 193.498 176.681C193.399 176.558 193.273 176.458 193.13 176.392C192.986 176.325 192.829 176.293 192.671 176.298C192.385 176.293 192.11 176.402 191.904 176.6C191.677 176.817 191.544 177.113 191.531 177.427L191.558 177.421Z" fill="white"/>
<path d="M156.924 188.153V182.752H158.004L159.284 186.581C159.403 186.943 159.49 187.208 159.544 187.386C159.603 187.186 159.7 186.9 159.83 186.516L161.126 182.736H162.093V188.137H161.402V183.616L159.83 188.153H159.182L157.615 183.546V188.153H156.924Z" fill="white"/>
<path d="M162.903 186.187C162.878 185.889 162.919 185.589 163.024 185.309C163.129 185.029 163.294 184.776 163.508 184.567C163.851 184.276 164.29 184.122 164.74 184.135C164.986 184.126 165.231 184.17 165.459 184.263C165.687 184.356 165.893 184.497 166.063 184.675C166.242 184.872 166.38 185.103 166.468 185.355C166.556 185.606 166.593 185.873 166.576 186.139C166.596 186.547 166.518 186.954 166.349 187.327C166.201 187.612 165.972 187.847 165.69 188.002C165.399 188.162 165.072 188.244 164.74 188.239C164.493 188.247 164.247 188.203 164.018 188.11C163.789 188.017 163.582 187.877 163.411 187.699C163.05 187.281 162.868 186.738 162.903 186.187ZM163.589 186.187C163.558 186.59 163.673 186.991 163.913 187.316C164.016 187.434 164.143 187.529 164.285 187.593C164.428 187.657 164.583 187.69 164.74 187.689C164.897 187.692 165.053 187.66 165.196 187.594C165.339 187.529 165.466 187.432 165.566 187.31C165.809 186.981 165.926 186.574 165.896 186.166C165.919 185.778 165.802 185.394 165.566 185.085C165.465 184.965 165.338 184.868 165.195 184.802C165.053 184.735 164.897 184.701 164.74 184.701C164.582 184.701 164.427 184.735 164.284 184.802C164.141 184.868 164.015 184.965 163.913 185.085C163.683 185.405 163.572 185.795 163.6 186.187H163.589Z" fill="white"/>
<path d="M167.365 188.153V184.232H167.965V184.772C168.099 184.565 168.284 184.397 168.503 184.284C168.722 184.172 168.967 184.118 169.213 184.129C169.437 184.125 169.659 184.167 169.866 184.254C170.042 184.323 170.195 184.439 170.309 184.588C170.412 184.736 170.484 184.903 170.52 185.08C170.547 185.295 170.557 185.511 170.552 185.728V188.153H169.888V185.766C169.898 185.561 169.873 185.357 169.812 185.161C169.759 185.026 169.662 184.914 169.537 184.842C169.397 184.758 169.236 184.715 169.072 184.718C168.804 184.714 168.544 184.811 168.343 184.988C168.224 185.128 168.136 185.291 168.083 185.466C168.03 185.642 168.013 185.827 168.035 186.009V188.169L167.365 188.153Z" fill="white"/>
<path d="M174.246 186.884L174.932 186.97C174.844 187.34 174.632 187.67 174.333 187.905C174.005 188.135 173.61 188.251 173.209 188.234C172.956 188.246 172.704 188.203 172.468 188.11C172.233 188.017 172.019 187.875 171.843 187.694C171.487 187.284 171.306 186.75 171.34 186.209C171.305 185.651 171.487 185.101 171.848 184.675C172.017 184.495 172.223 184.354 172.451 184.261C172.679 184.167 172.925 184.125 173.171 184.135C173.412 184.128 173.651 184.172 173.873 184.266C174.094 184.359 174.294 184.498 174.457 184.675C174.812 185.093 174.99 185.634 174.954 186.182V186.355H172.026C172.026 186.719 172.156 187.072 172.394 187.348C172.499 187.46 172.626 187.548 172.768 187.607C172.909 187.665 173.061 187.693 173.215 187.688C173.437 187.694 173.655 187.628 173.836 187.499C174.029 187.338 174.172 187.124 174.246 186.884ZM172.086 185.804H174.246C174.24 185.538 174.154 185.28 173.998 185.064C173.9 184.94 173.774 184.84 173.63 184.774C173.487 184.707 173.33 184.675 173.171 184.68C173.029 184.677 172.888 184.702 172.756 184.755C172.624 184.808 172.505 184.887 172.404 184.988C172.196 185.211 172.082 185.505 172.086 185.809V185.804Z" fill="white"/>
<path d="M175.748 189.66L175.678 189.033C175.801 189.069 175.928 189.089 176.056 189.093C176.179 189.097 176.302 189.071 176.412 189.017C176.499 188.966 176.573 188.896 176.628 188.812C176.71 188.652 176.779 188.486 176.834 188.315C176.834 188.283 176.834 188.229 176.888 188.153L175.402 184.227H176.121L176.936 186.495C177.039 186.787 177.136 187.089 177.217 187.408C177.291 187.111 177.381 186.819 177.487 186.533L178.325 184.248H178.989L177.487 188.212C177.38 188.516 177.255 188.814 177.115 189.103C177.021 189.294 176.881 189.459 176.71 189.584C176.549 189.689 176.361 189.743 176.169 189.741C176.025 189.736 175.883 189.709 175.748 189.66Z" fill="white"/>
<path d="M284.978 284.005L271.728 251.882C271.728 251.882 273.684 239.53 271.799 227.081L216.638 205.435L207.644 197.658C207.161 197.238 206.586 196.938 205.965 196.781C205.344 196.624 204.695 196.615 204.07 196.755C203.446 196.895 202.862 197.179 202.368 197.586C201.873 197.992 201.48 198.509 201.222 199.095C200.593 200.411 200.372 201.886 200.587 203.329C200.801 204.772 201.442 206.119 202.427 207.196L214.909 220.53L213.829 227.497L203.955 218.197L199.094 227.827L204.981 233.767L202.011 239.001L208.212 245.287L206.786 249.068C206.786 249.068 212.533 254.042 218.982 256.202C224.956 262.51 229.197 265.664 238.925 267.322L245.153 284.005H284.978Z" fill="#9E6936"/>
<path d="M238.925 267.322C241.971 267.987 247.621 267.052 251.165 266.323C251.539 266.261 251.923 266.289 252.284 266.404C252.646 266.52 252.975 266.719 253.244 266.987C253.513 267.254 253.714 267.582 253.832 267.943C253.949 268.303 253.979 268.687 253.92 269.062L252.137 284.005H245.153L238.925 267.322Z" fill="#654C3A"/>
<path d="M260.369 222.599C260.369 222.599 258.678 225.677 257.29 227.049C255.902 228.421 256.35 220.692 256.35 220.692L260.369 222.599Z" fill="#654C3A"/>
<path d="M217.643 255.711L223.493 208.135L216.638 205.435L207.644 197.658C207.161 197.238 206.586 196.938 205.965 196.781C205.344 196.624 204.695 196.615 204.07 196.755C203.446 196.895 202.862 197.179 202.368 197.586C201.873 197.992 201.48 198.509 201.222 199.095C200.593 200.411 200.372 201.886 200.587 203.329C200.801 204.772 201.442 206.119 202.427 207.196L214.915 220.53L213.835 227.497L203.955 218.197L199.094 227.827L204.981 233.767L202.011 239.001L208.212 245.287L206.786 249.068C206.786 249.068 211.787 253.388 217.675 255.711" fill="#9E6936"/>
<path d="M209.395 249.835C209.395 249.835 212.203 251.595 216.703 244.131L213.619 242.247L209.395 249.835Z" fill="#654C3A"/>
<path d="M252.861 257.056H220.533C218.947 257.056 217.426 256.426 216.305 255.305C215.183 254.183 214.553 252.663 214.553 251.077V174.926C214.553 173.341 215.183 171.82 216.305 170.699C217.426 169.578 218.947 168.948 220.533 168.948H252.861C253.647 168.947 254.425 169.101 255.151 169.401C255.877 169.701 256.537 170.142 257.093 170.697C257.648 171.252 258.089 171.911 258.39 172.637C258.691 173.363 258.846 174.141 258.846 174.926V251.077C258.844 252.663 258.213 254.184 257.091 255.305C255.969 256.426 254.447 257.056 252.861 257.056Z" fill="#063241"/>
<path d="M252.666 171.292H245.477C245.142 171.301 244.826 171.443 244.596 171.686C244.366 171.929 244.242 172.253 244.251 172.588C244.259 172.918 244.137 173.238 243.91 173.478C243.683 173.718 243.371 173.858 243.041 173.868H230.358C230.194 173.863 230.032 173.827 229.883 173.76C229.733 173.694 229.598 173.598 229.485 173.479C229.372 173.361 229.284 173.221 229.225 173.068C229.166 172.915 229.138 172.752 229.142 172.588C229.148 172.422 229.12 172.258 229.061 172.103C229.003 171.949 228.914 171.807 228.801 171.687C228.687 171.566 228.551 171.469 228.401 171.402C228.25 171.334 228.087 171.296 227.922 171.292H220.732C219.656 171.321 218.635 171.777 217.895 172.559C217.154 173.341 216.755 174.385 216.784 175.461V250.531C216.755 251.608 217.154 252.653 217.894 253.435C218.635 254.218 219.655 254.675 220.732 254.706H252.666C253.743 254.675 254.763 254.218 255.502 253.435C256.242 252.652 256.64 251.608 256.609 250.531V175.461C256.638 174.385 256.24 173.342 255.5 172.561C254.761 171.779 253.742 171.323 252.666 171.292Z" fill="#FDF7F9"/>
<path d="M232.907 172.248C232.901 172.368 232.86 172.484 232.788 172.581C232.716 172.678 232.618 172.752 232.504 172.793C232.391 172.835 232.268 172.842 232.151 172.814C232.034 172.787 231.927 172.725 231.844 172.637C231.762 172.55 231.706 172.439 231.686 172.321C231.665 172.202 231.68 172.08 231.728 171.969C231.776 171.859 231.856 171.765 231.957 171.699C232.058 171.633 232.176 171.599 232.297 171.6C232.464 171.605 232.621 171.677 232.736 171.798C232.85 171.919 232.912 172.081 232.907 172.248Z" fill="#043058"/>
<path d="M241.399 172.582H233.761C233.718 172.581 233.676 172.571 233.637 172.554C233.599 172.536 233.564 172.511 233.535 172.48C233.506 172.449 233.483 172.412 233.468 172.372C233.453 172.332 233.446 172.29 233.447 172.247C233.446 172.205 233.453 172.163 233.468 172.123C233.483 172.084 233.506 172.048 233.535 172.017C233.564 171.986 233.599 171.962 233.638 171.945C233.677 171.928 233.718 171.919 233.761 171.918H241.399C241.441 171.919 241.483 171.928 241.522 171.945C241.561 171.962 241.597 171.986 241.626 172.017C241.656 172.047 241.679 172.083 241.695 172.123C241.71 172.163 241.718 172.205 241.717 172.247C241.719 172.29 241.712 172.333 241.696 172.373C241.681 172.414 241.658 172.45 241.628 172.482C241.598 172.513 241.563 172.538 241.523 172.555C241.484 172.572 241.442 172.582 241.399 172.582Z" fill="#043058"/>
<path fill-rule="evenodd" clip-rule="evenodd" d="M64.2476 121.083C64.7925 120.891 65.3898 121.177 65.5817 121.722C65.6036 121.784 65.647 121.836 65.7042 121.868C65.7614 121.9 65.8284 121.911 65.8927 121.898L65.9118 121.894L65.931 121.891C67.5037 121.63 68.7567 122.344 69.1301 123.518C69.1462 123.569 69.188 123.668 69.2602 123.783C69.3314 123.897 69.4142 123.997 69.4969 124.07C69.5797 124.143 69.6393 124.168 69.6694 124.176C69.6866 124.18 69.7159 124.187 69.7834 124.162C70.4647 123.909 71.2557 123.802 71.9906 123.952C72.7469 124.107 73.5125 124.559 73.8763 125.448L73.895 125.494L73.9093 125.541C73.9602 125.71 74.0736 125.852 74.2263 125.939C74.3789 126.027 74.5592 126.052 74.7301 126.011C75.2915 125.874 75.8571 126.219 75.9934 126.78C76.1297 127.342 75.7851 127.907 75.2237 128.044C74.5332 128.211 73.8047 128.108 73.1879 127.755C72.5915 127.414 72.1432 126.865 71.9282 126.214C71.8874 126.134 71.8022 126.049 71.5719 126.002C71.2954 125.945 70.9061 125.976 70.5125 126.123C69.5106 126.495 68.6574 126.117 68.1157 125.641C67.6074 125.194 67.2775 124.596 67.1363 124.152C67.1292 124.13 67.0996 124.067 66.9964 124.012C66.8972 123.96 66.68 123.89 66.288 123.952C65.7359 124.059 65.1633 123.966 64.6734 123.688C64.1765 123.407 63.7982 122.955 63.6085 122.417C63.4166 121.872 63.7027 121.275 64.2476 121.083Z" fill="#ED3434"/>
<path fill-rule="evenodd" clip-rule="evenodd" d="M69.4488 115.218C70.0265 115.213 70.4983 115.678 70.5027 116.256C70.5031 116.315 70.5253 116.372 70.5651 116.415C70.6048 116.459 70.6593 116.486 70.718 116.492L70.7413 116.495L70.7645 116.498C71.5399 116.612 72.1765 116.919 72.6253 117.395C73.0721 117.869 73.2791 118.455 73.2791 119.013C73.2791 119.072 73.2889 119.182 73.3211 119.315C73.3531 119.446 73.3994 119.566 73.4534 119.658C73.5074 119.751 73.5526 119.79 73.5733 119.803C73.5736 119.803 73.5739 119.803 73.5742 119.803C73.5835 119.809 73.6054 119.824 73.6746 119.82C74.3994 119.786 75.1866 119.924 75.8404 120.291C76.5149 120.67 77.1067 121.341 77.1662 122.308L77.1694 122.359L77.1675 122.411C77.1612 122.579 77.2208 122.742 77.3335 122.867C77.4462 122.992 77.6032 123.067 77.7709 123.078C78.3475 123.114 78.7853 123.611 78.7488 124.188C78.7123 124.764 78.2153 125.202 77.6387 125.166C76.9267 125.121 76.2605 124.799 75.7819 124.27C75.32 123.759 75.0682 123.094 75.0751 122.407C75.063 122.326 75.0138 122.227 74.8159 122.115C74.5731 121.979 74.1935 121.89 73.7732 121.91C72.6996 121.961 72.0074 121.334 71.6447 120.71C71.3059 120.127 71.187 119.461 71.187 119.013C71.187 118.971 71.1726 118.904 71.1035 118.831C71.0375 118.761 70.8679 118.631 70.4784 118.57C69.9177 118.507 69.3987 118.242 69.0183 117.824C68.6314 117.399 68.415 116.846 68.4107 116.272C68.4063 115.694 68.8711 115.222 69.4488 115.218Z" fill="#ED3434"/>
<path fill-rule="evenodd" clip-rule="evenodd" d="M78.8635 110.373C79.3517 110.682 79.497 111.328 79.1881 111.816C79.1603 111.86 79.1501 111.913 79.1593 111.964C79.1686 112.015 79.1967 112.061 79.2381 112.092L79.2519 112.102L79.2653 112.113C80.5126 113.124 80.7663 114.551 80.0794 115.592C80.0507 115.635 80.001 115.729 79.9585 115.854C79.9165 115.979 79.8929 116.101 79.8899 116.204C79.8868 116.306 79.9048 116.356 79.9124 116.372C79.9125 116.372 79.9125 116.372 79.9126 116.372C79.9144 116.377 79.9224 116.396 79.9785 116.426C80.6137 116.764 81.2181 117.281 81.586 117.931C81.9688 118.608 82.1133 119.488 81.6473 120.34L81.6157 120.398L81.577 120.452C81.5318 120.514 81.4996 120.585 81.4824 120.661C81.4652 120.736 81.4634 120.814 81.477 120.89C81.4905 120.965 81.5193 121.038 81.5614 121.102C81.6036 121.167 81.6584 121.222 81.7225 121.265C82.2023 121.587 82.3305 122.237 82.0088 122.717C81.6871 123.196 81.0373 123.325 80.5575 123.003C80.26 122.804 80.0058 122.546 79.8099 122.246C79.6141 121.947 79.4806 121.61 79.4176 121.258C79.3545 120.905 79.3632 120.544 79.4429 120.195C79.5157 119.876 79.6463 119.574 79.828 119.303C79.8578 119.231 79.8628 119.134 79.7649 118.961C79.6358 118.733 79.3652 118.469 78.9957 118.272C78.0438 117.766 77.7771 116.867 77.7988 116.141C77.8189 115.467 78.0748 114.832 78.3331 114.44C78.3471 114.419 78.3705 114.367 78.351 114.275C78.3323 114.187 78.257 113.992 77.9581 113.747C77.508 113.399 77.2023 112.897 77.1008 112.337C76.998 111.77 77.112 111.185 77.4202 110.698C77.7291 110.21 78.3753 110.064 78.8635 110.373Z" fill="#ED3434"/>
<path fill-rule="evenodd" clip-rule="evenodd" d="M259.406 154.613C259.705 155.107 259.547 155.75 259.052 156.049C258.997 156.083 258.955 156.135 258.935 156.196C258.915 156.257 258.917 156.324 258.941 156.384L258.945 156.395L258.95 156.407C259.505 157.885 259.064 159.261 257.981 159.853C257.942 159.874 257.858 159.931 257.762 160.023C257.667 160.113 257.587 160.214 257.532 160.31C257.477 160.406 257.463 160.473 257.461 160.509C257.459 160.532 257.46 160.566 257.498 160.628C257.872 161.244 258.13 161.995 258.128 162.742C258.126 163.511 257.837 164.35 257.038 164.882L257.001 164.907L256.961 164.929C256.805 165.014 256.688 165.155 256.632 165.323C256.577 165.492 256.588 165.675 256.662 165.835C256.905 166.359 256.677 166.981 256.152 167.224C255.628 167.467 255.006 167.238 254.764 166.714C254.466 166.072 254.424 165.341 254.645 164.669C254.86 164.018 255.307 163.469 255.899 163.126C255.968 163.072 256.035 162.974 256.036 162.736C256.037 162.453 255.93 162.076 255.71 161.714C255.16 160.808 255.359 159.901 255.713 159.278C256.045 158.691 256.562 158.244 256.978 158.017C256.987 158.012 257.041 157.977 257.075 157.863C257.108 157.754 257.133 157.525 256.995 157.152C256.79 156.635 256.774 156.062 256.95 155.535C257.128 155.002 257.489 154.55 257.969 154.26C258.464 153.961 259.107 154.119 259.406 154.613Z" fill="#ED3434"/>
<path fill-rule="evenodd" clip-rule="evenodd" d="M266.152 158.596C266.271 159.161 265.909 159.716 265.343 159.834C265.287 159.846 265.236 159.879 265.202 159.925C265.168 159.972 265.153 160.03 265.159 160.087L265.161 160.112L265.162 160.136C265.25 161.728 264.392 162.888 263.192 163.112C263.145 163.121 263.046 163.148 262.927 163.205C262.809 163.26 262.703 163.328 262.623 163.399C262.543 163.47 262.513 163.524 262.503 163.551C262.497 163.565 262.487 163.592 262.504 163.662C262.675 164.367 262.688 165.161 262.461 165.869C262.228 166.593 261.701 167.311 260.775 167.565L260.723 167.579L260.67 167.587C260.505 167.615 260.358 167.705 260.259 167.839C260.16 167.974 260.118 168.141 260.141 168.306C260.221 168.878 259.822 169.407 259.25 169.487C258.678 169.567 258.149 169.168 258.069 168.596C257.971 167.89 258.152 167.174 258.574 166.6C258.98 166.048 259.579 165.669 260.25 165.538C260.312 165.513 260.399 165.448 260.469 165.228C260.556 164.958 260.57 164.564 260.471 164.156C260.219 163.119 260.692 162.319 261.228 161.84C261.729 161.392 262.357 161.14 262.808 161.056C262.817 161.054 262.876 161.038 262.94 160.946C263 160.86 263.093 160.659 263.074 160.269C263.024 159.708 263.18 159.147 263.513 158.691C263.852 158.228 264.351 157.905 264.913 157.787C265.478 157.668 266.033 158.03 266.152 158.596Z" fill="#ED3434"/>
<path fill-rule="evenodd" clip-rule="evenodd" d="M270.414 165.526C270.95 165.31 271.547 165.306 272.085 165.515C272.624 165.724 272.891 166.33 272.682 166.869C272.473 167.407 271.867 167.674 271.328 167.465C271.286 167.449 271.238 167.449 271.196 167.466C271.153 167.483 271.119 167.516 271.1 167.557L271.09 167.578L271.08 167.598C270.345 169.015 269 169.567 267.836 169.081C267.793 169.063 267.697 169.033 267.568 169.016C267.442 169 267.32 169.001 267.222 169.018C267.124 169.035 267.08 169.062 267.067 169.071C267.067 169.072 267.067 169.072 267.067 169.072C267.064 169.074 267.046 169.086 267.027 169.148C266.823 169.835 266.441 170.529 265.883 171.018C265.303 171.528 264.47 171.852 263.543 171.553L263.487 171.535L263.434 171.511C263.364 171.479 263.289 171.462 263.212 171.46C263.135 171.459 263.059 171.472 262.987 171.5C262.916 171.529 262.851 171.571 262.796 171.625C262.741 171.678 262.698 171.743 262.668 171.813C262.446 172.346 261.833 172.598 261.3 172.376C260.767 172.153 260.515 171.541 260.738 171.008C260.875 170.679 261.077 170.381 261.331 170.131C261.586 169.882 261.887 169.686 262.219 169.555C262.55 169.424 262.905 169.361 263.261 169.369C263.589 169.377 263.913 169.445 264.216 169.57C264.275 169.582 264.359 169.573 264.503 169.446C264.697 169.276 264.901 168.957 265.022 168.553C265.328 167.522 266.151 167.079 266.867 166.956C267.531 166.842 268.205 166.968 268.642 167.151C268.656 167.157 268.703 167.17 268.783 167.135C268.861 167.101 269.035 166.991 269.214 166.651C269.46 166.139 269.888 165.738 270.414 165.526Z" fill="#ED3434"/>
<path d="M165.161 132.406C162.843 133.089 160.602 134.01 158.474 135.155C156.46 136.306 154.581 137.679 152.872 139.249C152.802 139.325 152.727 139.395 152.656 139.465L152.289 139.838L151.781 140.318C151.374 140.605 150.903 140.79 150.409 140.858C149.615 140.989 148.8 140.846 148.097 140.453C147.785 140.283 147.51 140.052 147.288 139.774C147.067 139.495 146.903 139.176 146.807 138.833L146.742 138.158C146.773 137.7 146.945 137.263 147.233 136.905C147.341 136.802 147.444 136.694 147.547 136.592L147.595 136.549V136.516C149.142 134.962 150.838 133.562 152.656 132.336C153.737 131.634 154.817 130.997 155.968 130.392C156.934 129.852 157.939 129.414 158.965 128.988C161.22 128.078 163.552 127.373 165.933 126.881C168.37 126.396 170.844 126.125 173.328 126.071C175.721 126.007 178.115 126.162 180.48 126.536C182.993 126.911 185.468 127.511 187.875 128.329C189.209 128.793 190.51 129.344 191.78 129.949C192.779 130.408 193.746 130.916 194.686 131.461C196.731 132.653 198.654 134.042 200.428 135.609C201.437 136.496 202.384 137.45 203.264 138.466C204.262 139.602 205.181 140.805 206.013 142.068C206.532 142.876 207.005 143.712 207.428 144.574C207.763 144.034 208.098 143.494 208.417 142.954L208.93 142.095C209.006 141.929 209.1 141.771 209.211 141.625L209.248 141.566C209.585 141.194 210.002 140.903 210.467 140.714C210.932 140.525 211.433 140.443 211.934 140.475C212.435 140.506 212.922 140.65 213.36 140.896C213.797 141.142 214.174 141.484 214.461 141.895C214.703 142.285 214.818 142.739 214.79 143.197C214.756 143.654 214.582 144.089 214.294 144.445C213.597 145.617 212.878 146.772 212.165 147.933C211.874 148.474 211.625 148.981 211.333 149.505C211.042 150.029 210.712 150.709 210.437 151.325C210.313 151.601 210.194 151.865 210.069 152.157C210.044 152.221 210.015 152.284 209.983 152.346C209.864 152.573 209.729 152.794 209.594 153.01C209.273 153.396 208.858 153.693 208.39 153.874C207.878 154.087 207.321 154.17 206.769 154.117C206.434 154.093 206.103 154.024 205.786 153.912C205.314 153.731 204.856 153.516 204.414 153.269C203.696 152.881 202.966 152.524 202.221 152.189C201.022 151.649 199.828 151.055 198.629 150.488C198.316 150.358 198.002 150.24 197.684 150.121C197.225 149.941 196.754 149.797 196.274 149.689L195.566 149.392C195.148 149.156 194.795 148.82 194.54 148.414C194.36 148.123 194.25 147.793 194.219 147.452C194.188 147.111 194.237 146.767 194.362 146.448C194.502 146.125 194.706 145.832 194.961 145.588C195.216 145.344 195.518 145.154 195.847 145.028L196.587 144.817C197.129 144.731 197.682 144.768 198.208 144.925C198.566 145 198.918 145.101 199.261 145.228C199.65 145.363 200.033 145.503 200.417 145.654C200.887 145.833 201.346 146.032 201.8 146.243C201.039 144.81 200.149 143.449 199.142 142.176C197.662 140.408 195.988 138.812 194.151 137.418C192.186 136.006 190.078 134.802 187.864 133.827C185.504 132.864 183.054 132.141 180.55 131.666C177.959 131.238 175.332 131.068 172.707 131.159C170.152 131.307 167.618 131.714 165.145 132.374" fill="#FFCB05"/>
<path d="M175.37 228.972C177.668 228.226 179.882 227.243 181.976 226.039C183.96 224.834 185.801 223.408 187.464 221.789L187.675 221.573V221.546L188.032 221.168L188.523 220.671C188.932 220.364 189.408 220.159 189.911 220.071C190.702 219.92 191.52 220.04 192.234 220.412C192.867 220.736 193.346 221.297 193.568 221.972L193.649 222.653C193.631 223.11 193.47 223.55 193.19 223.911L192.888 224.235L192.839 224.284H192.812C191.309 225.881 189.654 227.329 187.87 228.604C186.832 229.334 185.736 229.998 184.629 230.635C183.673 231.175 182.684 231.667 181.663 232.12C179.438 233.095 177.13 233.865 174.765 234.421C172.343 234.977 169.875 235.317 167.392 235.436C165.002 235.567 162.604 235.478 160.23 235.172C157.708 234.867 155.219 234.335 152.792 233.584C151.441 233.157 150.129 232.644 148.843 232.093C147.828 231.661 146.845 231.181 145.894 230.662C143.818 229.528 141.857 228.195 140.039 226.682C139.005 225.822 138.03 224.893 137.122 223.9C136.095 222.79 135.144 221.612 134.275 220.374C133.735 219.581 133.239 218.759 132.79 217.911C132.471 218.451 132.153 218.991 131.845 219.531C131.688 219.823 131.521 220.109 131.359 220.401C131.287 220.57 131.196 220.732 131.088 220.881L131.056 220.935C130.73 221.316 130.322 221.619 129.862 221.821C129.403 222.022 128.904 222.118 128.403 222.1C127.901 222.083 127.411 221.952 126.967 221.719C126.522 221.485 126.137 221.155 125.838 220.752C125.585 220.37 125.456 219.919 125.471 219.461C125.491 219.003 125.651 218.562 125.93 218.197C126.594 217.009 127.286 215.832 127.961 214.649C128.236 214.109 128.501 213.569 128.75 213.056C128.998 212.543 129.333 211.835 129.598 211.214L129.938 210.372C129.965 210.307 129.992 210.242 130.024 210.177C130.132 209.95 130.262 209.723 130.392 209.502C130.703 209.109 131.108 208.801 131.569 208.605C132.079 208.383 132.634 208.285 133.19 208.319C133.526 208.333 133.858 208.393 134.178 208.497C134.657 208.665 135.123 208.867 135.572 209.102C136.296 209.47 137.036 209.804 137.792 210.134C139.007 210.674 140.217 211.214 141.427 211.754C141.74 211.873 142.059 211.986 142.383 212.094C142.846 212.266 143.323 212.396 143.809 212.483L144.522 212.769C144.946 212.991 145.306 213.316 145.57 213.715C145.76 214 145.881 214.326 145.922 214.667C145.963 215.007 145.924 215.352 145.808 215.675C145.675 216.002 145.479 216.299 145.231 216.55C144.982 216.8 144.686 216.998 144.36 217.133L143.625 217.366C143.088 217.466 142.534 217.446 142.005 217.306C141.639 217.238 141.278 217.144 140.925 217.025C140.53 216.906 140.147 216.771 139.758 216.636C139.283 216.469 138.818 216.28 138.359 216.096C139.159 217.508 140.087 218.844 141.13 220.087C142.661 221.813 144.38 223.362 146.256 224.705C148.259 226.064 150.399 227.208 152.641 228.118C155.025 229.023 157.496 229.683 160.014 230.09C162.615 230.449 165.246 230.546 167.868 230.381C170.412 230.163 172.928 229.685 175.376 228.956" fill="#FFCB05"/>
<path d="M244.38 223.766H230.152C229.436 223.766 228.749 223.481 228.243 222.975C227.736 222.468 227.452 221.781 227.452 221.065V220.525C227.452 219.809 227.736 219.122 228.243 218.616C228.749 218.109 229.436 217.825 230.152 217.825H244.38C245.096 217.825 245.783 218.109 246.29 218.616C246.796 219.122 247.081 219.809 247.081 220.525V221.065C247.081 221.781 246.796 222.468 246.29 222.975C245.783 223.481 245.096 223.766 244.38 223.766Z" fill="#0FAF4B"/>
<path d="M230.903 221.913V219.596H231.93C232.088 219.591 232.247 219.611 232.4 219.656C232.508 219.699 232.599 219.777 232.659 219.877C232.724 219.983 232.757 220.104 232.756 220.228C232.759 220.383 232.701 220.532 232.594 220.644C232.46 220.77 232.286 220.846 232.102 220.86C232.169 220.889 232.23 220.927 232.286 220.973C232.386 221.063 232.471 221.166 232.54 221.281L232.945 221.913H232.583L232.275 221.432C232.204 221.317 232.127 221.205 232.043 221.098C231.999 221.037 231.947 220.984 231.886 220.941C231.843 220.913 231.796 220.891 231.746 220.876H231.573H231.217V221.908L230.903 221.913ZM231.206 220.617H231.87C231.982 220.623 232.093 220.608 232.2 220.574C232.273 220.548 232.335 220.498 232.378 220.433C232.425 220.36 232.446 220.272 232.435 220.185C232.424 220.098 232.383 220.018 232.319 219.958C232.211 219.876 232.076 219.837 231.94 219.85H231.206V220.617Z" fill="white"/>
<path d="M234.274 221.373L234.566 221.411C234.53 221.569 234.44 221.71 234.312 221.81C234.171 221.907 234.002 221.956 233.831 221.951C233.723 221.956 233.614 221.939 233.513 221.9C233.411 221.861 233.319 221.801 233.242 221.724C233.091 221.547 233.014 221.319 233.026 221.087C233.013 220.847 233.092 220.611 233.248 220.428C233.397 220.28 233.598 220.198 233.807 220.198C234.016 220.198 234.217 220.28 234.366 220.428C234.515 220.61 234.591 220.841 234.577 221.076V221.152H233.323C233.322 221.308 233.378 221.46 233.48 221.578C233.525 221.626 233.58 221.664 233.64 221.689C233.701 221.714 233.766 221.726 233.831 221.724C233.926 221.727 234.019 221.699 234.096 221.643C234.18 221.572 234.242 221.478 234.274 221.373ZM233.34 220.914H234.274C234.275 220.8 234.239 220.688 234.172 220.595C234.129 220.541 234.075 220.498 234.013 220.469C233.951 220.44 233.883 220.426 233.815 220.428C233.754 220.426 233.693 220.438 233.636 220.461C233.579 220.484 233.528 220.519 233.486 220.563C233.396 220.658 233.344 220.783 233.34 220.914Z" fill="white"/>
<path d="M236.024 221.297L236.299 221.335C236.281 221.51 236.198 221.672 236.067 221.789C235.938 221.898 235.772 221.956 235.603 221.951C235.502 221.953 235.401 221.934 235.308 221.895C235.215 221.856 235.132 221.797 235.062 221.724C234.911 221.545 234.835 221.315 234.852 221.081C234.849 220.918 234.88 220.756 234.944 220.606C234.996 220.474 235.093 220.364 235.219 220.298C235.341 220.229 235.479 220.194 235.619 220.195C235.78 220.189 235.938 220.239 236.067 220.336C236.187 220.434 236.268 220.572 236.294 220.725L236.013 220.768C235.996 220.67 235.946 220.581 235.873 220.514C235.805 220.457 235.718 220.427 235.63 220.428C235.564 220.426 235.499 220.439 235.439 220.467C235.379 220.494 235.326 220.534 235.284 220.584C235.182 220.725 235.134 220.897 235.149 221.07C235.134 221.244 235.18 221.418 235.279 221.562C235.319 221.612 235.37 221.652 235.428 221.679C235.486 221.706 235.549 221.719 235.613 221.718C235.717 221.72 235.817 221.684 235.894 221.616C235.971 221.527 236.017 221.415 236.024 221.297Z" fill="white"/>
<path d="M237.699 221.373L237.99 221.411C237.952 221.57 237.861 221.711 237.731 221.81C237.59 221.908 237.421 221.957 237.25 221.951C237.142 221.956 237.035 221.938 236.934 221.899C236.834 221.86 236.743 221.8 236.667 221.724C236.591 221.637 236.532 221.536 236.495 221.427C236.458 221.317 236.443 221.202 236.451 221.086C236.438 220.848 236.515 220.612 236.667 220.428C236.739 220.351 236.827 220.29 236.925 220.25C237.023 220.21 237.128 220.191 237.234 220.195C237.335 220.193 237.435 220.212 237.528 220.251C237.621 220.29 237.705 220.349 237.774 220.422C237.927 220.602 238.005 220.834 237.99 221.07V221.146H236.737C236.733 221.303 236.789 221.455 236.894 221.573C236.939 221.62 236.993 221.658 237.054 221.683C237.114 221.708 237.179 221.72 237.245 221.718C237.339 221.721 237.432 221.692 237.509 221.637C237.597 221.569 237.662 221.477 237.699 221.373ZM236.759 220.914H237.699C237.697 220.799 237.659 220.687 237.59 220.595C237.549 220.541 237.496 220.498 237.435 220.469C237.374 220.44 237.307 220.426 237.239 220.428C237.178 220.426 237.117 220.437 237.06 220.46C237.004 220.483 236.952 220.518 236.91 220.563C236.818 220.657 236.765 220.782 236.759 220.914Z" fill="white"/>
<path d="M238.352 219.92V219.596H238.633V219.92H238.352ZM238.352 221.913V220.233H238.633V221.913H238.352Z" fill="white"/>
<path d="M239.535 221.913L238.898 220.233H239.195L239.557 221.238C239.595 221.346 239.633 221.459 239.665 221.578C239.692 221.492 239.724 221.384 239.773 221.26L240.146 220.233H240.437L239.8 221.913H239.535Z" fill="white"/>
<path d="M241.766 221.373L242.058 221.411C242.02 221.57 241.928 221.711 241.798 221.81C241.657 221.908 241.489 221.957 241.318 221.951C241.21 221.956 241.102 221.938 241.002 221.899C240.901 221.86 240.81 221.8 240.734 221.724C240.658 221.637 240.6 221.536 240.562 221.427C240.525 221.317 240.51 221.202 240.518 221.086C240.503 220.847 240.58 220.611 240.734 220.428C240.807 220.351 240.895 220.29 240.993 220.25C241.09 220.21 241.196 220.191 241.301 220.195C241.402 220.193 241.503 220.212 241.596 220.251C241.689 220.29 241.772 220.349 241.842 220.422C241.995 220.602 242.072 220.834 242.058 221.07V221.146H240.799C240.801 221.302 240.856 221.452 240.956 221.573C241.002 221.62 241.058 221.657 241.119 221.682C241.18 221.707 241.246 221.72 241.312 221.718C241.407 221.721 241.5 221.692 241.577 221.637C241.664 221.569 241.73 221.477 241.766 221.373ZM240.826 220.914H241.766C241.765 220.799 241.727 220.687 241.658 220.595C241.617 220.541 241.564 220.498 241.502 220.469C241.441 220.44 241.374 220.426 241.307 220.428C241.245 220.426 241.184 220.437 241.128 220.46C241.071 220.483 241.02 220.518 240.977 220.563C240.884 220.656 240.828 220.781 240.821 220.914H240.826Z" fill="white"/>
<path d="M243.5 221.913V221.702C243.45 221.781 243.38 221.845 243.298 221.888C243.215 221.932 243.123 221.953 243.03 221.951C242.9 221.951 242.772 221.913 242.663 221.843C242.547 221.765 242.456 221.656 242.398 221.53C242.338 221.393 242.307 221.246 242.306 221.097C242.304 220.94 242.333 220.784 242.393 220.638C242.443 220.512 242.529 220.403 242.641 220.325C242.754 220.254 242.886 220.216 243.019 220.217C243.113 220.216 243.206 220.239 243.289 220.282C243.365 220.324 243.431 220.381 243.484 220.449V219.618H243.765V221.935L243.5 221.913ZM242.598 221.097C242.586 221.269 242.635 221.44 242.738 221.578C242.775 221.628 242.823 221.669 242.878 221.697C242.934 221.726 242.995 221.74 243.057 221.74C243.119 221.74 243.179 221.726 243.235 221.699C243.29 221.671 243.338 221.632 243.376 221.584C243.473 221.449 243.519 221.284 243.505 221.119C243.52 220.939 243.473 220.76 243.37 220.611C243.332 220.562 243.283 220.523 243.226 220.496C243.17 220.469 243.109 220.455 243.046 220.455C242.985 220.454 242.924 220.467 242.869 220.493C242.814 220.519 242.765 220.558 242.728 220.606C242.63 220.75 242.584 220.924 242.598 221.097Z" fill="white"/>
<path d="M249.431 173.571H246.19C246.029 173.556 245.879 173.481 245.77 173.362C245.661 173.243 245.601 173.087 245.601 172.925C245.601 172.764 245.661 172.608 245.77 172.488C245.879 172.369 246.029 172.295 246.19 172.28H249.431C249.592 172.295 249.741 172.369 249.85 172.488C249.959 172.608 250.02 172.764 250.02 172.925C250.02 173.087 249.959 173.243 249.85 173.362C249.741 173.481 249.592 173.556 249.431 173.571ZM246.19 172.431C246.058 172.431 245.931 172.483 245.838 172.577C245.745 172.67 245.693 172.796 245.693 172.928C245.693 173.06 245.745 173.186 245.838 173.279C245.931 173.372 246.058 173.425 246.19 173.425H249.431C249.562 173.425 249.689 173.372 249.782 173.279C249.875 173.186 249.928 173.06 249.928 172.928C249.928 172.796 249.875 172.67 249.782 172.577C249.689 172.483 249.562 172.431 249.431 172.431H246.19Z" fill="#FDF7F9"/>
<path d="M248.869 173.133H246.2C246.144 173.125 246.093 173.097 246.056 173.053C246.019 173.01 245.999 172.955 245.999 172.899C245.999 172.842 246.019 172.787 246.056 172.744C246.093 172.701 246.144 172.672 246.2 172.664H248.869C248.925 172.672 248.976 172.701 249.013 172.744C249.05 172.787 249.071 172.842 249.071 172.899C249.071 172.955 249.05 173.01 249.013 173.053C248.976 173.097 248.925 173.125 248.869 173.133Z" fill="#0FAF4B"/>
<path d="M233.561 208.524L230.32 203.604L232.124 202.416L234.01 205.279L242.766 197.674L244.181 199.305L233.561 208.524Z" fill="#0FAF4B"/>
<path d="M237.347 214.168C235.078 214.167 232.861 213.493 230.975 212.232C229.089 210.971 227.619 209.179 226.752 207.083C225.884 204.987 225.658 202.68 226.101 200.456C226.544 198.231 227.637 196.187 229.242 194.584C230.847 192.98 232.891 191.888 235.117 191.446C237.342 191.003 239.648 191.231 241.744 192.099C243.841 192.968 245.632 194.438 246.892 196.324C248.153 198.211 248.826 200.428 248.826 202.697C248.821 205.739 247.61 208.655 245.459 210.805C243.307 212.956 240.39 214.165 237.347 214.168ZM237.347 193.386C235.506 193.387 233.706 193.934 232.175 194.958C230.645 195.981 229.452 197.436 228.748 199.137C228.044 200.839 227.86 202.711 228.22 204.517C228.58 206.322 229.467 207.981 230.77 209.283C232.072 210.584 233.732 211.47 235.538 211.829C237.344 212.188 239.216 212.003 240.918 211.298C242.619 210.594 244.073 209.4 245.096 207.869C246.119 206.338 246.665 204.538 246.665 202.697C246.662 200.227 245.679 197.86 243.932 196.114C242.186 194.369 239.817 193.387 237.347 193.386Z" fill="#0FAF4B"/>
<path d="M203.75 239.146C203.75 239.146 208.503 241.307 214.672 233.897L215.142 226.26L203.75 239.146Z" fill="#654C3A"/>
<path d="M200.471 228.108L211.615 225.521L207.234 221.405L200.471 228.108Z" fill="#654C3A"/>
<path d="M204.117 206.693C204.117 206.693 211.371 207.379 214.834 203.939L209.578 199.413L204.117 206.693Z" fill="#654C3A"/>
<path d="M206.866 249.273C205.014 247.804 204.582 244.742 206.424 241.582C207.846 239.337 209.446 237.21 211.209 235.22C211.749 234.783 213.408 231.126 214.666 231.126C215.925 231.126 217.594 232.568 217.173 236.106C216.751 239.643 214.98 240.923 214.98 240.923C214.98 240.923 213.618 246.011 212.311 247.89C211.004 249.77 208.482 250.553 206.866 249.273Z" fill="#9E6936"/>
<path d="M212.814 239.217L212.457 239.665C213.197 240.296 214.007 240.84 214.872 241.285C214.936 241.048 214.98 240.902 214.98 240.902C214.98 240.902 215.039 240.859 215.142 240.767C214.311 240.331 213.53 239.806 212.814 239.201" fill="#9E6936"/>
<path d="M215.893 234.226C216.433 232.547 214.726 230.862 213.959 231.445C213.014 232.201 212.009 234.145 211.458 234.918L214.672 237.353C215.139 236.336 215.547 235.292 215.893 234.226Z" fill="#9E6936"/>
<path d="M202.097 239.211C200.136 238.131 200.017 235.22 201.379 233.065C202.54 231.218 207.293 225.888 207.968 225.099C208.887 224.258 209.848 223.465 210.847 222.723C210.847 222.723 214.245 218.656 215.342 219.482C216.438 220.309 217.945 223.339 215.99 226.325C214.034 229.312 212.311 230.365 212.311 230.365C211.649 232.188 210.661 233.875 209.394 235.344C207.185 238.002 204.592 240.605 202.097 239.222" fill="#9E6936"/>
<path d="M213.046 225.871C213.046 225.871 217.184 221.497 214.072 219.704C212.663 220.552 210.832 222.717 210.832 222.717C211.864 223.524 212.63 224.623 213.03 225.871" fill="#9E6936"/>
<path d="M210.734 228.118L210.458 228.631C211.226 229.123 211.832 229.829 212.203 230.662L212.311 230.365C212.311 230.365 212.414 230.3 212.603 230.16C212.169 229.327 211.525 228.623 210.734 228.118Z" fill="#9E6936"/>
<path d="M198.678 227.978C200.417 229.738 207.963 224.824 210.955 218.683C213.797 216.582 216.568 213.32 215.887 210.112C215.206 206.904 213.224 207.012 213.224 207.012C213.224 207.012 209.61 210.22 207.331 211.603C205.052 212.985 201.956 216.642 199.969 218.802C197.981 220.962 196.188 225.488 198.678 227.983" fill="#9E6936"/>
<path d="M211.776 213.914C212.877 213.178 213.783 212.187 214.418 211.025C215.233 209.475 214.213 207.731 213.224 207.012C213.224 207.012 211.279 208.735 209.346 210.204C210.084 211.486 210.896 212.725 211.776 213.914Z" fill="#9E6936"/>
<path d="M209.632 216.55L209.271 216.998C209.879 217.558 210.423 218.185 210.891 218.867C210.923 218.807 210.956 218.743 210.983 218.683C211.091 218.607 211.193 218.526 211.296 218.445C210.828 217.756 210.284 217.12 209.676 216.55" fill="#9E6936"/>
<path d="M201.573 205.176C199.78 203.188 200.001 199.564 202.47 195.211C204.938 190.858 206.148 189.206 207.59 187.386C208.789 185.879 212.452 181.445 212.452 181.445C212.452 181.445 215.406 182.131 215.795 184.869C216.184 187.607 213.635 192.392 212.052 193.683C211.755 196.27 209.983 201.374 208.476 203.404C206.969 205.435 203.804 207.655 201.546 205.165" fill="#9E6936"/>
<path d="M211.971 182.061C211.096 183.108 209.297 185.301 208.19 186.657C209.151 187.719 210.239 188.659 211.431 189.454C212.476 188.571 213.274 187.432 213.748 186.149C214.65 183.989 212.695 182.503 212.003 182.061" fill="#9E6936"/>
<path d="M210.167 192.808L209.837 193.278C210.49 193.72 211.245 193.988 212.03 194.056C212.03 193.931 212.068 193.807 212.079 193.694L212.306 193.489C211.539 193.449 210.796 193.215 210.145 192.808" fill="#9E6936"/>
<path d="M271.761 227.379C271.761 227.379 266.554 212.402 265.679 209.416C265.19 207.692 264.509 206.029 263.648 204.458C263.648 204.458 261.412 197.755 260.547 197.755C259.683 197.755 254.692 201.757 258.927 212.267C258.762 215.304 259.235 218.341 260.315 221.184V226.401L271.761 227.379Z" fill="#9E6936"/>
<path d="M263.648 204.457C263.648 204.457 262.211 200.137 261.19 198.436C258.403 199.824 260.531 205.743 260.531 205.743L263.648 204.457Z" fill="#9E6936"/>
<path d="M260.331 221.464L262.557 221.038L262.465 220.498L260.239 220.924L260.331 221.178V221.464Z" fill="#9E6936"/>
<path d="M258.943 212.267C258.943 212.267 258.943 212.337 258.943 212.451L261.32 211.37L261.114 210.874L258.819 211.954C258.867 212.073 258.905 212.186 258.954 212.305" fill="#9E6936"/>
<path d="M263.335 211.257L263.308 211.797C263.52 211.809 263.733 211.809 263.945 211.797C264.739 211.722 265.522 211.557 266.278 211.306L266.106 210.792C265.214 211.102 264.278 211.266 263.335 211.279" fill="#9E6936"/>
<path d="M263.107 209.831C263.796 209.275 264.574 208.841 265.408 208.546L265.23 208.033C264.343 208.352 263.516 208.817 262.783 209.41L263.107 209.831Z" fill="#9E6936"/>
<path d="M117.53 183.038C117.53 183.038 109.925 197.08 102.195 206.802C99.1219 210.663 96.0269 213.823 93.3855 215.162C90.8255 216.521 88.5831 218.408 86.8064 220.698C82.1179 226.471 79.9518 233.697 79.9518 233.697L60.1768 206.083C60.1768 206.083 60.852 179.08 63.2232 174.559C66.6802 167.976 68.3493 154.674 69.7051 152.027C70.6936 150.061 73.4862 139.919 73.7779 139.168C73.8913 138.849 74.8582 138.358 76.0465 138.358C76.7706 138.424 77.4554 138.717 78.0033 139.196C78.5512 139.674 78.9344 140.312 79.0984 141.02C81.2104 150.072 78.6663 156.045 78.6933 156.31C79.4387 163.272 77.197 168.435 78.7689 169.812C78.8265 169.862 78.9345 169.841 79.093 169.747C81.7938 168.127 98.7222 145.352 100.802 144.86C103 144.32 117.547 183.044 117.547 183.044" fill="#9E6936"/>
<path d="M85.8772 228.242C85.8772 228.242 85.6125 240.518 84.8401 257.055H35C46.3919 234.599 56.2983 215.696 56.2983 215.696C56.2983 215.696 84.6727 216.501 85.8772 228.237" fill="#212120"/>
<path d="M134.815 135.436L128.695 143.726L122.694 151.865C122.543 152.046 122.349 152.187 122.131 152.275C121.912 152.364 121.675 152.397 121.441 152.372C120.004 152.248 118.2 150.326 116.828 149.262L116.687 149.154C116.254 148.841 115.893 148.441 115.626 147.978C115.359 147.516 115.193 147.002 115.139 146.471C115.084 145.94 115.144 145.403 115.312 144.897C115.48 144.39 115.754 143.925 116.115 143.531L125.298 133.27L127.998 130.229C128.768 129.407 129.814 128.898 130.936 128.798C132.058 128.699 133.178 129.016 134.08 129.689L134.221 129.797C134.658 130.108 135.024 130.508 135.295 130.971C135.565 131.434 135.734 131.949 135.79 132.482C135.847 133.016 135.789 133.555 135.621 134.064C135.452 134.573 135.178 135.041 134.815 135.436Z" fill="#9E6936"/>
<path d="M128.668 143.726L122.667 151.865C122.516 152.046 122.323 152.187 122.104 152.275C121.886 152.364 121.649 152.397 121.414 152.372L125.265 133.281C125.265 133.383 125.924 141.954 128.668 143.726Z" fill="#654C3A"/>
<path d="M102.179 206.812C99.1058 210.674 96.0107 213.833 93.3694 215.172C90.8094 216.532 88.567 218.418 86.7903 220.708C84.7053 219.812 82.334 218.759 80.0113 217.716C79.3828 217.466 78.8415 217.037 78.4544 216.483C78.0674 215.928 77.8515 215.272 77.8337 214.596C77.8159 213.92 77.9968 213.253 78.3542 212.679C78.7115 212.105 79.2294 211.648 79.8439 211.365L79.9249 211.322C82.5176 209.95 85.1752 205.111 85.1752 205.111L102.179 206.812Z" fill="#654C3A"/>
<path d="M73.621 139.589L72.0005 145.53C72.0005 145.53 73.3995 146.07 74.2962 145.659C75.1928 145.249 75.949 139.891 73.621 139.562" fill="#654C3A"/>
<path d="M131.742 166.744L130.829 167.062L124.693 169.223C124.551 169.272 124.407 169.313 124.261 169.347C123.288 169.598 122.258 169.498 121.351 169.065C120.445 168.633 119.719 167.895 119.302 166.981L119.216 166.765C119.027 166.281 118.941 165.762 118.962 165.243C118.983 164.723 119.111 164.213 119.338 163.745C119.566 163.278 119.887 162.862 120.282 162.523C120.677 162.185 121.138 161.932 121.636 161.781L127.356 159.771L127.772 159.626L128.685 159.307C129.701 158.935 130.821 158.959 131.821 159.373C132.821 159.787 133.63 160.561 134.086 161.543L134.173 161.764C134.36 162.249 134.446 162.767 134.424 163.286C134.403 163.805 134.274 164.314 134.047 164.781C133.82 165.248 133.499 165.664 133.104 166.001C132.71 166.339 132.25 166.592 131.753 166.744" fill="#9E6936"/>
<path d="M126.762 166.874C125.502 167.35 124.207 167.727 122.889 168.002C122.645 168.002 122.404 167.948 122.183 167.846C121.962 167.743 121.766 167.594 121.609 167.408C121.26 167.041 120.997 166.603 120.836 166.123C120.739 165.857 120.67 165.582 120.631 165.302C120.59 164.977 120.601 164.647 120.663 164.325C120.697 164.17 120.768 164.026 120.87 163.905C120.971 163.783 121.101 163.688 121.247 163.628C122.451 163.083 123.695 162.631 124.968 162.278C125.347 162.154 125.757 162.169 126.125 162.322C126.492 162.475 126.793 162.754 126.972 163.109L127.102 163.433L127.761 165.097C127.816 165.279 127.834 165.471 127.813 165.661C127.792 165.851 127.733 166.034 127.639 166.2C127.545 166.367 127.419 166.512 127.267 166.628C127.115 166.743 126.941 166.827 126.756 166.874" fill="#654C3A"/>
<path d="M126.762 166.874C125.502 167.349 124.207 167.727 122.889 168.002C122.645 168.002 122.404 167.948 122.183 167.846C121.962 167.743 121.766 167.594 121.609 167.408C121.56 167.3 121.511 167.181 121.468 167.057C121.367 166.792 121.296 166.517 121.257 166.236C121.22 165.911 121.23 165.581 121.29 165.259C121.325 165.104 121.397 164.96 121.5 164.839C121.602 164.718 121.732 164.623 121.879 164.562C123.082 164.016 124.327 163.565 125.6 163.212C125.853 163.142 126.118 163.125 126.377 163.164C126.637 163.202 126.885 163.294 127.107 163.433L127.766 165.097C127.822 165.279 127.84 165.471 127.819 165.661C127.798 165.851 127.739 166.034 127.645 166.2C127.551 166.366 127.424 166.512 127.272 166.628C127.12 166.743 126.947 166.827 126.762 166.874Z" fill="#654C3A"/>
<path d="M128.96 174.716L124.228 175.909C123.554 176.094 122.834 176.015 122.216 175.688C121.598 175.361 121.128 174.81 120.901 174.149L120.755 173.657C120.67 173.33 120.651 172.989 120.701 172.654C120.752 172.32 120.869 171.999 121.047 171.711C121.225 171.423 121.459 171.175 121.736 170.98C122.012 170.785 122.325 170.649 122.656 170.579L127.388 169.391C128.063 169.206 128.782 169.285 129.401 169.612C130.019 169.939 130.489 170.49 130.716 171.151L130.861 171.643C130.947 171.97 130.965 172.311 130.915 172.645C130.865 172.979 130.747 173.299 130.569 173.587C130.391 173.874 130.157 174.122 129.881 174.316C129.604 174.51 129.291 174.646 128.96 174.716Z" fill="#9E6936"/>
<path d="M126.4 174.505C125.335 174.79 124.252 175.002 123.159 175.137C122.879 175.109 122.611 175.006 122.384 174.84C122.157 174.674 121.979 174.45 121.868 174.192C121.764 173.996 121.682 173.79 121.625 173.576C121.562 173.367 121.526 173.151 121.517 172.933C121.512 172.679 121.548 172.425 121.625 172.183C121.668 172.062 121.739 171.954 121.833 171.868C121.927 171.781 122.041 171.719 122.165 171.686C123.198 171.341 124.254 171.068 125.325 170.87C125.634 170.792 125.962 170.825 126.25 170.963C126.538 171.101 126.769 171.336 126.902 171.626L127.026 172.021L127.388 173.203C127.555 173.743 127.129 174.332 126.421 174.51" fill="#654C3A"/>
<path d="M126.4 174.505C125.335 174.79 124.252 175.001 123.159 175.137C122.879 175.109 122.611 175.006 122.384 174.84C122.157 174.674 121.979 174.45 121.868 174.192C121.811 173.995 121.779 173.792 121.77 173.587C121.763 173.334 121.8 173.082 121.878 172.841C121.921 172.72 121.993 172.611 122.087 172.524C122.181 172.436 122.295 172.373 122.419 172.339C123.45 171.99 124.507 171.717 125.579 171.524C125.843 171.467 126.117 171.483 126.373 171.57C126.628 171.656 126.856 171.81 127.032 172.015L127.393 173.198C127.561 173.738 127.134 174.327 126.427 174.505" fill="#654C3A"/>
<path d="M51.4478 225.018C51.4478 225.018 61.1705 233.659 67.7496 236.97L72.7191 233.729V238.536C72.7191 238.536 82.4959 240.156 85.5802 238.536V225.418L58.1133 212.683L51.4478 225.018Z" fill="#686867"/>
<path d="M60.1764 205.111C60.1764 205.111 53.9917 213.66 47.8501 222.804C47.8501 222.804 60.8138 231.04 67.8358 233.459L77.0185 223.706L75.7059 235.441C75.7059 235.441 83.8568 238.19 87.6379 237.472C87.6379 237.472 87.4003 226.827 87.4003 219.849C87.4003 219.849 64.9892 214.044 60.1602 205.111" fill="#F1F6FF"/>
<path d="M61.6997 226.811C61.6791 226.504 61.7517 226.197 61.9079 225.931C62.0642 225.665 62.297 225.453 62.5758 225.321C62.8547 225.19 63.1667 225.145 63.4712 225.194C63.7757 225.242 64.0585 225.381 64.2828 225.593C64.5071 225.804 64.6625 226.078 64.7286 226.38C64.7948 226.681 64.7687 226.995 64.6537 227.281C64.5387 227.567 64.3402 227.811 64.084 227.983C63.8278 228.155 63.5259 228.245 63.2176 228.242C62.8268 228.253 62.4479 228.108 62.1635 227.84C61.8792 227.572 61.7124 227.202 61.6997 226.811Z" fill="#686867"/>
<path d="M131.575 158.362L131.472 158.395L125.271 159.869C122.543 160.517 119.724 159.151 119.005 156.839L118.632 155.651C117.941 153.426 119.426 151.104 121.965 150.353L124.012 149.867L128.166 148.878C130.894 148.23 133.714 149.597 134.437 151.908L134.805 153.096C135.485 155.289 134.048 157.579 131.564 158.362" fill="#9E6936"/>
<path d="M128.749 156.763L125.735 158.016C125.614 158.047 125.492 158.071 125.368 158.086H125.217H125.152C125.077 158.088 125.004 158.071 124.937 158.037C124.871 158.003 124.815 157.952 124.773 157.89C124.732 157.828 124.707 157.757 124.7 157.683C124.694 157.608 124.706 157.534 124.736 157.465C125.03 156.88 125.092 156.204 124.909 155.575L124.833 155.332L124.601 154.538C124.417 153.922 124.038 153.381 123.521 152.999C123.461 152.951 123.398 152.908 123.331 152.869C123.198 152.788 123.092 152.668 123.028 152.525C122.964 152.382 122.945 152.224 122.972 152.07C122.999 151.916 123.073 151.774 123.182 151.662C123.291 151.55 123.432 151.474 123.585 151.444L126.891 150.979C127.283 150.901 127.689 150.975 128.028 151.185C128.367 151.396 128.613 151.728 128.717 152.113L128.987 153.015L129.527 154.932C129.749 155.694 129.554 156.553 128.738 156.753" fill="#654C3A"/>
<path d="M128.749 156.764L125.735 158.017L125.152 158.103C125.077 158.105 125.003 158.088 124.937 158.053C124.871 158.019 124.815 157.969 124.773 157.907C124.732 157.845 124.707 157.773 124.7 157.699C124.694 157.625 124.706 157.55 124.736 157.482C125.03 156.896 125.092 156.221 124.909 155.592L124.833 155.349L124.601 154.555C124.417 153.938 124.038 153.398 123.521 153.016C123.638 152.86 123.806 152.749 123.996 152.702L127.302 152.243C127.63 152.173 127.973 152.212 128.277 152.354C128.581 152.496 128.831 152.734 128.987 153.032L129.527 154.949C129.749 155.71 129.554 156.569 128.738 156.769" fill="#654C3A"/>
<path d="M79.071 188.185C79.071 188.185 77.7153 177.265 76.4675 175.137C75.2197 173.009 74.161 168.748 76.084 165.577C78.0069 162.407 78.6659 156.288 78.6659 156.288C79.4113 163.25 77.1697 168.413 78.7415 169.79C78.7992 169.84 78.9072 169.819 79.0656 169.725L79.071 188.185Z" fill="#654C3A"/>
<path d="M116.142 212.996H83.8086C82.2228 212.996 80.7018 212.366 79.5805 211.245C78.4591 210.124 77.8291 208.603 77.8291 207.017V130.867C77.8291 129.281 78.4591 127.76 79.5805 126.639C80.7018 125.518 82.2228 124.888 83.8086 124.888H116.142C117.728 124.888 119.249 125.518 120.37 126.639C121.492 127.76 122.122 129.281 122.122 130.867V207.017C122.122 208.603 121.492 210.124 120.37 211.245C119.249 212.366 117.728 212.996 116.142 212.996Z" fill="#063241"/>
<path d="M115.942 127.227H108.753C108.418 127.236 108.102 127.378 107.872 127.621C107.642 127.864 107.518 128.188 107.526 128.523C107.535 128.853 107.413 129.173 107.186 129.413C106.959 129.653 106.647 129.793 106.317 129.803H93.6337C93.3037 129.793 92.991 129.653 92.7642 129.413C92.5375 129.173 92.415 128.853 92.4237 128.523C92.4325 128.188 92.3083 127.864 92.0785 127.621C91.8487 127.378 91.5319 127.236 91.1976 127.227H84.0081C82.9312 127.258 81.9105 127.715 81.1702 128.497C80.43 129.28 80.0305 130.324 80.0596 131.401V206.472C80.0305 207.548 80.4302 208.592 81.1706 209.374C81.911 210.156 82.9316 210.612 84.0081 210.641H115.942C117.019 210.612 118.039 210.156 118.78 209.374C119.52 208.592 119.92 207.548 119.891 206.472V131.401C119.92 130.324 119.52 129.28 118.78 128.497C118.04 127.715 117.019 127.258 115.942 127.227Z" fill="#FDF7F9"/>
<path d="M96.1889 128.204C96.1815 128.324 96.1392 128.439 96.0672 128.535C95.9952 128.632 95.8967 128.705 95.7837 128.745C95.6708 128.786 95.5483 128.793 95.4315 128.765C95.3146 128.738 95.2085 128.676 95.1261 128.589C95.0437 128.501 94.9887 128.392 94.9678 128.273C94.947 128.155 94.9612 128.033 95.0087 127.923C95.0562 127.813 95.135 127.719 95.2353 127.652C95.3355 127.586 95.453 127.551 95.5731 127.551C95.6566 127.553 95.7388 127.571 95.815 127.606C95.8913 127.64 95.96 127.688 96.0173 127.749C96.0745 127.81 96.1192 127.881 96.1486 127.96C96.1781 128.038 96.1918 128.121 96.1889 128.204Z" fill="#043058"/>
<path d="M104.68 128.517H97.042C96.9997 128.517 96.9579 128.508 96.9192 128.491C96.8804 128.473 96.8454 128.449 96.8162 128.418C96.7871 128.388 96.7643 128.351 96.7493 128.312C96.7343 128.272 96.7273 128.23 96.7287 128.188C96.7273 128.145 96.7342 128.103 96.7492 128.063C96.7642 128.023 96.7868 127.987 96.8159 127.956C96.845 127.924 96.88 127.899 96.9188 127.882C96.9575 127.864 96.9994 127.854 97.042 127.853H104.68C104.722 127.854 104.764 127.864 104.803 127.882C104.842 127.899 104.877 127.924 104.906 127.956C104.935 127.987 104.958 128.023 104.973 128.063C104.988 128.103 104.995 128.145 104.993 128.188C104.995 128.23 104.988 128.272 104.972 128.312C104.957 128.351 104.935 128.388 104.906 128.418C104.876 128.449 104.841 128.473 104.803 128.491C104.764 128.508 104.722 128.517 104.68 128.517Z" fill="#043058"/>
<path d="M112.129 129.074H109.46C109.397 129.074 109.337 129.049 109.292 129.004C109.248 128.96 109.223 128.899 109.223 128.836C109.223 128.773 109.248 128.713 109.292 128.668C109.337 128.624 109.397 128.599 109.46 128.599H112.129C112.192 128.599 112.252 128.624 112.297 128.668C112.341 128.713 112.366 128.773 112.366 128.836C112.366 128.899 112.341 128.96 112.297 129.004C112.252 129.049 112.192 129.074 112.129 129.074Z" fill="#0FAF4B"/>
<path d="M112.712 129.479H109.471C109.301 129.479 109.137 129.412 109.017 129.291C108.896 129.17 108.829 129.007 108.829 128.837C108.829 128.666 108.896 128.503 109.017 128.382C109.137 128.262 109.301 128.194 109.471 128.194H112.712C112.883 128.194 113.046 128.262 113.167 128.382C113.287 128.503 113.355 128.666 113.355 128.837C113.355 129.007 113.287 129.17 113.167 129.291C113.046 129.412 112.883 129.479 112.712 129.479ZM109.471 128.34C109.34 128.34 109.213 128.392 109.12 128.485C109.027 128.578 108.974 128.705 108.974 128.837C108.974 128.968 109.027 129.095 109.12 129.188C109.213 129.281 109.34 129.333 109.471 129.333H112.712C112.844 129.333 112.971 129.281 113.064 129.188C113.157 129.095 113.209 128.968 113.209 128.837C113.209 128.705 113.157 128.578 113.064 128.485C112.971 128.392 112.844 128.34 112.712 128.34H109.471Z" fill="#FDF7F9"/>
<path d="M112.177 171.999H87.6974C86.9811 171.999 86.2941 171.715 85.7876 171.208C85.2811 170.702 84.9966 170.015 84.9966 169.299V155.473C84.9966 154.757 85.2811 154.07 85.7876 153.563C86.2941 153.057 86.9811 152.772 87.6974 152.772H112.177C112.893 152.772 113.58 153.057 114.087 153.563C114.593 154.07 114.878 154.757 114.878 155.473V169.283C114.878 169.999 114.593 170.686 114.087 171.192C113.58 171.698 112.893 171.983 112.177 171.983" fill="#0FAF4B"/>
<path d="M92.7153 159.842L93.2933 159.793C93.3106 159.997 93.3774 160.194 93.4878 160.366C93.6046 160.529 93.7659 160.654 93.9523 160.728C94.1781 160.822 94.4208 160.868 94.6653 160.863C94.8769 160.867 95.0875 160.832 95.2865 160.76C95.4442 160.705 95.5828 160.605 95.6862 160.474C95.7705 160.358 95.8159 160.218 95.8158 160.074C95.8178 159.938 95.7741 159.805 95.6916 159.696C95.5788 159.568 95.4331 159.473 95.2703 159.421C94.999 159.331 94.7231 159.255 94.4438 159.194C94.1349 159.131 93.8341 159.033 93.5472 158.902C93.3469 158.806 93.1769 158.656 93.0556 158.47C92.9464 158.297 92.8901 158.097 92.8936 157.892C92.8938 157.66 92.9613 157.433 93.088 157.239C93.2314 157.029 93.4347 156.867 93.6714 156.774C93.9424 156.665 94.2327 156.612 94.5249 156.618C94.8351 156.611 95.1435 156.666 95.4323 156.78C95.6797 156.88 95.8921 157.051 96.0427 157.271C96.1837 157.489 96.2622 157.741 96.2696 158L95.6808 158.049C95.6792 157.921 95.652 157.796 95.601 157.679C95.55 157.562 95.4761 157.456 95.3837 157.368C95.1486 157.205 94.8646 157.127 94.5789 157.147C94.2898 157.127 94.0024 157.205 93.7632 157.368C93.6852 157.425 93.6215 157.498 93.5774 157.584C93.5333 157.669 93.51 157.764 93.5094 157.86C93.5087 157.937 93.5247 158.014 93.5564 158.085C93.5881 158.156 93.6347 158.219 93.693 158.27C93.9752 158.442 94.2895 158.554 94.6167 158.6C94.967 158.668 95.3105 158.767 95.643 158.897C95.8833 158.996 96.091 159.161 96.2425 159.372C96.3736 159.567 96.4415 159.797 96.437 160.031C96.4344 160.279 96.3593 160.521 96.2209 160.728C96.0732 160.952 95.8629 161.129 95.616 161.235C95.3343 161.362 95.0281 161.425 94.7193 161.419C94.3593 161.431 94.0007 161.369 93.666 161.235C93.3948 161.125 93.162 160.937 92.9962 160.695C92.8201 160.445 92.7223 160.148 92.7153 159.842Z" fill="white"/>
<path d="M99.4727 160.253L100.061 160.323C99.9868 160.642 99.8058 160.925 99.5483 161.128C99.2205 161.344 98.8298 161.444 98.4383 161.413C98.0468 161.382 97.677 161.22 97.3877 160.955C97.0821 160.603 96.9269 160.145 96.9556 159.68C96.9265 159.203 97.0832 158.732 97.3931 158.368C97.5375 158.213 97.7136 158.091 97.9092 158.01C98.1049 157.929 98.3158 157.89 98.5274 157.898C98.7297 157.894 98.9305 157.933 99.1166 158.012C99.3028 158.091 99.4702 158.209 99.6078 158.357C99.9094 158.717 100.062 159.179 100.034 159.648C100.034 159.68 100.034 159.734 100.034 159.799H97.5282C97.5255 160.11 97.6369 160.412 97.8414 160.647C97.9306 160.743 98.0394 160.82 98.1605 160.871C98.2816 160.922 98.4122 160.947 98.5437 160.944C98.7376 160.952 98.9284 160.893 99.0838 160.776C99.2644 160.646 99.4002 160.463 99.4727 160.253ZM97.6038 159.329H99.4781C99.4762 159.102 99.4025 158.88 99.2675 158.697C99.1828 158.592 99.0749 158.507 98.9522 158.45C98.8294 158.393 98.6952 158.365 98.5599 158.368C98.4383 158.365 98.3174 158.386 98.2042 158.431C98.091 158.475 97.9879 158.542 97.9009 158.627C97.7198 158.817 97.6142 159.067 97.6038 159.329Z" fill="white"/>
<path d="M100.786 161.332V157.973H101.299V158.448C101.415 158.271 101.576 158.127 101.766 158.032C101.955 157.937 102.167 157.894 102.379 157.908C102.564 157.909 102.748 157.946 102.919 158.016C103.071 158.075 103.203 158.174 103.303 158.303C103.388 158.431 103.448 158.574 103.481 158.724C103.493 158.904 103.493 159.084 103.481 159.264V161.327H102.941V159.286C102.95 159.103 102.928 158.921 102.876 158.746C102.828 158.631 102.745 158.534 102.638 158.47C102.517 158.401 102.379 158.365 102.239 158.367C102.008 158.365 101.785 158.448 101.612 158.6C101.511 158.72 101.435 158.859 101.39 159.01C101.344 159.16 101.33 159.318 101.347 159.475V161.311L100.786 161.332Z" fill="white"/>
<path d="M106.565 161.333V160.911C106.467 161.07 106.328 161.2 106.163 161.288C105.998 161.375 105.812 161.417 105.625 161.408C105.362 161.411 105.104 161.334 104.885 161.187C104.649 161.039 104.461 160.825 104.345 160.571C104.22 160.283 104.157 159.972 104.161 159.658C104.156 159.346 104.213 159.036 104.329 158.746C104.423 158.491 104.595 158.273 104.82 158.121C105.044 157.969 105.311 157.891 105.582 157.898C105.77 157.893 105.957 157.938 106.122 158.027C106.276 158.107 106.409 158.222 106.511 158.362V156.693H107.078V161.333H106.565ZM104.761 159.658C104.735 160.001 104.833 160.343 105.037 160.62C105.111 160.72 105.208 160.801 105.32 160.857C105.431 160.913 105.554 160.943 105.679 160.944C105.801 160.944 105.921 160.916 106.031 160.863C106.14 160.81 106.236 160.732 106.311 160.636C106.508 160.368 106.602 160.038 106.576 159.707C106.605 159.348 106.509 158.989 106.306 158.692C106.23 158.59 106.131 158.508 106.018 158.452C105.904 158.396 105.779 158.367 105.652 158.368C105.53 158.366 105.408 158.393 105.298 158.448C105.189 158.502 105.093 158.582 105.02 158.681C104.823 158.967 104.732 159.312 104.761 159.658Z" fill="white"/>
<path d="M90.7441 167.948V163.309H91.6678L92.7481 166.593C92.8453 166.901 92.921 167.133 92.9696 167.279C93.0182 167.111 93.1046 166.863 93.2126 166.533L94.3254 163.293H95.1518V167.932H94.5576V164.065L93.2235 167.948H92.6833L91.3437 163.995V167.948H90.7441Z" fill="white"/>
<path d="M95.881 166.269C95.8623 166.013 95.9011 165.756 95.9946 165.517C96.088 165.277 96.2338 165.062 96.4212 164.886C96.7193 164.626 97.1062 164.491 97.5015 164.508C97.7118 164.501 97.9214 164.537 98.1167 164.615C98.3121 164.693 98.4889 164.811 98.6358 164.962C98.7894 165.132 98.9076 165.331 98.9836 165.547C99.0597 165.763 99.092 165.992 99.0788 166.22C99.0952 166.571 99.0286 166.921 98.8843 167.241C98.7639 167.482 98.5763 167.683 98.3442 167.819C98.0941 167.955 97.8134 168.026 97.5285 168.024C97.3174 168.033 97.1068 167.997 96.9104 167.919C96.7141 167.84 96.5363 167.722 96.3888 167.571C96.2226 167.398 96.0922 167.194 96.005 166.97C95.9179 166.747 95.8758 166.509 95.881 166.269ZM96.4644 166.269C96.4384 166.615 96.5381 166.958 96.7453 167.236C96.8328 167.337 96.9415 167.418 97.0638 167.473C97.186 167.528 97.3188 167.556 97.4529 167.554C97.5876 167.557 97.7212 167.529 97.8437 167.473C97.9662 167.417 98.0745 167.334 98.1605 167.23C98.3701 166.948 98.47 166.598 98.4414 166.247C98.4661 165.909 98.3662 165.573 98.1605 165.302C98.073 165.201 97.9643 165.12 97.842 165.065C97.7198 165.009 97.587 164.982 97.4529 164.984C97.3186 164.98 97.1853 165.007 97.0628 165.062C96.9404 165.118 96.8318 165.2 96.7453 165.302C96.5363 165.579 96.4364 165.923 96.4644 166.269Z" fill="white"/>
<path d="M99.7051 167.948V164.584H100.245V165.064C100.363 164.888 100.524 164.745 100.714 164.651C100.903 164.556 101.114 164.512 101.326 164.524C101.511 164.525 101.695 164.564 101.866 164.638C102.017 164.695 102.148 164.794 102.244 164.924C102.333 165.05 102.393 165.194 102.422 165.345C102.448 165.524 102.459 165.705 102.454 165.885V167.954H101.914V165.902C101.924 165.719 101.9 165.536 101.844 165.362C101.8 165.246 101.718 165.149 101.612 165.086C101.491 165.015 101.352 164.979 101.212 164.983C100.981 164.978 100.757 165.061 100.586 165.216C100.483 165.335 100.406 165.474 100.36 165.625C100.315 165.776 100.301 165.934 100.321 166.091V167.927L99.7051 167.948Z" fill="white"/>
<path d="M105.604 166.863L106.193 166.939C106.11 167.259 105.919 167.542 105.652 167.738C105.373 167.937 105.034 168.038 104.691 168.024C104.476 168.035 104.26 168 104.059 167.922C103.858 167.844 103.676 167.724 103.524 167.57C103.217 167.22 103.062 166.761 103.092 166.296C103.063 165.818 103.217 165.346 103.524 164.978C103.669 164.823 103.845 164.701 104.04 164.62C104.236 164.539 104.447 164.501 104.659 164.508C104.861 164.505 105.061 164.545 105.247 164.624C105.433 164.703 105.601 164.82 105.739 164.967C106.042 165.327 106.195 165.789 106.166 166.258V166.415H103.703C103.699 166.726 103.811 167.028 104.016 167.263C104.106 167.358 104.215 167.433 104.336 167.484C104.457 167.534 104.587 167.558 104.718 167.554C104.911 167.56 105.1 167.503 105.258 167.392C105.422 167.253 105.542 167.069 105.604 166.863ZM103.73 165.945H105.609C105.602 165.716 105.527 165.494 105.393 165.308C105.309 165.201 105.201 165.116 105.078 165.059C104.956 165.002 104.821 164.974 104.686 164.978C104.564 164.975 104.442 164.997 104.329 165.042C104.215 165.088 104.113 165.156 104.027 165.243C103.843 165.431 103.737 165.682 103.73 165.945Z" fill="white"/>
<path d="M106.879 169.25L106.819 168.71C106.924 168.744 107.033 168.762 107.143 168.764C107.248 168.769 107.352 168.747 107.446 168.699C107.522 168.656 107.587 168.595 107.635 168.521C107.702 168.385 107.76 168.244 107.808 168.1L107.856 167.959L106.582 164.589H107.197L107.894 166.539C107.986 166.787 108.067 167.047 108.143 167.317C108.206 167.057 108.284 166.801 108.375 166.55L109.093 164.589H109.66L108.386 168.008C108.294 168.269 108.187 168.525 108.067 168.775C107.983 168.937 107.863 169.078 107.716 169.185C107.576 169.275 107.412 169.32 107.246 169.315C107.121 169.315 106.996 169.293 106.879 169.25Z" fill="white"/>
<path d="M116.698 128.237H113.917V129.533H116.698V128.237Z" fill="#FCC5D2"/>
<path d="M86.6768 128.172H83.895V129.468H86.6768V128.172Z" fill="#FCC5D2"/>
<path d="M253.611 172.221H250.83V173.517H253.611V172.221Z" fill="#FCC5D2"/>
<path d="M223.59 172.15H220.808V173.447H223.59V172.15Z" fill="#FCC5D2"/>
</g>
<defs>
<clipPath id="clip0_4_27482">
<rect width="250" height="182" fill="white" transform="translate(35 102)"/>
</clipPath>
</defs>
</svg>
