<svg width="24" height="24" viewBox="0 0 24 24" fill="none" xmlns="http://www.w3.org/2000/svg">
<g clip-path="url(#clip0_7_6965)">
<path d="M12.0004 24C18.6276 24 23.9999 18.6276 23.9999 12.0005C23.9999 5.37334 18.6276 0.000976562 12.0004 0.000976562C5.37327 0.000976562 0.000915527 5.37334 0.000915527 12.0005C0.000915527 18.6276 5.37327 24 12.0004 24Z" fill="white"/>
<path d="M23.3145 7.9988C23.3132 7.99499 23.3121 7.9918 23.3107 7.98836C21.7749 3.65794 17.8245 0.47194 13.078 0.0490723C14.9146 1.05593 14.9223 22.9392 13.078 23.9502C17.833 23.5265 21.789 20.3296 23.3188 15.9876C23.3228 15.976 23.3262 15.9647 23.3304 15.9535C23.7624 14.7153 24.0002 13.3856 24.0002 12.0001C24.0003 10.5964 23.7572 9.25042 23.3145 7.9988Z" fill="#E4E4E4"/>
<path d="M16.5379 7.99884C16.0682 4.24592 14.9139 1.05597 13.0772 0.0491104C12.7357 0.0188114 12.3907 0.00214191 12.0419 0.000976562V23.9988C12.3907 23.9972 12.7357 23.9806 13.0772 23.9503C14.9215 22.9393 16.078 19.7267 16.544 15.9535C16.8609 13.3867 16.8588 10.5624 16.5379 7.99884Z" fill="#F3F4F5"/>
<path d="M11.9996 0C6.77949 0 2.34009 3.334 0.689356 7.98858C0.688039 7.99198 0.686873 7.99522 0.685556 7.99902C0.242979 9.25065 -0.00012207 10.5965 -0.00012207 12.0003C-0.00012207 13.3859 0.237659 14.7155 0.669647 15.9537C0.673649 15.9649 0.677247 15.9762 0.681199 15.9878C2.3255 20.6543 6.77088 24 11.9996 24C12.0138 24 12.0278 23.9989 12.0424 23.9989V0.000962675C12.0279 0.000557338 12.0138 0 11.9996 0Z" fill="#036535"/>
<path d="M8.53143 12.2655C8.53143 9.79417 10.5347 7.79048 13.006 7.79048C13.8374 7.79048 14.616 8.01844 15.2826 8.41328C14.3041 7.4462 12.9596 6.84863 11.4749 6.84863C8.48335 6.84863 6.05847 9.27371 6.05847 12.2653C6.05847 15.2569 8.48335 17.6823 11.4749 17.6823C12.9596 17.6823 14.3041 17.0844 15.2826 16.1173C14.616 16.5121 13.8374 16.7397 13.006 16.7397C10.535 16.74 8.53143 14.7367 8.53143 12.2655Z" fill="#E61E25"/>
<path d="M15.4317 9.42236L15.3652 11.5487L17.3668 12.2696L15.3234 12.8628L15.2568 14.9895L14.0607 13.2298L12.0175 13.8235L13.3213 12.1419L12.1255 10.3826L14.128 11.1035L15.4317 9.42236Z" fill="#E61E25"/>
</g>
<defs>
<clipPath id="clip0_7_6965">
<rect width="24" height="24" fill="white"/>
</clipPath>
</defs>
</svg>
