<svg width="24" height="24" viewBox="0 0 24 24" fill="none" xmlns="http://www.w3.org/2000/svg">
<g clip-path="url(#clip0_7_6973)">
<path d="M-0.00012207 12C-0.00012207 5.37262 5.3725 0 11.9999 0C18.6273 0 23.9999 5.37262 23.9999 12C23.4782 12 11.9999 13.5652 11.9999 13.5652L-0.00012207 12Z" fill="#D80027"/>
<path d="M23.9999 12C23.9999 18.6274 18.6273 24 11.9999 24C5.3725 24 -0.00012207 18.6274 -0.00012207 12" fill="black"/>
<path d="M10.3553 9.54426L11.3726 10.2825L10.985 11.4782L12.0015 10.7387L13.0189 11.477L12.6297 10.2817L13.6462 9.54229L12.3892 9.54304L12 8.34778L11.6123 9.54347L10.3553 9.54426Z" fill="#FFDA44"/>
<path d="M15.0003 6.80381C14.0547 6.25785 13.0207 6.00018 12.0003 6.00196V7.56684C12.7545 7.56548 13.5187 7.75579 14.2176 8.15938C16.3354 9.38207 17.0636 12.0997 15.8408 14.2174C14.6182 16.3351 11.9006 17.0633 9.78285 15.8407C9.16588 15.4844 8.66783 15.0008 8.30071 14.4427L6.99402 15.3053C7.49075 16.0604 8.16557 16.7142 9.00027 17.1961C11.8655 18.8503 15.5422 17.8651 17.1964 14.9999C18.8506 12.1348 17.8655 8.45803 15.0003 6.80381V6.80381Z" fill="#FFDA44"/>
<path d="M8.54081 10.9564C8.12597 11.7148 8.4045 12.666 9.16284 13.0808L14.2464 15.8586C13.9007 16.4905 14.0843 17.2597 14.7162 17.6054L16.0894 18.3566C16.7213 18.7023 17.514 18.4702 17.8597 17.8382L18.6109 16.4651L8.54081 10.9564Z" fill="#FFDA44"/>
</g>
<defs>
<clipPath id="clip0_7_6973">
<rect width="24" height="24" fill="white"/>
</clipPath>
</defs>
</svg>
