<svg width="24" height="24" viewBox="0 0 24 24" fill="none" xmlns="http://www.w3.org/2000/svg">
<g clip-path="url(#clip0_7_6597)">
<path d="M0.566504 8.53123C0.19891 9.70389 -0.00012207 10.9531 -0.00012207 12.25C-0.00012207 13.5467 0.19891 14.796 0.566551 15.9687L11.9999 16.5L23.4332 15.9687C23.8008 14.796 23.9999 13.5467 23.9999 12.25C23.9999 10.9532 23.8008 9.70389 23.4332 8.53123L11.9999 8L0.566504 8.53123Z" fill="#F0F0F0"/>
<path d="M23.9999 12C23.9999 11.3178 23.9375 10.6496 23.8186 10H0.18119C0.0622217 10.6496 -0.00012207 11.3177 -0.00012207 12C-0.00012207 12.6823 0.0622686 13.3504 0.18119 14H23.8186C23.9375 13.3504 23.9999 12.6822 23.9999 12Z" fill="black"/>
<path d="M11.9999 24C17.385 24 21.9457 20.4936 23.4999 15.6521H0.499939C2.05418 20.4936 6.61489 23.9999 11.9999 24Z" fill="#338AF3"/>
<path d="M11.9999 1.87985e-09C6.61488 1.87985e-09 2.05422 3.5064 0.499878 8.34781H23.4998C21.9456 3.5064 17.3849 -9.37485e-05 11.9999 1.87985e-09Z" fill="#338AF3"/>
</g>
<defs>
<clipPath id="clip0_7_6597">
<rect width="24" height="24" fill="white"/>
</clipPath>
</defs>
</svg>
