<svg width="24" height="24" viewBox="0 0 24 24" fill="none" xmlns="http://www.w3.org/2000/svg">
<g clip-path="url(#clip0_7_7141)">
<path d="M11.9999 24C18.6273 24 23.9999 18.6274 23.9999 12C23.9999 5.37258 18.6273 0 11.9999 0C5.37246 0 -0.00012207 5.37258 -0.00012207 12C-0.00012207 18.6274 5.37246 24 11.9999 24Z" fill="#F0F0F0"/>
<path d="M19.3066 2.47979C15.0104 -0.82612 8.98937 -0.82612 4.69318 2.47974L11.9999 9.78643L19.3066 2.47979Z" fill="#D80027"/>
<path d="M11.9998 14.2136L4.69318 21.5202C8.98937 24.8261 15.0104 24.8261 19.3066 21.5202L11.9999 14.2135L11.9998 14.2136Z" fill="#D80027"/>
<path d="M9.78594 12.0001L2.47931 4.69336C-0.826598 8.98955 -0.826598 15.0106 2.47931 19.3067L9.78594 12.0001Z" fill="#6DA544"/>
<path d="M14.2128 12.0001L21.5194 19.3067C24.8253 15.0106 24.8253 8.98955 21.5194 4.69336L14.2128 12.0001Z" fill="#6DA544"/>
<path d="M11.9995 17.2173C14.881 17.2173 17.2169 14.8814 17.2169 12C17.2169 9.11849 14.881 6.78259 11.9995 6.78259C9.118 6.78259 6.7821 9.11849 6.7821 12C6.7821 14.8814 9.118 17.2173 11.9995 17.2173Z" fill="#F0F0F0"/>
<path d="M11.9999 8.34778L12.4517 9.1304H13.3554L12.9036 9.91298L13.3554 10.6956H12.4517L11.9999 11.4782L11.5481 10.6956H10.6444L11.0962 9.91298L10.6444 9.1304H11.5481L11.9999 8.34778Z" fill="#D80027"/>
<path d="M9.70307 12L10.1549 12.7826H11.0585L10.6067 13.5652L11.0585 14.3478H10.1549L9.70307 15.1304L9.25119 14.3478H8.34753L8.79936 13.5652L8.34753 12.7826H9.25119L9.70307 12Z" fill="#D80027"/>
<path d="M14.2968 12L14.7486 12.7826H15.6523L15.2005 13.5652L15.6523 14.3478H14.7486L14.2968 15.1305L13.8449 14.3478H12.9413L13.3931 13.5652L12.9413 12.7826H13.8449L14.2968 12Z" fill="#D80027"/>
</g>
<defs>
<clipPath id="clip0_7_7141">
<rect width="24" height="24" fill="white"/>
</clipPath>
</defs>
</svg>
