<svg width="24" height="24" viewBox="0 0 24 24" fill="none" xmlns="http://www.w3.org/2000/svg">
<g clip-path="url(#clip0_7_6606)">
<path d="M17.2174 1.19072C15.6397 0.427875 13.8698 0 12 0C10.1302 0 8.36025 0.427875 6.78262 1.19072L5.73914 12L6.78262 22.8093C8.36025 23.5721 10.1302 24 12 24C13.8698 24 15.6397 23.5721 17.2174 22.8093L18.2609 12L17.2174 1.19072Z" fill="#D80027"/>
<path d="M11.9998 7.82611L13.0357 11.0145H16.3886L13.6762 12.9853L14.7122 16.1739L11.9998 14.2032L9.28735 16.1739L10.3235 12.9853L7.61115 11.0145H10.9638L11.9998 7.82611Z" fill="#FFDA44"/>
<path d="M6.7825 1.19114C2.7686 3.13205 -0.00012207 7.24247 -0.00012207 12C-0.00012207 16.7575 2.7686 20.8679 6.7825 22.8089V1.19114Z" fill="#496E2D"/>
<path d="M17.2177 1.19116V22.8089C21.2316 20.868 24.0003 16.7575 24.0003 12C24.0003 7.24254 21.2316 3.13207 17.2177 1.19116Z" fill="#FFDA44"/>
</g>
<defs>
<clipPath id="clip0_7_6606">
<rect width="24" height="24" fill="white"/>
</clipPath>
</defs>
</svg>
