<svg width="24" height="24" viewBox="0 0 24 24" fill="none" xmlns="http://www.w3.org/2000/svg">
<g clip-path="url(#clip0_7_7166)">
<path d="M11.9999 24C18.6273 24 23.9999 18.6274 23.9999 12C23.9999 5.37258 18.6273 0 11.9999 0C5.37246 0 -0.00012207 5.37258 -0.00012207 12C-0.00012207 18.6274 5.37246 24 11.9999 24Z" fill="#F0F0F0"/>
<path d="M11.9999 24C15.6369 24 18.8958 22.3817 21.0965 19.8261H2.90326C5.1039 22.3817 8.36279 24 11.9999 24Z" fill="#0052B4"/>
<path d="M23.9999 12C23.9999 5.37262 18.6273 0 11.9999 0C5.3725 0 -0.00012207 5.37262 -0.00012207 12C-0.00012207 13.0831 0.144253 14.1323 0.413269 15.1305H23.5865C23.8555 14.1323 23.9999 13.0831 23.9999 12Z" fill="#0052B4"/>
<path d="M0.953979 16.6957C1.18531 17.2392 1.45573 17.762 1.7615 18.2609H22.2389C22.5446 17.7619 22.815 17.2392 23.0465 16.6957H0.953979Z" fill="#D80027"/>
<path d="M8.5776 12.7826L8.77185 13.3804H9.4005L8.89195 13.75L9.0862 14.3478L8.5776 13.9783L8.06901 14.3478L8.26331 13.75L7.75476 13.3804H8.3834L8.5776 12.7826Z" fill="#FFDA44"/>
<path d="M8.5776 20.6086L8.77185 21.2065H9.4005L8.89195 21.576L9.0862 22.1738L8.5776 21.8044L8.06901 22.1738L8.26331 21.576L7.75476 21.2065H8.3834L8.5776 20.6086Z" fill="#FFDA44"/>
<path d="M4.93503 17.962L5.12928 18.5597H5.75792L5.24937 18.9292L5.44362 19.5272L4.93503 19.1576L4.42643 19.5272L4.62078 18.9292L4.11218 18.5597H4.74078L4.93503 17.962Z" fill="#FFDA44"/>
<path d="M6.32667 13.5652L6.52092 14.1631H7.14952L6.64102 14.5325L6.83527 15.1304L6.32667 14.7609L5.81808 15.1304L6.01243 14.5325L5.50378 14.1631H6.13242L6.32667 13.5652Z" fill="#FFDA44"/>
<path d="M4.11218 16.0272L4.74068 16.0273L4.93498 15.4293L5.12928 16.0272L5.75792 16.0272L5.24932 16.3967L5.44362 16.9946L4.93498 16.6251L4.42643 16.9945L4.62068 16.3967L4.11218 16.0272Z" fill="#FFDA44"/>
<path d="M5.81817 21.277L6.01242 20.6793L5.50378 20.3098H6.13242L6.32672 19.7119L6.52102 20.3098H7.14961L6.64102 20.6792L6.83527 21.2772L6.32667 20.9076L5.81817 21.277Z" fill="#FFDA44"/>
<path d="M12.2192 17.9619L12.025 18.5597H11.3964L11.9049 18.9292L11.7106 19.5271L12.2192 19.1576L12.7278 19.5271L12.5335 18.9292L13.0421 18.5597H12.4135L12.2192 17.9619Z" fill="#FFDA44"/>
<path d="M10.8276 13.5652L10.6334 14.1631H10.0048L10.5133 14.5325L10.319 15.1304L10.8276 14.7609L11.3362 15.1304L11.1419 14.5325L11.6505 14.1631H11.0219L10.8276 13.5652Z" fill="#FFDA44"/>
<path d="M13.0421 16.0273L12.4135 16.0273L12.2193 15.4293L12.025 16.0273L11.3964 16.0272L11.9049 16.3967L11.7106 16.9946L12.2193 16.6251L12.7278 16.9945L12.5335 16.3967L13.0421 16.0273Z" fill="#FFDA44"/>
<path d="M11.3362 21.277L11.142 20.6793L11.6506 20.3098H11.0219L10.8277 19.7119L10.6334 20.3098H10.0048L10.5134 20.6792L10.3191 21.2772L10.8277 20.9076L11.3362 21.277Z" fill="#FFDA44"/>
</g>
<defs>
<clipPath id="clip0_7_7166">
<rect width="24" height="24" fill="white"/>
</clipPath>
</defs>
</svg>
