<svg width="24" height="24" viewBox="0 0 24 24" fill="none" xmlns="http://www.w3.org/2000/svg">
<g clip-path="url(#clip0_7_7202)">
<path d="M11.9999 24C18.6273 24 23.9999 18.6274 23.9999 12C23.9999 5.37258 18.6273 0 11.9999 0C5.37246 0 -0.00012207 5.37258 -0.00012207 12C-0.00012207 18.6274 5.37246 24 11.9999 24Z" fill="#F0F0F0"/>
<path d="M22.5406 6.26086C20.99 3.41888 18.3236 1.27345 15.1301 0.412735L14.6084 6.26086H22.5406Z" fill="#0052B4"/>
<path d="M1.45898 6.26086H9.39117L8.86945 0.412735C5.676 1.27345 3.00966 3.41892 1.45898 6.26086V6.26086Z" fill="#0052B4"/>
<path d="M14.6083 12V17.7391H22.5405C23.4707 16.0342 23.9996 14.0789 23.9996 12H14.6083Z" fill="#6DA544"/>
<path d="M9.39119 12H-0.00012207C-0.00012207 14.0789 0.528769 16.0342 1.45896 17.7391H9.39114V12H9.39119Z" fill="#6DA544"/>
<path d="M1.45898 17.7391C3.00966 20.5811 5.676 22.7265 8.86945 23.5873L9.39117 18.4728L1.45898 17.7391Z" fill="#FFDA44"/>
<path d="M15.1301 23.5873C18.3236 22.7265 20.99 20.5811 22.5406 17.7391L14.6084 18.4727L15.1301 23.5873Z" fill="#FFDA44"/>
<path d="M14.6084 18.4727L22.5406 17.7391H14.6084V18.4727Z" fill="#FFDA44"/>
<path d="M9.39122 17.7391H1.45898L9.39122 18.4727V17.7391Z" fill="#FFDA44"/>
<path d="M11.9995 0C10.9163 0 9.86717 0.144375 8.86902 0.413391V23.5867C9.86717 23.8556 10.9163 24 11.9995 24C13.0826 24 14.1318 23.8556 15.1299 23.5866V0.413391C14.1318 0.144375 13.0826 0 11.9995 0V0Z" fill="#D80027"/>
<path d="M6.45426 2.60864L6.77798 3.60506H7.82578L6.97818 4.22091L7.30195 5.21733L6.45426 4.60153L5.60662 5.21733L5.93048 4.22091L5.08289 3.60506H6.13059L6.45426 2.60864Z" fill="#FFDA44"/>
</g>
<defs>
<clipPath id="clip0_7_7202">
<rect width="24" height="24" fill="white"/>
</clipPath>
</defs>
</svg>
