<svg width="24" height="24" viewBox="0 0 24 24" fill="none" xmlns="http://www.w3.org/2000/svg">
<g clip-path="url(#clip0_7_7217)">
<path d="M12.0002 0C10.5324 0 9.12627 0.264047 7.82633 0.746391L7.30457 12L7.82628 23.2536C9.12627 23.736 10.5324 24 12.0002 24C13.4681 24 14.8742 23.736 16.1741 23.2536L16.6959 12L16.1742 0.746391C14.8742 0.264047 13.4681 0 12.0002 0V0Z" fill="#FFDA44"/>
<path d="M23.9999 12C23.9999 6.84042 20.7434 2.44191 16.1738 0.746391V23.2537C20.7434 21.5581 23.9999 17.1596 23.9999 12V12Z" fill="#D80027"/>
<path d="M7.82599 23.2536V0.746391C3.25638 2.44191 -0.00012207 6.84042 -0.00012207 12C-0.00012207 17.1596 3.25638 21.5581 7.82599 23.2536Z" fill="#0052B4"/>
</g>
<defs>
<clipPath id="clip0_7_7217">
<rect width="24" height="24" fill="white"/>
</clipPath>
</defs>
</svg>
