<svg width="34" height="34" viewBox="0 0 34 34" fill="none" xmlns="http://www.w3.org/2000/svg">
<g clip-path="url(#clip0_7_6621)">
<path d="M6.06142 21.9764C6.63958 23.2368 7.44714 24.4178 8.48509 25.4557C9.52298 26.4936 10.7039 27.3011 11.9642 27.8793L20.2906 20.2907L27.8793 11.9642C27.3011 10.7039 26.4935 9.52303 25.4557 8.48514C24.4177 7.44715 23.2368 6.63959 21.9764 6.06147L13.65 13.65L6.06142 21.9764Z" fill="#FFDA44"/>
<path d="M25.4559 25.4559C29.1042 21.8075 29.9118 16.3946 27.8794 11.9645L11.9644 27.8795C16.3946 29.9118 21.8075 29.1043 25.4559 25.4559Z" fill="#DC241F"/>
<path d="M8.48529 8.48531C4.83688 12.1337 4.02939 17.5466 6.06165 21.9767L21.9767 6.0617C17.5466 4.02941 12.1336 4.83697 8.48529 8.48531Z" fill="#009543"/>
</g>
<defs>
<clipPath id="clip0_7_6621">
<rect width="24" height="24" fill="white" transform="translate(16.9706 33.9412) rotate(-135)"/>
</clipPath>
</defs>
</svg>
