<svg width="24" height="24" viewBox="0 0 24 24" fill="none" xmlns="http://www.w3.org/2000/svg">
<g clip-path="url(#clip0_7_7302)">
<path d="M10.9564 13.0435C10.9564 13.0435 3.52162 3.51305 3.51459 3.51473C5.68612 1.34316 8.68616 0 11.9999 0C18.6273 0 23.9999 5.37262 23.9999 12L10.9564 13.0435Z" fill="#338AF3"/>
<path d="M10.9564 12C10.9564 12 3.52162 20.487 3.51459 20.4853C5.68612 22.6568 8.68616 24 11.9999 24C18.6273 24 23.9999 18.6274 23.9999 12H10.9564Z" fill="#6DA544"/>
<path d="M3.51459 3.51471C-1.17169 8.20099 -1.17169 15.799 3.51459 20.4853C5.45113 18.5488 7.31361 16.6863 11.9999 12L3.51459 3.51471Z" fill="#F0F0F0"/>
<path d="M4.85683 8.86963L5.63378 11.261H8.14844L6.11416 12.7391L6.89106 15.1305L4.85683 13.6525L2.8225 15.1305L3.59959 12.7391L1.56531 11.261H4.07978L4.85683 8.86963Z" fill="#D80027"/>
</g>
<defs>
<clipPath id="clip0_7_7302">
<rect width="24" height="24" fill="white"/>
</clipPath>
</defs>
</svg>
