<svg width="24" height="24" viewBox="0 0 24 24" fill="none" xmlns="http://www.w3.org/2000/svg">
<g clip-path="url(#clip0_7_7325)">
<path d="M12.0004 24C18.6276 24 23.9999 18.6277 23.9999 12.0005C23.9999 5.3734 18.6276 0.0010376 12.0004 0.0010376C5.37327 0.0010376 0.000915527 5.3734 0.000915527 12.0005C0.000915527 18.6277 5.37327 24 12.0004 24Z" fill="white"/>
<path d="M23.3145 7.99902H15.9208C16.242 10.5624 16.2438 13.3869 15.927 15.9536H23.3302C23.7624 14.7154 24 13.3856 24 12.0002C24.0002 10.5965 23.7571 9.2505 23.3145 7.99902Z" fill="#EFECEC"/>
<path d="M15.9207 7.99914H23.3142C23.3131 7.99534 23.3119 7.99215 23.3104 7.9887C21.7749 3.65823 17.8243 0.472235 13.078 0.0493164C14.9146 1.05622 15.4511 4.24617 15.9207 7.99914Z" fill="#C42B27"/>
<path d="M13.078 23.9504C17.8331 23.5267 21.7891 20.3297 23.3189 15.9877C23.3229 15.9762 23.3263 15.9648 23.3305 15.9536H15.9271C15.4612 19.7268 14.9223 22.9393 13.078 23.9504Z" fill="#0B0B0B"/>
<path d="M-0.00012207 12.0002C-0.00012207 13.3859 0.237861 14.7154 0.669647 15.9536H16.5444C16.8616 13.3868 16.8593 10.5625 16.5385 7.99908H0.685607C0.242979 9.25056 -0.00012207 10.5966 -0.00012207 12.0002Z" fill="#EFEFEF"/>
<path d="M0.689225 7.98863C0.68811 7.99203 0.686945 7.99527 0.685425 7.99907H16.5384C16.0685 4.24616 14.9142 1.05616 13.0774 0.0492991C12.7222 0.0178348 12.363 0 11.9996 0C6.77937 0 2.34016 3.334 0.689225 7.98863Z" fill="#CC3434"/>
<path d="M16.5446 15.9536H0.6698C0.673803 15.9648 0.677552 15.9762 0.681352 15.9877C2.32565 20.6543 6.77129 24 11.9998 24C12.3633 24 12.7225 23.9822 13.0778 23.9504C14.9223 22.9393 16.0787 19.7268 16.5446 15.9536Z" fill="#151515"/>
<path d="M14.3415 14.7914C14.1963 14.7525 13.9811 14.7844 13.8075 14.7739C13.7746 14.7932 13.7788 14.8501 13.764 14.888C13.781 14.9233 13.8165 14.9039 13.8517 14.9316C13.9064 14.9841 13.9437 15.0551 14.0267 15.0803C13.9553 15.1552 13.9572 15.3028 13.8517 15.3431C13.8695 15.5152 13.7577 15.5455 13.5889 15.5792C12.7809 15.7403 11.5245 15.7566 10.6656 15.6402C10.559 15.6262 10.2459 15.5796 10.1663 15.5093C10.1349 15.4809 10.1159 15.4386 10.1228 15.3602C10.0214 15.3098 10.0203 15.1592 9.93915 15.0889C10.0524 15.0504 10.0742 14.9208 10.202 14.8964C10.2058 14.8428 10.1827 14.816 10.1753 14.774C9.99509 14.7837 9.77605 14.7537 9.6239 14.7914C9.63794 14.5957 9.64245 14.3733 9.65917 14.1438C9.68136 13.8371 9.67812 13.4776 9.70274 13.1724C9.71561 13.0166 9.71049 12.8555 9.72057 12.6998C9.73876 12.404 9.72569 12.1103 9.74692 11.8331C9.76947 11.5341 9.75903 11.2147 9.78178 10.932C9.80509 10.6389 9.8858 10.4047 10.228 10.4327C10.6336 10.4664 10.8885 10.8062 11.3307 10.809C11.5361 10.682 11.6856 10.1888 11.6282 9.82012C11.6018 9.64958 11.4213 9.40308 11.2434 9.49631C11.217 9.20867 11.491 9.24733 11.672 9.33868C11.7271 9.30418 11.7434 9.25569 11.8033 9.24242C11.9516 9.20943 12.1423 9.27692 12.2148 9.32125C12.3526 9.40556 12.4164 9.59258 12.4162 9.82904C12.4159 9.95145 12.3886 10.0733 12.3984 10.1964C12.4202 10.4577 12.509 10.6701 12.6174 10.8005C13.0282 10.8382 13.3302 10.4723 13.7287 10.4327C13.8983 10.416 14.0396 10.4797 14.1139 10.5903C14.2272 11.0107 14.1912 11.4752 14.2276 11.947C14.2494 12.2296 14.2365 12.5251 14.254 12.8136C14.2935 13.466 14.313 14.121 14.3415 14.7914ZM12.372 10.2139C12.3542 9.97628 12.4202 9.72162 12.3372 9.50482C12.2983 9.46788 12.2758 9.41443 12.2231 9.39112C12.1796 9.39112 12.1358 9.39112 12.0922 9.39112C12.0266 9.42639 12.0026 9.49915 11.9346 9.51353C11.7727 9.54804 11.7599 9.39437 11.6371 9.34735C11.6053 9.33483 11.5621 9.34187 11.5231 9.32951C11.4058 9.29369 11.3362 9.25184 11.2781 9.41722C11.4924 9.4047 11.6837 9.47386 11.7332 9.65368C11.6108 9.61958 11.6451 9.72948 11.6544 9.80203C11.6995 10.1628 11.6191 10.4535 11.4968 10.6513C11.4386 10.7456 11.364 10.8193 11.3217 10.9052C11.449 10.8815 11.564 10.8888 11.6281 10.8085C11.7139 10.7017 11.6954 10.473 11.7505 10.3449C11.7454 10.6166 11.6683 10.817 11.5407 10.9662C11.8526 10.9222 11.9068 10.6621 11.9345 10.3449C11.9574 10.5022 11.9155 10.6706 11.8642 10.7824C11.9046 10.8328 11.9275 10.9004 11.987 10.9315C12.0362 10.8904 12.0728 10.8364 12.1007 10.7739C12.0552 10.6706 12.0012 10.483 12.0482 10.3449C12.0442 10.6816 12.1363 10.9223 12.4248 10.9662C12.3087 10.8194 12.1965 10.5761 12.2319 10.336C12.242 10.5243 12.2875 10.6773 12.3456 10.8175C12.426 10.8686 12.5273 10.8986 12.6524 10.9052C12.5126 10.7349 12.3946 10.5085 12.372 10.2139ZM11.821 9.41747C11.821 9.42902 11.821 9.44078 11.821 9.45233C11.8421 9.44893 11.84 9.46864 11.8644 9.46125C11.8722 9.45121 11.8764 9.43794 11.8733 9.41767C11.862 9.40577 11.832 9.40577 11.821 9.41747ZM10.1317 10.4588C9.93824 10.474 9.83382 10.6358 9.83422 10.8266C9.91894 10.7974 9.99965 10.7182 10.0881 10.7215C10.0407 12.0385 9.98298 13.2368 9.93049 14.5377C9.85434 14.6095 9.75695 14.6612 9.70294 14.7564C9.86057 14.7564 10.0182 14.7564 10.1755 14.7564C10.2003 14.5476 10.4349 14.5047 10.6307 14.5635C10.7235 14.2423 10.8179 13.9225 10.9024 13.592C10.8154 13.6453 10.7711 13.7408 10.6834 13.7934C10.7148 12.9512 10.7574 12.1316 10.7885 11.2728C10.9236 11.378 11.143 11.3843 11.3573 11.3517C11.6138 11.3125 11.8357 11.1703 11.996 11.0714C12.164 11.2206 12.472 11.3453 12.7838 11.3689C12.978 11.3837 13.0676 11.3204 13.1865 11.2901C13.2046 12.1482 13.2661 12.9876 13.2827 13.8021C13.2113 13.7362 13.1524 13.6582 13.073 13.6005C13.1503 13.9318 13.2509 14.2397 13.3354 14.5635C13.5393 14.4991 13.7643 14.555 13.7994 14.7564C13.9536 14.7505 14.1317 14.7679 14.2715 14.7474C14.2164 14.6497 14.0805 14.6216 14.0444 14.5199C14.0033 14.4053 14.0332 14.2306 14.0269 14.082C13.9788 13.0236 13.9116 11.7735 13.8867 10.713C13.9858 10.7363 14.0487 10.796 14.1406 10.8267C14.1209 10.6158 14.0334 10.4722 13.8342 10.4589C13.3812 10.4286 13.1199 10.8452 12.6616 10.8352C12.6616 10.8907 12.7508 10.9032 12.7404 10.9403C12.6527 10.9341 12.5229 10.9275 12.4341 10.8967C12.4255 10.9452 12.5136 10.9674 12.5214 11.0277C12.3475 10.9981 12.2169 10.9248 12.1102 10.8266C12.0695 10.8848 12.0329 10.9477 11.9789 10.9928C11.9327 10.9403 11.9041 10.8689 11.8476 10.8266C11.7555 10.9329 11.6274 11.0032 11.4453 11.0191C11.4709 10.9748 11.5238 10.9577 11.5327 10.8967C11.452 10.9247 11.3177 10.9433 11.2263 10.932C11.2534 10.9001 11.2996 10.8884 11.3051 10.8353C10.8699 10.8474 10.5669 10.4253 10.1317 10.4588ZM10.9806 11.4045C10.998 12.364 11.3639 13.0516 11.9956 13.4262C12.5977 13.0302 12.9799 12.3682 12.9848 11.4045C12.6761 11.4005 12.4586 11.3556 12.2673 11.2732C12.1596 11.227 12.056 11.1419 11.9698 11.1156C11.7318 11.3033 11.4061 11.4041 10.9806 11.4045ZM10.998 12.0432C10.9898 12.4684 10.9218 12.9876 10.9544 13.4262C11.0436 13.1897 11.0188 12.89 11.0333 12.5774C11.0429 12.368 11.0857 12.1562 11.0069 12.0171C11.0073 12.029 11.0027 12.036 10.998 12.0432ZM12.9412 12.8311C12.9412 13.0664 12.9528 13.2958 13.0286 13.4347C13.0375 12.9692 12.9789 12.4851 12.9765 12.0254C12.9649 12.0251 12.9644 12.0146 12.9501 12.0169C12.8893 12.2479 12.9412 12.5457 12.9412 12.8311ZM11.1382 13.3299C11.2136 13.2449 11.2977 13.1685 11.3657 13.0756C11.3542 12.8861 11.3083 12.7308 11.2081 12.6296C11.1808 12.8544 10.9646 13.1444 11.1382 13.3299ZM12.6085 13.0846C12.6907 13.1604 12.761 13.2938 12.8535 13.33C12.984 13.1172 12.7957 12.8889 12.775 12.6471C12.7635 12.6467 12.7625 12.6355 12.7483 12.6386C12.6614 12.7463 12.6104 12.891 12.6085 13.0846ZM11.4357 13.4787C11.5164 13.3929 11.5863 13.2962 11.6543 13.1984C11.5455 13.1119 11.4663 12.9957 11.3657 12.9006C11.3883 13.0941 11.401 13.297 11.4357 13.4787ZM12.3197 13.207C12.3963 13.2966 12.4503 13.4089 12.5473 13.4787C12.5651 13.2892 12.5795 13.0967 12.6083 12.9184C12.6075 12.9076 12.6057 12.8977 12.5909 12.9006C12.51 13.0124 12.4135 13.1087 12.3197 13.207ZM11.1118 13.3821C11.1011 13.3258 11.0715 13.2885 11.0594 13.2337C10.984 13.3343 10.975 13.485 10.9369 13.6185C10.9229 13.6674 10.8892 13.7074 10.8934 13.7587C10.9936 13.7157 11.0347 13.614 11.1383 13.5748C11.1569 13.6613 11.2001 13.7228 11.2257 13.8023C11.3068 13.7634 11.303 13.6403 11.3748 13.5922C11.4144 13.7331 11.4559 13.8726 11.5057 14.0037C11.599 13.9249 11.7053 13.8585 11.7333 13.7147C11.6808 13.5952 11.6327 13.4713 11.5845 13.3474C11.5135 13.3958 11.4684 13.5171 11.4095 13.5488C11.3936 13.404 11.4032 13.2342 11.3481 13.1287C11.276 13.2197 11.2018 13.3083 11.1118 13.3821ZM12.5647 13.5571C12.501 13.4923 12.4571 13.4084 12.3897 13.3474C12.3645 13.4048 12.3349 13.4614 12.3108 13.5224C12.2868 13.5834 12.2435 13.6587 12.2409 13.7149C12.2343 13.8523 12.3857 13.9165 12.4685 14.0039C12.5069 13.8673 12.524 13.7092 12.5822 13.5923C12.6365 13.6607 12.661 13.7589 12.7398 13.8025C12.7802 13.7291 12.8082 13.6433 12.8449 13.566C12.9197 13.6316 12.9889 13.7026 13.0725 13.7589C13.0344 13.6008 12.9866 13.378 12.9148 13.2249C12.897 13.2828 12.8737 13.3352 12.8449 13.3822C12.7634 13.3034 12.7017 13.2045 12.6084 13.1372C12.5822 13.2655 12.5716 13.4095 12.5647 13.5571ZM11.6719 13.2248C11.5302 13.3258 11.6875 13.5308 11.7422 13.6452C11.767 13.5443 11.7899 13.4418 11.8121 13.3385C11.764 13.3021 11.7178 13.2637 11.6719 13.2248ZM12.1621 13.3472C12.1885 13.4463 12.1898 13.5704 12.241 13.6451C12.2899 13.5418 12.326 13.4265 12.3719 13.3209C12.3471 13.2847 12.3311 13.239 12.2845 13.2246C12.2637 13.285 12.1865 13.29 12.1621 13.3472ZM11.1031 13.6096C11.0344 13.6811 10.968 13.7548 10.8756 13.8025C10.8146 13.9791 10.9407 14.129 10.998 14.2662C11.0776 14.2083 11.1117 14.1051 11.1909 14.0475C11.2227 14.15 11.2445 14.2622 11.296 14.345C11.3818 14.2848 11.4311 14.1423 11.5143 14.1089C11.5336 14.2036 11.5325 14.3182 11.5846 14.3802C11.6156 14.2129 11.6556 14.0545 11.6893 13.8899C11.6187 13.9042 11.5671 14.0123 11.4969 14.0564C11.4484 13.9298 11.4169 13.7866 11.3659 13.6623C11.2972 13.7104 11.2875 13.8177 11.2257 13.8724C11.1901 13.7796 11.1649 13.6767 11.1031 13.6096ZM12.7309 13.8724C12.6809 13.7999 12.6513 13.7074 12.5733 13.6623C12.5418 13.794 12.506 13.9217 12.4774 14.0564C12.4045 14.0145 12.3556 13.9039 12.2845 13.8899C12.3198 14.0615 12.3397 14.2489 12.4069 14.3887C12.4213 14.2866 12.4388 14.1871 12.4684 14.1002C12.5472 14.176 12.5883 14.2893 12.687 14.3451C12.7144 14.2411 12.7518 14.1475 12.7832 14.0477C12.8573 14.111 12.8924 14.2127 12.9761 14.2663C13.0246 14.1257 13.1478 13.9946 13.0983 13.8116C13.0074 13.7538 12.9396 13.6729 12.8534 13.61C12.8024 13.6869 12.784 13.7966 12.7309 13.8724ZM11.7773 14.5636C11.7322 14.5888 11.7004 14.6273 11.6545 14.6513C11.636 14.6295 11.582 14.5581 11.5672 14.5899C11.5551 14.6248 11.5536 14.6699 11.5408 14.704C11.6244 14.7117 11.7896 14.6795 11.8294 14.7565C11.9478 14.7401 12.0433 14.7787 12.1358 14.7565C12.1703 14.748 12.1972 14.7106 12.232 14.704C12.2972 14.6911 12.3605 14.7155 12.4249 14.704C12.413 14.6659 12.4223 14.6073 12.3982 14.5816C12.3408 14.5793 12.3509 14.6445 12.2935 14.6426C12.2635 14.6026 12.2095 14.5863 12.1794 14.5463C12.1461 14.3028 12.125 14.0463 12.0746 13.8198C12.0547 14.0618 12.1102 14.3032 12.1006 14.5637C12.0536 14.6041 12.031 14.6693 11.9781 14.7039C11.9582 14.6453 11.8787 14.6155 11.8641 14.5377C11.826 14.3238 11.9437 13.9922 11.8908 13.8198C11.8417 14.0564 11.8309 14.3317 11.7773 14.5636ZM10.6568 14.5725C10.6941 14.5962 10.7375 14.6144 10.8055 14.6074C10.8629 14.5398 10.9021 14.4534 10.9717 14.3976C11.0028 14.492 11.0354 14.5852 11.0772 14.669C11.0971 14.669 11.118 14.669 11.1382 14.669C11.1856 14.6116 11.212 14.5327 11.2607 14.4765C11.2914 14.5449 11.3061 14.6294 11.3391 14.6951C11.3791 14.711 11.4439 14.7013 11.4967 14.704C11.5852 14.5541 11.5507 14.3162 11.4882 14.1616C11.4078 14.233 11.3605 14.337 11.2781 14.4066C11.2425 14.3052 11.2296 14.1809 11.164 14.1091C11.103 14.1786 11.0483 14.2552 10.9893 14.3277C10.9272 14.2178 10.9097 14.0628 10.8228 13.9776C10.7759 14.1839 10.7164 14.3783 10.6568 14.5725ZM12.9763 14.3275C12.9156 14.2538 12.8719 14.1628 12.7923 14.1089C12.741 14.1944 12.733 14.3239 12.6783 14.4064C12.611 14.3306 12.5502 14.2025 12.4685 14.1699C12.4281 14.3485 12.3753 14.5547 12.4774 14.7038C12.5274 14.7015 12.5888 14.7105 12.6262 14.6949C12.6666 14.6335 12.6732 14.538 12.7135 14.4763C12.7505 14.5414 12.7901 14.6036 12.8272 14.6688C12.8509 14.6688 12.8742 14.6688 12.8971 14.6688C12.9364 14.5767 12.9635 14.4723 13.0112 14.3885C13.0586 14.4725 13.1152 14.5469 13.1774 14.6161C13.2263 14.6035 13.288 14.6041 13.3087 14.5636C13.2494 14.3748 13.1999 14.1765 13.1425 13.9862C13.1336 13.9862 13.1251 13.9862 13.1162 13.9862C13.0748 14.1051 13.0259 14.2169 12.9763 14.3275ZM10.8318 14.6252C10.9055 14.6337 10.9614 14.6589 11.0419 14.66C11.0143 14.5856 11.0008 14.4969 10.9457 14.4503C10.9161 14.5167 10.8544 14.5515 10.8318 14.6252ZM12.9323 14.6599C12.9823 14.6642 13.0666 14.6322 13.1337 14.625C13.1271 14.5722 13.0589 14.5081 13.02 14.4588C12.9649 14.4999 12.9533 14.5852 12.9323 14.6599ZM11.173 14.6777C11.2018 14.6955 11.2619 14.6824 11.3044 14.6866C11.2877 14.6358 11.2907 14.5659 11.2434 14.5464C11.2174 14.5877 11.1867 14.6237 11.173 14.6777ZM12.6699 14.6866C12.7106 14.6866 12.7518 14.6866 12.7923 14.6866C12.7808 14.6218 12.759 14.5678 12.7046 14.5464C12.7025 14.5985 12.6574 14.6477 12.6699 14.6866ZM13.5189 14.5636C13.3143 14.6084 13.0483 14.6858 12.7925 14.7127C12.5956 14.733 12.4194 14.7391 12.2322 14.7302C12.1809 14.7857 12.2074 14.8493 12.2411 14.9052C12.419 14.9319 12.6189 14.9196 12.7925 14.8963C12.7828 14.7106 13.0033 14.6646 13.0286 14.8614C13.2177 14.8199 13.4293 14.8008 13.5799 14.7212C13.5815 14.6474 13.5811 14.5744 13.5189 14.5636ZM11.0158 14.6951C10.8655 14.6737 10.6632 14.6026 10.5254 14.5727C10.4473 14.5556 10.424 14.5697 10.3945 14.6076C10.3945 14.6486 10.3945 14.6898 10.3945 14.7303C10.5556 14.7966 10.7536 14.8262 10.9459 14.8616C10.9622 14.664 11.1842 14.701 11.173 14.8965C11.3633 14.9195 11.5298 14.9321 11.7248 14.9054C11.7637 14.844 11.7892 14.7988 11.7422 14.7304C11.5082 14.7355 11.2989 14.736 11.0158 14.6951ZM10.2194 14.8001C10.2801 14.7845 10.3271 14.7561 10.3682 14.7212C10.3642 14.6786 10.3771 14.6187 10.3593 14.5899C10.2611 14.6036 10.1912 14.6898 10.2194 14.8001ZM13.6063 14.7302C13.6503 14.7589 13.6948 14.788 13.755 14.8001C13.7757 14.6968 13.7132 14.6036 13.6152 14.59C13.597 14.6214 13.6103 14.6847 13.6063 14.7302ZM11.0594 14.9663C11.0783 14.9445 11.1052 14.9307 11.1293 14.9138C11.1355 14.8435 11.1266 14.7883 11.0944 14.7565C10.9406 14.7351 10.9464 14.9492 11.0594 14.9663ZM12.8361 14.9052C12.8486 14.9355 12.8889 14.9422 12.9234 14.9662C12.9593 14.9465 12.9763 14.9081 13.0023 14.8789C12.9979 14.6869 12.7777 14.7654 12.8361 14.9052ZM10.9281 14.8878C10.695 14.88 10.4603 14.7165 10.2541 14.8179C10.2475 14.8605 10.216 14.8785 10.2278 14.9401C10.1291 14.9296 10.0154 15.0612 10.0091 15.1066C9.99544 15.2061 10.0945 15.2783 10.1489 15.3431C10.1427 15.4045 10.1544 15.4482 10.1753 15.4825C10.9161 15.7279 12.1403 15.733 13.0547 15.6316C13.3234 15.6017 13.7516 15.5742 13.8251 15.4215C13.8251 15.3867 13.8251 15.3516 13.8251 15.3164C13.9221 15.2908 13.9376 15.1843 13.965 15.0888C13.8873 15.0381 13.8609 14.9363 13.7374 14.9316C13.7618 14.8963 13.7203 14.8643 13.72 14.8264C13.6108 14.7336 13.4805 14.8016 13.3262 14.8349C13.1142 14.8812 12.9753 14.8816 12.9232 15.0365C12.9015 14.9825 12.8492 14.9589 12.8095 14.9225C12.6422 14.9469 12.4221 14.9648 12.2496 14.9314C12.2041 15.0025 12.1041 15.0191 12.092 15.1239C12.0672 15.0583 12.0257 15.0093 12.0306 14.9138C12.0018 14.9138 11.972 14.9138 11.9432 14.9138C11.9307 14.9953 11.9129 15.0703 11.873 15.1239C11.866 15.0172 11.762 15.0078 11.7246 14.9314C11.5554 14.9706 11.3131 14.9352 11.164 14.9314C11.1041 14.95 11.0785 15.0029 11.0331 15.0366C11.0264 14.9589 10.9631 14.9374 10.9281 14.8878ZM11.8821 14.7825C11.8929 14.8275 11.9228 14.8527 11.9435 14.888C12.0501 14.9098 12.0596 14.8351 12.0923 14.7825C12.0408 14.7683 11.9334 14.7683 11.8821 14.7825ZM11.7595 14.9316C11.7968 14.9697 11.834 15.0089 11.8908 15.0278C11.9249 14.9371 11.9012 14.8026 11.8031 14.7914C11.811 14.8605 11.7521 14.8626 11.7595 14.9316ZM12.136 14.7914C12.0816 14.8306 12.0132 14.9761 12.1007 15.0278C12.1341 14.9848 12.1935 14.9689 12.2148 14.9138C12.178 14.8834 12.1862 14.8078 12.136 14.7914Z" fill="#EEBC31"/>
<path d="M10.2807 14.1788C10.1864 14.262 10.0761 14.3764 9.98328 14.4323C10.0248 13.2377 10.1009 12.0103 10.1409 10.7742C10.2313 10.8153 10.3304 10.9225 10.4122 11.0017C10.3743 12.0705 10.3247 13.0501 10.2807 14.1788Z" fill="#EEBC31"/>
<path d="M13.9919 14.4239C13.9419 14.4335 13.8933 14.3517 13.8432 14.3098C13.7866 14.2628 13.72 14.2236 13.6856 14.17C13.6305 13.2685 13.6437 12.3171 13.5715 11.4571C13.5607 11.3235 13.5338 11.091 13.5541 11.0105C13.5816 10.9038 13.7625 10.8633 13.8169 10.7659C13.8837 11.8637 13.9294 13.2412 13.9919 14.4239Z" fill="#EEBC31"/>
<path d="M10.4908 11.0632C10.5747 11.1102 10.6355 11.1805 10.7094 11.2383C10.6884 11.9418 10.6443 12.784 10.6131 13.4871C10.6088 13.5901 10.6383 13.752 10.6042 13.8462C10.5673 13.948 10.4244 14.0027 10.3593 14.0912C10.3976 13.0718 10.457 12.0619 10.4908 11.0632Z" fill="#EEBC31"/>
<path d="M13.6067 14.0736C13.5952 14.0857 13.5709 14.055 13.5543 14.0383C13.5025 13.9871 13.4303 13.9083 13.3792 13.8547C13.3349 12.9986 13.3011 12.1055 13.2655 11.2553C13.3148 11.1761 13.3987 11.1317 13.4669 11.0713C13.5179 11.9924 13.5626 13.0861 13.6067 14.0736Z" fill="#EEBC31"/>
<path d="M12.906 11.4481C12.8927 12.3447 12.5418 12.9802 11.987 13.3646C11.4201 12.9749 11.0886 12.3496 11.033 11.4481C11.433 11.4454 11.7731 11.3363 11.987 11.1768C12.2029 11.3577 12.5238 11.4333 12.906 11.4481ZM11.6719 11.3867C11.6564 11.745 11.6634 12.2275 11.6634 12.6209C11.6634 12.7646 11.6339 12.9332 11.6634 13.041C11.679 13.0973 11.7659 13.1494 11.8122 13.1898C11.8721 13.2423 11.921 13.2896 11.9784 13.3211C12.0638 13.254 12.2722 13.1515 12.3025 13.0409C12.331 12.935 12.3025 12.7722 12.3025 12.6297C12.3025 12.22 12.3025 11.7574 12.3025 11.3865C12.1888 11.3306 12.082 11.2685 11.9698 11.2115C11.8894 11.2893 11.7582 11.3152 11.6719 11.3867Z" fill="#EEBC31"/>
<path d="M10.4647 14.6162C10.5195 14.6344 10.6061 14.6206 10.6135 14.6865C10.5673 14.7036 10.5299 14.6435 10.4647 14.6512C10.4647 14.6395 10.4647 14.6279 10.4647 14.6162Z" fill="#EEBC31"/>
<path d="M13.51 14.6339C13.4719 14.6657 13.4109 14.6743 13.3613 14.6949C13.3598 14.6339 13.4785 14.6044 13.51 14.6339Z" fill="#EEBC31"/>
<path d="M10.7274 14.7041C10.8011 14.7123 10.8714 14.7234 10.911 14.7651C10.8536 14.7674 10.739 14.7532 10.7274 14.7041Z" fill="#EEBC31"/>
<path d="M13.2475 14.7127C13.2219 14.7437 13.115 14.7729 13.0546 14.7648C13.0953 14.7301 13.1838 14.6958 13.2475 14.7127Z" fill="#EEBC31"/>
<path d="M12.766 14.8264C12.7202 14.8408 12.6192 14.8408 12.5731 14.8264C12.5883 14.7673 12.7463 14.7724 12.766 14.8264Z" fill="#EEBC31"/>
<path d="M11.418 14.8002C11.4009 14.865 11.2778 14.8235 11.2079 14.835C11.2134 14.7566 11.3594 14.8002 11.418 14.8002Z" fill="#EEBC31"/>
<path d="M11.6809 14.8178C11.6383 14.8404 11.5462 14.8559 11.4969 14.8438C11.5146 14.7964 11.6304 14.8019 11.6809 14.8178Z" fill="#EEBC31"/>
<path d="M12.469 14.8529C12.4019 14.8495 12.3462 14.8355 12.285 14.8265C12.318 14.7954 12.469 14.7928 12.469 14.8529Z" fill="#EEBC31"/>
<path d="M13.6768 15.1855C13.7164 15.1844 13.695 15.1218 13.7378 15.1241C13.7315 15.1508 13.7467 15.1559 13.7463 15.1766C13.6955 15.2037 13.6519 15.217 13.589 15.194C13.5203 15.2306 13.435 15.3568 13.344 15.2639C13.2811 15.2744 13.2904 15.356 13.2388 15.378C13.1689 15.3229 13.1089 15.35 13.0024 15.3602C12.9709 15.396 12.9683 15.46 12.9061 15.4653C12.9099 15.4253 12.9578 15.4297 12.9586 15.3869C12.9489 15.3584 12.8991 15.3705 12.8798 15.3516C12.8635 15.2798 12.9194 15.2802 12.9412 15.2464C12.9812 15.2561 12.9845 15.3019 12.9937 15.343C13.0262 15.3434 13.0488 15.3341 13.0725 15.3252C13.0799 15.2744 13.1058 15.242 13.1335 15.2115C13.132 15.163 13.102 15.097 13.1072 15.0713C13.1572 15.0829 13.1331 15.1683 13.1597 15.2026C13.2269 15.1964 13.2669 15.2182 13.2821 15.2636C13.3501 15.2377 13.3705 15.1585 13.4571 15.1589C13.4952 15.1589 13.5157 15.1922 13.5534 15.1852C13.5638 15.0691 13.5335 14.8303 13.3872 14.9224C13.3938 14.8765 13.4586 14.8883 13.5096 14.8875C13.6016 14.9508 13.5135 15.1937 13.6768 15.1855ZM13.3702 15.2554C13.4106 15.2916 13.5119 15.2721 13.5016 15.2029C13.4769 15.1588 13.353 15.1778 13.3702 15.2554ZM13.1953 15.299C13.2152 15.2928 13.2397 15.2912 13.2563 15.2816C13.2563 15.1818 13.1165 15.2314 13.1953 15.299ZM13.1165 15.3253C13.1383 15.3269 13.1436 15.3117 13.1601 15.3075C13.1597 15.2791 13.1639 15.2461 13.1337 15.2465C13.1179 15.2621 13.0928 15.2971 13.1165 15.3253ZM12.9062 15.3432C12.9333 15.3553 12.9458 15.347 12.9676 15.3343C12.9676 15.3136 12.9524 15.3083 12.9587 15.2818C12.9225 15.2835 12.8996 15.2979 12.9062 15.3432ZM13.2038 15.3432C13.2315 15.3665 13.2679 15.3421 13.2652 15.3076C13.2381 15.313 13.2035 15.3098 13.2038 15.3432Z" fill="#EEBC31"/>
<path d="M10.4992 14.9315C10.4992 14.9459 10.4992 14.9607 10.4992 14.9751C10.4867 14.9887 10.4545 14.9828 10.4293 14.984C10.4219 14.9529 10.4282 14.9622 10.4208 14.9315C10.4448 14.9102 10.472 14.9156 10.4992 14.9315Z" fill="#EEBC31"/>
<path d="M10.482 15.0366C10.4831 15.0521 10.4712 15.0551 10.4731 15.0714C10.4375 15.0722 10.4047 15.0703 10.4032 15.0366C10.4176 15.0233 10.468 15.0233 10.482 15.0366Z" fill="#EEBC31"/>
<path d="M12.3201 15.1067C12.3316 15.1067 12.3434 15.1067 12.3549 15.1067C12.3678 15.1192 12.3678 15.1641 12.3549 15.1766C12.3434 15.1766 12.3316 15.1766 12.3201 15.1766C12.3072 15.1639 12.3072 15.1192 12.3201 15.1067Z" fill="#EEBC31"/>
<path d="M11.3571 15.124C11.3842 15.2381 11.4037 15.484 11.3046 15.5003C11.2059 15.5162 11.2343 15.3671 11.1384 15.3601C11.0798 15.3816 11.0075 15.4063 10.9459 15.378C10.9023 15.381 10.9093 15.4346 10.8671 15.4394C10.9234 15.3812 10.8996 15.3073 10.8934 15.2378C10.9404 15.2432 10.947 15.2891 10.9459 15.3433C10.9711 15.3962 11.0765 15.3607 11.1121 15.3433C11.0931 15.3064 11.0695 15.2746 11.0507 15.2378C11.1043 15.2237 11.1043 15.1741 11.1558 15.1768C11.2413 15.1808 11.2621 15.313 11.1732 15.3518C11.2306 15.3733 11.2376 15.445 11.2873 15.4742C11.4028 15.4494 11.3183 15.2256 11.3571 15.124ZM11.0949 15.2641C11.0933 15.2974 11.1236 15.3166 11.1559 15.3343C11.3035 15.268 11.1003 15.1236 11.0949 15.2641Z" fill="#EEBC31"/>
<path d="M11.4707 15.124C11.4992 15.1843 11.4607 15.3224 11.4529 15.4043C11.4277 15.3469 11.4582 15.2011 11.4707 15.124Z" fill="#EEBC31"/>
<path d="M12.4421 15.124C12.5007 15.1822 12.4317 15.3679 12.5031 15.4126C12.563 15.3947 12.6034 15.4029 12.6172 15.3516C12.6293 15.3061 12.5664 15.279 12.5998 15.2464C12.6778 15.2502 12.6261 15.3601 12.6172 15.4041C12.5258 15.4285 12.4324 15.437 12.3544 15.4215C12.3591 15.3768 12.4061 15.3741 12.4421 15.3601C12.4751 15.2847 12.4232 15.1852 12.4421 15.124Z" fill="#EEBC31"/>
<path d="M12.3895 15.2291C12.395 15.2802 12.2836 15.2509 12.3195 15.2202C12.3321 15.2085 12.3887 15.2024 12.3895 15.2291Z" fill="#EEBC31"/>
<path d="M12.7134 15.518C12.7253 15.471 12.7541 15.4422 12.7748 15.404C12.7503 15.3551 12.6541 15.3092 12.7219 15.2463C12.8564 15.2664 12.7931 15.486 12.7134 15.518ZM12.7219 15.2901C12.7262 15.3239 12.7401 15.3483 12.7747 15.3515C12.7957 15.3257 12.7562 15.2609 12.7219 15.2901Z" fill="#EEBC31"/>
<path d="M13.6849 15.2816C13.6845 15.3327 13.6224 15.3157 13.5975 15.299C13.6112 15.2502 13.6559 15.2647 13.6849 15.2816Z" fill="#EEBC31"/>
<path d="M11.7163 15.2727C11.7962 15.3286 11.9431 15.3589 12.0486 15.3163C12.0742 15.3407 12.0715 15.3928 12.0926 15.4214C12.103 15.4114 12.1233 15.4114 12.1451 15.4125C12.1269 15.3085 12.2716 15.2829 12.2675 15.3951C12.2408 15.4447 12.1623 15.4417 12.0835 15.439C12.0477 15.4588 12.0477 15.5139 12.0136 15.5349C11.9747 15.5213 11.9426 15.5008 11.9348 15.4565C11.8133 15.4313 11.7974 15.4464 11.6545 15.439C11.6193 15.4805 11.5854 15.5664 11.5321 15.5615C11.5577 15.5167 11.6075 15.4971 11.6198 15.439C11.6035 15.4057 11.5425 15.3796 11.5758 15.325C11.6598 15.3114 11.6188 15.4224 11.6895 15.4213C11.764 15.3912 11.707 15.3214 11.7163 15.2727ZM11.7426 15.4215C11.79 15.4218 11.8704 15.423 11.9351 15.4304C11.9626 15.4526 11.9658 15.4988 12.005 15.5092C12.0338 15.4711 12.0835 15.3993 12.0403 15.343C11.9438 15.4228 11.7334 15.2394 11.7426 15.4215ZM12.1799 15.4125C12.2254 15.4203 12.2421 15.3989 12.2413 15.3601C12.2082 15.3155 12.1488 15.3671 12.1799 15.4125Z" fill="#EEBC31"/>
<path d="M10.4377 15.3165C10.4653 15.3091 10.4648 15.3301 10.4812 15.3343C10.4824 15.361 10.4705 15.3762 10.4638 15.3953C10.4133 15.3884 10.4133 15.3442 10.4377 15.3165Z" fill="#EEBC31"/>
<path d="M10.5865 15.3517C10.6235 15.4124 10.5344 15.445 10.5077 15.3953C10.5111 15.358 10.5388 15.3445 10.5865 15.3517Z" fill="#EEBC31"/>
<path d="M10.7178 15.4216C10.7093 15.4219 10.7108 15.4324 10.7089 15.4394C10.6886 15.4394 10.6682 15.4394 10.6475 15.4394C10.6062 15.3672 10.7213 15.3416 10.7178 15.4216Z" fill="#EEBC31"/>
<path d="M12.4339 15.4741C12.4805 15.4752 12.4751 15.5499 12.4428 15.5618C12.4072 15.5571 12.4098 15.4896 12.4339 15.4741Z" fill="#EEBC31"/>
<path d="M12.556 15.5617C12.5304 15.552 12.5043 15.5431 12.495 15.5181C12.5215 15.4343 12.6287 15.5092 12.556 15.5617Z" fill="#EEBC31"/>
<path d="M10.5434 14.9316C10.5523 14.9316 10.5608 14.9316 10.5697 14.9316C10.5724 15.0523 10.3896 15.2585 10.5961 15.2729C10.6298 15.2515 10.6112 15.1774 10.6571 15.1677C10.6622 15.214 10.6393 15.2318 10.6307 15.264C10.6707 15.3762 10.8723 15.3125 10.7884 15.1856C10.8865 15.1871 10.8094 15.2919 10.7969 15.3343C10.7402 15.361 10.6588 15.3328 10.6133 15.2991C10.5159 15.2913 10.43 15.272 10.4208 15.1767C10.5081 15.1414 10.5274 15.0381 10.5434 14.9316Z" fill="#EEBC31"/>
</g>
<defs>
<clipPath id="clip0_7_7325">
<rect width="24" height="24" fill="white"/>
</clipPath>
</defs>
</svg>
