<svg width="24" height="24" viewBox="0 0 24 24" fill="none" xmlns="http://www.w3.org/2000/svg">
<g clip-path="url(#clip0_7_6823)">
<path d="M11.9999 24C18.6273 24 23.9999 18.6274 23.9999 12C23.9999 5.37258 18.6273 0 11.9999 0C5.37246 0 -0.00012207 5.37258 -0.00012207 12C-0.00012207 18.6274 5.37246 24 11.9999 24Z" fill="#F0F0F0"/>
<path d="M7.30376 7.82611H23.253C21.5575 3.2565 17.1589 0 11.9994 0C8.68563 0 5.68596 1.34339 3.51453 3.51511L7.30376 7.82611Z" fill="#6DA544"/>
<path d="M7.30376 16.1738H23.253C21.5575 20.7434 17.1589 23.9999 11.9994 23.9999C8.68563 23.9999 5.68596 22.6565 3.51453 20.4848L7.30376 16.1738Z" fill="#D80027"/>
<path d="M3.51459 3.51465C-1.17169 8.20093 -1.17169 15.7989 3.51459 20.4853C5.45113 18.5487 7.31361 16.6862 11.9999 12L3.51459 3.51465Z" fill="#0052B4"/>
<path d="M14.0869 9.91309V12.5218C14.0869 14.1193 16.1738 14.6088 16.1738 14.6088C16.1738 14.6088 18.2608 14.1193 18.2608 12.5218V9.91309H14.0869Z" fill="#DEDDE0"/>
<path d="M15.6522 12.0522H16.6957V13.5653H15.6522V12.0522Z" fill="#786145"/>
<path d="M17.217 11.4783C17.217 10.902 16.7498 10.4348 16.1735 10.4348C15.5972 10.4348 15.13 10.902 15.13 11.4783C14.8419 11.4783 14.6083 11.7119 14.6083 12C14.6083 12.2882 14.8419 12.5217 15.13 12.5217H17.217C17.5051 12.5217 17.7387 12.2882 17.7387 12C17.7387 11.7119 17.5052 11.4783 17.217 11.4783V11.4783Z" fill="#6DA544"/>
</g>
<defs>
<clipPath id="clip0_7_6823">
<rect width="24" height="24" fill="white"/>
</clipPath>
</defs>
</svg>
