<svg width="24" height="24" viewBox="0 0 24 24" fill="none" xmlns="http://www.w3.org/2000/svg">
<g clip-path="url(#clip0_7_7376)">
<path d="M10.9564 10.9565C10.9564 10.9565 3.52162 20.487 3.51459 20.4853C5.68612 22.6569 8.68616 24 11.9999 24C18.6273 24 23.9999 18.6274 23.9999 12L10.9564 10.9565Z" fill="#338AF3"/>
<path d="M10.9564 12C10.9564 12 3.52162 3.51305 3.51459 3.51473C5.68612 1.34316 8.68616 0 11.9999 0C18.6273 0 23.9999 5.37262 23.9999 12H10.9564Z" fill="#6DA544"/>
<path d="M3.51459 3.51465C-1.17169 8.20093 -1.17169 15.7989 3.51459 20.4853C3.51426 20.4872 23.9999 12 23.9999 12L3.51459 3.51465Z" fill="#D80027"/>
<path d="M6.26074 7.04346C3.95923 7.04346 2.08685 8.91588 2.08685 11.2173V12.7826C2.08685 15.0841 3.95927 16.9564 6.26074 16.9564C8.56221 16.9564 10.4346 15.084 10.4346 12.7826V11.2173C10.4347 8.91588 8.56226 7.04346 6.26074 7.04346ZM8.86943 12.7826C8.86943 13.9485 8.10058 14.938 7.04332 15.2712V13.5652L8.15069 12.4578L7.04393 11.3511L7.04332 10.9572V10.4348H5.47816V12L4.37154 13.1065L5.47816 14.2131V15.2712C4.4209 14.938 3.65206 13.9485 3.65206 12.7826V11.2174C3.65206 9.77899 4.82234 8.60875 6.26074 8.60875C7.69915 8.60875 8.86943 9.77903 8.86943 11.2174V12.7826Z" fill="#FFDA44"/>
</g>
<defs>
<clipPath id="clip0_7_7376">
<rect width="24" height="24" fill="white"/>
</clipPath>
</defs>
</svg>
