<svg width="24" height="24" viewBox="0 0 24 24" fill="none" xmlns="http://www.w3.org/2000/svg">
<path fill-rule="evenodd" clip-rule="evenodd" d="M11.9943 1.5C6.19788 1.50299 1.49988 6.20288 1.49988 12C1.49988 17.799 6.20088 22.5 11.9999 22.5C17.7989 22.5 22.4999 17.799 22.4999 12C22.4999 6.20288 17.8019 1.50299 12.0054 1.5H11.9943Z" fill="#FFE70E"/>
<path fill-rule="evenodd" clip-rule="evenodd" d="M21.8388 15.6748H2.16101C3.65068 19.6613 7.4938 22.4998 11.9999 22.4998C16.506 22.4998 20.3492 19.6613 21.8388 15.6748V15.6748Z" fill="#E92B2B"/>
<path fill-rule="evenodd" clip-rule="evenodd" d="M12.0398 1.5H11.96C7.47116 1.5167 3.64626 4.35023 2.16101 8.325H21.8389C20.3536 4.35023 16.5288 1.5167 12.0398 1.5Z" fill="#32AB45"/>
<path d="M17.2499 12C17.2499 14.8995 14.8994 17.25 11.9999 17.25C9.10038 17.25 6.74988 14.8995 6.74988 12C6.74988 9.1005 9.10038 6.75 11.9999 6.75C14.8994 6.75 17.2499 9.1005 17.2499 12Z" fill="#2A2FAF"/>
<path fill-rule="evenodd" clip-rule="evenodd" d="M12.0004 7.68164L12.8439 10.4111L14.2662 8.64286L14.5809 8.89598L13.1847 10.6317H15.8282L13.653 12.2934L15.7026 13.0215L15.5674 13.402L13.5462 12.684L14.3766 15.3711L12.2023 13.7101V15.6348H11.7985V13.7101L9.62426 15.3711L10.4546 12.684L8.4334 13.402L8.29821 13.0215L10.3479 12.2934L8.17273 10.6317H10.8162L9.42003 8.89598L9.7347 8.64286L11.157 10.4111L12.0004 7.68164ZM10.964 11.0356L10.6589 12.0228L9.36659 11.0356H10.964ZM11.0009 12.2841L11.3867 11.0356H12.6142L13 12.2841L12.0004 13.0477L11.0009 12.2841ZM10.8739 12.6952L11.6678 13.3017L10.3832 14.2831L10.8739 12.6952ZM12.3331 13.3017L13.127 12.6952L13.6177 14.2831L12.3331 13.3017ZM13.3419 12.0228L13.0369 11.0356H14.6343L13.3419 12.0228ZM12.4894 10.6317H11.5115L12.0004 9.0495L12.4894 10.6317Z" fill="#FFE70E"/>
</svg>
