<svg width="24" height="24" viewBox="0 0 24 24" fill="none" xmlns="http://www.w3.org/2000/svg">
<g clip-path="url(#clip0_7_6763)">
<path d="M11.9998 23.9999C11.9972 23.9999 11.9947 23.9996 11.992 23.9996C15.0659 24.0018 18.1399 22.8305 20.485 20.4854L16.6252 16.6256C15.9827 20.7408 14.4417 23.9999 11.9998 23.9999Z" fill="#F0C816"/>
<path d="M20.4848 3.51477C18.141 1.17116 15.0689 -0.000515497 11.9969 0.00024451H11.9996C16.1855 0.00024451 16.625 16.6258 16.625 16.6258L20.4848 20.4856C25.1714 15.7989 25.1712 8.20123 20.4848 3.51477Z" fill="#077D48"/>
<path d="M16.6252 16.6258L3.51441 3.51514C-1.17163 8.20119 -1.17163 15.7993 3.51441 20.4851C5.85554 22.826 8.92348 23.9978 11.9918 23.9996C11.9945 23.9996 11.9969 24 11.9996 24C14.4417 24.0001 15.9827 20.7409 16.6252 16.6258Z" fill="#FFD72E"/>
<path d="M16.6254 16.6255C17.7268 9.57162 16.1858 0 12 0H11.9973C8.92725 0.000810673 5.85717 1.17228 3.51453 3.51493L16.6254 16.6255Z" fill="#008E56"/>
<path d="M11.9791 8.3269L12.755 10.7148H15.2659L13.2345 12.1904L14.0104 14.5784L11.9791 13.1026L9.94774 14.5784L10.7236 12.1904L8.69226 10.7148H11.2032L11.9791 8.3269Z" fill="#D32027"/>
</g>
<defs>
<clipPath id="clip0_7_6763">
<rect width="24" height="24" fill="white"/>
</clipPath>
</defs>
</svg>
