<svg width="24" height="24" viewBox="0 0 24 24" fill="none" xmlns="http://www.w3.org/2000/svg">
<g clip-path="url(#clip0_7_6759)">
<path d="M23.2535 16.1739C23.7359 14.8739 23.9999 13.4678 23.9999 12C23.9999 10.5321 23.7359 9.12611 23.2535 7.82608L11.9999 6.78259L0.746269 7.82608C0.263925 9.12611 -0.00012207 10.5321 -0.00012207 12C-0.00012207 13.4678 0.263925 14.8739 0.746269 16.1739L11.9999 17.2173L23.2535 16.1739Z" fill="#FFDA44"/>
<path d="M11.9996 23.9999C17.1592 23.9999 21.5577 20.7434 23.2532 16.1738H0.745972C2.44153 20.7434 6.84 23.9999 11.9996 23.9999Z" fill="#0052B4"/>
<path d="M11.9996 0C6.84 0 2.44153 3.2565 0.745972 7.82611H23.2532C21.5577 3.2565 17.1592 0 11.9996 0Z" fill="#6DA544"/>
</g>
<defs>
<clipPath id="clip0_7_6759">
<rect width="24" height="24" fill="white"/>
</clipPath>
</defs>
</svg>
