<svg width="24" height="24" viewBox="0 0 24 24" fill="none" xmlns="http://www.w3.org/2000/svg">
<g clip-path="url(#clip0_7_7409)">
<path d="M11.9999 24C18.6273 24 23.9999 18.6274 23.9999 12C23.9999 5.37258 18.6273 0 11.9999 0C5.37246 0 -0.00012207 5.37258 -0.00012207 12C-0.00012207 18.6274 5.37246 24 11.9999 24Z" fill="#F0F0F0"/>
<path d="M11.9997 0C7.03834 0 2.781 3.01067 0.953003 7.30466H23.0463C21.2183 3.01067 16.961 0 11.9997 0Z" fill="#A2001D"/>
<path d="M11.9997 24C16.961 24 21.2183 20.9893 23.0463 16.6953H0.953003C2.781 20.9893 7.03834 24 11.9997 24Z" fill="#496E2D"/>
<path d="M23.5865 8.86938H0.413213C0.138283 9.89019 -0.000695101 10.9429 -0.000120295 12.0001C-0.000695101 13.0573 0.138283 14.1099 0.413213 15.1307H23.5865C23.8615 14.1099 24.0005 13.0573 23.9999 12.0001C24.0005 10.9429 23.8615 9.89019 23.5865 8.86938Z" fill="#0052B4"/>
</g>
<defs>
<clipPath id="clip0_7_7409">
<rect width="24" height="24" fill="white"/>
</clipPath>
</defs>
</svg>
