<svg width="24" height="24" viewBox="0 0 24 24" fill="none" xmlns="http://www.w3.org/2000/svg">
<path d="M-0.000152588 12C-0.000152588 13.4678 0.263894 14.8739 0.746238 16.1739L11.9998 16.6956L23.2535 16.1739C23.7358 14.8739 23.9998 13.4678 23.9998 12C23.9998 10.5321 23.7358 9.12607 23.2535 7.82609L11.9998 7.30432L0.746238 7.82604C0.263894 9.12607 -0.000152588 10.5321 -0.000152588 12Z" fill="#FFDA44"/>
<path d="M11.9996 0C6.83997 0 2.44146 3.2565 0.745941 7.82611H23.2532C21.5576 3.2565 17.1591 0 11.9996 0Z" fill="#D80027"/>
<path d="M23.2532 16.174H0.745941C2.44146 20.7435 6.83997 24.0001 11.9996 24.0001C17.1591 24.0001 21.5576 20.7435 23.2532 16.174Z" fill="#496E2D"/>
<path d="M11.9998 7.82605L13.0357 11.0145H16.3886L13.6762 12.9853L14.7122 16.1738L11.9998 14.2032L9.28733 16.1738L10.3235 12.9853L7.61113 11.0145H10.9638L11.9998 7.82605Z" fill="black"/>
</svg>
