<svg width="24" height="24" viewBox="0 0 24 24" fill="none" xmlns="http://www.w3.org/2000/svg">
<g clip-path="url(#clip0_7_6889)">
<path d="M12.0003 1.77571e-06C10.9431 -0.000573031 9.89046 0.138405 8.86966 0.413335L7.827 12L8.87033 23.5867C9.89093 23.8615 10.9433 24.0005 12.0003 24C18.627 24 24.0003 18.6267 24.0003 12C24.0003 5.37333 18.627 1.77571e-06 12.0003 1.77571e-06V1.77571e-06Z" fill="#FFDA44"/>
<path d="M7.827 12L8.87033 23.5867C9.89093 23.8615 10.9433 24.0005 12.0003 24C18.627 24 24.0003 18.6267 24.0003 12H7.827Z" fill="#6DA544"/>
<path d="M-0.000152588 12.0001C-0.000152588 16.5487 2.53051 20.5067 6.25985 22.5401V1.46008C2.53051 3.49475 -0.000152588 7.45209 -0.000152588 12.0001Z" fill="#D80027"/>
<path d="M-0.000152588 12.0001C-0.000152588 17.5441 3.75985 22.2094 8.86918 23.5867V0.413391C3.75985 1.79073 -0.000152588 6.45606 -0.000152588 12.0001Z" fill="#D80027"/>
<path d="M4.53492 8.86932L5.31159 11.2607H7.82626L5.79291 12.7387L6.56959 15.13L4.53625 13.652L2.50292 15.13L3.28025 12.7387L1.24692 11.2607H3.76159L4.53492 8.86932Z" fill="#3D3D3D"/>
</g>
<defs>
<clipPath id="clip0_7_6889">
<rect width="24" height="24" fill="white"/>
</clipPath>
</defs>
</svg>
