<svg width="24" height="24" viewBox="0 0 24 24" fill="none" xmlns="http://www.w3.org/2000/svg">
<g clip-path="url(#clip0_7_6614)">
<path d="M16.1741 0.746437C14.8741 0.264047 13.468 0 12.0001 0C10.5323 0 9.12624 0.264047 7.8263 0.746344L7.30453 12L7.82625 23.2537C9.12624 23.736 10.5323 24 12.0001 24C13.468 24 14.8741 23.736 16.1741 23.2536L16.6958 12L16.1741 0.746437Z" fill="#FFDA44"/>
<path d="M-0.000152588 12C-0.000152588 17.1595 3.25635 21.5581 7.82596 23.2536V0.746338C3.25635 2.4419 -0.000152588 6.84037 -0.000152588 12Z" fill="#D80027"/>
<path d="M23.9998 12C23.9998 6.84037 20.7433 2.4419 16.1737 0.746338V23.2536C20.7433 21.5581 23.9998 17.1595 23.9998 12Z" fill="#6DA544"/>
</g>
<defs>
<clipPath id="clip0_7_6614">
<rect width="24" height="24" fill="white"/>
</clipPath>
</defs>
</svg>
