<svg width="24" height="24" viewBox="0 0 24 24" fill="none" xmlns="http://www.w3.org/2000/svg">
<g clip-path="url(#clip0_7_6551)">
<path d="M11.9998 24C18.6273 24 23.9998 18.6274 23.9998 12C23.9998 5.37258 18.6273 0 11.9998 0C5.37243 0 -0.000152588 5.37258 -0.000152588 12C-0.000152588 18.6274 5.37243 24 11.9998 24Z" fill="#F0F0F0"/>
<path d="M2.74301 4.36368H21.2571C20.5733 3.53563 19.7802 2.80134 18.9004 2.18188H5.09975C4.21995 2.80124 3.42687 3.53559 2.74301 4.36368Z" fill="#F0F0F0"/>
<path d="M-0.000152588 12C-0.000152588 12.3678 0.0173318 12.7315 0.0497224 13.0909H23.95C23.9824 12.7315 23.9998 12.3678 23.9998 12C23.9998 11.6322 23.9824 11.2685 23.95 10.9091H0.0497224C0.0173318 11.2685 -0.000152588 11.6322 -0.000152588 12Z" fill="#F0F0F0"/>
<path d="M1.30868 17.4545H22.6916C23.0449 16.7633 23.3331 16.0334 23.5482 15.2728H0.451996C0.667105 16.0334 0.955387 16.7633 1.30868 17.4545Z" fill="#F0F0F0"/>
<path d="M5.09975 21.8182H18.9004C19.7802 21.1988 20.5733 20.4645 21.2571 19.6364H2.74301C3.42687 20.4644 4.21995 21.1988 5.09975 21.8182Z" fill="#F0F0F0"/>
<path d="M0.451996 8.72725H23.5483C23.3332 7.96657 23.0449 7.23663 22.6916 6.54546H1.30873C0.955433 7.23663 0.667152 7.96657 0.451996 8.72725Z" fill="#F0F0F0"/>
<path d="M5.73911 2.1818H18.9003C16.9484 0.807516 14.5686 0 12 0C10.4348 0 7.69098 0.807516 5.73911 2.1818Z" fill="#D80027"/>
<path d="M11.4784 6.54548H22.6915C22.2925 5.76487 21.8105 5.03366 21.2571 4.36368H11.4784V6.54548Z" fill="#D80027"/>
<path d="M11.4784 10.9091H23.9502C23.8827 10.16 23.7471 9.43042 23.5483 8.72734H11.4784V10.9091Z" fill="#D80027"/>
<path d="M0.451652 15.2728H23.5479C23.7467 14.5697 23.8824 13.8401 23.9499 13.091H0.0496521C0.117152 13.8401 0.252808 14.5697 0.451652 15.2728Z" fill="#D80027"/>
<path d="M2.74282 19.6363H21.2569C21.8103 18.9663 22.2923 18.2351 22.6913 17.4545H1.30844C1.70749 18.2352 2.18946 18.9664 2.74282 19.6363Z" fill="#D80027"/>
<path d="M11.9998 24C14.5684 24 16.9482 23.1925 18.9001 21.8182H5.09946C7.05133 23.1925 9.43118 24 11.9998 24Z" fill="#D80027"/>
<path d="M0.451605 8.72728C0.252761 9.43041 0.117152 10.1599 0.0496521 10.9091H11.9998V0C6.50696 0 1.87623 3.69056 0.451605 8.72728Z" fill="#0052B4"/>
<path d="M7.14293 3.13046L7.91988 5.52179H10.4345L8.40025 6.99985L9.17716 9.39132L7.14293 7.91335L5.1086 9.39132L5.88569 6.99985L3.85141 5.52179H6.36593L7.14293 3.13046Z" fill="#F0F0F0"/>
</g>
<defs>
<clipPath id="clip0_7_6551">
<rect width="24" height="24" fill="white"/>
</clipPath>
</defs>
</svg>
