<svg width="24" height="24" viewBox="0 0 24 24" fill="none" xmlns="http://www.w3.org/2000/svg">
<g clip-path="url(#clip0_7_7696)">
<path d="M11.9998 24C18.6273 24 23.9998 18.6274 23.9998 12C23.9998 5.37258 18.6273 0 11.9998 0C5.37243 0 -0.000152588 5.37258 -0.000152588 12C-0.000152588 18.6274 5.37243 24 11.9998 24Z" fill="#F0F0F0"/>
<path d="M3.51435 20.4853C4.01775 20.9887 4.55484 21.4376 5.11823 21.8329L21.8324 5.11863C21.4372 4.55524 20.9883 4.01814 20.4848 3.51475C19.9814 3.01136 19.4443 2.56249 18.881 2.16724L2.16684 18.8815C2.56204 19.4448 3.01096 19.9819 3.51435 20.4853V20.4853Z" fill="#A2001D"/>
<path d="M3.51413 3.51466C-0.271685 7.30047 -0.998435 12.986 1.33233 17.5021L17.5015 1.33295C12.9855 -0.997814 7.29985 -0.27097 3.51413 3.51466V3.51466Z" fill="#0052B4"/>
<path d="M20.4853 20.4852C24.271 16.6995 24.9977 11.0139 22.6671 6.4978L6.49789 22.667C11.0139 24.9977 16.6995 24.271 20.4853 20.4852Z" fill="#496E2D"/>
<path d="M9.91244 6.78256L8.56778 7.41504L9.28385 8.71732L7.82374 8.43804L7.63867 9.91297L6.62167 8.82814L5.60462 9.91297L5.41965 8.43804L3.9595 8.71728L4.67551 7.41499L3.3309 6.78256L4.67556 6.15002L3.9595 4.84783L5.41961 5.12712L5.60467 3.6521L6.62167 4.73698L7.63872 3.6521L7.82374 5.12712L9.28385 4.84783L8.56788 6.15007L9.91244 6.78256Z" fill="#FFDA44"/>
</g>
<defs>
<clipPath id="clip0_7_7696">
<rect width="24" height="24" fill="white"/>
</clipPath>
</defs>
</svg>
