<svg width="24" height="24" viewBox="0 0 24 24" fill="none" xmlns="http://www.w3.org/2000/svg">
<g clip-path="url(#clip0_7_6543)">
<path d="M11.9998 24C18.6273 24 23.9998 18.6274 23.9998 12C23.9998 5.37258 18.6273 0 11.9998 0C5.37243 0 -0.000152588 5.37258 -0.000152588 12C-0.000152588 18.6274 5.37243 24 11.9998 24Z" fill="#F0F0F0"/>
<path d="M-0.000152588 12C-0.000152588 17.1596 3.25635 21.5581 7.82596 23.2537V0.74646C3.25635 2.44193 -0.000152588 6.84049 -0.000152588 12Z" fill="#6DA544"/>
<path d="M23.9998 12C23.9998 6.84049 20.7433 2.44193 16.1737 0.74646V23.2537C20.7433 21.5581 23.9998 17.1596 23.9998 12Z" fill="#6DA544"/>
</g>
<defs>
<clipPath id="clip0_7_6543">
<rect width="24" height="24" fill="white"/>
</clipPath>
</defs>
</svg>
