<svg width="24" height="24" viewBox="0 0 24 24" fill="none" xmlns="http://www.w3.org/2000/svg">
<g clip-path="url(#clip0_7_7743)">
<path d="M1.19057 6.78274C0.427722 8.36037 -0.000152588 10.1302 -0.000152588 12.0001C-0.000152588 13.87 0.427722 15.6399 1.19057 17.2175L11.9998 18.261L22.8091 17.2175C23.572 15.6399 23.9998 13.87 23.9998 12.0001C23.9998 10.1302 23.572 8.36037 22.8091 6.78274L11.9998 5.73926L1.19057 6.78274Z" fill="#F0F0F0"/>
<path d="M1.19125 17.2173C3.13216 21.2312 7.24258 23.9999 12.0001 23.9999C16.7576 23.9999 20.8681 21.2312 22.809 17.2173H1.19125Z" fill="#6DA544"/>
<path d="M1.19125 6.78262H22.809C20.8681 2.76867 16.7576 0 12.0001 0C7.24263 0 3.13216 2.76867 1.19125 6.78262Z" fill="#FF9811"/>
<path d="M11.9999 16.174C14.3051 16.174 16.1738 14.3052 16.1738 12.0001C16.1738 9.69489 14.3051 7.82617 11.9999 7.82617C9.69473 7.82617 7.82602 9.69489 7.82602 12.0001C7.82602 14.3052 9.69473 16.174 11.9999 16.174Z" fill="#FF9811"/>
</g>
<defs>
<clipPath id="clip0_7_7743">
<rect width="24" height="24" fill="white"/>
</clipPath>
</defs>
</svg>
