<svg width="24" height="24" viewBox="0 0 24 24" fill="none" xmlns="http://www.w3.org/2000/svg">
<g clip-path="url(#clip0_7_6638)">
<path d="M-0.00012207 12C-0.00012207 14.0789 0.528768 16.0343 1.45896 17.7392L11.9999 18.7827L22.5408 17.7392C23.471 16.0343 23.9999 14.0789 23.9999 12L11.9999 10.9565L-0.00012207 12Z" fill="#FFDA44"/>
<path d="M22.5408 6.26086C20.5055 2.53073 16.5484 0 11.9999 0C7.45136 0 3.49422 2.53073 1.45896 6.26086C0.528768 7.96575 -0.00012207 9.92109 -0.00012207 12H23.9999C23.9999 9.92109 23.471 7.96575 22.5408 6.26086Z" fill="#338AF3"/>
<path d="M11.9998 24C16.5483 24 20.5054 21.4693 22.5407 17.7391H1.45886C3.49413 21.4693 7.45127 24 11.9998 24Z" fill="#496E2D"/>
<path d="M13.5653 7.02287L15.0309 7.71226L14.2505 9.13163L15.8419 8.82723L16.0435 10.4348L17.1519 9.25243L18.2604 10.4348L18.4621 8.82723L20.0535 9.13154L19.2731 7.71221L20.7386 7.02287L19.273 6.33357L20.0535 4.91419L18.4621 5.2186L18.2604 3.61102L17.1519 4.7934L16.0435 3.61102L15.8419 5.2186L14.2504 4.91419L15.0309 6.33362L13.5653 7.02287Z" fill="#FFDA44"/>
</g>
<defs>
<clipPath id="clip0_7_6638">
<rect width="24" height="24" fill="white"/>
</clipPath>
</defs>
</svg>
