<svg width="24" height="24" viewBox="0 0 24 24" fill="none" xmlns="http://www.w3.org/2000/svg">
<g clip-path="url(#clip0_7_7977)">
<path d="M17.2175 1.19068C15.5907 0.404589 13.8069 -0.00250037 12.0001 1.15543e-05C10.1934 -0.00250037 8.40959 0.404589 6.78279 1.19068L5.74011 12L6.78345 22.8093C8.40999 23.5953 10.1936 24.0024 12.0001 24C13.8069 24.0025 15.5907 23.5955 17.2175 22.8093L18.2601 12L17.2175 1.19068Z" fill="#FFDA44"/>
<path fill-rule="evenodd" clip-rule="evenodd" d="M-0.00012207 12.0001C-0.00012207 7.24273 2.76854 3.13207 6.78254 1.19141V22.8087C2.76854 20.8681 -0.00012207 16.7574 -0.00012207 12.0001V12.0001ZM13.0359 11.0154L11.9999 7.82673L10.9625 11.0147H7.60921L10.3225 12.9854L9.28654 16.1741L11.9999 14.2034L14.7119 16.1747L13.6759 12.9861L16.3892 11.0154H13.0359Z" fill="#496E2D"/>
<path d="M17.2177 1.19141V22.8094C21.2316 20.8681 24.0003 16.7574 24.0003 12.0001C24.0003 7.24273 21.2316 3.13207 17.2177 1.19141V1.19141Z" fill="#D80027"/>
</g>
<defs>
<clipPath id="clip0_7_7977">
<rect width="24" height="24" fill="white"/>
</clipPath>
</defs>
</svg>
