<svg width="24" height="24" viewBox="0 0 24 24" fill="none" xmlns="http://www.w3.org/2000/svg">
<g clip-path="url(#clip0_7_7993)">
<path d="M11.9999 24C18.6273 24 23.9999 18.6274 23.9999 12C23.9999 5.37258 18.6273 0 11.9999 0C5.37246 0 -0.00012207 5.37258 -0.00012207 12C-0.00012207 18.6274 5.37246 24 11.9999 24Z" fill="#F0F0F0"/>
<path d="M20.1004 3.14705C17.9657 1.19273 15.1223 0 12 0C11.4889 0 10.9852 0.0322031 10.4909 0.0942187L4.69568 6.78262L0.379761 15.0061C0.658573 16.0871 1.08485 17.1087 1.63484 18.0491L12 12L20.1004 3.14705Z" fill="#FFDA44"/>
<path d="M21.9902 18.6487L5.20105 21.8887C7.13366 23.22 9.47544 24 11.9997 24C16.1678 24 19.839 21.8746 21.9902 18.6487V18.6487Z" fill="#6DA544"/>
<path d="M20.102 3.14865L1.64154 18.0608C2.1244 18.8843 2.70251 19.6451 3.36096 20.328L23.9999 12C23.9999 8.49568 22.4975 5.3425 20.102 3.14865V3.14865Z" fill="#D80027"/>
<path d="M-0.00012207 12C-0.00012207 13.0381 0.131784 14.0454 0.379612 15.0061L10.4907 0.0942078C4.57572 0.836426 -0.00012207 5.88374 -0.00012207 12Z" fill="#0052B4"/>
</g>
<defs>
<clipPath id="clip0_7_7993">
<rect width="24" height="24" fill="white"/>
</clipPath>
</defs>
</svg>
