<svg width="24" height="24" viewBox="0 0 24 24" fill="none" xmlns="http://www.w3.org/2000/svg">
<g clip-path="url(#clip0_7_7999)">
<path d="M23.2535 16.1739C23.7359 14.8739 23.9999 13.4678 23.9999 12C23.9999 10.5322 23.7359 9.12609 23.2535 7.82611L11.9999 6.78262L0.746269 7.82611C0.263878 9.12609 -0.00012207 10.5322 -0.00012207 12C-0.00012207 13.4678 0.263878 14.8739 0.746269 16.1739L11.9999 17.2174L23.2535 16.1739Z" fill="#F0F0F0"/>
<path d="M11.9996 24.0001C17.1592 24.0001 21.5577 20.7436 23.2532 16.174H0.745972C2.44153 20.7436 6.84 24.0001 11.9996 24.0001Z" fill="#338AF3"/>
<path d="M11.9996 0C6.84 0 2.44153 3.2565 0.745972 7.82611H23.2532C21.5577 3.2565 17.1592 0 11.9996 0Z" fill="#6DA544"/>
</g>
<defs>
<clipPath id="clip0_7_7999">
<rect width="24" height="24" fill="white"/>
</clipPath>
</defs>
</svg>
