<svg width="24" height="24" viewBox="0 0 24 24" fill="none" xmlns="http://www.w3.org/2000/svg">
<g clip-path="url(#clip0_7_8028)">
<path d="M20.4852 20.4856C24.9857 15.9851 25.1634 8.79988 21.0202 4.08618L11.9996 11.9999L4.08582 21.0206C8.79951 25.1638 15.9847 24.9861 20.4852 20.4856V20.4856Z" fill="#496E2D"/>
<path d="M3.51427 3.5144C8.01477 -0.986105 15.2 -1.16381 19.9137 2.97941L11.9998 12.0001L2.97933 19.9138C-1.16394 15.2001 -0.986189 8.0149 3.51427 3.5144V3.5144Z" fill="#0052B4"/>
<path d="M19.9137 2.97937L2.97937 19.9138C3.15056 20.1085 3.32831 20.2996 3.51435 20.4856C3.70035 20.6716 3.89146 20.8493 4.08627 21.0206L21.0205 4.08618C20.8494 3.89137 20.6716 3.70031 20.4855 3.51426C20.2996 3.32835 20.1085 3.15056 19.9137 2.97937V2.97937Z" fill="#FFDA44"/>
<path d="M5.05606 4.17358L5.31514 4.97079H6.15331L5.47522 5.46339L5.7342 6.2606L5.05606 5.76789L4.37792 6.2606L4.637 5.46339L3.95886 4.97079H4.79708L5.05606 4.17358Z" fill="#F0F0F0"/>
<path d="M9.33731 4.17358L9.59639 4.97079H10.4345L9.75642 5.46339L10.0155 6.2606L9.33731 5.76789L8.65917 6.2606L8.91825 5.46339L8.24011 4.97079H9.07828L9.33731 4.17358Z" fill="#F0F0F0"/>
<path d="M5.05606 8.34766L5.31514 9.14486H6.15331L5.47522 9.63751L5.7342 10.4347L5.05606 9.94201L4.37792 10.4347L4.637 9.63751L3.95886 9.14486H4.79708L5.05606 8.34766Z" fill="#F0F0F0"/>
<path d="M9.33731 8.34766L9.59639 9.14486H10.4345L9.75642 9.63751L10.0155 10.4347L9.33731 9.94201L8.65917 10.4347L8.91825 9.63751L8.24011 9.14486H9.07828L9.33731 8.34766Z" fill="#F0F0F0"/>
<path d="M7.19674 6.26062L7.45581 7.05782H8.29394L7.61584 7.55048L7.87487 8.34768L7.19674 7.85498L6.5186 8.34768L6.77763 7.55048L6.09949 7.05782H6.9377L7.19674 6.26062Z" fill="#F0F0F0"/>
</g>
<defs>
<clipPath id="clip0_7_8028">
<rect width="24" height="24" fill="white"/>
</clipPath>
</defs>
</svg>
