<svg width="24" height="24" viewBox="0 0 24 24" fill="none" xmlns="http://www.w3.org/2000/svg">
<path d="M11.9998 24C18.6271 24 23.9997 18.6274 23.9997 12C23.9997 5.37257 18.6271 0 11.9998 0C5.37244 0 -9.15527e-05 5.37257 -9.15527e-05 12C-9.15527e-05 18.6274 5.37244 24 11.9998 24Z" fill="#F0F0F0"/>
<path d="M3.51455 20.4853C-1.17168 15.799 -1.17168 8.201 3.51455 3.51468C3.51423 3.51519 10.4346 12 10.4346 12L3.51455 20.4853Z" fill="black"/>
<path d="M10.4339 12L1.59076 6.02404C1.31659 6.50062 1.07481 6.99805 0.867065 7.51293L5.34401 12L0.867206 16.4874C1.07477 17.0019 1.31631 17.499 1.59029 17.9752L10.4339 12Z" fill="#FFDA44"/>
<path d="M23.8988 10.4348H10.435L3.51516 3.51488C2.76948 4.26057 2.12162 5.1039 1.59213 6.0241L7.5564 12L1.59166 17.9751C2.12115 18.8956 2.76929 19.7392 3.51516 20.4851L10.435 13.5652H23.8988C23.9655 13.0529 24.0004 12.5305 24.0004 12C24.0004 11.4695 23.9655 10.9471 23.8988 10.4348Z" fill="#6DA544"/>
<path d="M4.69319 21.5192C6.71672 23.0746 9.24968 24 11.9992 24C17.5434 24 22.2087 20.2396 23.5856 15.1305H11.082L4.69319 21.5192Z" fill="#0052B4"/>
<path d="M23.5856 8.86953C22.2087 3.76035 17.5434 0 11.9992 0C9.24968 0 6.71672 0.925358 4.69319 2.48076L11.0819 8.86953H23.5856Z" fill="#D80027"/>
</svg>
