<svg width="24" height="24" viewBox="0 0 24 24" fill="none" xmlns="http://www.w3.org/2000/svg">
<path d="M1.1906 6.78274C0.427753 8.36037 -0.00012207 10.1302 -0.00012207 12.0001C-0.00012207 13.87 0.427753 15.6399 1.1906 17.2175L11.9999 18.261L22.8091 17.2175C23.572 15.6399 23.9999 13.87 23.9999 12.0001C23.9999 10.1302 23.572 8.36037 22.8091 6.78274L11.9999 5.73926L1.1906 6.78274Z" fill="#F0F0F0"/>
<path d="M1.19128 17.2173C3.13219 21.2313 7.24261 24 12.0001 24C16.7577 24 20.8681 21.2313 22.809 17.2173H1.19128Z" fill="black"/>
<path d="M1.19128 6.78263H22.809C20.8681 2.76867 16.7577 0 12.0001 0C7.24261 0 3.13219 2.76867 1.19128 6.78263Z" fill="#D80027"/>
<path d="M3.51459 3.51469C-1.17169 8.20098 -1.17169 15.799 3.51459 20.4853C5.45113 18.5488 7.31361 16.6863 11.9999 12L3.51459 3.51469Z" fill="#496E2D"/>
</svg>
