<svg width="24" height="24" viewBox="0 0 24 24" fill="none" xmlns="http://www.w3.org/2000/svg">
<g clip-path="url(#clip0_7_8102)">
<path d="M11.9999 24C18.6273 24 23.9999 18.6274 23.9999 12C23.9999 5.37258 18.6273 0 11.9999 0C5.37246 0 -0.00012207 5.37258 -0.00012207 12C-0.00012207 18.6274 5.37246 24 11.9999 24Z" fill="#FFDA44"/>
<path d="M12.0002 0C11.9915 9.375e-05 11.4785 4.8 11.4785 4.8H21.6008C19.4115 1.88545 15.9261 0 12.0002 0Z" fill="#496E2D"/>
<path d="M11.9999 24C15.9258 24 19.4112 22.1146 21.6004 19.2H2.39937C4.58862 22.1146 8.07401 24 11.9999 24Z" fill="#496E2D"/>
<path d="M23.7599 9.59998H11.4785L12.0002 14.4H23.7599C23.9174 13.6245 24.0002 12.8219 24.0002 12C24.0002 11.178 23.9173 10.3754 23.7599 9.59998V9.59998Z" fill="#496E2D"/>
<path d="M11.9999 14.4C11.9999 11.8957 11.9999 2.81738 11.9999 0C5.3725 0 -0.00012207 5.37262 -0.00012207 12C-0.00012207 12.822 0.0827529 13.6245 0.240159 14.4H11.9999Z" fill="#D80027"/>
<path d="M6.62142 5.73914L7.39842 8.13046H9.91303L7.8788 9.60857L8.65571 12L6.62142 10.522L4.58714 12L5.36419 9.60857L3.32996 8.13046H5.84447L6.62142 5.73914Z" fill="#F0F0F0"/>
</g>
<defs>
<clipPath id="clip0_7_8102">
<rect width="24" height="24" fill="white"/>
</clipPath>
</defs>
</svg>
