<svg width="24" height="24" viewBox="0 0 24 24" fill="none" xmlns="http://www.w3.org/2000/svg">
<g clip-path="url(#clip0_7_8129)">
<path d="M11.9999 24C18.6273 24 23.9999 18.6274 23.9999 12C23.9999 5.37258 18.6273 0 11.9999 0C5.37246 0 -0.00012207 5.37258 -0.00012207 12C-0.00012207 18.6274 5.37246 24 11.9999 24Z" fill="#D80027"/>
<path d="M11.9999 17.7394C15.1696 17.7394 17.7392 15.1698 17.7392 12.0001C17.7392 8.83033 15.1696 6.26074 11.9999 6.26074C8.83015 6.26074 6.26054 8.83033 6.26054 12.0001C6.26054 15.1698 8.83015 17.7394 11.9999 17.7394V17.7394Z" fill="#F0F0F0"/>
<path fill-rule="evenodd" clip-rule="evenodd" d="M9.91273 11.9999C9.91753 13.8699 11.4341 15.3835 13.3041 15.3846L13.3034 15.3906C13.8668 15.3915 14.4215 15.2512 14.9167 14.9826C14.1379 15.7465 13.0903 16.1738 11.9994 16.1726C10.5084 16.1726 9.13067 15.3772 8.3852 14.0859C7.63967 12.7947 7.63967 11.2039 8.3852 9.91261C9.13067 8.62141 10.5084 7.82595 11.9994 7.82595C13.0895 7.82268 14.1373 8.24735 14.9174 9.00861C14.4374 8.75528 13.8881 8.60861 13.3041 8.60861C11.4315 8.60975 9.9138 10.1275 9.91273 11.9999V11.9999ZM13.6907 11.1566L12.7061 9.79995L12.6927 11.4759L11.0981 11.9933L12.6981 12.5119L12.6967 14.1879L13.6834 12.8326L15.2834 13.3513L14.2987 11.9946L15.2854 10.6393L13.6907 11.1566Z" fill="#D80027"/>
</g>
<defs>
<clipPath id="clip0_7_8129">
<rect width="24" height="24" fill="white"/>
</clipPath>
</defs>
</svg>
