<svg width="24" height="24" viewBox="0 0 24 24" fill="none" xmlns="http://www.w3.org/2000/svg">
<g clip-path="url(#clip0_7_6689)">
<path d="M11.9999 24C18.6273 24 23.9999 18.6274 23.9999 12C23.9999 5.37258 18.6273 0 11.9999 0C5.37246 0 -0.00012207 5.37258 -0.00012207 12C-0.00012207 18.6274 5.37246 24 11.9999 24Z" fill="#496E2D"/>
<path d="M16.6955 12H11.9999V24C13.4026 24 14.7487 23.7585 15.9999 23.3163L16.6955 12Z" fill="#D80027"/>
<path d="M20.0002 20.9434C22.4549 18.7462 24.0002 15.5537 24.0002 12H19.3046L20.0002 20.9434Z" fill="#FF9811"/>
<path d="M15.9999 12V23.3163C17.4903 22.7894 18.8457 21.9766 19.9999 20.9435V12H15.9999Z" fill="black"/>
<path d="M22.1739 7.82608H19.0435C19.0435 7.2498 18.5763 6.78259 18 6.78259C17.4237 6.78259 16.9565 7.2498 16.9565 7.82608H13.826C13.826 8.40241 14.328 8.86956 14.9043 8.86956H14.8695C14.8695 9.44589 15.3366 9.91305 15.913 9.91305C15.913 10.4894 16.3801 10.9565 16.9565 10.9565H19.0435C19.6198 10.9565 20.087 10.4894 20.087 9.91305C20.6632 9.91305 21.1304 9.44589 21.1304 8.86956H21.0957C21.672 8.86951 22.1739 8.40236 22.1739 7.82608Z" fill="#FF9811"/>
</g>
<defs>
<clipPath id="clip0_7_6689">
<rect width="24" height="24" fill="white"/>
</clipPath>
</defs>
</svg>
